<svg width="20" height="30" viewBox="0 0 20 30" fill="none" xmlns="http://www.w3.org/2000/svg">
<path d="M9.9455 7.2854C8.6447 7.2854 7.58594 8.34385 7.58594 9.64465C7.58594 10.9455 8.64439 12.0036 9.9455 12.0036C11.246 12.0036 12.3041 10.9458 12.3041 9.64465C12.3041 8.34416 11.246 7.2854 9.9455 7.2854Z" fill="#FFF112"/>
<path d="M9.94466 0C4.45226 0 0 4.45257 0 9.94497C0 15.4374 9.94466 30 9.94466 30C9.94466 30 19.8896 15.4374 19.8896 9.94497C19.8896 4.45257 15.4371 0 9.94466 0ZM9.94528 15.0368C6.97194 15.0368 4.55311 12.6173 4.55311 9.6446C4.55311 6.67125 6.97194 4.25242 9.94528 4.25242C12.9183 4.25242 15.3371 6.67125 15.3371 9.6446C15.3371 12.6173 12.918 15.0368 9.94528 15.0368Z" fill="#027439"/>
</svg>
