<svg width="40" height="40" viewBox="0 0 40 40" fill="none" xmlns="http://www.w3.org/2000/svg">
<path d="M0 20C0 31.028 8.972 40 20 40C31.028 40 40 31.028 40 20C40 8.972 31.028 0 20 0C15.784 0 11.7904 1.2968 8.3904 3.7312L5.956 1.2968C5.5344 0.878401 4.94 0.709602 4.3624 0.846401C3.7872 0.980801 3.3312 1.3992 3.144 1.9624L0.937603 8.584C0.621603 9.5216 0.862404 10.5368 1.5624 11.2368C2.056 11.7336 2.7152 11.996 3.3904 11.996C3.6656 11.996 3.9432 11.952 4.2152 11.8616L10.8368 9.6552C11.3992 9.468 11.8184 9.0112 11.9528 8.4368C12.0904 7.8584 11.9216 7.2616 11.5024 6.8432L9.5368 4.8776C12.6184 2.7408 16.2128 1.6 20 1.6C30.1472 1.6 38.4 9.8528 38.4 20C38.4 30.1472 30.1472 38.4 20 38.4C9.8528 38.4 1.6 30.1472 1.6 20L0 20ZM10.372 7.9752C10.3816 7.9848 10.4096 8.016 10.3968 8.0688C10.384 8.1216 10.3464 8.1344 10.3312 8.1376L3.7096 10.3472C3.3472 10.4656 2.9656 10.3784 2.6936 10.1064C2.4216 9.8344 2.3312 9.4536 2.4528 9.0904L4.66239 2.4688C4.66559 2.4528 4.67839 2.41599 4.7312 2.40319C4.7408 2.39999 4.7504 2.39999 4.75919 2.39999C4.79679 2.39999 4.81519 2.42159 4.82479 2.42799L10.372 7.9752Z" fill="#2C47F0"/>
<path d="M20 35.2V36.8C29.2624 36.8 36.8 29.2624 36.8 20H35.2C35.2 28.3816 28.3816 35.2 20 35.2Z" fill="#F25929"/>
<path d="M16.5336 13.5999H11.8672C11.4984 13.5999 11.2 13.8895 11.2 14.2471V15.3287C11.2 15.6863 11.4984 15.9759 11.8664 15.9759L16.8 15.9999V19.0431L13.228 19.8119C12.036 20.0959 11.2 21.1175 11.2 22.2895V23.8463C11.2 25.2567 12.3984 26.3999 13.8768 26.3999H18.536C18.9024 26.3999 19.2 26.1103 19.2 25.7535V24.6471C19.2 24.2895 18.9024 23.9999 18.536 23.9999H13.6V22.2359L17.1888 21.4319C18.3704 21.1447 19.2 20.1095 19.2 18.9223V16.1871C19.2 14.7583 18.0064 13.5999 16.5336 13.5999H16.5336Z" fill="#F25929"/>
<path d="M28.1601 13.5999H27.0401C26.6865 13.5999 26.4001 13.8863 26.4001 14.2399V19.6407L24.0001 19.0007V14.2399C24.0001 13.8863 23.7137 13.5999 23.3601 13.5999H22.2401C21.8865 13.5999 21.6001 13.8863 21.6001 14.2399V19.0327C21.6001 20.1927 22.3801 21.2071 23.5001 21.5063L26.4001 22.2791V25.7599C26.4001 26.1135 26.6865 26.3999 27.0401 26.3999H28.1601C28.5137 26.3999 28.8001 26.1135 28.8001 25.7599V14.2399C28.8001 13.8863 28.5137 13.5999 28.1601 13.5999Z" fill="#F25929"/>
</svg>
