<svg width="76" height="76" viewBox="0 0 76 76" fill="none" xmlns="http://www.w3.org/2000/svg">
<path d="M38 0C17.0132 0 0 17.0132 0 38C0 58.9868 17.0132 76 38 76C58.9868 76 76 58.9868 76 38C76 17.0132 58.9868 0 38 0Z" fill="#353E60"/>
<path d="M24 40.5V40C24 38.8954 24.8954 38 26 38H41.5C42.6046 38 43.5 38.8954 43.5 40V40.5C43.5 41.6046 42.6046 42.5 41.5 42.5H26C24.8954 42.5 24 41.6046 24 40.5Z" fill="#F25929"/>
<path d="M28.75 54.5H25.75C24.7835 54.5 24 53.7165 24 52.75C24 51.7835 24.7835 51 25.75 51H28.75C29.7165 51 30.5 51.7835 30.5 52.75C30.5 53.7165 29.7165 54.5 28.75 54.5Z" fill="#F25929"/>
<path d="M34.75 54.5H32.75C31.7835 54.5 31 53.7165 31 52.75C31 51.7835 31.7835 51 32.75 51H34.75C35.7165 51 36.5 51.7835 36.5 52.75C36.5 53.7165 35.7165 54.5 34.75 54.5Z" fill="#F25929"/>
<path d="M41.75 54.5H39.75C38.7835 54.5 38 53.7165 38 52.75C38 51.7835 38.7835 51 39.75 51H41.75C42.7165 51 43.5 51.7835 43.5 52.75C43.5 53.7165 42.7165 54.5 41.75 54.5Z" fill="#F25929"/>
<path d="M41.36 37.32H39.32C38.57 37.32 37.96 36.71 37.96 35.96V24.4C37.96 22.5252 36.4348 21 34.56 21H33.2C31.3252 21 29.8 22.5252 29.8 24.4V35.96C29.8 36.71 29.19 37.32 28.44 37.32H26.4C24.5252 37.32 23 38.8452 23 40.72V41.4V42.76V50.92C23 53.1701 24.8299 55 27.08 55C28.4978 55 29.7483 54.2738 30.48 53.1728C31.2117 54.2738 32.4622 55 33.88 55C35.2978 55 36.5483 54.2738 37.28 53.1728C38.0117 54.2738 39.2622 55 40.68 55C42.9301 55 44.76 53.1701 44.76 50.92V42.76V41.4V40.72C44.76 38.8452 43.2348 37.32 41.36 37.32ZM33.2 22.36H34.56C35.6847 22.36 36.6 23.2753 36.6 24.4V34.6H31.16V24.4C31.16 23.2753 32.0753 22.36 33.2 22.36ZM31.16 35.96H36.6C36.6 36.4578 36.7442 36.9181 36.9781 37.32H30.7819C31.0158 36.9181 31.16 36.4578 31.16 35.96ZM43.4 50.92C43.4 52.4201 42.1801 53.64 40.68 53.64C39.1799 53.64 37.96 52.4201 37.96 50.92V49.56H36.6V50.92C36.6 52.4201 35.3801 53.64 33.88 53.64C32.3799 53.64 31.16 52.4201 31.16 50.92V49.56H29.8V50.92C29.8 52.4201 28.5801 53.64 27.08 53.64C25.5799 53.64 24.36 52.4201 24.36 50.92V42.76H26.4V45.48H27.76V42.76H29.8V44.12H31.16V42.76H33.2V45.48H34.56V42.76H36.6V44.12H37.96V42.76H40V45.48H41.36V42.76H43.4V50.92ZM24.36 41.4V40.72C24.36 39.5953 25.2753 38.68 26.4 38.68H41.36C42.4847 38.68 43.4 39.5953 43.4 40.72V41.4H24.36Z" fill="white"/>
<path d="M47.48 38.6799H50.2V40.0399H47.48V38.6799Z" fill="white"/>
<path d="M47.48 41.3999H52.92V42.7599H47.48V41.3999Z" fill="white"/>
<path d="M48.84 44.1201H55.64V45.4801H48.84V44.1201Z" fill="white"/>
<path d="M50.2 46.8401H58.36V48.2001H50.2V46.8401Z" fill="white"/>
<path d="M52.629 30.1494L52.9112 31.3782C53.0472 31.9698 53.5096 32.4322 54.1012 32.5682L55.33 32.8504C55.7427 32.9449 55.7427 33.5331 55.33 33.6276L54.1012 33.9098C53.5096 34.0458 53.0472 34.5082 52.9112 35.0998L52.629 36.3286C52.5345 36.7413 51.9463 36.7413 51.8518 36.3286L51.5696 35.0998C51.4336 34.5082 50.9712 34.0458 50.3796 33.9098L49.1508 33.6276C48.7381 33.5331 48.7381 32.9449 49.1508 32.8504L50.3796 32.5682C50.9712 32.4322 51.4336 31.9698 51.5696 31.3782L51.8518 30.1494C51.9463 29.7367 52.5338 29.7367 52.629 30.1494L52.629 30.1494Z" fill="#F25929"/>
<path d="M45.149 24.7095L45.4312 25.9382C45.5672 26.5298 46.0296 26.9922 46.6212 27.1282L47.8499 27.4104C48.2627 27.5049 48.2627 28.0931 47.8499 28.1877L46.6212 28.4699C46.0296 28.6059 45.5672 29.0683 45.4312 29.6599L45.149 30.8886C45.0545 31.3014 44.4663 31.3014 44.3717 30.8886L44.0895 29.6599C43.9535 29.0683 43.4911 28.6059 42.8995 28.4699L41.6708 28.1877C41.258 28.0931 41.258 27.5049 41.6708 27.4104L42.8995 27.1282C43.4911 26.9922 43.9535 26.5298 44.0895 25.9382L44.3717 24.7095C44.4663 24.2967 45.0538 24.2967 45.149 24.7095L45.149 24.7095Z" fill="#F25929"/>
</svg>
