<svg width="36" height="36" viewBox="0 0 36 36" xmlns="http://www.w3.org/2000/svg">
<rect width="36" height="36" rx="4"/>
<path fill-rule="evenodd" clip-rule="evenodd" d="M18.7947 23.8382C18.7947 23.8382 19.1758 23.7966 19.3711 23.5908C19.5498 23.4022 19.5436 23.0463 19.5436 23.0463C19.5436 23.0463 19.5198 21.3844 20.3059 21.139C21.0807 20.8976 22.0754 22.7461 23.1311 23.4569C23.9286 23.9943 24.5339 23.8767 24.5339 23.8767L27.355 23.8382C27.355 23.8382 28.8301 23.7489 28.1307 22.6102C28.0729 22.517 27.7227 21.7676 26.0338 20.2284C24.2643 18.6172 24.5019 18.8778 26.6319 16.0904C27.9293 14.393 28.4479 13.3568 28.2857 12.9137C28.1318 12.4898 27.1773 12.6024 27.1773 12.6024L24.0019 12.6216C24.0019 12.6216 23.7664 12.5902 23.5918 12.6926C23.4214 12.793 23.3109 13.0272 23.3109 13.0272C23.3109 13.0272 22.8088 14.3403 22.1384 15.4577C20.7243 17.8142 20.1592 17.9389 19.9278 17.7929C19.3897 17.4512 19.524 16.422 19.524 15.6909C19.524 13.4064 19.8772 12.4543 18.837 12.2079C18.492 12.1258 18.2379 12.0721 17.3547 12.0629C16.2215 12.0518 15.2629 12.067 14.7196 12.3276C14.358 12.501 14.0791 12.8883 14.2496 12.9106C14.4593 12.938 14.9344 13.0363 15.1865 13.373C15.5119 13.808 15.5005 14.7834 15.5005 14.7834C15.5005 14.7834 15.6875 17.4725 15.0635 17.8061C14.6359 18.0352 14.0492 17.5678 12.7879 15.4293C12.1423 14.3342 11.6547 13.1235 11.6547 13.1235C11.6547 13.1235 11.5607 12.8974 11.3923 12.7758C11.1888 12.6287 10.9048 12.5831 10.9048 12.5831L7.88743 12.6024C7.88743 12.6024 7.43396 12.6145 7.26765 12.8082C7.11993 12.9796 7.25628 13.3355 7.25628 13.3355C7.25628 13.3355 9.61871 18.7612 12.2941 21.4959C14.7475 24.0024 17.5324 23.8382 17.5324 23.8382H18.7947Z" fill="#2B2F3E"/>
</svg>
