<svg width="18" fill="none" height="21" viewBox="0 0 18 21" xmlns="http://www.w3.org/2000/svg">
<path d="M17 8.66669C17 14.8889 9 20.2222 9 20.2222C9 20.2222 1 14.8889 1 8.66669C1 6.54496 1.84285 4.51012 3.34315 3.00983C4.84344 1.50954 6.87827 0.666687 9 0.666687C11.1217 0.666687 13.1566 1.50954 14.6569 3.00983C16.1571 4.51012 17 6.54496 17 8.66669Z" stroke-linecap="round" stroke-linejoin="round"/>
<path d="M9.00004 11.3333C10.4728 11.3333 11.6667 10.1394 11.6667 8.66667C11.6667 7.19391 10.4728 6 9.00004 6C7.52728 6 6.33337 7.19391 6.33337 8.66667C6.33337 10.1394 7.52728 11.3333 9.00004 11.3333Z" stroke-linecap="round" stroke-linejoin="round"/>
</svg>
