<svg width="154" height="50" viewBox="0 0 154 50" fill="none" xmlns="http://www.w3.org/2000/svg">
<path d="M145.172 30.7692H3.92357C1.75664 30.7692 0 32.5259 0 34.6928V42.2303C0 44.3972 1.75663 46.1538 3.92356 46.1538H145.172C147.339 46.1538 149.096 44.3972 149.096 42.2303V34.6928C149.096 32.5259 147.339 30.7692 145.172 30.7692Z" fill="#2D3786"/>
<path d="M33.3503 3.37085H33.0523V3.6689V22.9833V23.2813H33.3503H41.7166C44.5369 23.2813 46.4958 22.6497 47.7208 20.9414C48.923 19.2647 49.365 16.6145 49.365 12.7326C49.365 9.37675 48.9034 7.02131 47.7185 5.50765C46.5168 3.97249 44.6294 3.37085 41.9719 3.37085H33.3503ZM37.5003 7.53376H41.7166C43.0372 7.53376 43.7465 7.73648 44.1855 8.45533C44.4186 8.83708 44.5913 9.38862 44.7032 10.1923C44.8149 10.9936 44.8633 12.0228 44.8633 13.3447C44.8633 14.6596 44.8058 15.6812 44.6739 16.4751C44.5417 17.2702 44.3385 17.8141 44.0638 18.1914C43.5328 18.9205 42.6569 19.1282 41.0733 19.1282H37.5003V7.53376Z" fill="#3F476B" stroke="#3F476B" stroke-width="0.596096" stroke-miterlimit="10"/>
<path d="M56.2446 14.722V14.424H55.9465H52.2585H51.9605V14.722V16.7239C51.9605 19.087 52.3534 20.7756 53.3842 21.8643C54.4194 22.9576 56.0293 23.375 58.2746 23.375C60.5373 23.375 62.1894 22.9273 63.2669 21.8284C64.3429 20.731 64.7807 19.05 64.7807 16.7461V2.88462V2.58657H64.4826H60.5614H60.2634V2.88462V16.7704C60.2634 17.298 60.2367 17.7065 60.1733 18.0244C60.1102 18.3408 60.0145 18.5478 59.8905 18.6902C59.6473 18.9697 59.2058 19.1004 58.2746 19.1004C57.2392 19.1004 56.7969 18.9578 56.5697 18.682C56.4534 18.5407 56.3683 18.3352 56.3152 18.0173C56.2618 17.6983 56.2446 17.2925 56.2446 16.7704V14.722Z" fill="#3F476B" stroke="#3F476B" stroke-width="0.596096" stroke-miterlimit="10"/>
<path d="M75.6741 10.7617L75.6731 10.7617C74.6648 10.6989 73.9211 10.6233 73.3707 10.5206C72.8159 10.4171 72.4886 10.291 72.2894 10.1475C72.1067 10.0157 72.0145 9.85693 71.964 9.62421C71.9091 9.37118 71.9076 9.05364 71.9076 8.60957C71.9076 8.03511 71.9766 7.57238 72.3384 7.23227C72.7117 6.88134 73.4657 6.59604 75.0205 6.59604C75.7032 6.59604 76.2329 6.62399 76.6459 6.69575C77.0587 6.76748 77.331 6.87917 77.5178 7.02895C77.8792 7.31864 78.0278 7.84029 78.0278 8.94751V9.20147V9.49951H78.3258H82.1125H82.4106V9.20147V8.20565C82.4106 5.92463 81.6648 4.48239 80.3011 3.63549C78.9712 2.80963 77.1059 2.58657 74.952 2.58657C72.4432 2.58657 70.5434 3.04297 69.2674 4.04357C67.9758 5.05633 67.3761 6.58325 67.3761 8.59158C67.3761 10.9543 68.027 12.4872 69.3063 13.4538C70.5603 14.4013 72.3644 14.7594 74.5559 14.9237C75.4185 14.9885 76.0988 15.0612 76.6355 15.1588C77.1745 15.2568 77.5484 15.3766 77.8096 15.5248C78.0615 15.6678 78.2095 15.8374 78.3013 16.0528C78.3977 16.2791 78.4407 16.576 78.4407 16.986C78.4407 17.8427 78.3047 18.3431 77.8904 18.6641C77.4459 19.0083 76.611 19.2075 75.0205 19.2075C74.2295 19.2075 73.6278 19.1953 73.1633 19.1351C72.6978 19.0748 72.4101 18.9705 72.2195 18.8169C72.0366 18.6694 71.9062 18.4461 71.8232 18.0617C71.7387 17.6706 71.7099 17.1438 71.7099 16.4221V16.1682V15.8701H71.4119H67.6761H67.378V16.1682V17.194C67.378 19.9781 68.235 21.569 69.6899 22.4315C71.104 23.2697 73.0218 23.375 75.0225 23.375C78.2062 23.375 80.1858 22.836 81.3561 21.6762C82.53 20.5127 82.8157 18.7973 82.8157 16.6621C82.8157 14.4457 82.1637 13.0086 80.8877 12.109C79.6416 11.2305 77.8505 10.9049 75.6741 10.7617Z" fill="#3F476B" stroke="#3F476B" stroke-width="0.596096" stroke-miterlimit="10"/>
<path d="M85.0396 6.79761V7.09565H85.3376H90.3937V22.7844V23.0825H90.6918H94.6989H94.9969V22.7844V7.09565H100.051H100.349V6.79761V3.1766V2.87855H100.051H85.3376H85.0396V3.1766V6.79761Z" fill="#3F476B" stroke="#3F476B" stroke-width="0.596096" stroke-miterlimit="10"/>
<path d="M110.719 2.58657C107.623 2.58657 105.535 3.10558 104.253 4.68969C102.988 6.25152 102.573 8.77484 102.573 12.5748C102.573 14.7633 102.655 16.5309 102.885 17.9491C103.114 19.3667 103.495 20.4596 104.108 21.2805C105.35 22.942 107.456 23.375 110.719 23.375C113.893 23.375 115.995 22.8628 117.263 21.1698C117.89 20.3333 118.293 19.2338 118.541 17.8284C118.789 16.4229 118.886 14.6913 118.886 12.5748C118.886 8.81685 118.45 6.29529 117.174 4.72312C115.88 3.1297 113.79 2.58657 110.719 2.58657ZM110.719 19.1395C109.879 19.1395 109.253 19.111 108.773 18.9866C108.309 18.8666 107.998 18.6615 107.769 18.3055C107.53 17.9327 107.364 17.3686 107.263 16.4954C107.163 15.6265 107.129 14.4857 107.129 12.9828C107.129 11.4213 107.167 10.2517 107.274 9.37279C107.381 8.48903 107.553 7.93557 107.795 7.5797C108.024 7.24129 108.334 7.05526 108.796 6.9514C109.276 6.84366 109.894 6.83 110.719 6.83C111.529 6.83 112.141 6.84489 112.62 6.95399C113.082 7.05927 113.396 7.24741 113.631 7.58887C113.877 7.94667 114.055 8.50129 114.167 9.38301C114.279 10.2603 114.322 11.4269 114.322 12.9828C114.322 14.4752 114.285 15.6106 114.18 16.4771C114.075 17.3475 113.905 17.9135 113.661 18.2895C113.428 18.6497 113.112 18.8586 112.649 18.9814C112.17 19.1085 111.548 19.1395 110.719 19.1395Z" fill="#3F476B" stroke="#3F476B" stroke-width="0.596096" stroke-miterlimit="10"/>
<path d="M121.779 3.37085H121.481V3.6689V22.9833V23.2813H121.779H125.66H125.959V22.9833V16.9749H130.107C130.914 16.9749 131.417 17.1365 131.723 17.421C132.024 17.7008 132.193 18.1571 132.193 18.8963V22.9833V23.2813H132.492H136.384H136.682V22.9833V18.5893C136.682 17.5415 136.492 16.6657 136.088 15.987C135.797 15.5 135.403 15.1257 134.913 14.8655C135.702 14.3887 136.19 13.6762 136.485 12.875C136.846 11.8913 136.921 10.7642 136.921 9.74852C136.921 7.6102 136.453 5.9974 135.398 4.9232C134.341 3.84785 132.753 3.37085 130.648 3.37085H121.779ZM125.959 7.53376H130.243C131.159 7.53376 131.651 7.70712 131.94 8.06006C132.245 8.4327 132.393 9.08252 132.393 10.2257C132.393 11.2468 132.213 11.8774 131.874 12.257C131.543 12.6276 131.002 12.8237 130.107 12.8237H125.959V7.53376Z" fill="#3F476B" stroke="#3F476B" stroke-width="0.596096" stroke-miterlimit="10"/>
<path d="M152.038 7.4575H152.336V7.15945V3.6689V3.37085H152.038H139.814H139.516V3.6689V22.9833V23.2813H139.814H152.038H152.336V22.9833V19.4986V19.2005H152.038H143.897V15.2423H151.648H151.946V14.9443V11.4596V11.1615H151.648H143.897V7.4575H152.038Z" fill="#3F476B" stroke="#3F476B" stroke-width="0.596096" stroke-miterlimit="10"/>
<path d="M27.465 13.4615C27.465 20.8962 21.3147 26.9231 13.7303 26.9231C6.14813 26.9231 0 20.8962 0 13.4615C0 6.02683 6.14813 0 13.7303 0C21.3147 0 27.465 6.02683 27.465 13.4615Z" fill="#397DFF"/>
<path d="M21.5776 18.8955C21.5817 19.6049 20.936 20.1849 20.1529 20.1849L7.32033 20.1923C6.53315 20.1923 5.88948 19.6123 5.88948 18.9047L5.88538 18.249C5.88538 17.5415 6.5311 16.9614 7.31623 16.9614L20.1488 16.9559C20.936 16.9559 21.5796 17.5359 21.5796 18.2434V18.8955H21.5776ZM20.0504 14.9885C20.8355 14.9885 21.1287 14.5027 20.7043 13.906L14.5012 5.25519C14.0748 4.65852 13.3779 4.65852 12.9515 5.25519L6.7607 13.9097C6.33431 14.5064 6.6254 14.9922 7.41667 14.9922L20.0504 14.9885Z" fill="white"/>
<path d="M148.115 34.6154H8.82805C6.66112 34.6154 4.90448 36.372 4.90448 38.5389V46.0764C4.90448 48.2433 6.66113 50 8.82805 50H148.115C150.282 50 152.038 48.2433 152.038 46.0764V38.5389C152.038 36.372 150.282 34.6154 148.115 34.6154Z" fill="#397DFF"/>
<path d="M37.3621 39.3887H38.3332V44.6855L42.3941 39.3887H43.2965V46.2549H42.3353V40.9679L38.2646 46.2549H37.3621V39.3887ZM51.4403 39.3887V46.2549H50.4594V43.1945H46.5162V46.2549H45.5353V39.3887H46.5162V42.3411H50.4594V39.3887H51.4403ZM56.75 46.3334C56.0634 46.3334 55.4421 46.183 54.8863 45.8822C54.337 45.5748 53.9054 45.1563 53.5915 44.6266C53.2776 44.0904 53.1207 43.4888 53.1207 42.8218C53.1207 42.1548 53.2776 41.5564 53.5915 41.0267C53.9054 40.4905 54.3403 40.072 54.8961 39.7712C55.452 39.4639 56.0732 39.3102 56.7598 39.3102C57.296 39.3102 57.7865 39.4017 58.2311 39.5848C58.6758 39.7614 59.0551 40.0262 59.369 40.3794L58.7314 40.9973C58.2148 40.4546 57.5707 40.1832 56.799 40.1832C56.289 40.1832 55.828 40.2976 55.416 40.5265C55.004 40.7554 54.6803 41.0725 54.4449 41.478C54.216 41.8769 54.1016 42.3248 54.1016 42.8218C54.1016 43.3188 54.216 43.77 54.4449 44.1754C54.6803 44.5743 55.004 44.8882 55.416 45.1171C55.828 45.3459 56.289 45.4604 56.799 45.4604C57.5641 45.4604 58.2083 45.1857 58.7314 44.6364L59.369 45.2544C59.0551 45.6075 58.6725 45.8756 58.2213 46.0587C57.7767 46.2418 57.2862 46.3334 56.75 46.3334ZM65.4599 40.242H63.1058V46.2549H62.1445V40.242H59.8002V39.3887H65.4599V40.242ZM70.8684 44.5383H67.2195L66.4642 46.2549H65.4539L68.5633 39.3887H69.5344L72.6536 46.2549H71.6237L70.8684 44.5383ZM70.5251 43.7536L69.0439 40.3892L67.5628 43.7536H70.5251ZM79.5762 39.3887V46.2549H78.6149V40.242H75.5742L75.5055 42.2529C75.4728 43.2011 75.3943 43.9694 75.2701 44.558C75.1524 45.1465 74.9627 45.5912 74.7012 45.892C74.4396 46.1862 74.0865 46.3334 73.6418 46.3334C73.4391 46.3334 73.2331 46.3072 73.0238 46.2549L73.0925 45.3819C73.1971 45.4081 73.3018 45.4211 73.4064 45.4211C73.6876 45.4211 73.9132 45.31 74.0832 45.0876C74.2532 44.8588 74.3807 44.5187 74.4657 44.0675C74.5508 43.6163 74.6063 43.0212 74.6325 42.2823L74.7404 39.3887H79.5762ZM87.3375 39.3887V46.2549H86.3762V40.242H83.3355L83.2668 42.2529C83.2341 43.2011 83.1556 43.9694 83.0314 44.558C82.9137 45.1465 82.724 45.5912 82.4625 45.892C82.2009 46.1862 81.8478 46.3334 81.4031 46.3334C81.2004 46.3334 80.9944 46.3072 80.7851 46.2549L80.8538 45.3819C80.9584 45.4081 81.0631 45.4211 81.1677 45.4211C81.4489 45.4211 81.6745 45.31 81.8445 45.0876C82.0145 44.8588 82.142 44.5187 82.2271 44.0675C82.3121 43.6163 82.3676 43.0212 82.3938 42.2823L82.5017 39.3887H87.3375ZM94.6063 39.3887V46.2549H93.645V44.2539H91.7519C91.6342 44.2539 91.5459 44.2506 91.4871 44.2441L90.1138 46.2549H89.0741L90.5944 44.0773C90.104 43.9138 89.728 43.6425 89.4664 43.2632C89.2048 42.8774 89.0741 42.4098 89.0741 41.8605C89.0741 41.0823 89.3226 40.4774 89.8195 40.0459C90.3231 39.6077 90.9999 39.3887 91.85 39.3887H94.6063ZM90.0648 41.8507C90.0648 42.3608 90.2119 42.7531 90.5062 43.0278C90.807 43.2959 91.2484 43.4299 91.8304 43.4299H93.645V40.242H91.8892C91.3007 40.242 90.8495 40.3794 90.5356 40.654C90.2217 40.9287 90.0648 41.3276 90.0648 41.8507ZM103.674 45.4015V47.8145H102.762V46.2549H96.8471V39.3887H97.8182V45.4015H101.644V39.3887H102.615V45.4015H103.674ZM105.078 39.3887H106.049V44.6855L110.11 39.3887H111.012V46.2549H110.051V40.9679L105.98 46.2549H105.078V39.3887ZM113.251 39.3887H114.222V44.6855L118.283 39.3887H119.185V46.2549H118.224V40.9679L114.153 46.2549H113.251V39.3887Z" fill="white"/>
</svg>
