<svg stroke="transparent" width="24" height="24" viewBox="0 0 24 24" xmlns="http://www.w3.org/2000/svg">
    <path d="M23.3999 10.392C23.3992 10.3914 23.3986 10.3907 23.3981 10.3902L13.608 0.600404C13.1907 0.182923 12.6359 -0.046875 12.0457 -0.046875C11.4556 -0.046875 10.9007 0.182923 10.4833 0.600404L0.698268 10.3852C0.694972 10.3885 0.691493 10.392 0.68838 10.3953C-0.168555 11.2572 -0.16709 12.6555 0.692592 13.5152C1.08535 13.9082 1.60391 14.1356 2.15854 14.1596C2.18124 14.1618 2.20395 14.1629 2.22684 14.1629H2.61685V21.3674C2.61685 22.7932 3.77701 23.9532 5.20285 23.9532H9.03306C9.42143 23.9532 9.73619 23.6382 9.73619 23.25V17.6016C9.73619 16.951 10.2655 16.4218 10.9161 16.4218H13.1753C13.8259 16.4218 14.355 16.951 14.355 17.6016V23.25C14.355 23.6382 14.6698 23.9532 15.0582 23.9532H18.8884C20.3144 23.9532 21.4744 22.7932 21.4744 21.3674V14.1629H21.8362C22.4262 14.1629 22.981 13.9331 23.3986 13.5154C24.2592 12.6544 24.2596 11.2535 23.3999 10.392ZM22.4042 12.5211C22.2524 12.6729 22.0506 12.7566 21.8362 12.7566H20.7712C20.3829 12.7566 20.0681 13.0714 20.0681 13.4597V21.3674C20.0681 22.0177 19.5389 22.5469 18.8884 22.5469H15.7613V17.6016C15.7613 16.1758 14.6013 15.0156 13.1753 15.0156H10.9161C9.49009 15.0156 8.32994 16.1758 8.32994 17.6016V22.5469H5.20285C4.55246 22.5469 4.0231 22.0177 4.0231 21.3674V13.4597C4.0231 13.0714 3.70834 12.7566 3.31998 12.7566H2.27334C2.26236 12.7559 2.25155 12.7553 2.24039 12.7552C2.03091 12.7515 1.83444 12.6684 1.68722 12.521C1.37411 12.2079 1.37411 11.6983 1.68722 11.385C1.68741 11.385 1.68741 11.3848 1.68759 11.3846L1.68814 11.3841L11.4779 1.59467C11.6295 1.44287 11.8311 1.35938 12.0457 1.35938C12.2601 1.35938 12.4617 1.44287 12.6135 1.59467L22.4011 11.382C22.4025 11.3835 22.4042 11.385 22.4056 11.3864C22.7171 11.7001 22.7166 12.2086 22.4042 12.5211Z"/>
</svg>
