<svg stroke="transparent" width="24" height="16" viewBox="0 0 24 16" xmlns="http://www.w3.org/2000/svg">
<path d="M16.122 0.12203C14.6684 0.116725 13.2361 0.525213 12 1.28914C10.7639 0.525213 9.33156 0.116725 7.87798 0.12203C3.53316 0.12203 0 3.65519 0 8.00001C0 12.3448 3.53316 15.878 7.87798 15.878C9.33156 15.8833 10.7639 15.4748 12 14.7109C13.2361 15.4748 14.6684 15.8833 16.122 15.878C20.4668 15.878 24 12.3448 24 8.00001C24 3.65519 20.4668 0.12203 16.122 0.12203ZM7.87798 14.8223C4.11141 14.8223 1.0557 11.7666 1.0557 8.00532C1.0557 4.24405 4.11141 1.18304 7.87798 1.18304C8.98674 1.18304 10.0796 1.44829 11.0557 1.96818C7.72414 4.76394 7.28912 9.72946 10.0849 13.061C10.382 13.4112 10.7056 13.7348 11.0557 14.0318C10.0796 14.5517 8.98674 14.8223 7.87798 14.8223ZM12 13.4271C9.00265 11.1512 8.41379 6.87535 10.6897 3.878C11.0663 3.38463 11.5066 2.94431 12 2.56765C14.9973 4.84352 15.5862 9.11938 13.3103 12.1167C12.9337 12.6154 12.4934 13.0557 12 13.4271ZM16.122 14.817C15.0133 14.817 13.9204 14.5517 12.9443 14.0318C16.2759 11.2361 16.7109 6.27057 13.9151 2.93901C13.618 2.58887 13.2944 2.26527 12.9443 1.96818C13.9257 1.44829 15.0133 1.17773 16.122 1.18304C19.8886 1.18304 22.939 4.23874 22.939 8.00532C22.939 11.7719 19.8886 14.8223 16.122 14.817Z"/>
</svg>
