<svg stroke="transparent" width="16" height="22" viewBox="0 0 16 22" xmlns="http://www.w3.org/2000/svg">
<path d="M9.71429 21.7143H6.28571C5.48571 21.7143 4.57143 21.0286 4.57143 19.6572V17.2572C4.57143 16.1143 4 15.0857 3.08571 14.2857C1.02857 12.6857 0 10.4 0 7.88573C0.114286 3.54286 3.65714 0.114286 7.88571 0C10.0571 0 12.1143 0.800001 13.6 2.28572C15.0857 3.77143 16 5.82858 16 8.00001C16 10.4 14.9714 12.6857 13.0286 14.1715C12 14.9715 11.4286 16.2286 11.4286 17.3715V20C11.4286 20.9143 10.6286 21.7143 9.71429 21.7143ZM8 1.14286C4.34286 1.14286 1.25714 4.22858 1.14286 7.88573C1.14286 10.0572 2.05714 12.1143 3.77143 13.3715C5.02857 14.4 5.71429 15.7715 5.71429 17.2572V19.6572C5.71429 19.8857 5.71429 20.5715 6.28571 20.5715H9.71429C10.0571 20.5715 10.2857 20.3429 10.2857 20V17.3715C10.2857 15.8857 11.0857 14.2857 12.3429 13.2572C13.9429 12 14.8571 10.0572 14.8571 8.00001C14.8571 6.17144 14.1714 4.45715 12.8 3.08572C11.5429 1.82857 9.82857 1.14286 8 1.14286Z"/>
</svg>
