<svg stroke="transparent" width="24" height="24" viewBox="0 0 24 24" xmlns="http://www.w3.org/2000/svg">
<path d="M24 12C24 11.4295 23.6974 10.9096 23.1893 10.6081L21.8529 9.82184C22.3677 9.51615 22.8265 9.24349 23.1904 9.02698C23.6975 8.7244 24 8.2045 24 7.63612C24 7.06774 23.6974 6.54783 23.1904 6.2447C21.5199 5.25122 15.8555 1.88506 13.0632 0.284342C12.4165 -0.0869597 11.6303 -0.10184 10.9314 0.287563C10.9314 0.287563 3.33767 4.74788 0.810665 6.24424C0.302574 6.54569 0 7.06559 0 7.63612C0 8.2045 0.302574 8.7244 0.809643 9.02754C1.17348 9.2439 1.63217 9.51651 2.14686 9.82205L0.810717 10.6081C0.302574 10.9096 0 11.4295 0 12C0 12.5684 0.302574 13.0883 0.809643 13.3914C1.17348 13.6078 1.63217 13.8804 2.14686 14.1859L0.810717 14.9719C0.302574 15.2734 0 15.7933 0 16.3639C0 16.9323 0.302574 17.4522 0.809643 17.7553C2.97123 19.0407 8.2841 22.1948 10.9368 23.7157C11.2617 23.9021 11.6304 24.0006 12 24.0006C12.3697 24.0006 12.7383 23.9021 13.0643 23.7151C15.716 22.1948 21.0288 19.0407 23.1904 17.7547C23.6975 17.4522 24.0001 16.9323 24.0001 16.3639C24.0001 15.7933 23.6975 15.2734 23.1893 14.9719L21.8529 14.1857C22.3678 13.88 22.8265 13.6074 23.1904 13.3909C23.6975 13.0883 24 12.5684 24 12ZM1.3679 8.09139C1.2848 8.04132 1.09089 7.89748 1.09089 7.63704C1.09089 7.37548 1.28373 7.23276 1.36682 7.18372C3.89061 5.68905 11.4737 1.23538 11.4727 1.23589C11.82 1.04039 12.1992 1.04786 12.521 1.23215C15.3057 2.82858 20.9649 6.1908 22.6321 7.18264C22.7152 7.2327 22.9091 7.37655 22.9091 7.63699C22.9091 7.89743 22.7152 8.04127 22.6321 8.09082C20.4737 9.37455 15.1673 12.5253 12.522 14.0413C12.1939 14.2288 11.805 14.2283 11.479 14.0418C8.83274 12.5253 3.52626 9.3746 1.3679 8.09139ZM22.6332 15.911C22.7163 15.96 22.9091 16.1027 22.9091 16.3643C22.9091 16.6248 22.7152 16.7686 22.6321 16.8181C20.4737 18.1018 15.1673 21.2526 12.522 22.7686C12.1939 22.9561 11.805 22.9556 11.479 22.7691C8.83274 21.2526 3.52626 18.1018 1.3679 16.8186C1.2848 16.7686 1.09089 16.6247 1.09089 16.3643C1.09089 16.1027 1.28373 15.96 1.36682 15.911L3.21791 14.8217C5.71991 16.3047 9.02036 18.2533 10.9368 19.352C11.2617 19.5384 11.6304 19.637 12 19.637C12.3697 19.637 12.7383 19.5384 13.0643 19.3515C14.9799 18.2532 18.2801 16.3049 20.782 14.8217L22.6332 15.911ZM22.6321 12.4545C20.4737 13.7382 15.1673 16.889 12.522 18.405C12.1939 18.5925 11.805 18.5919 11.479 18.4055C8.83274 16.8889 3.52626 13.7382 1.3679 12.455C1.2848 12.4049 1.09089 12.2611 1.09089 12.0007C1.09089 11.7391 1.28373 11.5964 1.36682 11.5473L3.21791 10.4581C5.71991 11.9411 9.02036 13.8897 10.9368 14.9884C11.2617 15.1748 11.6304 15.2733 12 15.2733C12.3697 15.2733 12.7383 15.1748 13.0643 14.9878C14.9799 13.8895 18.2801 11.9412 20.782 10.458L22.6332 11.5473C22.7163 11.5963 22.9092 11.7391 22.9092 12.0007C22.9091 12.2611 22.7152 12.4049 22.6321 12.4545Z"/>
</svg>
