<svg width="28" height="28" viewBox="0 0 28 28" xmlns="http://www.w3.org/2000/svg">
<path d="M23.2209 1.0997C22.5724 0.422961 21.6419 0 20.6549 0H7.34578C6.33067 0 5.42835 0.422961 4.77981 1.0715C4.13127 1.72004 3.70831 2.65055 3.70831 3.63746V24.3625C3.70831 25.3776 4.13127 26.28 4.77981 26.9285C5.42835 27.577 6.35887 28 7.34578 28H20.6549C21.67 28 22.5724 27.577 23.2209 26.9285C23.8694 26.28 24.2924 25.3494 24.2924 24.3625V3.66566C24.2924 2.65055 23.8694 1.74824 23.2209 1.0997ZM22.8825 24.3625C22.8825 24.9829 22.6288 25.5186 22.234 25.9416C21.8392 26.3364 21.2753 26.5901 20.6549 26.5901H7.34578C6.72543 26.5901 6.18968 26.3364 5.76672 25.9416C5.37196 25.5468 5.11818 24.9829 5.11818 24.3625V3.66566C5.11818 3.04532 5.37196 2.50957 5.76672 2.08661C6.16149 1.69184 6.72543 1.43807 7.34578 1.43807H20.6549C21.2753 1.43807 21.811 1.69184 22.234 2.08661C22.6288 2.48137 22.8825 3.04532 22.8825 3.66566V24.3625Z"  />
<path d="M14 19.4585C14.4049 19.4585 14.7332 19.1302 14.7332 18.7253C14.7332 18.3204 14.4049 17.9922 14 17.9922C13.5951 17.9922 13.2669 18.3204 13.2669 18.7253C13.2669 19.1302 13.5951 19.4585 14 19.4585Z"  />
<path d="M14.0011 12.0396C12.1682 12.0396 10.4764 12.8009 9.26391 13.9852C8.05143 15.1977 7.3183 16.8613 7.3183 18.7223C7.3183 20.5552 8.07963 22.247 9.26391 23.4595C10.4764 24.672 12.14 25.4051 14.0011 25.4051C15.8339 25.4051 17.5257 24.6438 18.7382 23.4595C19.9507 22.247 20.6838 20.5833 20.6838 18.7223C20.6838 16.8895 19.9225 15.1977 18.7382 13.9852C17.5257 12.8009 15.8339 12.0396 14.0011 12.0396ZM17.7231 22.4444C16.7644 23.4031 15.4673 23.9952 14.0011 23.9952C12.5348 23.9952 11.2377 23.4031 10.279 22.4444C9.32031 21.4857 8.72817 20.1886 8.72817 18.7223C8.72817 17.2561 9.32031 15.959 10.279 15.0003C11.2377 14.0416 12.5348 13.4494 14.0011 13.4494C15.4391 13.4494 16.7644 14.0416 17.7231 15.0003C18.6818 15.959 19.274 17.2561 19.274 18.7223C19.2458 20.1604 18.6818 21.4857 17.7231 22.4444Z"  />
<path d="M14.0002 14.8906C12.9287 14.8906 11.97 15.3136 11.2932 16.0185C10.5883 16.7235 10.1653 17.6822 10.1653 18.7255C10.1653 19.797 10.5883 20.7557 11.2932 21.4324C11.9982 22.1374 12.9569 22.5603 14.0002 22.5603C15.0717 22.5603 16.0304 22.1374 16.7071 21.4324C17.4121 20.7275 17.835 19.7688 17.835 18.7255C17.835 17.654 17.4121 16.6953 16.7071 16.0185C16.0304 15.3136 15.0717 14.8906 14.0002 14.8906ZM15.7202 20.4455C15.2691 20.8967 14.6769 21.1504 14.0002 21.1504C13.3235 21.1504 12.7313 20.8685 12.2801 20.4455C11.829 19.9944 11.5752 19.4022 11.5752 18.7255C11.5752 18.0487 11.8572 17.4566 12.2801 17.0054C12.7313 16.5543 13.3235 16.3005 14.0002 16.3005C14.6769 16.3005 15.2691 16.5825 15.7202 17.0054C16.1714 17.4566 16.4252 18.0487 16.4252 18.7255C16.4252 19.4022 16.1432 19.9944 15.7202 20.4455Z"  />
<path d="M13.9996 11.2218C15.1839 11.2218 16.2554 10.7424 17.0449 9.9529C17.8345 9.16337 18.3138 8.09187 18.3138 6.90758C18.3138 5.72329 17.8345 4.65179 17.0449 3.86227C16.2554 3.07274 15.1839 2.59338 13.9996 2.59338C12.8153 2.59338 11.7438 3.07274 10.9543 3.86227C10.1648 4.65179 9.68542 5.72329 9.68542 6.90758C9.68542 8.09187 10.1648 9.16337 10.9543 9.9529C11.7438 10.7424 12.8153 11.2218 13.9996 11.2218ZM11.9694 4.87737C12.477 4.36982 13.2101 4.03145 13.9996 4.03145C14.7892 4.03145 15.5223 4.34162 16.0298 4.87737C16.5374 5.38492 16.8758 6.11806 16.8758 6.90758C16.8758 7.69711 16.5656 8.43024 16.0298 8.9378C15.5223 9.44535 14.7892 9.78372 13.9996 9.78372C13.2101 9.78372 12.477 9.47355 11.9694 8.9378C11.4619 8.43024 11.1235 7.69711 11.1235 6.90758C11.1235 6.11806 11.4337 5.41312 11.9694 4.87737Z"  />
<path d="M14 8.57169C14.4512 8.57169 14.8459 8.3743 15.1561 8.09233C15.4663 7.78216 15.6355 7.38739 15.6355 6.93623C15.6355 6.48507 15.4381 6.09031 15.1561 5.78014C14.8459 5.46997 14.4512 5.30078 14 5.30078C13.5489 5.30078 13.1541 5.49816 12.8439 5.78014C12.5337 6.09031 12.3646 6.48507 12.3646 6.93623C12.3646 7.38739 12.5337 7.78216 12.8439 8.09233C13.1541 8.4025 13.5489 8.57169 14 8.57169ZM13.6616 6.59786C13.7462 6.51327 13.859 6.45688 14 6.45688C14.1128 6.45688 14.2538 6.51327 14.3102 6.59786C14.3948 6.68246 14.4512 6.79525 14.4512 6.90804C14.4512 7.04902 14.3948 7.16181 14.3102 7.21821C14.2256 7.3028 14.1128 7.3592 14 7.3592C13.859 7.3592 13.7462 7.3028 13.6898 7.21821C13.6052 7.13362 13.5489 7.02083 13.5489 6.90804C13.5489 6.79525 13.6052 6.68246 13.6616 6.59786Z"  />
</svg>
