<?xml version="1.0" encoding="utf-8"?><svg viewBox="0 0 28 28" xmlns="http://www.w3.org/2000/svg" xmlns:xlink="http://www.w3.org/1999/xlink"><style>:root>svg{display:none}:root>svg:target{display:block}</style><svg viewBox="0 0 28 28" id="cross" xmlns="http://www.w3.org/2000/svg"><path d="M21 7L7 21M7 7l14 14"/></svg><svg fill="none" viewBox="0 0 11 21" id="fb" xmlns="http://www.w3.org/2000/svg"><path opacity=".7" d="M3.763 1.076C4.592.301 5.765.036 6.876.006c1.174-.01 2.347-.005 3.52-.005.005 1.222.005 2.44 0 3.662H8.122c-.48-.03-.973.33-1.06.8-.01.817-.006 1.634-.006 2.45 1.112.006 2.224 0 3.335.006a44.784 44.784 0 01-.406 3.524c-.983.01-1.966 0-2.95.005-.01 3.484.006 6.962-.004 10.447-1.462.005-2.918-.005-4.38.005-.025-3.484 0-6.968-.015-10.452-.71-.005-1.426.005-2.136-.005.005-1.171 0-2.343 0-3.51.71-.01 1.426 0 2.136-.005.02-1.136-.021-2.277.02-3.412.078-.908.423-1.816 1.107-2.44z" fill="#fff"/></svg><svg fill="none" viewBox="0 0 26 26" id="inst" xmlns="http://www.w3.org/2000/svg"><g opacity=".7" fill="#fff"><path d="M12.973 6.71c-3.48 0-6.312 2.802-6.312 6.246 0 3.444 2.831 6.245 6.312 6.245 3.48 0 6.311-2.801 6.311-6.245s-2.831-6.245-6.311-6.245zm0 10.192c-2.213 0-4.013-1.77-4.013-3.946 0-2.175 1.8-3.946 4.013-3.946 2.212 0 4.013 1.77 4.013 3.946s-1.8 3.946-4.013 3.946z"/><path d="M18.084.862H7.823a6.968 6.968 0 00-6.96 6.96v10.356a6.968 6.968 0 006.96 6.96h10.26c3.839 0 6.96-3.123 6.96-6.96V7.823c0-3.838-3.121-6.96-6.96-6.96zm4.656 17.316a4.661 4.661 0 01-4.656 4.657H7.823a4.663 4.663 0 01-4.658-4.657V7.823a4.663 4.663 0 014.658-4.657h10.26a4.662 4.662 0 014.657 4.657v10.355z"/><path d="M19.397 7.94a1.485 1.485 0 100-2.97 1.485 1.485 0 000 2.97z"/></g></svg><svg fill="none" viewBox="0 0 13 19" id="location" xmlns="http://www.w3.org/2000/svg"><path opacity=".7" d="M6.457.315A5.997 5.997 0 001.26 9.312l5.197 9.003 5.194-9.003a6 6 0 00.806-3 6 6 0 00-6-5.997zm0 7.943A1.946 1.946 0 014.51 6.312c0-1.07.872-1.941 1.947-1.941 1.072 0 1.94.87 1.94 1.941a1.94 1.94 0 01-1.94 1.946z" fill="#fff"/></svg><svg fill="none" viewBox="0 0 18 12" id="mail" xmlns="http://www.w3.org/2000/svg"><path d="M1 0h16L9 7 1 0zM6.714 7L1 12h16l-5.714-5L9 9 6.714 7zM0 1h.143l5.714 5-5.714 5H0V1zM18 11h-.143l-5.714-5 5.714-5H18v10z" fill="#fff" fill-opacity=".7"/></svg><svg viewBox="0 0 24 24" id="menu" xmlns="http://www.w3.org/2000/svg"><path d="M3 12h18M3 6h18M3 18h18"/></svg><svg fill="none" viewBox="0 0 12 12" id="phone" xmlns="http://www.w3.org/2000/svg"><path opacity=".7" d="M8.22 7.321c-.82.725-.866 1.497-1.634 1.45-.775-.046-1.5-.864-2.226-1.682-.725-.818-1.451-1.637-1.405-2.41.045-.773.818-.726 1.633-1.451C5.41 2.5 3.23.047 2.461 0 1.686-.045.004 2.179.004 2.179c-.093 1.543 1.309 4.769 2.72 6.361C4.134 10.132 7.17 11.906 8.715 12c0 0 2.408-1.408 2.455-2.179.046-.772-2.131-3.227-2.952-2.5z" fill="#fff"/></svg><svg fill="none" viewBox="0 0 26 15" id="vk" xmlns="http://www.w3.org/2000/svg"><path opacity=".7" d="M25.862 13.546a1.909 1.909 0 00-.088-.17c-.452-.822-1.313-1.83-2.586-3.026l-.027-.027-.013-.014-.014-.013h-.013c-.578-.558-.943-.931-1.096-1.123-.28-.365-.344-.735-.19-1.109.109-.283.515-.88 1.219-1.793.37-.483.663-.872.88-1.164 1.56-2.1 2.237-3.44 2.03-4.025l-.082-.137c-.054-.082-.194-.157-.42-.225-.225-.069-.513-.08-.865-.035l-3.899.029a1.09 1.09 0 00-.447.047l-.068.034-.054.041a.6.6 0 00-.148.144.91.91 0 00-.136.24 22.461 22.461 0 01-1.448 3.08c-.334.566-.641 1.057-.92 1.472-.28.415-.515.721-.704.917-.19.196-.361.354-.515.472-.153.12-.27.169-.351.15a6.044 6.044 0 01-.23-.055.9.9 0 01-.305-.335 1.514 1.514 0 01-.156-.533 5.571 5.571 0 01-.047-.555c-.005-.155-.003-.374.007-.657.008-.283.013-.474.013-.575 0-.346.007-.723.02-1.13l.034-.964c.01-.237.013-.488.013-.753 0-.264-.015-.472-.047-.623a2.168 2.168 0 00-.142-.438.726.726 0 00-.278-.328 1.544 1.544 0 00-.453-.185C13.857.07 13.249.01 12.508.002 10.83-.016 9.752.094 9.274.33c-.19.1-.361.237-.514.41-.163.201-.185.311-.068.329.542.082.925.278 1.15.589l.082.163c.063.12.126.33.19.63.063.302.103.635.122 1 .045.666.045 1.236 0 1.711-.046.475-.088.844-.129 1.108-.04.265-.102.479-.183.643a2.64 2.64 0 01-.163.302.24.24 0 01-.067.069 1.008 1.008 0 01-.366.068c-.126 0-.28-.064-.46-.192a3.244 3.244 0 01-.562-.527 7.035 7.035 0 01-.657-.938 16.318 16.318 0 01-.758-1.423l-.216-.398c-.135-.255-.32-.627-.555-1.115-.235-.488-.443-.96-.623-1.417a.905.905 0 00-.325-.438L5.104.863a.928.928 0 00-.217-.115c-.1-.042-.203-.071-.312-.09L.866.685C.488.685.23.773.095.946l-.054.082a.449.449 0 00-.041.22c0 .1.027.223.082.368A45.212 45.212 0 001.848 5.34c.637 1.196 1.189 2.158 1.659 2.888.469.731.947 1.42 1.434 2.068.488.648.81 1.063.968 1.245.158.183.282.32.372.41l.339.33c.216.218.534.481.954.787.42.306.884.607 1.394.903a7.52 7.52 0 001.78.726 6.075 6.075 0 001.976.225h1.557c.316-.027.555-.127.717-.301l.054-.069a.93.93 0 00.102-.252c.031-.115.048-.24.048-.377-.01-.393.02-.747.088-1.06.067-.316.144-.553.23-.713a1.739 1.739 0 01.521-.602c.045-.023.082-.038.109-.048.216-.073.47-.002.765.212.293.215.568.479.825.794.257.315.566.668.927 1.061.36.393.677.684.948.876l.27.165c.181.109.416.209.704.3.29.092.542.115.759.07l3.465-.056c.343 0 .61-.057.799-.171.189-.114.302-.24.338-.377.036-.136.039-.29.007-.465a1.735 1.735 0 00-.095-.363z" fill="#fff"/></svg></svg>