<?xml version="1.0" encoding="utf-8"?><!DOCTYPE svg PUBLIC "-//W3C//DTD SVG 1.1//EN" "http://www.w3.org/Graphics/SVG/1.1/DTD/svg11.dtd"><svg viewBox="0 0 908 908" xmlns="http://www.w3.org/2000/svg" xmlns:xlink="http://www.w3.org/1999/xlink"><style>:root>svg{display:none}:root>svg:target{display:block}</style><svg viewBox="0 0 32 32" id="clock" xmlns="http://www.w3.org/2000/svg"><path d="M16 3.205C8.934 3.205 3.205 8.934 3.205 16S8.934 28.795 16 28.795 28.795 23.066 28.795 16 23.066 3.205 16 3.205zm0 24.524C9.533 27.729 4.271 22.468 4.271 16S9.532 4.271 16 4.271 27.729 9.532 27.729 16c0 6.467-5.261 11.729-11.729 11.729z"/><path d="M16 17.066H9.602v1.066h7.464V7.513H16z"/></svg><svg viewBox="0 0 32 32" id="comment" xmlns="http://www.w3.org/2000/svg"><path d="M26.664 4.82H5.336a2.132 2.132 0 00-2.132 2.133v13.868c0 1.178.955 2.133 2.132 2.133h14.968l4.226 4.226v-4.226h2.134a2.133 2.133 0 002.133-2.133V6.953a2.133 2.133 0 00-2.133-2.133zm1.066 16.001c0 .588-.479 1.066-1.066 1.066h-3.2v2.718l-2.718-2.718H5.336a1.067 1.067 0 01-1.066-1.066V6.953c0-.588.479-1.066 1.066-1.066h21.328c.588 0 1.066.478 1.066 1.066v13.868z"/><path d="M16 12.824a1.066 1.066 0 100 2.133 1.066 1.066 0 000-2.133zM20.265 12.824a1.066 1.066 0 100 2.133 1.066 1.066 0 000-2.133zM11.835 12.824a1.066 1.066 0 100 2.133 1.066 1.066 0 000-2.133z"/></svg><svg viewBox="0 0 24 24" id="facebook" xmlns="http://www.w3.org/2000/svg"><path d="M15.997 3.985h2.191V.169C17.81.117 16.51 0 14.996 0c-3.159 0-5.323 1.987-5.323 5.639V9H6.187v4.266h3.486V24h4.274V13.267h3.345l.531-4.266h-3.877V6.062c.001-1.233.333-2.077 2.051-2.077z"/></svg><svg viewBox="0 0 436.4 117.3" id="graphicriver" xmlns="http://www.w3.org/2000/svg"><path d="M147 11.1c-1.6 0-2.4.7-2.4 2.2V17c-1-1.7-2.5-3.1-4.4-4.1-1.9-1-3.9-1.5-5.9-1.5-5.1 0-9.2 2-12.2 6.1-2.7 3.7-4.1 8.1-4.1 13.4 0 5.3 1.4 9.8 4.1 13.5 3 4.1 7.1 6.2 12.2 6.2 2.1 0 4.1-.4 6-1.3 2.1-1 3.6-2.4 4.4-4.2 0 10-3.5 14.9-10.4 14.9-2.4 0-4.7-.5-7-1.5l-4.5-2.4c-.5-.3-1-.4-1.5-.4-1.4 0-2.1.8-2.1 2.3 0 1 .4 1.9 1.2 2.6 3.4 2.9 7.9 4.4 13.5 4.4 4.9 0 8.7-1.5 11.5-4.4 2.8-2.9 4.2-6.8 4.2-11.7V13.5c-.1-1.6-.9-2.4-2.6-2.4zm-4.9 30.3c-2 3.2-4.6 4.8-7.9 4.8-3.3 0-5.9-1.6-7.9-4.9-1.8-2.9-2.7-6.4-2.7-10.6 0-4.1.9-7.5 2.6-10.3 2-3.1 4.6-4.6 8-4.6 3.4 0 6 1.6 8 4.7 1.7 2.8 2.6 6.3 2.6 10.4 0 4.1-.9 7.6-2.7 10.5zM168.6 11.3c-2.7 0-5.6 2.5-8.7 7.4v-4.8c0-1.8-.8-2.7-2.4-2.7-1.7 0-2.5.9-2.5 2.8v33.1c0 1.7.8 2.5 2.5 2.5 1.6 0 2.4-.8 2.4-2.5V29.6c0-3.9 1.1-6.9 3.2-8.9 1-.9 3-1.9 5.8-3 2.1-.8 3.2-1.8 3.2-2.9 0-1-.3-1.9-1-2.6-.6-.6-1.5-.9-2.5-.9zM201.4 11.1c-1.7 0-2.6 1.1-2.6 3.2v3.2c-.9-1.7-2.4-3.2-4.5-4.4-2.1-1.2-4.2-1.7-6.4-1.7-4.8 0-8.6 2.2-11.5 6.5-2.6 3.9-3.9 8.6-3.9 14.1 0 5.1 1.2 9.4 3.6 12.9 2.7 3.8 6.3 5.8 11 5.8 2.8 0 5-.3 6.6-.9 2-.7 3.7-2.1 5.3-4 0 .6 0 1.6.1 2.9 0 1.3.9 1.9 2.5 1.9s2.4-.7 2.4-2V14.1c-.1-2-.9-3-2.6-3zm-5.3 30.5c-2.1 3.2-4.8 4.8-8.2 4.8-3.1 0-5.6-1.6-7.5-4.7-1.6-2.8-2.5-6.3-2.5-10.3 0-4.1.8-7.5 2.5-10.3 1.9-3.1 4.4-4.6 7.5-4.6 3.5 0 6.3 1.5 8.3 4.6 1.8 2.7 2.7 6.1 2.7 10.1 0 3.9-1 7.5-2.8 10.4zM224.9 11.3c-3.7 0-7.2 2.1-10.5 6.4V14c0-1.8-.8-2.8-2.5-2.8s-2.5.8-2.5 2.5v48.9c0 1.7.8 2.5 2.4 2.5 1.7 0 2.6-.8 2.6-2.5V45.2c3.2 3.6 6.7 5.4 10.5 5.4 5.2 0 9.3-2 12.2-6 2.7-3.6 4-8.1 4-13.4 0-5.4-1.4-10-4.1-13.8-3-4.1-7.1-6.1-12.1-6.1zm7.7 30.2c-1.9 3.2-4.5 4.8-7.7 4.8-3.3 0-5.9-1.6-7.8-4.9-1.8-2.9-2.7-6.4-2.7-10.6 0-4.1.9-7.6 2.6-10.3 1.9-3.1 4.5-4.7 7.9-4.7 3.3 0 5.9 1.6 7.8 4.8 1.7 2.8 2.5 6.3 2.5 10.4 0 4.1-.9 7.6-2.6 10.5zM269.9 14.7c-2.5-2.2-5.4-3.3-8.8-3.3-4.3 0-7.7 1.7-10.3 5.1V2.6c0-1.7-.8-2.6-2.5-2.6-1.6 0-2.4.9-2.4 2.6v44.7c0 1.7.8 2.5 2.4 2.5 1.7 0 2.5-.8 2.5-2.5v-21c0-3.2 1-5.8 2.9-7.7 1.7-1.7 3.8-2.5 6.3-2.5s4.5.8 6.2 2.5c1.9 1.9 2.8 4.4 2.8 7.7v21c0 1.6.8 2.5 2.4 2.5 1.7 0 2.5-.8 2.5-2.5V24.1c0-3.8-1.3-6.9-4-9.4zM282.6 0c-2.3 0-3.4 1.1-3.4 3.2 0 .9.3 1.8.9 2.5.6.7 1.4 1.1 2.4 1.1 2.4 0 3.6-1.1 3.6-3.2 0-.9-.3-1.8-1-2.5-.6-.7-1.4-1.1-2.5-1.1zM282.6 11.3c-1.6 0-2.4.8-2.4 2.5v33.4c0 1.7.8 2.5 2.5 2.5s2.5-.8 2.5-2.5V13.8c-.1-1.7-.9-2.5-2.6-2.5zM307.9 16.6c1.4 0 2.8.4 4.1 1.2 1.4.8 2.2 1.2 2.6 1.2.8 0 1.5-.3 2-.8.5-.6.8-1.2.8-1.9 0-.9-.4-1.7-1.1-2.3-.9-.8-2.3-1.5-4.1-1.9-1.5-.4-2.9-.6-4-.6-5.3 0-9.5 2.1-12.7 6.2-2.9 3.8-4.3 8.3-4.3 13.6s1.4 9.8 4.2 13.4c3.2 4.1 7.5 6.1 12.9 6.1 3.4 0 5.9-.7 7.6-2.1.8-.7 1.3-1.6 1.3-2.5 0-1.6-.8-2.3-2.5-2.3-.3 0-1.3.3-3 .8-1.7.6-3.1.8-4.2.8-3.5 0-6.3-1.4-8.3-4.3-1.8-2.5-2.7-5.7-2.7-9.5 0-4 1-7.4 2.9-10.2 2.2-3.4 5-4.9 8.5-4.9zM334.1 11.3c-2.7 0-5.6 2.5-8.7 7.4v-4.8c0-1.8-.8-2.7-2.4-2.7-1.7 0-2.5.9-2.5 2.8v33.1c0 1.7.8 2.5 2.5 2.5 1.6 0 2.4-.8 2.4-2.5V29.6c0-3.9 1.1-6.9 3.2-8.9 1-.9 3-1.9 5.8-3 2.1-.8 3.2-1.8 3.2-2.9 0-1-.3-1.9-1-2.6-.6-.6-1.5-.9-2.5-.9zM344.8 0c-2.3 0-3.4 1.1-3.4 3.2 0 .9.3 1.8.9 2.5.6.7 1.4 1.1 2.5 1.1 2.4 0 3.6-1.1 3.6-3.2 0-.9-.3-1.8-1-2.5S345.9 0 344.8 0zM344.8 11.3c-1.6 0-2.4.8-2.4 2.5v33.4c0 1.7.8 2.5 2.5 2.5s2.5-.8 2.5-2.5V13.8c-.1-1.7-.9-2.5-2.6-2.5zM378.9 12.5c-1.3 0-2.3 1-3 2.9l-8.9 26-8.5-25.9c-.6-2-1.6-2.9-3-2.9s-2.1.8-2.1 2.3c0 .4.1.8.2 1.2l10.7 31.8c.5 1.4 1.4 2.1 2.7 2.1 1.5 0 2.5-.7 2.9-2.1l10.9-31.8c.1-.4.2-.7.2-1.1.1-1.8-.7-2.5-2.1-2.5zM414.9 28c0-5.1-1.4-9.2-4.2-12.2-2.8-3-6.5-4.5-11.3-4.5-5.1 0-9.1 2.1-12.1 6.2-2.8 3.7-4.2 8.2-4.2 13.5 0 5.4 1.4 9.9 4.2 13.5 3.2 4.1 7.6 6.2 13.1 6.2 6 0 10.6-2 13.7-6 .3-.4.5-.8.5-1.3 0-.6-.2-1.2-.7-1.7-.5-.5-1.1-.8-1.7-.8-.5 0-1.4.5-2.6 1.5-1.7 1.3-2.9 2.2-3.8 2.6-1.7 1-3.5 1.5-5.4 1.5-3 0-5.7-1.3-8.1-4-2.4-2.7-3.5-5.6-3.5-8.8h24.3c1.2-.3 1.8-2.1 1.8-5.7zm-26.1.4c.1-3.9 1.2-7 3.4-9.3 2-2.1 4.4-3.1 7.3-3.1 2.8 0 5.2 1 7.1 3.1 2.1 2.3 3.2 5.4 3.2 9.3h-21zM435.3 12.3c-.7-.7-1.5-1-2.5-1-2.7 0-5.6 2.5-8.7 7.4v-4.8c0-1.8-.8-2.7-2.4-2.7-1.7 0-2.5.9-2.5 2.8v33.1c0 1.7.8 2.5 2.5 2.5 1.6 0 2.4-.8 2.4-2.5V29.6c0-3.9 1.1-6.9 3.2-8.9 1-.9 3-1.9 5.8-3 2.1-.8 3.2-1.8 3.2-2.9 0-1-.3-1.9-1-2.5zM91.1 8.8l-.1-.1c.1 6.4 1.1 35.2 8.5 18.9 0 0-5.5 6.6-8.4-18.8z"/><path d="M99.5 2.1H38.8c-2.7 0-4.9 2.2-4.9 4.9v60.6c0 1 .3 2 .9 2.8-3 1.7-6.3 2.6-9.8 2.6-5.8 0-12.7-2-21.7-6.3L.2 65.2 0 68.6c0 .3-.3 7.9 5.5 14 5.1 5.4 13.2 7.9 24.1 7.4-.1 5.3.6 17.4 7.5 25.3l1.7 1.9 1.7-1.9c.3-.3 6.7-7.8 12.1-33 5.4-2.2 19.1-9.8 19.1-9.8h27.7c2.7 0 4.9-2.2 4.9-4.9V7c.1-2.7-2.1-4.9-4.8-4.9zm-39.3 8.8l12.4-1.2C65.8 16.2 59 32.9 59 32.9l-.2-.9-.1-.3v-.3l-.5-4-.6-4.4-.1-.5.1-.4.5-3.9-.4-3.5-.4-3 2.9-.8zm42.5 19.6c-2 1.6-5.4 5.8-6.4 8.7-9 25.3-46 39.2-46.4 39.4l-1.2.4-.3 1.2c-3.5 17-7.5 25.8-9.7 29.6-5.6-8.9-4.5-21.9-4.5-22.1l.2-2.7-2.7.2c-10.6.9-18.4-1-22.9-5.8-2.2-2.3-3.3-4.9-3.8-7 7.9 3.4 14.3 5.1 19.9 5.1 14.2 0 24-10.2 32.8-34.1 1.5-4.2 3.4-8.3 5.5-12.2 0 0 12.1-27.1 24.4-27.8 5.1-.2 6.6.3 6.6.3 5.2.8 8.5 4.1 8.5 9.1v17.7z"/></svg><svg viewBox="0 0 512.001 512.001" id="instagram" xmlns="http://www.w3.org/2000/svg"><path d="M373.406 0H138.594C62.172 0 0 62.172 0 138.594V373.41C0 449.828 62.172 512 138.594 512H373.41C449.828 512 512 449.828 512 373.41V138.594C512 62.172 449.828 0 373.406 0zm108.578 373.41c0 59.867-48.707 108.574-108.578 108.574H138.594c-59.871 0-108.578-48.707-108.578-108.574V138.594c0-59.871 48.707-108.578 108.578-108.578H373.41c59.867 0 108.574 48.707 108.574 108.578zm0 0"/><path d="M256 116.004c-77.195 0-139.996 62.8-139.996 139.996S178.804 395.996 256 395.996 395.996 333.196 395.996 256 333.196 116.004 256 116.004zm0 249.976c-60.64 0-109.98-49.335-109.98-109.98 0-60.64 49.34-109.98 109.98-109.98 60.645 0 109.98 49.34 109.98 109.98 0 60.645-49.335 109.98-109.98 109.98zm0 0M399.344 66.285c-22.813 0-41.367 18.559-41.367 41.367 0 22.813 18.554 41.371 41.367 41.371s41.37-18.558 41.37-41.37-18.558-41.368-41.37-41.368zm0 52.719c-6.258 0-11.352-5.094-11.352-11.352 0-6.261 5.094-11.351 11.352-11.351 6.261 0 11.355 5.09 11.355 11.351 0 6.258-5.094 11.352-11.355 11.352zm0 0"/></svg><svg viewBox="0 0 27 32" id="like" xmlns="http://www.w3.org/2000/svg"><path d="M27.275 15.638c0-1.288-1.02-2.282-2.374-2.282h-8.536c.545-1.265 1.524-3.919 1.524-6.659 0-3.128-1.569-3.784-2.886-3.784-.816 0-1.996.619-1.996 1.737 0 .472-.075 4.671-2.639 6.822-2.732 2.292-3.509 2.891-5.005 2.891-1.746 0-4.847.038-4.847.038l-.517.007v12.206h5.712c.371 0 1.483.496 2.466.932 1.622.722 3.459 1.541 4.696 1.541l8.25-.003c1.343 0 2.436-1.056 2.436-2.354 0-.529-.189-1.012-.494-1.405a2.35 2.35 0 001.711-2.254c0-.539-.19-1.031-.496-1.429a2.397 2.397 0 001.677-2.277c0-.538-.184-1.031-.485-1.431a2.372 2.372 0 001.801-2.295zm-2.374 1.324h-1.822v1.049h.477c.746 0 1.353.607 1.353 1.353s-.608 1.353-1.353 1.353H22.03v1.049h.394a1.306 1.306 0 010 2.61h-1.443v1.049h.143c.764 0 1.387.586 1.387 1.305 0 .72-.623 1.305-1.387 1.305h-1.34v.003h-6.91c-1.014 0-2.819-.804-4.27-1.45-1.425-.634-2.326-1.023-2.892-1.023H1.049V15.444c.955-.011 3.013-.032 4.315-.032 1.94 0 2.959-.854 5.679-3.136 2.868-2.406 3.014-6.774 3.014-7.626 0-.428.657-.688.947-.688.549 0 1.837 0 1.837 2.735 0 3.456-1.745 6.91-1.762 6.945l-.39.763h6.426c.018.013.03 0 .03 0h3.757c.767 0 1.325.532 1.325 1.233 0 .73-.594 1.324-1.325 1.324z"/></svg><svg viewBox="0 0 32 32" id="link" xmlns="http://www.w3.org/2000/svg"><path d="M17.534 20.793a5.064 5.064 0 01-3.592-1.485l.754-.754a4.02 4.02 0 005.678 0l6.715-6.716a4.02 4.02 0 000-5.677l-1.251-1.25a4.02 4.02 0 00-5.677 0L15.422 9.65l-.754-.754 4.739-4.739a5.085 5.085 0 017.185 0l1.251 1.25a5.088 5.088 0 010 7.185l-6.715 6.715a5.066 5.066 0 01-3.593 1.485z"/><path d="M9.001 29.329a5.044 5.044 0 01-3.592-1.488l-1.251-1.25a5.086 5.086 0 010-7.185l6.716-6.716a5.088 5.088 0 017.185 0l1.251 1.251-.754.754-1.251-1.251a4.02 4.02 0 00-5.677 0L4.912 20.16a4.02 4.02 0 000 5.677l1.251 1.25c.758.758 1.766 1.176 2.838 1.176s2.08-.418 2.838-1.176l4.469-4.469.754.754-4.469 4.469a5.044 5.044 0 01-3.592 1.488z"/></svg><svg viewBox="0 0 32 32" id="look" xmlns="http://www.w3.org/2000/svg"><path d="M16 6.404c-5.847 0-10.404 3.66-15.994 9.593 4.816 5.073 8.857 9.6 15.994 9.6s12.382-5.73 15.994-9.492c-3.697-4.407-8.943-9.7-15.994-9.7zm0 18.126c-6.336 0-10.16-3.929-14.524-8.532C6.668 10.584 10.796 7.471 16 7.471c6.161 0 10.975 4.443 14.558 8.591-3.523 3.674-8.293 8.469-14.558 8.469z"/><path d="M16 9.603c-3.528 0-6.398 2.87-6.398 6.397s2.87 6.397 6.398 6.397 6.398-2.87 6.398-6.397S19.528 9.603 16 9.603zm0 11.728c-2.939 0-5.331-2.391-5.331-5.331s2.392-5.331 5.331-5.331S21.331 13.06 21.331 16A5.338 5.338 0 0116 21.331z"/><path d="M16 12.268c-2.058 0-3.732 1.674-3.732 3.732s1.674 3.732 3.732 3.732c2.058 0 3.732-1.674 3.732-3.732S18.058 12.268 16 12.268zm0 6.398c-1.47 0-2.666-1.196-2.666-2.666S14.53 13.334 16 13.334 18.666 14.53 18.666 16A2.67 2.67 0 0116 18.666z"/></svg><svg viewBox="0 0 32 32" id="loop" xmlns="http://www.w3.org/2000/svg"><path d="M20.462 10.824l-9.265 9.196.753.756 9.265-9.196z"/><path d="M6.937 21.864c-3.234 0-5.864-2.631-5.864-5.864s2.631-5.864 5.864-5.864c1.566 0 2.987.621 4.04 1.624l.001-.006.054.047 2.076 2.066h-1.905v1.066h3.732v-3.732h-1.066v1.918l-2.084-2.074-.005.005a6.905 6.905 0 00-4.842-1.982c-3.821 0-6.931 3.109-6.931 6.931s3.109 6.931 6.931 6.931a6.907 6.907 0 005.011-2.156l-.753-.754a5.845 5.845 0 01-4.258 1.844zM25.063 9.069a6.887 6.887 0 00-4.597 1.759l.753.753a5.831 5.831 0 013.844-1.446c3.234 0 5.864 2.631 5.864 5.864s-2.631 5.864-5.864 5.864a5.839 5.839 0 01-4.028-1.613l-.002.01-3.531-3.518-.757.751 3.535 3.522.006-.006a6.902 6.902 0 004.776 1.921c3.821 0 6.931-3.109 6.931-6.931s-3.109-6.931-6.931-6.931z"/></svg><svg viewBox="0 0 19 32" id="medal" xmlns="http://www.w3.org/2000/svg"><path d="M13.608 12.783c.639-1.52 2.652-6.383 2.652-7.414V1.314H2.623v4.055c0 1.034 2 5.927 2.624 7.428C2.141 14.343.001 17.54.001 21.245a9.441 9.441 0 0018.882 0c0-3.717-2.153-6.923-5.275-8.463zM3.671 5.368V2.362h5.227v7.177h1.049V2.362h5.264v3.006c0 .575-1.287 3.96-2.569 7.004a9.405 9.405 0 00-3.2-.568 9.402 9.402 0 00-3.23.579C5.122 9.759 3.672 6 3.672 5.368zm5.77 24.269c-4.627 0-8.392-3.765-8.392-8.392s3.765-8.392 8.392-8.392c4.627 0 8.392 3.765 8.392 8.392s-3.765 8.392-8.392 8.392z"/><path d="M9.441 14.951a6.294 6.294 0 100 12.588 6.294 6.294 0 000-12.588zm0 11.539c-2.892 0-5.245-2.353-5.245-5.245S6.549 16 9.441 16c2.893 0 5.245 2.353 5.245 5.245s-2.352 5.245-5.245 5.245z"/></svg><svg viewBox="0 0 32 32" id="monitor" xmlns="http://www.w3.org/2000/svg"><path d="M29.861 22.931V3.739H2.138v19.192h13.328v4.265h-3.732v1.066h8.53v-1.066h-3.732v-4.265H29.86zM3.205 4.804h25.59v17.06H3.205V4.804z"/></svg><svg viewBox="0 0 32 32" id="paint" xmlns="http://www.w3.org/2000/svg"><path d="M27.995 5.338V3.684a2.611 2.611 0 00-2.611-2.611H8.217a2.61 2.61 0 00-2.61 2.611v1.654h-.489A2.178 2.178 0 002.94 7.517v3.649c0 1.203.975 2.179 2.178 2.179l10.037-.003c.613 0 1.113.499 1.113 1.113v3.679h-2.131v12.795h5.331V18.134h-2.134v-3.679a2.18 2.18 0 00-2.179-2.179h-1.32v.003H5.119a1.114 1.114 0 01-1.112-1.113V7.517c0-.613.499-1.113 1.112-1.113h.489v1.654a2.61 2.61 0 002.61 2.611h17.167a2.611 2.611 0 002.611-2.611V6.404h1.066V5.338h-1.066zM18.4 29.861h-3.199V19.198H18.4v10.663zm8.529-21.803c0 .852-.694 1.545-1.545 1.545H8.217a1.546 1.546 0 01-1.544-1.545V3.684c0-.852.692-1.545 1.544-1.545h17.167c.852 0 1.545.693 1.545 1.545v4.374z"/></svg><svg viewBox="0 0 32 32" id="play" xmlns="http://www.w3.org/2000/svg"><path d="M7.47 6.661L23.48 16 7.47 25.339V6.661zM6.404 4.804v22.391l19.192-11.196L6.404 4.803z"/></svg><svg viewBox="0 0 32 32" id="portfolio" xmlns="http://www.w3.org/2000/svg"><path d="M19.732 7.203V4.537h-7.464v2.666H3.205v20.259h25.59V7.203h-9.063zm-6.398-1.599h5.331v1.599h-5.331V5.604zM12.268 8.27h15.461v8.53h-7.997v-2.133h-7.464V16.8H4.271V8.27h7.997zm6.398 7.463v3.199h-5.331v-3.199h5.331zM4.271 26.396v-8.53h7.997v2.133h7.464v-2.133h7.997v8.53H4.272z"/></svg><svg viewBox="0 0 21 32" id="rocket" xmlns="http://www.w3.org/2000/svg"><path d="M10.667 7.467C9.174 7.467 8 8.64 8 10.134s1.173 2.667 2.667 2.667c1.493 0 2.667-1.173 2.667-2.667s-1.173-2.667-2.667-2.667zm0 4.266c-.907 0-1.6-.693-1.6-1.6s.693-1.6 1.6-1.6c.907 0 1.6.693 1.6 1.6s-.693 1.6-1.6 1.6z"/><path d="M16 18.933V9.12c0-2.987-1.973-7.04-5.333-9.12-3.36 2.08-5.333 6.133-5.333 9.173v9.813L.001 25.599h21.333l-5.333-6.667zm-10.667 5.6H2.24l3.093-3.893v3.893zm9.6 0H6.4V9.173c0-2.4 1.493-5.867 4.267-7.893 2.773 2.027 4.267 5.44 4.267 7.893v15.36zM16 20.64l3.093 3.893H16V20.64zM10.133 26.667H11.2V32h-1.067v-5.333zM12.8 26.667h1.067v3.2H12.8v-3.2zM7.467 26.667h1.067v3.2H7.467v-3.2z"/></svg><svg viewBox="0 0 30 32" id="settings" xmlns="http://www.w3.org/2000/svg"><path d="M25.6 18.453l4.267-.427v-4l-4.267-.427c-.267-1.28-.8-2.453-1.44-3.467l2.4-3.2-2.453-2.453-3.2 2.4c-1.013-.64-2.187-1.173-3.413-1.44l-.48-4.267h-4l-.48 4.267a10.407 10.407 0 00-3.36 1.387L5.867 4.479 3.414 6.932l2.347 3.307a10.407 10.407 0 00-1.387 3.36l-4.267.48v4l4.267.48c.267 1.227.8 2.4 1.44 3.467l-2.4 3.2 2.453 2.453 3.2-2.4c1.013.64 2.187 1.173 3.413 1.44l.533 4.267h4l.533-4.267a10.407 10.407 0 003.36-1.387l3.253 2.347 2.453-2.453-2.4-3.36c.64-1.067 1.12-2.187 1.387-3.413zm3.2-3.52v2.08l-3.2.32c.053-.427.107-.907.107-1.387s-.053-.907-.107-1.387l3.2.373zM23.947 5.76l1.173 1.173-1.76 2.4a9.727 9.727 0 00-1.813-1.813l2.4-1.76zm-10.08-3.627H16l.373 3.2c-.48-.053-.96-.107-1.387-.107-.48 0-.96.053-1.387.107l.267-3.2zM4.693 6.987L5.92 5.76l2.453 1.707c-.373.267-.693.587-1.013.907s-.64.64-.907 1.013l-1.76-2.4zm-3.626 10.08v-2.133l3.2-.373c-.053.48-.107.96-.107 1.44s.053.96.107 1.387l-3.2-.32zm4.853 9.12l-1.173-1.12 1.76-2.4c.533.64 1.12 1.28 1.76 1.76l-2.347 1.76zM16 29.867h-2.133l-.373-3.2c.48.053.96.107 1.44.107s.96-.053 1.44-.107l-.373 3.2zm-1.067-4.214A9.65 9.65 0 015.28 16c0-2.56 1.013-5.013 2.827-6.827s4.267-2.827 6.827-2.827a9.65 9.65 0 019.653 9.653c0 2.56-1.013 5.013-2.827 6.827s-4.213 2.827-6.827 2.827zm10.24-.64L24 26.186l-2.453-1.76c.373-.267.693-.587 1.013-.907s.587-.64.907-1.013l1.707 2.507z"/></svg><svg viewBox="0 0 32 32" id="shopbag" xmlns="http://www.w3.org/2000/svg"><path d="M3.205 3.205v25.59h25.59V3.205H3.205zm24.524 24.524H4.272V4.272h23.457v23.457z"/><path d="M9.068 13.334a6.931 6.931 0 0013.861 0V9.602h1.067V8.536h-3.199v1.066h1.065v3.732a5.87 5.87 0 01-5.864 5.864 5.871 5.871 0 01-5.865-5.864V9.602H11.2V8.536H8.001v1.066h1.065v3.732z"/></svg><svg viewBox="0 0 433.3 79.8" id="themeforest" xmlns="http://www.w3.org/2000/svg"><path d="M109.4 23.3h-3.3V13.1c0-1.7-.8-2.5-2.5-2.5s-2.5.8-2.5 2.5v10.2h-3.5c-1.5 0-2.3.7-2.3 2.2 0 1.5.8 2.3 2.4 2.3h3.4V58c0 1.7.8 2.5 2.4 2.5 1.7 0 2.6-.8 2.6-2.5V27.8h3.4c1.7 0 2.5-.7 2.5-2.2s-.8-2.3-2.6-2.3zM140.5 25.4c-2.5-2.2-5.4-3.4-8.8-3.4-4.3 0-7.7 1.7-10.3 5.1V13.2c0-1.7-.8-2.6-2.5-2.6-1.6 0-2.4.9-2.4 2.6v44.7c0 1.7.8 2.5 2.4 2.5 1.7 0 2.5-.8 2.5-2.5v-21c0-3.2 1-5.8 2.9-7.7 1.7-1.7 3.8-2.5 6.3-2.5s4.5.8 6.2 2.5c1.9 1.9 2.8 4.4 2.8 7.7v21c0 1.7.8 2.5 2.4 2.5 1.6 0 2.5-.8 2.5-2.5V34.7c0-3.8-1.4-6.9-4-9.3zM181.4 38.6c0-5.1-1.4-9.2-4.2-12.2-2.8-3-6.5-4.5-11.3-4.5-5.1 0-9.1 2.1-12.1 6.2-2.8 3.7-4.2 8.2-4.2 13.5 0 5.4 1.4 9.9 4.2 13.5 3.2 4.1 7.6 6.2 13.1 6.2 6 0 10.6-2 13.7-6 .3-.4.5-.8.5-1.3 0-.6-.2-1.2-.7-1.7-.5-.5-1.1-.8-1.7-.8-.5 0-1.4.5-2.6 1.5-1.7 1.3-2.9 2.2-3.8 2.6-1.7 1-3.5 1.5-5.4 1.5-3 0-5.7-1.3-8.1-4-2.4-2.7-3.5-5.6-3.5-8.8h24.3c1.2-.2 1.8-2.1 1.8-5.7zm-26.1.4c.1-3.9 1.2-7 3.4-9.3 2-2.1 4.4-3.1 7.3-3.1 2.8 0 5.2 1 7.1 3.1 2.1 2.3 3.2 5.4 3.2 9.3h-21zM231 25c-2.4-2.1-5.3-3.2-8.7-3.2-5.1 0-9 2.1-11.8 6.4-2.3-4.3-5.7-6.4-10.1-6.4-4 0-7.2 1.8-9.8 5.3v-2.4c0-1.9-.8-2.9-2.4-2.9-1.6 0-2.4 1-2.4 2.9v33c0 1.7.8 2.5 2.5 2.5 1.6 0 2.4-.8 2.4-2.5V37.6c0-3.2 1-5.8 2.9-7.8 1.8-1.7 3.9-2.6 6.4-2.6 2.1 0 4 .7 5.4 2.2 1.6 1.6 2.4 3.8 2.4 6.6v21.9c0 1.7.8 2.5 2.5 2.5 1.6 0 2.4-.8 2.4-2.5V37.7c0-3.3 1-5.9 3-7.8 1.8-1.8 3.9-2.7 6.4-2.7 2.1 0 3.9.7 5.4 2.2 1.6 1.6 2.4 3.8 2.4 6.6v21.9c0 1.6.8 2.4 2.5 2.4s2.5-.8 2.5-2.4V33.8c-.1-3.6-1.3-6.5-3.9-8.8zM271.8 38.6c0-5.1-1.4-9.2-4.2-12.2-2.8-3-6.5-4.5-11.3-4.5-5.1 0-9.1 2.1-12.1 6.2-2.8 3.7-4.2 8.2-4.2 13.5 0 5.4 1.4 9.9 4.2 13.5 3.2 4.1 7.6 6.2 13.1 6.2 6 0 10.6-2 13.7-6 .3-.4.5-.8.5-1.3 0-.6-.2-1.2-.7-1.7-.5-.5-1.1-.8-1.7-.8-.5 0-1.4.5-2.6 1.5-1.7 1.3-2.9 2.2-3.8 2.6-1.7 1-3.5 1.5-5.4 1.5-3.1 0-5.7-1.3-8.1-4-2.4-2.7-3.5-5.6-3.5-8.8H270c1.2-.2 1.8-2.1 1.8-5.7zm-26.1.4c.1-3.9 1.2-7 3.4-9.3 2-2.1 4.4-3.1 7.3-3.1 2.8 0 5.2 1 7.1 3.1 2.2 2.3 3.2 5.4 3.2 9.3h-21zM289.5 10.6h-4.4c-3.6 0-5.4 2.1-5.4 6.2v6.4h-3.2c-1.8 0-2.7.9-2.7 2.6 0 1.6.9 2.4 2.7 2.4h3.2V58c0 1.7.8 2.5 2.4 2.5 1.7 0 2.5-.8 2.5-2.5V28.2h4.1c1.9 0 2.9-.8 2.9-2.5 0-1.6-.9-2.5-2.8-2.5h-4.3v-4.7c0-1.7.4-2.7 1.1-3.1.4-.2 1.7-.3 3.8-.3 2 0 3-.7 3-2.2 0-1.5-1-2.3-2.9-2.3zM309.9 21.9c-5.1 0-9.2 2-12.2 6.1-2.7 3.7-4 8.2-4 13.5 0 5.3 1.3 9.8 4 13.5 3 4.1 7.1 6.2 12.2 6.2 5.2 0 9.2-2 12.2-6 2.7-3.6 4-8 4-13.2 0-5.4-1.4-10-4.1-13.7-3-4.3-7-6.4-12.1-6.4zm8 30.4c-1.9 3-4.6 4.5-8 4.5-3.3 0-5.9-1.7-7.9-5-1.8-3-2.7-6.6-2.7-10.8 0-4 .8-7.4 2.5-10.1 1.9-3 4.6-4.6 8-4.6 3.2 0 5.8 1.7 7.8 5 1.9 3.1 2.8 6.7 2.8 10.9.1 4.2-.8 7.5-2.5 10.1zM344.8 21.9c-2.7 0-5.6 2.5-8.7 7.4v-4.8c0-1.8-.8-2.7-2.4-2.7-1.7 0-2.5.9-2.5 2.8v33.1c0 1.7.8 2.5 2.5 2.5 1.6 0 2.4-.8 2.4-2.5V40.2c0-3.9 1.1-6.9 3.2-8.9 1-.9 3-1.9 5.8-3 2.1-.8 3.2-1.8 3.2-2.9 0-1-.4-1.9-1-2.5-.7-.7-1.5-1-2.5-1zM380.5 38.6c0-5.1-1.4-9.2-4.2-12.2-2.8-3-6.5-4.5-11.3-4.5-5 0-9.1 2.1-12.1 6.2-2.8 3.7-4.2 8.2-4.2 13.5 0 5.4 1.4 9.9 4.2 13.5 3.2 4.1 7.6 6.2 13.1 6.2 6 0 10.6-2 13.7-6 .3-.4.5-.8.5-1.3 0-.6-.2-1.2-.7-1.7-.5-.5-1.1-.8-1.7-.8-.5 0-1.4.5-2.6 1.5-1.7 1.3-2.9 2.2-3.8 2.6-1.7 1-3.5 1.5-5.4 1.5-3 0-5.7-1.3-8.1-4-2.4-2.7-3.5-5.6-3.5-8.8h24.3c1.3-.2 1.8-2.1 1.8-5.7zm-26 .4c.1-3.9 1.2-7 3.4-9.3 2-2.1 4.4-3.1 7.3-3.1s5.2 1 7.1 3.1c2.1 2.3 3.2 5.4 3.2 9.3h-21zM406.8 41.3c-1-.7-4.4-2.3-10.1-5-3.6-1.7-5.4-3.2-5.4-4.6 0-3.2 1.7-4.8 5.2-4.8 3.6 0 7.2 1.2 10.8 3.5.5.3 1 .5 1.5.5 1.4 0 2.1-.9 2.1-2.6 0-.9-.4-1.7-1.1-2.3-3.2-2.6-7.2-4-12-4-3.4 0-6.2.8-8.4 2.4-2.5 1.8-3.7 4.5-3.7 8 0 3.1 1.8 5.7 5.4 7.8 3.3 1.5 6.6 3 10 4.6 3.5 1.7 5.3 3.6 5.3 5.6 0 4-2.1 6-6.4 6-2.1 0-4.3-.5-6.5-1.4-2.2-1-3.8-2-4.6-3.2-.5-.7-1.1-1.1-1.7-1.1-.6 0-1.2.3-1.6 1-.5.6-.7 1.4-.7 2.2 0 .8.2 1.5.7 2.1 3 3.5 7.4 5.3 13.1 5.3 3.8 0 6.9-.9 9.5-2.8 2.8-2.1 4.2-5 4.2-8.7-.1-3.3-2-6.1-5.6-8.5zM430.7 23.3h-3.3V13.1c0-1.7-.8-2.5-2.5-2.5s-2.5.8-2.5 2.5v10.2h-3.5c-1.5 0-2.3.7-2.3 2.2 0 1.5.8 2.3 2.4 2.3h3.4V58c0 1.7.8 2.5 2.4 2.5 1.7 0 2.6-.8 2.6-2.5V27.8h3.4c1.7 0 2.5-.7 2.5-2.2 0-1.6-.9-2.3-2.6-2.3zM85 42c-.1 0-.1 0 0 0-1.8-1.9-4.5-2.7-8.8-2.7-1.6 0-3.7.1-5.7.3V4.9c0-2.7-2.2-4.9-4.9-4.9H4.9C2.2 0 0 2.2 0 4.9v60.6c0 2.7 2.2 4.9 4.9 4.9h16.3c.3.5.7 1 1 1.5 4.3 5.2 11.8 7.9 22.3 7.9 8 0 16.3-1.5 21.8-2.5l2-.4c6.7-1.2 10.3-2.6 12.6-5 1-.4 2.2-1 2.7-2 .3-.5.3-1.1.1-1.7-.2-.4-.5-.8-.8-1.1.3-.4.5-.7.7-1.1.8-.4 1.6-1 2-1.7.3-.5.3-1.1.1-1.7-.2-.6-.6-1-1.2-1.3 0-.3 0-.7-.1-1l.3-.6c1.2-.4 3-1.3 3.6-2.6.3-.6.4-1.4.1-2-.4-1.2-1.6-1.8-2.9-2.3 0-.2.1-.3.2-.4.3-.5.7-1 1-1.6 1.5-.6 3.4-1.5 4.2-3.1.4-.8.4-1.7.1-2.5-.7-2.2-3.9-2.9-6-3.2zm-1.3 8.8l-7.5 1.1 7.2.8c.6 1.7 1 5-1.9 7.8 0 0 0 .1.1.2l-5.9.8 6.3.6c.1 1 .1 2.3-.6 3.5L76.5 67l4-.1c0 .8-.8 4.1-12.3 6.1-13.1 2.3-50 10.3-44.2-18.6C29.7 25.6 60.5 13 66.8 13v27.8c-3.4.5-6.4 1.1-9.1 1.7-2.9-.4-10-1.2-13.6-.1l8.3 1.4c-7.5 2.1-10.8 3.9-10.8 3.9 8.7-2.5 18.5-4 23.1-4.7 7.7-.9 16.3-.3 18 1.5 2.8 3.3 1.8 5.3 1 6.3z"/></svg><svg viewBox="-21 -81 681.335 681" id="twitter" xmlns="http://www.w3.org/2000/svg"><path d="M200.965 515.293c241.05 0 372.87-199.703 372.87-372.871 0-5.672-.116-11.32-.37-16.938a266.692 266.692 0 0065.37-67.863c-23.48 10.441-48.753 17.461-75.257 20.637 27.055-16.23 47.828-41.895 57.625-72.488a262.838 262.838 0 01-83.215 31.808c-23.914-25.473-57.965-41.402-95.664-41.402-72.367 0-131.058 58.687-131.058 131.031 0 10.29 1.152 20.29 3.398 29.883C205.746 151.61 109.16 99.465 44.531 20.168 33.281 39.531 26.79 62.031 26.79 86.039c0 45.461 23.137 85.606 58.316 109.082-21.5-.66-41.695-6.562-59.351-16.387-.02.551-.02 1.086-.02 1.672 0 63.469 45.172 116.461 105.145 128.469a131.531 131.531 0 01-34.559 4.61c-8.43 0-16.648-.829-24.632-2.364 16.683 52.07 65.066 89.961 122.425 91.024-44.855 35.156-101.36 56.097-162.77 56.097-10.562 0-21.003-.605-31.261-1.816 58 37.176 126.871 58.87 200.887 58.87"/></svg><svg viewBox="0 0 363.8 86.9" id="videohive" xmlns="http://www.w3.org/2000/svg"><path d="M127.7 28.3c-1.3 0-2.3 1-3 2.9l-8.9 26-8.5-25.9c-.6-2-1.6-2.9-3-2.9s-2.1.8-2.1 2.3c0 .4.1.8.2 1.2l10.7 31.8c.5 1.4 1.4 2.1 2.7 2.1 1.5 0 2.5-.7 2.9-2.1l10.9-31.8c.1-.4.2-.7.2-1.1.1-1.8-.6-2.5-2.1-2.5zM137.8 27.1c-1.6 0-2.4.8-2.4 2.5V63c0 1.7.8 2.5 2.5 2.5s2.5-.8 2.5-2.5V29.6c-.1-1.7-.9-2.5-2.6-2.5zM137.8 15.8c-2.3 0-3.4 1.1-3.4 3.2 0 .9.3 1.8.9 2.5.6.7 1.4 1.1 2.4 1.1 2.4 0 3.6-1.1 3.6-3.2 0-.9-.3-1.8-1-2.5-.6-.7-1.4-1.1-2.5-1.1zM175.4 15.8c-1.7 0-2.6.9-2.6 2.6v14.9c-3.3-4.2-6.9-6.2-10.9-6.2-4.8 0-8.7 2.1-11.6 6.3-2.6 3.8-3.9 8.4-3.9 13.8 0 5.2 1.3 9.7 3.8 13.3 2.9 4 6.8 6 11.7 6 4.9 0 8.6-1.8 10.9-5.5v3.1c0 1.6.9 2.3 2.6 2.3 1.6 0 2.4-.8 2.4-2.3V18.4c.1-1.7-.7-2.6-2.4-2.6zm-5 41.2c-2.1 3-4.9 4.6-8.4 4.6-3.2 0-5.8-1.5-7.6-4.5-1.7-2.7-2.5-6-2.5-9.9 0-4 .9-7.4 2.6-10.3 1.9-3.1 4.4-4.7 7.6-4.7 3.5 0 6.3 1.5 8.4 4.6 1.9 2.8 2.8 6.2 2.8 10.2-.1 3.9-1 7.2-2.9 10zM215.2 43.8c0-5.1-1.4-9.2-4.2-12.2-2.8-3-6.5-4.5-11.3-4.5-5.1 0-9.1 2.1-12.1 6.2-2.8 3.7-4.2 8.2-4.2 13.5 0 5.4 1.4 9.8 4.2 13.5 3.2 4.1 7.6 6.2 13.1 6.2 6 0 10.6-2 13.7-6 .3-.4.5-.8.5-1.3 0-.6-.2-1.2-.7-1.7-.5-.5-1.1-.8-1.8-.8-.5 0-1.4.5-2.6 1.5-1.7 1.3-2.9 2.2-3.8 2.6-1.8 1-3.5 1.5-5.4 1.5-3.1 0-5.7-1.3-8.1-4-2.4-2.7-3.5-5.6-3.5-8.8h24.3c1.3-.3 1.9-2.1 1.9-5.7zm-26.1.3c.1-3.9 1.2-7 3.4-9.3 2-2.1 4.4-3.1 7.3-3.1 2.8 0 5.2 1 7.1 3.1 2.2 2.3 3.2 5.4 3.2 9.3h-21zM235.7 27.1c-5.1 0-9.2 2-12.2 6.1-2.7 3.7-4 8.2-4 13.5 0 5.3 1.4 9.8 4 13.5 3 4.1 7.1 6.2 12.2 6.2 5.2 0 9.3-2 12.2-6 2.7-3.6 4-8 4-13.2 0-5.4-1.4-10-4.1-13.7-3-4.3-7.1-6.4-12.1-6.4zm7.9 30.4c-1.9 3-4.6 4.5-8 4.5-3.3 0-5.9-1.7-7.9-5-1.8-3-2.7-6.6-2.7-10.8 0-4 .9-7.4 2.5-10.1 1.9-3 4.6-4.6 8-4.6 3.2 0 5.8 1.7 7.8 5 1.9 3.1 2.8 6.7 2.8 10.9.2 4.1-.7 7.4-2.5 10.1zM281 30.5c-2.5-2.2-5.4-3.4-8.9-3.4-4.3 0-7.7 1.7-10.3 5.1V18.4c0-1.8-.8-2.6-2.5-2.6-1.6 0-2.4.9-2.4 2.6v44.7c0 1.7.8 2.5 2.4 2.5 1.7 0 2.5-.8 2.5-2.5v-21c0-3.2 1-5.8 2.9-7.7 1.8-1.7 3.9-2.5 6.3-2.5 2.5 0 4.5.8 6.2 2.5 1.9 1.9 2.8 4.4 2.8 7.7v21c0 1.7.8 2.5 2.4 2.5 1.7 0 2.5-.8 2.5-2.5V39.9c.1-3.8-1.2-6.9-3.9-9.4zM293.6 15.8c-2.3 0-3.4 1.1-3.4 3.2 0 .9.3 1.8.9 2.5.6.7 1.4 1.1 2.4 1.1 2.4 0 3.6-1.1 3.6-3.2 0-.9-.3-1.8-1-2.5-.5-.7-1.4-1.1-2.5-1.1zM293.6 27.1c-1.6 0-2.5.8-2.5 2.5V63c0 1.7.8 2.5 2.5 2.5s2.5-.8 2.5-2.5V29.6c.1-1.7-.8-2.5-2.5-2.5zM327.7 28.3c-1.3 0-2.3 1-3 2.9l-8.9 26-8.5-25.9c-.6-2-1.6-2.9-3-2.9s-2.1.8-2.1 2.3c0 .4.1.8.2 1.2l10.7 31.8c.5 1.4 1.4 2.1 2.7 2.1 1.5 0 2.5-.7 2.9-2.1l10.9-31.8c.1-.4.2-.7.2-1.1.1-1.8-.6-2.5-2.1-2.5zM361.1 56.5c-.5 0-1.4.5-2.6 1.5-1.7 1.3-2.9 2.2-3.8 2.6-1.7 1-3.5 1.5-5.4 1.5-3.1 0-5.7-1.3-8.1-4-2.4-2.7-3.5-5.6-3.5-8.8H362c1.2 0 1.8-1.8 1.8-5.4 0-5.1-1.4-9.2-4.2-12.2-2.8-3-6.5-4.5-11.3-4.5-5.1 0-9.1 2.1-12.1 6.2-2.8 3.7-4.2 8.2-4.2 13.5 0 5.4 1.4 9.8 4.2 13.5 3.2 4.1 7.6 6.2 13.1 6.2 6 0 10.6-2 13.7-6 .3-.4.5-.8.5-1.3 0-.6-.2-1.2-.7-1.7-.5-.9-1.1-1.1-1.7-1.1zm-20-21.7c2-2.1 4.4-3.1 7.3-3.1 2.8 0 5.2 1 7.1 3.1 2.2 2.3 3.2 5.4 3.2 9.3h-21c.1-3.8 1.2-7 3.4-9.3zM82.6 8.5h-1.7c-.4-.6-.9-1.1-1.4-1.6-2.4-2.4-5.5-3.7-8.8-3.7-3.1 0-6.1 1.2-8.4 3.2-1.5-1.4-3.2-2.6-5.2-3.7C52.3.2 47-.7 43.2.5c-2.1.6-3.6 1.8-4.5 3.5-.7 1.3-.9 2.8-.6 4.4H21.9c-2.7 0-4.9 2.2-4.9 4.9v28.4c-.5-.1-.9-.1-1.4-.1-3.3 0-6.5 1.3-8.8 3.7-2.4 2.4-3.6 5.5-3.6 8.8 0 3.1 1.2 6.1 3.2 8.4C5 64 3.8 65.7 2.7 67.7.1 72.5-.7 77.8.5 81.6c.6 2.1 1.8 3.6 3.5 4.5 1.6.9 3.6 1 5.7.3 3.5-1.1 7-4.2 9.5-8.4.8.5 1.7.9 2.7.9h60.6c2.7 0 4.9-2.2 4.9-4.9V13.4c.1-2.7-2.1-4.9-4.8-4.9zM70.2 5.2c2.9 0 5.6 1.1 7.7 3.2 2.1 2.1 3.2 4.8 3.2 7.7 0 1-.2 2-.4 3L67.3 5.6c.9-.2 1.9-.4 2.9-.4zm7 19.4l-.8.8-5.4-5.5c.6.1 1.3.3 1.9.7 1.5.8 3 2.2 4.3 4zm-2.7-5.4c-.2-.1-.4-.3-.6-.4-1.7-.9-3.3-1.2-4.9-.9l-1.8-1.8c.1-1.9-.4-3.9-1.6-5.9l8.9 9zm-8.8 3.6c.2-.4.4-.7.7-1l6.8 6.8-2 2-.2.2-6-6.2c.2-.7.5-1.3.7-1.8zM62 9c1.5 1.6 2.5 3.3 2.9 4.9L61 10l1-1zm1.6 10c-.6.5-1.4 1-2.3 1.3-.2.1-.4.1-.5.1l-5.1-5.1c0-.1.1-.1.1-.2l2-2 5.8 5.9zM40.5 5c.6-1.1 1.7-2 3.3-2.5 3.3-1 8.1-.2 12.4 2 1.8.9 3.4 2.1 4.7 3.3l-6.6 6.6c-1.4 1.4-2.4 3-3 4.8-.8-.3-1.6-.7-2.4-1.1-4.3-2.3-7.6-5.8-8.7-9.1-.4-1.5-.3-2.9.3-4zm13.7 15.2l-1.2-.3c.1-.2.1-.4.2-.6l1 .9zM20.6 51.9c.8-1.5 2.2-3 4-4.3l.8.8-5.5 5.5c.1-.7.3-1.3.7-2zm4 7.9c-.6-.2-1.3-.4-1.8-.7-.4-.2-.7-.4-1-.7l6.8-6.8 2 2 .2.2-6.2 6zm8.5-2.1c.2.7.4 1.4.5 2.2-1.1.2-2.1.4-3.2.5l2.7-2.7zm-15.2-1.8l-1.8 1.8c-1.9-.1-3.9.4-5.9 1.6l9-9c-.1.2-.3.4-.4.6-.9 1.8-1.2 3.4-.9 5zm-4.1 4L10 63.8l-1-1c1.6-1.4 3.3-2.4 4.8-2.9zm-8.2-2.3c-.3-1-.4-1.9-.4-3 0-2.9 1.1-5.6 3.2-7.7s4.8-3.2 7.7-3.2c1 0 2 .2 3 .4L5.6 57.6zm12.6 18.3c-2.3 4.3-5.8 7.7-9.1 8.7-1.6.5-3 .4-4.1-.2-1.2-.6-2-1.8-2.5-3.3-1-3.3-.2-8.1 2.1-12.4.9-1.8 2.1-3.4 3.3-4.7l6.6 6.6c1.4 1.4 3 2.4 4.8 3-.4.7-.7 1.5-1.1 2.3zm1.6-4.1c-.2-.1-.4-.1-.6-.2l1-1c-.1.4-.2.8-.4 1.2zm-4.5-2.7l-.2-.2-2-2 5.8-5.8c.5.6 1 1.4 1.3 2.3.1.2.1.4.1.5l-5 5.2zm6.5-8.2c.4.2.8.4 1.2.5l-1.1 1.1c-.3-.8-.7-1.6-1.2-2.2.4.1.8.4 1.1.6zm1 11.3h-1c.4-1.4.7-2.7.8-4l2-2c-.3 1.3.1 2.8 1.1 3.8l1.9 1.1c-1.4.7-3.1 1.1-4.8 1.1zm4.9-9.2l.6-.6c1.7 0 3.5-.1 5.3-.5-.1 1.5-.4 2.9-1.1 4.2l-1.2-1.9c-.9-1.1-2.3-1.4-3.6-1.2zm1.8 9.5c.2-.1.3-.2.5-.3l3.5-3.6 5.6 9.3-9.6-5.4zm16-20.4c-1.6 3-5.4 5.8-10 7.3-.5-2.4-1.6-4.6-3.4-6.4l-6.2-6.2c1.5-.9 3.1-1.6 4.9-2.2 7.1-2.2 14.1-.6 15.3 3.4.4 1.2.2 2.6-.6 4.1zm1.6-12.6l5.5-9.7v.1l4 3.9-9.5 5.7zm7.8-13.8l-1.1 2c-.8-1.5-1.2-3.2-1.2-4.9v-1c1.4.4 2.7.7 4 .8l2 2c-1.2-.3-2.7.1-3.7 1.1zm3.9 6.9l1.9-1.2c1-1 1.3-2.4 1.1-3.7l.6.6c-.1 1.7.1 3.5.5 5.3-1.4 0-2.8-.4-4.1-1zm4.6-9.6l-1-1.1c.8-.3 1.6-.7 2.2-1.2-.2.3-.5.7-.7 1.1-.1.4-.3.8-.5 1.2zm1.1 7.4l2.6 2.6c-.7.2-1.4.4-2.2.5-.2-1-.3-2-.4-3.1zm12.4 15.7c-1.2.4-2.7.2-4.1-.6-3-1.6-5.8-5.4-7.3-10 2.4-.5 4.6-1.6 6.4-3.4l6.2-6.2c.9 1.5 1.6 3.1 2.1 4.9 2.2 7.1.7 14.1-3.3 15.3z"/></svg></svg>