<svg width="11" height="21" viewBox="0 0 11 21" fill="none" xmlns="http://www.w3.org/2000/svg">
<path opacity="0.7" d="M3.76292 1.07635C4.59151 0.300535 5.76478 0.0367549 6.87632 0.00633705C8.04959 -0.00380223 9.22319 0.00126741 10.3961 0.00126741C10.4013 1.22337 10.4013 2.4404 10.3961 3.6625C9.6399 3.6625 8.87818 3.6625 8.12194 3.6625C7.64285 3.63208 7.1493 3.99219 7.06152 4.4639C7.05156 5.28043 7.05638 6.09664 7.05638 6.91317C8.16792 6.91856 9.27978 6.91317 10.391 6.91856C10.3087 8.09978 10.1595 9.27658 9.98458 10.4429C9.00165 10.453 8.01873 10.4429 7.0358 10.448C7.02551 13.9318 7.04094 17.4105 7.03066 20.8949C5.56897 20.9 4.11307 20.8899 2.65138 20.9C2.62565 17.4159 2.65138 13.9321 2.63594 10.448C1.92568 10.4429 1.21027 10.453 0.5 10.4429C0.505145 9.27151 0.5 8.1001 0.5 6.93345C1.21027 6.92331 1.92568 6.93345 2.63594 6.92838C2.65652 5.79246 2.61504 4.65148 2.65652 3.51564C2.73401 2.60801 3.07869 1.70023 3.76292 1.07635Z" fill="white"/>
</svg>
