<svg width="26" height="26" viewBox="0 0 26 26" fill="none" xmlns="http://www.w3.org/2000/svg">
<g opacity="0.7">
<path d="M12.9727 6.71094C9.49283 6.71094 6.66101 9.51219 6.66101 12.956C6.66101 16.3998 9.49222 19.201 12.9727 19.201C16.4525 19.201 19.2844 16.3998 19.2844 12.956C19.2844 9.51219 16.4525 6.71094 12.9727 6.71094ZM12.9727 16.9017C10.7596 16.9017 8.95972 15.1312 8.95972 12.956C8.95972 10.7808 10.7596 9.01026 12.9727 9.01026C15.1846 9.01026 16.9857 10.7808 16.9857 12.956C16.9857 15.1318 15.1858 16.9017 12.9727 16.9017Z" fill="white"/>
<path d="M18.0837 0.862305H7.82263C3.98452 0.862305 0.862305 3.98513 0.862305 7.82263V18.1778C0.862305 22.0153 3.98452 25.1382 7.82263 25.1382H18.0837C21.9218 25.1382 25.0434 22.0153 25.0434 18.1778V7.82263C25.0434 3.98513 21.9218 0.862305 18.0837 0.862305ZM22.7398 18.1778C22.7398 20.7456 20.6514 22.8346 18.0837 22.8346H7.82263C5.25492 22.8346 3.1653 20.7456 3.1653 18.1778V7.82263C3.1653 5.25553 5.25492 3.16591 7.82263 3.16591H18.0837C20.6514 3.16591 22.7398 5.25553 22.7398 7.82263V18.1778Z" fill="white"/>
<path d="M19.3969 7.94069C20.217 7.94069 20.8819 7.27583 20.8819 6.4557C20.8819 5.63556 20.217 4.9707 19.3969 4.9707C18.5767 4.9707 17.9119 5.63556 17.9119 6.4557C17.9119 7.27583 18.5767 7.94069 19.3969 7.94069Z" fill="white"/>
</g>
</svg>
