<svg width="12" height="12" viewBox="0 0 12 12" fill="none" xmlns="http://www.w3.org/2000/svg">
<path opacity="0.7" d="M8.2193 7.321C7.40094 8.0461 7.35406 8.81807 6.58648 8.77119C5.81109 8.7253 5.08648 7.90694 4.35992 7.08907C3.63531 6.27071 2.90875 5.45186 2.95465 4.67989C2.99957 3.90645 3.77301 3.95332 4.58844 3.22774C5.40973 2.50117 3.23004 0.0465845 2.46051 0.000686014C1.68609 -0.0447242 0.00445289 2.1794 0.00445289 2.1794C-0.0892971 3.72188 1.31305 6.94795 2.7232 8.54024C4.13531 10.132 7.17144 11.906 8.71637 11.9997C8.71637 11.9997 11.1236 10.5925 11.1714 9.821C11.2173 9.04903 9.03961 6.59395 8.2193 7.321Z" fill="white"/>
</svg>
