<svg width="26" height="15" viewBox="0 0 26 15" fill="none" xmlns="http://www.w3.org/2000/svg">
<path opacity="0.7" d="M25.862 13.5465C25.8309 13.4784 25.8009 13.421 25.7742 13.3755C25.3224 12.5539 24.4608 11.5455 23.1884 10.3498L23.1611 10.3227L23.148 10.3087L23.1344 10.2957H23.1207C22.5434 9.73838 22.1778 9.36454 22.0245 9.17252C21.7446 8.80806 21.6813 8.43809 21.8352 8.06425C21.9438 7.78146 22.3497 7.1836 23.0536 6.27066C23.4235 5.78757 23.7166 5.39939 23.9337 5.10694C25.4948 3.00793 26.1708 1.66681 25.9635 1.08247L25.8822 0.945348C25.8282 0.863131 25.688 0.788088 25.4626 0.719666C25.2373 0.651244 24.9486 0.640208 24.5967 0.685455L20.6981 0.713596C20.608 0.704216 20.5175 0.706699 20.4269 0.719942C20.3369 0.734288 20.2785 0.747531 20.2512 0.761326C20.2239 0.775121 20.2015 0.786433 20.1835 0.794985L20.129 0.836369C20.0842 0.863407 20.0346 0.911413 19.9806 0.98011C19.926 1.04881 19.8807 1.12827 19.8452 1.21986C19.4207 2.32427 18.9384 3.35087 18.3966 4.30022C18.0626 4.86581 17.756 5.3569 17.4766 5.77184C17.1967 6.18734 16.9621 6.49303 16.7727 6.68864C16.5834 6.8848 16.4115 7.04289 16.2582 7.16097C16.1049 7.28016 15.9876 7.32982 15.9068 7.31161C15.8249 7.29368 15.7486 7.27519 15.6765 7.25643C15.5505 7.17449 15.4479 7.06275 15.3721 6.92122C15.2951 6.77996 15.2433 6.60201 15.216 6.38764C15.1887 6.17299 15.1729 5.98842 15.1691 5.83309C15.1642 5.67776 15.1664 5.4587 15.1756 5.17619C15.1844 4.8934 15.1887 4.70193 15.1887 4.60095C15.1887 4.2547 15.1958 3.87811 15.2095 3.47171C15.2231 3.0656 15.2346 2.7439 15.2433 2.50663C15.2526 2.26992 15.2564 2.01858 15.2564 1.75372C15.2564 1.48969 15.2406 1.28166 15.2089 1.13075C15.1773 0.98011 15.1303 0.834714 15.0671 0.692628C15.0038 0.551371 14.9115 0.441565 14.7893 0.364866C14.6676 0.287064 14.5165 0.225539 14.3359 0.179741C13.8574 0.0702107 13.2487 0.0114452 12.5085 0.0017889C10.8302 -0.0155924 9.75142 0.0936617 9.27317 0.330655C9.08356 0.431356 8.91168 0.567924 8.7589 0.741738C8.59603 0.942313 8.57366 1.05239 8.69124 1.06978C9.23279 1.15199 9.6161 1.34843 9.84172 1.65853L9.92303 1.82242C9.98605 1.94188 10.0493 2.15128 10.1126 2.45228C10.1759 2.75356 10.216 3.08656 10.2346 3.45157C10.2796 4.11786 10.2796 4.68813 10.2346 5.16295C10.1893 5.63776 10.1467 6.00718 10.1061 6.27121C10.0652 6.5358 10.0043 6.74989 9.92303 6.91432C9.84172 7.07903 9.78771 7.17973 9.76042 7.21588C9.73314 7.25229 9.71104 7.27519 9.69276 7.28457C9.57518 7.32982 9.45377 7.35272 9.32719 7.35272C9.20087 7.35272 9.04754 7.28899 8.86666 7.16097C8.68633 7.03351 8.4989 6.85749 8.30493 6.63374C8.11068 6.41054 7.89242 6.09768 7.64825 5.69625C7.40462 5.29482 7.15172 4.82028 6.89035 4.27291L6.67401 3.87535C6.53869 3.62014 6.35317 3.24796 6.11882 2.75991C5.88419 2.27185 5.6763 1.79979 5.49597 1.34264C5.42367 1.15144 5.31563 1.00549 5.17104 0.904791L5.10365 0.863407C5.05836 0.827265 4.98607 0.788364 4.88676 0.747531C4.78718 0.706147 4.68378 0.676627 4.57547 0.658142L0.866478 0.685455C0.48753 0.685455 0.23026 0.772638 0.0949415 0.946175L0.0406502 1.02784C0.0133682 1.07419 0 1.14703 0 1.24745C0 1.34788 0.027282 1.47093 0.0815733 1.61632C0.623122 2.90365 1.2116 4.14462 1.84809 5.33979C2.48458 6.53552 3.03676 7.49839 3.50656 8.22841C3.97581 8.95898 4.45379 9.64733 4.94132 10.2957C5.42858 10.9438 5.75133 11.3587 5.90929 11.5411C6.06698 11.7237 6.19057 11.8606 6.28142 11.9519L6.61972 12.2807C6.83606 12.4995 7.15444 12.7622 7.57377 13.0676C7.99364 13.3738 8.45825 13.6748 8.96815 13.9706C9.47778 14.2675 10.0717 14.5089 10.748 14.6965C11.4249 14.8838 12.0838 14.9589 12.7241 14.9222H14.2808C14.5973 14.8948 14.8362 14.7947 14.9983 14.6209L15.0523 14.5525C15.0883 14.4981 15.1227 14.4134 15.1544 14.2997C15.1855 14.1855 15.2018 14.0597 15.2018 13.9231C15.192 13.5305 15.222 13.1763 15.2897 12.8621C15.3573 12.5473 15.4337 12.31 15.5199 12.1497C15.6056 11.9905 15.7022 11.8559 15.8108 11.7463C15.9193 11.6365 15.9957 11.5711 16.041 11.5477C16.0863 11.5253 16.1229 11.5096 16.1496 11.5C16.3657 11.4269 16.6205 11.4978 16.9146 11.7119C17.2076 11.9268 17.4832 12.1908 17.7401 12.5059C17.9971 12.8209 18.306 13.1741 18.6672 13.567C19.0279 13.9596 19.3438 14.2512 19.615 14.4429L19.8856 14.6076C20.0662 14.7169 20.3008 14.817 20.5895 14.9089C20.8781 14.9997 21.1313 15.0229 21.3479 14.9773L24.8133 14.9222C25.156 14.9222 25.4222 14.8653 25.6116 14.7508C25.8009 14.6374 25.9144 14.5114 25.9499 14.3745C25.9859 14.2377 25.9886 14.0832 25.957 13.9093C25.9248 13.7361 25.8937 13.6152 25.862 13.5465Z" fill="white"/>
</svg>
