<svg xmlns="http://www.w3.org/2000/svg" width="512" height="512"><path d="M256 0C115.04 0 0 115.05 0 256c0 140.96 115.05 256 256 256 140.96 0 256-115.05 256-256C512 115.04 396.95 0 256 0zm173.64 111.51c31.96 38.34 51.47 87.39 52.31 140.89-40.06-9.37-84.55-10-129.86-1.74a392.024 392.024 0 00-35.3 8.16 716.92 716.92 0 00-12.44-31.55 700.81 700.81 0 00-14.19-31.38c53.99-20.62 112.49-51.32 139.48-84.38zM256 30c58.82 0 112.45 22.59 152.7 59.54-15.7 21.41-60.44 52.58-132.22 79.46-25.06-46.66-55.11-89.54-89.83-128.1C208.51 33.83 231.82 30 256 30zm-99.05 22.9c35.41 37.93 65.87 80.29 90.96 126.05-74.68 24.17-150.29 34.03-212.46 27.66C50.59 138.96 96.14 82.67 156.95 52.9zM30 256c0-6.64.31-13.21.87-19.7 13.72 1.45 28.03 2.18 42.82 2.18 58.33 0 123.86-11.22 188.21-32.53 9.82 20.1 18.65 40.78 26.44 61.97-25.09 9.02-49.51 20.49-72.44 34.14-56.22 33.47-97.35 76.53-114.41 118.71C57.52 379.51 30 320.91 30 256zm226 226c-48.29 0-93.09-15.23-129.86-41.14 11.4-38.52 49.96-80.19 105.11-113.02 19.43-11.58 42.15-22.49 66.88-31.36 17.53 55.1 28.27 113.26 31.68 173.13C306.67 477.63 281.84 482 256 482zm103.07-24.9c-4.16-58.32-15.02-115.1-32.45-169.64 48.6-13.36 102.58-17.84 153.77-4.56-9.06 76.01-55.98 140.57-121.32 174.2z"/></svg>