<svg xmlns="http://www.w3.org/2000/svg" width="512" height="512" viewBox="0 0 96.124 96.123"><path d="M62.165 19.862l-7.316-.012c-8.22 0-13.533 5.45-13.533 13.886v6.402H33.96a1.15 1.15 0 00-1.15 1.151v9.276c0 .636.515 1.15 1.15 1.15h7.356v23.407c0 .636.515 1.15 1.15 1.15h9.6a1.15 1.15 0 001.15-1.15V51.716h8.601a1.15 1.15 0 001.15-1.15l.004-9.277a1.152 1.152 0 00-1.15-1.15h-8.605V34.71c0-2.609.621-3.933 4.02-3.933l4.928-.002a1.15 1.15 0 001.15-1.15v-8.613a1.15 1.15 0 00-1.149-1.15z" data-original="#000000" class="active-path"/></svg>