<svg xmlns="http://www.w3.org/2000/svg" viewBox="0 0 23.952 23.952" width="512" height="512"><path d="M16.206 4.591h-1.444l.484.394c.193.16.373.357.548.594.172.236.319.511.44.823.12.311.182.668.182 1.068 0 .384-.057.727-.172 1.024-.113.3-.26.568-.439.808s-.388.454-.622.643l-.724.553c-.149.148-.294.3-.44.46a.865.865 0 00-.216.604c0 .24.085.432.253.573.172.143.327.257.466.344l.835.604c.23.198.445.397.653.6.206.2.392.418.556.653.161.235.292.493.383.775.092.282.136.606.136.973 0 .512-.124 1.011-.376 1.494-.251.484-.623.918-1.118 1.303-.494.385-1.107.693-1.837.923-.732.23-1.574.346-2.53.346-.841 0-1.571-.085-2.19-.258-.619-.172-1.136-.4-1.55-.686-.412-.286-.72-.611-.923-.978a2.36 2.36 0 01-.3-1.154c0-.388.124-.827.376-1.32.251-.49.711-.923 1.38-1.296a5.98 5.98 0 011.14-.483 9.887 9.887 0 011.2-.292c.398-.069.774-.118 1.13-.148.355-.029.663-.051.917-.066a6.652 6.652 0 01-.442-.62c-.133-.216-.201-.496-.201-.84 0-.184.023-.335.068-.458.044-.123.093-.247.15-.37a6.318 6.318 0 01-.73.044c-.618 0-1.163-.096-1.637-.293a3.869 3.869 0 01-1.208-.762 3.079 3.079 0 01-.742-1.083 3.22 3.22 0 01-.25-1.237c0-.497.123-.999.359-1.508a3.97 3.97 0 011.088-1.368c.667-.512 1.36-.835 2.082-.97.72-.134 1.392-.202 2.017-.202h4.734l-1.486.79zm-.56 12.312c0-.265-.043-.507-.133-.73a2.258 2.258 0 00-.404-.637 4.3 4.3 0 00-.765-.652L13.22 14.1a.769.769 0 00-.241-.046h-.284c-.058 0-.169.005-.333.011-.165.008-.362.024-.593.049a14.2 14.2 0 00-.74.104 5.954 5.954 0 00-.753.174 7.384 7.384 0 00-.526.202c-.221.09-.437.221-.653.391-.216.17-.403.388-.558.649-.159.261-.236.577-.236.948 0 .383.092.732.277 1.045.185.312.456.587.808.828.35.239.775.42 1.273.542a6.86 6.86 0 001.661.185c1.106 0 1.936-.213 2.491-.642s.834-.974.834-1.637zM13.814 10c.26-.255.42-.528.476-.82.057-.29.085-.533.085-.728a5.16 5.16 0 00-.174-1.26 4.773 4.773 0 00-.529-1.269 3.546 3.546 0 00-.88-.991 1.96 1.96 0 00-1.226-.404c-.299 0-.595.067-.886.2-.29.135-.533.305-.72.507a1.822 1.822 0 00-.4.742 3.38 3.38 0 00-.103.829c0 .356.057.754.167 1.193.111.441.286.851.524 1.238.239.384.536.709.887.969.355.263.775.393 1.266.393.288 0 .569-.053.84-.164.271-.11.497-.255.673-.435z" data-original="#030104" class="active-path" data-old_color="#030104" fill="#030104"/></svg>