<svg xmlns="http://www.w3.org/2000/svg" viewBox="0 0 511.977 511.977" width="512" height="512"><path d="M259.104 141.428c-62.797 0-96.193 40.241-96.193 84.12 0 20.35 11.37 45.726 29.572 53.775 2.764 1.246 4.268.716 4.884-1.848.544-1.947 2.935-11.327 4.095-15.753.358-1.417.172-2.649-.973-3.98-6.044-6.99-10.841-19.72-10.841-31.664 0-30.603 24.33-60.319 65.732-60.319 35.802 0 60.85 23.257 60.85 56.524 0 37.592-19.892 63.599-45.741 63.599-14.307 0-24.962-11.228-21.582-25.119 4.082-16.54 12.087-34.327 12.087-46.256 0-10.698-6.043-19.548-18.388-19.548-14.564 0-26.379 14.421-26.379 33.783 0 12.301 4.354 20.607 4.354 20.607s-14.407 58.2-17.085 69.07c-4.525 18.402.616 48.203 1.06 50.766.272 1.418 1.861 1.862 2.75.702 1.417-1.861 18.831-26.708 23.715-44.666 1.775-6.545 9.065-33.081 9.065-33.081 4.797 8.664 18.645 15.924 33.396 15.924 43.878 0 75.585-38.565 75.585-86.425-.158-45.884-39.425-80.211-89.963-80.211z" data-original="#000000" class="active-path"/></svg>