<svg width="16" height="16" viewBox="0 0 16 16" xmlns="http://www.w3.org/2000/svg">
<path d="M15.0003 7.08492C15.5826 7.29037 16 7.84652 16 8.50186V12.4986C16 13.328 15.3267 14.0003 14.5 14.0003H12.9999V16.0004L9.99987 14.0003H7.50065C6.67174 14.0003 5.99978 13.3291 5.99978 12.4986V12.0006L2.50005 15.0003V12.0003H2.00014C0.895496 12.0003 0 11.1095 0 10.0002V2.00004C0 0.893926 0.894533 0 2.00217 0H12.9982C14.1039 0 15.0003 0.890802 15.0003 2.00004V7.08492ZM14.0003 7.00015V2.00004C14.0003 1.44435 13.5529 1.00002 12.9982 1.00002H2.00217C1.44769 1.00002 1.00002 1.44536 1.00002 2.00004V10.0002C1.00002 10.5561 1.44677 11.0002 2.00014 11.0002H3.50008V12.7503L5.50012 11.0002H5.99978V8.50186C5.99978 7.67249 6.67145 7.00015 7.49691 7.00015H14.0003ZM11.9999 13.0003H14.5046C14.7782 13.0003 15 12.7724 15 12.5026V8.49788C15 8.22301 14.7777 8.00018 14.4995 8.00018H7.50025C7.22386 8.00018 6.9998 8.22801 6.9998 8.49788V12.5026C6.9998 12.7775 7.22683 13.0003 7.50144 13.0003H10.3027L11.9999 14.1318V13.0003ZM12.9999 11.0002C12.7238 11.0002 12.4999 10.7764 12.4999 10.5002C12.4999 10.2241 12.7238 10.0002 12.9999 10.0002C13.2761 10.0002 13.4999 10.2241 13.4999 10.5002C13.4999 10.7764 13.2761 11.0002 12.9999 11.0002ZM10.9999 11.0002C10.7237 11.0002 10.4999 10.7764 10.4999 10.5002C10.4999 10.2241 10.7237 10.0002 10.9999 10.0002C11.276 10.0002 11.4999 10.2241 11.4999 10.5002C11.4999 10.7764 11.276 11.0002 10.9999 11.0002ZM8.99985 11.0002C8.7237 11.0002 8.49984 10.7764 8.49984 10.5002C8.49984 10.2241 8.7237 10.0002 8.99985 10.0002C9.276 10.0002 9.49986 10.2241 9.49986 10.5002C9.49986 10.7764 9.276 11.0002 8.99985 11.0002Z"/>
</svg>
