<svg width="48" height="31" viewBox="0 0 48 31" fill="none" xmlns="http://www.w3.org/2000/svg">
<path fill-rule="evenodd" clip-rule="evenodd" d="M0 6.66562V19.9978C0 20.7263 0.603114 21.3295 1.33169 21.3295H10.3766C11.1258 23.1469 12.7694 24.354 14.6907 24.6246C15.5851 25.9357 16.9589 26.934 18.4985 27.2674C19.6429 28.7308 21.5015 29.6046 23.3539 29.48C26.7942 31.4157 30.6647 29.73 33.2313 27.2047L39.2105 21.3295H46.6674C47.396 21.3295 47.9991 20.7263 47.9991 19.9978V5.99978C47.9991 5.2712 47.396 4.66809 46.6674 4.66809H37.8994C35.4798 2.24756 33.8147 0 30.1871 0H27.7522C26.3999 0 25.0817 0.415817 23.9785 1.165C22.8762 0.415817 21.5651 0 20.2128 0H16.7304C12.7694 0 11.1258 2.58004 8.73306 5.33393H1.33169C0.603114 5.33393 0 5.93794 0 6.66562ZM44.039 11.1885C41.5763 11.1885 41.5763 7.44976 44.039 7.44976C46.4944 7.44976 46.4944 11.1885 44.039 11.1885ZM3.81494 11.6877C1.35947 11.6877 1.35947 7.94175 3.81494 7.94175C6.27758 7.94175 6.27758 11.6877 3.81494 11.6877ZM13.4146 17.4383C15.0447 15.3091 16.6327 13.1448 18.4922 11.2029L21.0722 14.0957C23.3404 16.6757 27.4054 16.6139 29.618 13.9711C31.1854 12.0703 31.1854 9.34424 29.5768 7.46499L25.9214 3.21273C27.2047 2.55405 28.7514 2.78257 30.1315 2.78257C31.3521 2.78257 32.5243 3.27546 33.3917 4.14204L36.6591 7.40226H39.8566V18.6311C38.9479 18.6311 38.1225 18.5066 37.4011 19.2136L31.2696 25.2412C30.0069 26.4555 28.3768 27.53 26.5809 27.53C25.6516 27.53 24.6667 27.2181 24.0009 26.5585C22.4541 27.0926 20.6573 26.2252 20.1859 24.6372C19.1939 24.7205 18.2852 24.4149 17.5638 23.7285C17.0924 23.2983 16.4678 22.4317 16.5305 21.7515C16.3432 21.9317 15.8925 21.9523 15.6424 21.9523C13.1861 21.9541 11.9099 19.3731 13.4146 17.4383ZM10.1338 18.6311H8.15055V8.06721H10.0719L13.3115 4.34905C14.179 3.35701 15.4757 2.78167 16.8003 2.78167H20.2478C21.3993 2.78167 22.516 3.29517 23.258 4.16176L27.5721 9.17665C28.3347 10.0854 28.3347 11.3687 27.5927 12.2774C26.4133 13.679 24.2491 13.6996 23.0357 12.3401L19.0469 7.83869C18.097 6.78391 16.3629 7.77596 16.7994 9.12199C16.0152 10.0307 15.1693 10.9116 14.3995 11.8203C13.3725 13.1036 12.3813 14.4425 11.3687 15.7464C10.7306 16.5717 10.252 17.5638 10.1275 18.6392L10.1338 18.6311Z" fill="#333333"/>
</svg>
