<svg width="24" height="24" viewBox="0 0 24 24" xmlns="http://www.w3.org/2000/svg">
<path d="M23 9H1C0.45 9 0 9.45 0 10V14C0 14.55 0.45 15 1 15H1.2L3 23.2C3.1 23.65 3.5 24 4 24H20C20.45 24 20.85 23.65 21 23.2L22.8 15H23C23.55 15 24 14.55 24 14V10C24 9.45 23.55 9 23 9ZM2 11H22V13H2V11ZM19.2 22H4.8L3.25 15H20.75L19.2 22Z"/>
<path d="M6 8C6.55 8 7 7.55 7 7C7 4.25 9.25 2 12 2C14.75 2 17 4.25 17 7C17 7.55 17.45 8 18 8C18.55 8 19 7.55 19 7C19 3.15 15.85 0 12 0C8.15 0 5 3.15 5 7C5 7.55 5.45 8 6 8Z"/>
</svg>
