<svg width="48" height="40" viewBox="0 0 48 40" fill="none" xmlns="http://www.w3.org/2000/svg">
<path d="M47.9997 17.2261C47.9463 16.9594 47.733 16.7461 47.4663 16.6928L47.1463 16.6394V12.1061L47.6797 11.6794C47.893 11.5194 47.9997 11.1994 47.893 10.9328C47.7863 10.6661 47.6263 10.4528 47.3597 10.3994L44.4263 9.8661V6.07944V6.0261L44.9597 5.5461C45.173 5.3861 45.2797 5.0661 45.173 4.79944C45.1197 4.53277 44.9063 4.31944 44.6397 4.2661L20.6397 -0.000561452C20.4797 -0.0538948 20.2663 -0.000561453 20.1063 0.106105L1.59967 13.0661C1.22633 13.2794 -0.0536681 14.1328 -0.000334737 16.5861C0.0529986 19.2528 1.59967 20.4261 1.653 20.4794C1.653 20.4794 1.653 20.4794 1.70633 20.4794C1.70633 20.4794 1.75967 20.4794 1.75967 20.5328C1.75967 20.5328 1.813 20.5328 1.813 20.5861H1.86633H1.91967C1.91967 20.5861 1.91967 20.5861 1.973 20.5861L3.093 20.7994C2.933 21.2794 2.773 21.8661 2.82633 22.6661C2.82633 23.9994 3.253 24.9594 3.62633 25.5994L2.773 26.1861C2.39967 26.3994 1.11967 27.2528 1.173 29.7061C1.22633 32.3728 2.773 33.5461 2.82633 33.5994C2.87967 33.6528 2.98633 33.7061 3.093 33.7061L28.1597 38.9861L29.0663 39.1994C29.1197 39.1994 29.173 39.1994 29.2263 39.1994C29.3863 39.1994 29.5463 39.1461 29.7063 39.0394L46.1863 24.9594C46.3997 24.7994 46.453 24.5328 46.3997 24.2661C46.3463 23.9994 46.133 23.7861 45.8663 23.7328L45.5463 23.6794V19.8928L47.7863 17.9728C47.9463 17.7594 48.053 17.4928 47.9997 17.2261ZM27.9463 19.7861C28.1063 19.7861 28.2663 19.7328 28.4263 19.6261L42.933 7.19944V11.7328L27.8397 24.5861V19.7861C27.893 19.7861 27.893 19.7861 27.9463 19.7861ZM2.71967 14.5061L26.453 19.4661V24.2661L2.71967 19.3061V14.5061ZM3.78633 32.4261V27.6261L27.4663 32.5861V37.3861L3.78633 32.4261ZM5.43967 25.4394V21.3328L26.9863 25.8661L27.893 26.0794C27.9463 26.0794 27.9997 26.0794 28.053 26.0794C28.213 26.0794 28.373 26.0261 28.533 25.9194L28.9063 25.5994L29.1197 25.6528V30.4528L5.43967 25.4394ZM44.1063 24.7994L28.9063 37.7061V32.9061C28.9597 32.9061 29.013 32.9061 29.013 32.9061C29.173 32.9061 29.333 32.8528 29.493 32.7461L30.293 32.0528L30.6663 32.1061C30.7197 32.1061 30.773 32.1061 30.8263 32.1061C30.9863 32.1061 31.1463 32.0528 31.3063 31.9461L44.1063 21.0128V24.7994ZM45.7063 17.8128L30.5597 30.7194V25.9194C30.613 25.9194 30.6663 25.9194 30.6663 25.9194C30.8263 25.9194 30.9863 25.8661 31.1463 25.7594L45.7063 13.3328V17.8128Z" fill="#333333"/>
</svg>
