<svg width="24" height="28" viewBox="0 0 24 28" fill="none" xmlns="http://www.w3.org/2000/svg">
<path d="M4.72061 5.48337C4.22789 5.48337 3.82812 5.0836 3.82812 4.59022V0.893146C3.82812 0.399764 4.22789 0 4.72061 0C5.21399 0 5.61376 0.399764 5.61376 0.893146V4.59055C5.61343 5.08361 5.21399 5.48337 4.72061 5.48337Z" fill="#333333"/>
<path d="M15.6269 5.48337C15.1341 5.48337 14.7344 5.0836 14.7344 4.59022V0.893146C14.7344 0.399764 15.1341 0 15.6269 0C16.1202 0 16.5194 0.399764 16.5194 0.893146V4.59055C16.5194 5.08361 16.1202 5.48337 15.6269 5.48337Z" fill="#333333"/>
<path d="M6.60349 22.8472H5.56417V18.0319H6.33151C6.37454 17.8191 6.42644 17.6112 6.48294 17.4052H5.56417V12.745H9.43042C9.76285 12.4576 10.115 12.1938 10.4852 11.9547V7.60885H14.7814V10.4762C14.9874 10.4575 15.1969 10.446 15.4065 10.4417V7.60918H19.2044V11.1338C19.6022 11.2954 19.9846 11.483 20.3528 11.6945V4.71754C20.3528 3.55767 19.4084 2.61328 18.2489 2.61328H17.3534V4.59009C17.3534 5.54105 16.5825 6.312 15.6315 6.312C14.6806 6.312 13.9106 5.54072 13.9106 4.59009V2.61328H6.44122V4.59009C6.44122 5.54105 5.6706 6.312 4.71997 6.312C3.76967 6.312 2.99872 5.54072 2.99872 4.59009V2.61328H2.10361C0.943075 2.61328 0 3.55767 0 4.71754V21.8903C0 23.0508 0.943075 23.9952 2.10361 23.9952H7.05844C6.88271 23.6247 6.73062 23.2417 6.60349 22.8472ZM5.56417 7.60852H9.85876V12.1186H5.56417V7.60852ZM4.93809 22.8472H2.10361C1.57639 22.8472 1.14706 22.4179 1.14706 21.8906V18.0319H4.93809V22.8472ZM4.93809 17.4052H1.14706V12.745H4.93809V17.4052ZM4.93809 12.1186H1.14706V7.60852H4.93809V12.1186Z" fill="#333333"/>
<path d="M15.6259 28.0001C11.1733 28.0001 7.55078 24.3779 7.55078 19.9253C7.55078 15.4734 11.173 11.8525 15.6259 11.8525C20.0765 11.8525 23.6987 15.4734 23.6987 19.9253C23.6987 24.3779 20.0765 28.0001 15.6259 28.0001ZM15.6259 13.7118C12.1985 13.7118 9.41032 16.4986 9.41032 19.9253C9.41032 23.3527 12.1988 26.1402 15.6259 26.1402C19.0513 26.1402 21.8401 23.3527 21.8401 19.9253C21.8401 16.4986 19.0513 13.7118 15.6259 13.7118Z" fill="#E21B3A"/>
<path d="M18.625 19.2589C19.2917 19.6438 19.2917 20.6061 18.625 20.991L15.0626 23.0477C14.3959 23.4326 13.5626 22.9515 13.5626 22.1817L13.5626 18.0682C13.5626 17.2984 14.3959 16.8173 15.0626 17.2022L18.625 19.2589Z" fill="#E21B3A"/>
</svg>
