<svg width="18" height="19" viewBox="0 0 18 19" fill="none" xmlns="http://www.w3.org/2000/svg">
<path d="M16.9492 1.99301H14.7335V1.28489C14.7335 1.10314 14.6613 0.928838 14.5328 0.800323C14.4043 0.671808 14.23 0.599609 14.0482 0.599609H12.0152C11.8335 0.599609 11.6592 0.671808 11.5307 0.800323C11.4021 0.928838 11.3299 1.10314 11.3299 1.28489V2.01585L6.30457 2.06154V1.28489C6.30457 1.10314 6.23237 0.928838 6.10385 0.800323C5.97534 0.671808 5.80104 0.599609 5.61929 0.599609H3.58629C3.40455 0.599609 3.23024 0.671808 3.10173 0.800323C2.97321 0.928838 2.90102 1.10314 2.90102 1.28489V2.01585H0.685279C0.503532 2.01585 0.329229 2.08805 0.200714 2.21657C0.072199 2.34508 0 2.51938 0 2.70113V17.9143C0 18.0961 0.072199 18.2704 0.200714 18.3989C0.329229 18.5274 0.503532 18.5996 0.685279 18.5996H16.9492C17.131 18.5996 17.3053 18.5274 17.4338 18.3989C17.5623 18.2704 17.6345 18.0961 17.6345 17.9143V2.67829C17.6345 2.49654 17.5623 2.32224 17.4338 2.19372C17.3053 2.06521 17.131 1.99301 16.9492 1.99301ZM14.0025 15.3103V14.0311H15.2817L14.0025 15.3103ZM16.264 12.6834H13.3173C13.1355 12.6834 12.9612 12.7556 12.8327 12.8841C12.7042 13.0126 12.632 13.1869 12.632 13.3686V16.2697H1.37056V7.6123H16.264V12.6834Z" fill="#E21B3A"/>
</svg>
