<svg width="16" height="16" viewBox="0 0 16 16" xmlns="http://www.w3.org/2000/svg">
<path d="M13.9787 1.01051H12.3619V0.639991C12.3619 0.286312 12.0756 0 11.7219 0C11.3683 0 11.0819 0.286312 11.0819 0.639991V1.01051H4.91782V0.639991C4.91782 0.286312 4.63151 0 4.27783 0C3.92415 0 3.65468 0.286312 3.65468 0.639991V1.01051H2.03787C0.909461 1.01051 0 1.91997 0 3.04838V13.3556C0 14.484 0.909461 15.3935 2.03787 15.3935H9.9367C10.8967 15.3935 11.823 15.0229 12.4967 14.3324L14.9387 11.8904C15.6292 11.1998 15.9998 10.2904 15.9998 9.33039V3.04838C16.0166 1.91997 15.1072 1.01051 13.9787 1.01051ZM2.05471 2.27365H3.67153V2.64417C3.67153 2.99785 3.95784 3.28416 4.31152 3.28416C4.6652 3.28416 4.95151 2.99785 4.95151 2.64417V2.27365H11.1325V2.64417C11.1325 2.99785 11.4188 3.28416 11.7725 3.28416C12.1261 3.28416 12.4125 2.99785 12.4125 2.64417V2.27365H14.0293C14.4503 2.27365 14.804 2.62733 14.804 3.04838V4.61467H1.27998V3.04838C1.27998 2.61049 1.63366 2.27365 2.05471 2.27365ZM1.27998 13.3388V5.86097H14.7535V9.2125H11.503C10.5935 9.2125 9.85249 9.95354 9.85249 10.863V14.1135H2.05471C1.63366 14.1135 1.27998 13.7766 1.27998 13.3388ZM11.6209 13.423C11.4693 13.5745 11.3009 13.6924 11.1156 13.7935V10.863C11.1156 10.6441 11.284 10.4756 11.503 10.4756H14.4335C14.3324 10.6609 14.2145 10.8293 14.063 10.9809L11.6209 13.423Z"/>
</svg>
