<svg width="19" height="14" viewBox="0 0 19 14" fill="none" xmlns="http://www.w3.org/2000/svg">
<path d="M6.50687 10.5403L2.06274 6.09662C1.55225 5.58613 0.778468 6.35736 1.28896 6.86785L6.46539 12.0413C6.68466 12.288 7.04234 12.338 7.28361 12.0942L17.3173 2.06311C17.8248 1.55559 17.0566 0.778857 16.5435 1.28934L7.29166 10.5403C7.07536 10.757 6.72318 10.757 6.50687 10.5403ZM2.84752 5.31142L6.90054 9.3644L15.7583 0.506683C17.3034 -1.03832 19.6475 1.29992 18.1025 2.84535L8.0684 12.879C7.42753 13.5198 6.36803 13.5198 5.72717 12.879C4.90345 11.7306 1.70463 8.85391 0.506292 7.65262C-1.03872 6.10762 1.3025 3.76896 2.84752 5.31142Z" fill="white"/>
</svg>
