<svg width="16" height="12" viewBox="0 0 16 12" fill="none" xmlns="http://www.w3.org/2000/svg">
<path d="M14.6599 0.00145036C14.3278 0.0198253 14.016 0.166776 13.7905 0.41116L6.29579 8.19563L2.08875 4.77807C1.82493 4.56452 1.48719 4.4643 1.1496 4.49938C0.811997 4.53446 0.502085 4.70198 0.287805 4.9652C0.0735259 5.22843 -0.0276338 5.56589 0.00650609 5.90358C0.040646 6.24128 0.207299 6.55165 0.469927 6.76666L5.5863 10.9237C5.83574 11.1255 6.15191 11.2262 6.47213 11.2059C6.79234 11.1855 7.0932 11.0456 7.31506 10.8138L15.6292 2.17991C15.8106 1.99689 15.9326 1.76331 15.979 1.5098C16.0255 1.25629 15.9943 0.994668 15.8895 0.759195C15.7848 0.523722 15.6113 0.325394 15.3919 0.190184C15.1725 0.054974 14.9173 -0.0108181 14.6599 0.00145036Z" fill="#333333"/>
</svg>
