<svg width="17" height="17" viewBox="0 0 17 17" fill="none" xmlns="http://www.w3.org/2000/svg">
<path d="M11.9301 16.2607L8.67563 11.7262H3.58309C1.79476 11.7262 0.339844 10.2713 0.339844 8.483V3.94246C0.339844 2.15414 1.79476 0.699219 3.58309 0.699219H13.0966C14.8849 0.699219 16.3398 2.15414 16.3398 3.94246V8.483C16.3398 10.2713 14.8849 11.7262 13.0966 11.7262H12.7139L11.9301 16.2607ZM3.58309 1.99652C2.51022 1.99652 1.63714 2.8696 1.63714 3.94246V8.483C1.63714 9.55608 2.51022 10.4289 3.58309 10.4289H9.34114L11.179 12.9896L11.6216 10.4289H13.0966C14.1697 10.4289 15.0425 9.55608 15.0425 8.483V3.94246C15.0425 2.8696 14.1697 1.99652 13.0966 1.99652H3.58309Z" fill="#0A253C"/>
</svg>
