<svg width="24" height="24" viewBox="0 0 24 24" xmlns="http://www.w3.org/2000/svg">
<path d="M12 0C18.6324 0 24 5.36705 24 12C24 18.6325 18.633 24 12 24C5.36756 24 0 18.633 0 12C0 5.36752 5.36705 0 12 0ZM12 22.125C17.5961 22.125 22.125 17.5965 22.125 12C22.125 6.40383 17.5965 1.875 12 1.875C6.40388 1.875 1.875 6.40345 1.875 12C1.875 17.5962 6.40345 22.125 12 22.125Z"/>
<path d="M7.89456 14.7798L10.6743 12L7.89456 9.22023C7.52846 8.85414 7.52841 8.26056 7.89451 7.89442C8.2607 7.52828 8.85427 7.52832 9.22032 7.89442L12.0001 10.6742L14.78 7.89442C15.146 7.52828 15.7397 7.52828 16.1058 7.89442C16.4719 8.26056 16.4719 8.85414 16.1057 9.22023L13.326 12L16.1057 14.7798C16.4719 15.1459 16.4719 15.7395 16.1058 16.1056C15.7396 16.4718 15.146 16.4717 14.78 16.1056L12.0001 13.3258L9.22032 16.1056C8.85432 16.4717 8.26065 16.4717 7.89451 16.1056C7.52837 15.7395 7.52841 15.1459 7.89456 14.7798Z"/>
</svg>
