<svg width="27" height="28" viewBox="0 0 27 28" fill="none" xmlns="http://www.w3.org/2000/svg">
<path d="M23.7319 16.1089L14.1115 21.6632C13.7773 21.3232 13.3582 21.0789 12.8977 20.9555C12.4372 20.8321 11.952 20.8342 11.4926 20.9615L4.26828 8.44856C4.20011 8.33098 4.0977 8.23698 3.97471 8.17912C3.85172 8.12127 3.71401 8.1023 3.57997 8.12477L0.764977 8.593C0.598643 8.63067 0.453013 8.73052 0.357937 8.87211C0.26286 9.01369 0.225538 9.18628 0.253621 9.3545C0.281703 9.52271 0.373062 9.67382 0.508973 9.77684C0.644884 9.87986 0.815053 9.927 0.984602 9.90859L3.34174 9.51572L10.3356 21.6295C9.99897 21.9594 9.75557 22.3724 9.63012 22.8267C9.50467 23.2811 9.50162 23.7605 9.6213 24.2164C9.74097 24.6723 9.97911 25.0884 10.3115 25.4225C10.644 25.7566 11.0589 25.9969 11.5141 26.1189C11.9694 26.2409 12.4489 26.2402 12.9038 26.1171C13.3588 25.994 13.7731 25.7527 14.1046 25.4177C14.4362 25.0827 14.6733 24.666 14.7918 24.2098C14.9103 23.7536 14.9061 23.2742 14.7795 22.8202L24.3999 17.2658C24.5533 17.1773 24.6653 17.0314 24.7111 16.8602C24.757 16.6891 24.733 16.5068 24.6444 16.3534C24.5558 16.1999 24.4099 16.088 24.2388 16.0421C24.0677 15.9963 23.8853 16.0203 23.7319 16.1089ZM12.8747 24.6913C12.6458 24.8234 12.383 24.8847 12.1193 24.8674C11.8556 24.8501 11.603 24.755 11.3934 24.5942C11.1838 24.4333 11.0265 24.2139 10.9416 23.9637C10.8567 23.7135 10.8478 23.4437 10.9162 23.1885C10.9846 22.9333 11.1271 22.704 11.3258 22.5298C11.5245 22.3556 11.7703 22.2442 12.0323 22.2097C12.2943 22.1752 12.5606 22.2192 12.7976 22.3361C13.0346 22.4529 13.2316 22.6374 13.3637 22.8663C13.5408 23.1731 13.5889 23.5378 13.4971 23.8801C13.4054 24.2223 13.1815 24.5141 12.8747 24.6913ZM17.9197 4.03788L23.5977 13.8724C23.6862 14.0258 23.7103 14.2081 23.6644 14.3792C23.6185 14.5504 23.5066 14.6963 23.3532 14.7849L13.5187 20.4628C13.3653 20.5514 13.1829 20.5754 13.0118 20.5295C12.8407 20.4837 12.6948 20.3717 12.6062 20.2183L6.92826 10.3838C6.83968 10.2304 6.81567 10.0481 6.86152 9.87693C6.90738 9.7058 7.01933 9.5599 7.17276 9.47132L10.6438 7.46734L12.9817 11.5168C13.0703 11.6703 13.2162 11.7822 13.3873 11.8281C13.5585 11.8739 13.7408 11.8499 13.8942 11.7613L15.6297 10.7593C15.7831 10.6708 15.8951 10.5249 15.941 10.3537C15.9868 10.1826 15.9628 10.0003 15.8742 9.84685L13.5362 5.79736L17.0072 3.79338C17.1607 3.7048 17.343 3.6808 17.5141 3.72665C17.6852 3.7725 17.8311 3.88446 17.9197 4.03788Z" fill="#333333"/>
</svg>
