<svg width="18" height="18" viewBox="0 0 18 18" fill="none" xmlns="http://www.w3.org/2000/svg">
<path d="M18 13.0997V17.0915C18 17.171 17.9887 17.2448 17.9717 17.313C17.8923 17.7048 17.5466 18 17.1385 18H0.855793C0.419395 18 0.0566751 17.665 0.011335 17.2392C0 17.1881 0 17.1426 0 17.0858V13.094C0 12.6228 0.38539 12.2423 0.850126 12.2423C1.08249 12.2423 1.29786 12.3388 1.45088 12.4922C1.6039 12.6455 1.70025 12.8612 1.70025 13.094V16.2909H16.3054V13.094C16.3054 12.6228 16.6908 12.2423 17.1555 12.2423C17.3879 12.2423 17.6033 12.3388 17.7563 12.4922C17.9037 12.6511 18 12.8669 18 13.0997Z" fill="#DDDDDD"/>
<path d="M13.9024 9.10221L9.72542 13.2871C9.71975 13.2984 9.70842 13.3041 9.70275 13.3098C9.54973 13.4631 9.35136 13.5596 9.153 13.588C9.136 13.588 9.11899 13.5937 9.10199 13.5937C9.06799 13.5994 9.03398 13.5994 8.99998 13.5994L8.90363 13.5937C8.88663 13.5937 8.86962 13.588 8.85262 13.588C8.64859 13.5596 8.4559 13.4631 8.30287 13.3098C8.29721 13.3041 8.28587 13.2927 8.2802 13.2871L4.10325 9.10221C3.91056 8.90915 3.81421 8.65363 3.81421 8.39811C3.81421 8.14259 3.91056 7.88707 4.10325 7.69401C4.48864 7.30789 5.11774 7.30789 5.50879 7.69401L8.0195 10.2095V0.993691C8.0195 0.44858 8.46723 0 9.01131 0C9.28335 0 9.53272 0.113565 9.71408 0.28959C9.89544 0.471293 10.0031 0.715457 10.0031 0.993691V10.2095L12.5138 7.69401C12.8992 7.30789 13.5283 7.30789 13.9194 7.69401C14.2878 8.0858 14.2878 8.71609 13.9024 9.10221Z" fill="#DDDDDD"/>
</svg>
