<svg width="18" height="10" viewBox="0 0 18 10" fill="none" xmlns="http://www.w3.org/2000/svg">
<path d="M17.8864 4.54378C17.0155 3.40783 13.9674 0 9.0071 0C4.04681 0 1.01762 3.40783 0.127794 4.54378C-0.0425979 4.75204 -0.0425979 5.05496 0.127794 5.26322C0.998685 6.39916 4.04681 9.807 9.0071 9.807C13.9674 9.807 16.9966 6.39916 17.8864 5.26322C18.0379 5.05496 18.0379 4.75204 17.8864 4.54378ZM9.0071 8.55745C6.98133 8.55745 5.35315 6.92927 5.35315 4.9035C5.35315 2.87773 6.98133 1.24955 9.0071 1.24955C11.0329 1.24955 12.6611 2.87773 12.6611 4.9035C12.6611 6.92927 11.0329 8.55745 9.0071 8.55745Z" fill="white"/>
<path d="M9.00778 7.25189C10.3043 7.25189 11.3554 6.20082 11.3554 4.90426C11.3554 3.60771 10.3043 2.55664 9.00778 2.55664C7.71123 2.55664 6.66016 3.60771 6.66016 4.90426C6.66016 6.20082 7.71123 7.25189 9.00778 7.25189Z" fill="white"/>
</svg>
