<svg width="32" height="32" viewBox="0 0 32 32" fill="none" xmlns="http://www.w3.org/2000/svg">
<path d="M4.68602 4.68602C-1.56201 10.934 -1.56201 21.066 4.68602 27.314C10.934 33.562 21.066 33.562 27.314 27.314C33.562 21.066 33.562 10.934 27.314 4.68602C21.066 -1.56201 10.934 -1.56201 4.68602 4.68602ZM16.6417 6.7124C17.9926 6.7124 19.0734 7.82691 19.0734 9.17784C19.0734 10.5288 17.9588 11.6433 16.6417 11.6433C15.2908 11.6433 14.1763 10.5288 14.1763 9.14406C14.1763 7.79314 15.2908 6.7124 16.6417 6.7124ZM20.1203 23.2274C20.0528 23.4301 19.9177 23.6665 19.7826 23.8016C18.9045 24.7135 17.8237 25.2538 16.5404 25.2538C15.9325 25.2538 15.3583 25.2538 14.7504 25.1525C13.771 25.0174 12.5214 23.8016 12.6902 22.5182C12.8253 21.6401 12.9604 20.762 13.0955 19.8839C13.3657 18.3641 13.6359 16.8106 13.9061 15.2908C13.9061 15.1894 13.9398 15.0881 13.9398 14.9868C13.9398 14.3451 13.7372 14.1087 13.0955 14.0412C12.8253 14.0074 12.5551 13.9736 12.285 13.9061C11.981 13.8047 11.8121 13.5346 11.8459 13.2982C11.8797 13.028 12.0485 12.8591 12.3863 12.7916C12.5551 12.7578 12.7578 12.7578 12.9604 12.7578C13.7034 12.7578 14.4464 12.7578 15.2232 12.7578C16.0338 12.7578 16.8106 12.7578 17.6211 12.7578C18.1953 12.7578 18.533 13.028 18.533 13.6021C18.533 14.0749 18.4654 14.5478 18.3641 15.0206C18.0602 16.7768 17.7224 18.4992 17.4185 20.2554C17.3172 20.8296 17.1821 21.4037 17.1145 21.9778C17.0807 22.248 17.1145 22.552 17.1821 22.8222C17.2834 23.1937 17.5536 23.3963 17.9251 23.3625C18.229 23.3288 18.533 23.2274 18.8369 23.0924C19.0734 22.991 19.276 22.8222 19.5124 22.7546C19.9177 22.6195 20.2216 22.8559 20.1203 23.2274Z" fill="#E21B3A"/>
</svg>
