<svg width="32" height="32" viewBox="0 0 32 32" xmlns="http://www.w3.org/2000/svg">
<path d="M27.3062 27.3072C33.551 21.0624 33.551 10.9377 27.3062 4.69288C21.0614 -1.55192 10.9367 -1.55192 4.69191 4.69288C-1.33118 10.716 -1.55289 20.3234 4.02678 26.6051L4.17459 26.716C3.58337 28.0093 2.54872 29.6351 0.885906 30.4481C0.331634 30.7067 0.47944 31.5197 1.07066 31.6305C2.88129 31.9261 5.46789 31.5936 7.86974 29.7829L7.90669 29.8199C14.0406 33.4042 22.0591 32.5543 27.3062 27.3072ZM16.6642 6.13399C18.1053 6.13399 19.2508 7.31644 19.2508 8.75755C19.2508 10.1987 18.0684 11.3811 16.6642 11.3811C15.2231 11.3811 14.0406 10.1987 14.0406 8.72059C14.0776 7.27949 15.2231 6.13399 16.6642 6.13399ZM12.4887 22.9469C12.5995 22.0231 12.7473 21.0624 12.9321 20.1386C13.1908 18.5127 13.4864 16.8869 13.782 15.261C13.782 15.1502 13.8189 15.0393 13.8189 14.9654C13.8189 14.3003 13.5972 14.0416 12.9321 13.9677C12.6365 13.9308 12.3409 13.8938 12.0822 13.8199C11.7496 13.709 11.6018 13.4504 11.6388 13.1548C11.6757 12.8592 11.8605 12.6744 12.23 12.6375C12.4148 12.6005 12.6365 12.6005 12.8212 12.6005C13.6342 12.6005 14.4102 12.6005 15.2231 12.6005C16.073 12.6005 16.9229 12.6005 17.7727 12.6005C18.364 12.6005 18.7335 12.8961 18.7704 13.4873C18.7704 14.0047 18.6965 14.522 18.6226 15.0023C18.2901 16.8499 17.9575 18.7344 17.588 20.582C17.4771 21.2102 17.3663 21.8014 17.2924 22.4296C17.2554 22.7252 17.2924 23.0578 17.3663 23.3164C17.4771 23.7229 17.7727 23.9077 18.1423 23.8707C18.4748 23.8338 18.8074 23.7229 19.103 23.612C19.3617 23.5012 19.5834 23.3534 19.842 23.2425C20.2115 23.0947 20.5441 23.3534 20.4333 23.7599C20.3593 23.9816 20.2485 24.2033 20.0637 24.388C19.103 25.3488 17.9945 25.903 16.6272 25.94C15.9991 25.94 15.3709 25.94 14.7427 25.8291C13.6342 25.6074 12.3039 24.3141 12.4887 22.9469Z"/>
</svg>
