<svg width="30" height="30" viewBox="0 0 30 30" xmlns="http://www.w3.org/2000/svg">
<path fill-rule="evenodd" clip-rule="evenodd" d="M15 0C6.71573 0 0 6.71573 0 15C0 23.2843 6.71573 30 15 30C23.2843 30 30 23.2843 30 15C30 6.71573 23.2843 0 15 0ZM11.7023 7.04877C12.5556 7.00994 12.8283 7.00044 15.001 7.00044H14.9985C17.1718 7.00044 17.4435 7.00994 18.2969 7.04877C19.1485 7.08777 19.7302 7.22261 20.2402 7.42044C20.7669 7.62461 21.2119 7.89795 21.6569 8.34295C22.1019 8.78762 22.3752 9.23396 22.5802 9.76013C22.7769 10.2688 22.9119 10.8501 22.9519 11.7018C22.9902 12.5552 23.0002 12.8278 23.0002 15.0005C23.0002 17.1732 22.9902 17.4452 22.9519 18.2986C22.9119 19.1499 22.7769 19.7314 22.5802 20.2402C22.3752 20.7662 22.1019 21.2126 21.6569 21.6573C21.2124 22.1023 20.7667 22.3763 20.2407 22.5806C19.7317 22.7784 19.1497 22.9133 18.298 22.9523C17.4447 22.9911 17.1728 23.0006 15 23.0006C12.8275 23.0006 12.555 22.9911 11.7016 22.9523C10.8501 22.9133 10.2686 22.7784 9.7596 22.5806C9.23376 22.3763 8.78742 22.1023 8.34292 21.6573C7.89808 21.2126 7.62474 20.7662 7.42024 20.2401C7.22257 19.7314 7.08774 19.1501 7.04857 18.2984C7.0099 17.445 7.00024 17.1732 7.00024 15.0005C7.00024 12.8278 7.01024 12.555 7.0484 11.7017C7.08674 10.8503 7.22174 10.2688 7.42007 9.75997C7.62508 9.23396 7.89841 8.78762 8.34342 8.34295C8.78809 7.89811 9.23443 7.62478 9.7606 7.42044C10.2693 7.22261 10.8506 7.08777 11.7023 7.04877Z"/>
<path fill-rule="evenodd" clip-rule="evenodd" d="M14.2831 8.44145C14.4225 8.44124 14.5724 8.4413 14.7341 8.44137L15.0008 8.44145C17.1368 8.44145 17.39 8.44912 18.2335 8.48745C19.0135 8.52312 19.4368 8.65346 19.7188 8.76296C20.0922 8.90796 20.3583 9.08129 20.6382 9.3613C20.9182 9.6413 21.0915 9.90797 21.2368 10.2813C21.3464 10.563 21.4769 10.9863 21.5124 11.7663C21.5507 12.6097 21.559 12.863 21.559 14.998C21.559 17.133 21.5507 17.3864 21.5124 18.2297C21.4767 19.0097 21.3464 19.4331 21.2368 19.7147C21.0918 20.0881 20.9182 20.3539 20.6382 20.6337C20.3582 20.9137 20.0923 21.0871 19.7188 21.2321C19.4372 21.3421 19.0135 21.4721 18.2335 21.5078C17.3901 21.5461 17.1368 21.5544 15.0008 21.5544C12.8646 21.5544 12.6114 21.5461 11.7681 21.5078C10.9881 21.4718 10.5647 21.3414 10.2826 21.2319C9.90923 21.0869 9.64256 20.9136 9.36256 20.6336C9.08256 20.3536 8.90922 20.0876 8.76389 19.7141C8.65439 19.4324 8.52388 19.0091 8.48838 18.2291C8.45005 17.3857 8.44238 17.1324 8.44238 14.996C8.44238 12.8597 8.45005 12.6077 8.48838 11.7643C8.52405 10.9843 8.65439 10.561 8.76389 10.279C8.90889 9.90563 9.08256 9.63897 9.36256 9.35896C9.64256 9.07896 9.90923 8.90562 10.2826 8.76029C10.5646 8.65029 10.9881 8.52029 11.7681 8.48445C12.5061 8.45112 12.7921 8.44112 14.2831 8.43945V8.44145ZM19.2711 9.77034C18.7411 9.77034 18.3111 10.1998 18.3111 10.73C18.3111 11.26 18.7411 11.69 19.2711 11.69C19.8011 11.69 20.2311 11.26 20.2311 10.73C20.2311 10.2 19.8011 9.77 19.2711 9.77V9.77034ZM10.8922 15.0002C10.8922 12.7314 12.7316 10.892 15.0004 10.8919C17.2692 10.8919 19.1083 12.7314 19.1083 15.0002C19.1083 17.2691 17.2694 19.1078 15.0006 19.1078C12.7317 19.1078 10.8922 17.2691 10.8922 15.0002Z"/>
<path fill-rule="evenodd" clip-rule="evenodd" d="M15.0007 12.3335C16.4734 12.3335 17.6674 13.5273 17.6674 15.0002C17.6674 16.4729 16.4734 17.6669 15.0007 17.6669C13.5278 17.6669 12.334 16.4729 12.334 15.0002C12.334 13.5273 13.5278 12.3335 15.0007 12.3335V12.3335Z"/>
</svg>
