<svg width="24" height="25" viewBox="0 0 24 25" fill="none" xmlns="http://www.w3.org/2000/svg">
<mask id="path-1-outside-1" maskUnits="userSpaceOnUse" x="0" y="0" width="24" height="25" fill="black">
<rect fill="white" width="24" height="25"/>
<path d="M11.4466 17.9819C10.3096 17.869 9.28612 17.4725 8.38901 16.7975C7.0295 15.7746 6.18511 14.2562 6.02059 12.5384C5.98206 12.1361 5.99883 11.5427 6.06066 11.1206C6.35816 9.08983 7.69516 7.33633 9.57968 6.50531C10.0536 6.29635 10.6127 6.13485 11.1195 6.06057C11.6705 5.97981 12.3296 5.97981 12.8806 6.06057C14.9109 6.35814 16.664 7.69545 17.4948 9.58042C17.7037 10.0544 17.8652 10.6137 17.9394 11.1206C18.0202 11.6717 18.0202 12.331 17.9394 12.8822C17.7107 14.4435 16.8569 15.8709 15.5856 16.8177C14.6926 17.4828 13.6689 17.8738 12.5369 17.9823C12.2882 18.0061 11.6885 18.0059 11.4466 17.9819V17.9819ZM13.2102 12.5285L14.7522 10.9862L14.1602 10.3939C13.8346 10.0682 13.5623 9.80169 13.5552 9.80169C13.548 9.80169 13.119 10.2249 12.6019 10.742L11.6617 11.6824L11.1152 11.1358L10.5686 10.5893L9.97005 11.1879L9.37145 11.7865L10.5133 12.9287C11.1413 13.5569 11.6581 14.0709 11.6617 14.0709C11.6653 14.0709 12.3622 13.3768 13.2102 12.5285Z"/>
</mask>
<path d="M11.4466 17.9819C10.3096 17.869 9.28612 17.4725 8.38901 16.7975C7.0295 15.7746 6.18511 14.2562 6.02059 12.5384C5.98206 12.1361 5.99883 11.5427 6.06066 11.1206C6.35816 9.08983 7.69516 7.33633 9.57968 6.50531C10.0536 6.29635 10.6127 6.13485 11.1195 6.06057C11.6705 5.97981 12.3296 5.97981 12.8806 6.06057C14.9109 6.35814 16.664 7.69545 17.4948 9.58042C17.7037 10.0544 17.8652 10.6137 17.9394 11.1206C18.0202 11.6717 18.0202 12.331 17.9394 12.8822C17.7107 14.4435 16.8569 15.8709 15.5856 16.8177C14.6926 17.4828 13.6689 17.8738 12.5369 17.9823C12.2882 18.0061 11.6885 18.0059 11.4466 17.9819V17.9819ZM13.2102 12.5285L14.7522 10.9862L14.1602 10.3939C13.8346 10.0682 13.5623 9.80169 13.5552 9.80169C13.548 9.80169 13.119 10.2249 12.6019 10.742L11.6617 11.6824L11.1152 11.1358L10.5686 10.5893L9.97005 11.1879L9.37145 11.7865L10.5133 12.9287C11.1413 13.5569 11.6581 14.0709 11.6617 14.0709C11.6653 14.0709 12.3622 13.3768 13.2102 12.5285Z" fill="#E21B3A"/>
<path d="M11.4466 17.9819L10.8538 23.9525L17.4466 24.6071V17.9819H11.4466ZM8.38901 16.7975L4.78164 21.592L4.78164 21.592L8.38901 16.7975ZM6.02059 12.5384L0.0479188 13.1104L0.0479202 13.1104L6.02059 12.5384ZM6.06066 11.1206L11.9973 11.9903L11.9973 11.9903L6.06066 11.1206ZM9.57968 6.50531L12.0006 11.9952L12.0006 11.9952L9.57968 6.50531ZM11.1195 6.06057L10.2494 0.123995L10.2494 0.123996L11.1195 6.06057ZM12.8806 6.06057L13.7507 0.123995L13.7507 0.123995L12.8806 6.06057ZM17.4948 9.58042L12.0045 12.0003L12.0045 12.0003L17.4948 9.58042ZM17.9394 11.1206L12.0028 11.9903L12.0028 11.9903L17.9394 11.1206ZM17.9394 12.8822L12.0028 12.0125L12.0028 12.0125L17.9394 12.8822ZM15.5856 16.8177L19.1692 21.6299L19.1692 21.6299L15.5856 16.8177ZM12.5369 17.9823L11.9646 12.0096H11.9646L12.5369 17.9823ZM11.4466 17.9819L12.0394 12.0112L5.44656 11.3566V17.9819H11.4466ZM14.7522 10.9862L18.9954 15.2282L23.236 10.9865L18.9957 6.74442L14.7522 10.9862ZM14.1602 10.3939L18.4037 6.15218L18.4037 6.15217L14.1602 10.3939ZM12.6019 10.742L8.35895 6.49975L8.35894 6.49976L12.6019 10.742ZM11.6617 11.6824L7.41906 15.925L11.6621 20.1681L15.9047 15.9247L11.6617 11.6824ZM11.1152 11.1358L6.8725 15.3784L6.8725 15.3784L11.1152 11.1358ZM10.5686 10.5893L14.8113 6.34668L10.5686 2.1038L6.32588 6.34675L10.5686 10.5893ZM9.97005 11.1879L5.72728 6.94538L5.72728 6.94539L9.97005 11.1879ZM9.37145 11.7865L5.12868 7.54402L0.886904 11.7861L5.1282 16.0286L9.37145 11.7865ZM10.5133 12.9287L6.27006 17.1707L6.27006 17.1708L10.5133 12.9287ZM12.0394 12.0112C12.0112 12.0084 11.996 12.0051 11.9915 12.004C11.9871 12.003 11.989 12.0032 11.995 12.0055C12.0011 12.0079 12.0062 12.0104 12.009 12.012C12.0117 12.0135 12.0076 12.0115 11.9964 12.0031L4.78164 21.592C6.57313 22.9399 8.64359 23.7331 10.8538 23.9525L12.0394 12.0112ZM11.9964 12.0031C11.9887 11.9973 11.988 11.9957 11.9911 11.9992C11.9942 12.0027 11.9977 12.0076 12.0005 12.0126C12.0032 12.0175 12.0031 12.0187 12.0016 12.0137C12 12.0088 11.9959 11.9938 11.9933 11.9664L0.0479202 13.1104C0.37046 16.4781 2.0541 19.5398 4.78164 21.592L11.9964 12.0031ZM11.9933 11.9664C11.9952 11.9861 11.9965 12.0024 11.9974 12.0149C11.9984 12.0274 11.999 12.0372 11.9993 12.0441C12.0001 12.0575 12.0002 12.0632 12.0001 12.0611C12.0001 12.0593 12 12.053 12 12.0426C12 12.0323 12.0002 12.02 12.0006 12.0064C12.001 11.9929 12.0015 11.9797 12.0022 11.9676C12.0028 11.9554 12.0035 11.9461 12.0039 11.9403C12.0044 11.9343 12.0045 11.9345 12.0038 11.9408C12.0034 11.9442 12.0028 11.9499 12.0018 11.9578C12.0008 11.9657 11.9993 11.9766 11.9973 11.9903L0.124031 10.2509C-0.00386858 11.1239 -0.0390859 12.202 0.0479188 13.1104L11.9933 11.9664ZM11.9973 11.9903C11.9961 11.9984 11.9942 12.0035 11.9935 12.0051C11.9931 12.0062 11.9938 12.0044 11.9963 12.001C11.9989 11.9976 12.0014 11.9953 12.0028 11.9942C12.0039 11.9934 12.0031 11.9941 12.0006 11.9952L7.1588 1.01538C3.39373 2.67565 0.721991 6.16913 0.124029 10.2509L11.9973 11.9903ZM12.0006 11.9952C11.9912 11.9994 11.9851 12.0019 11.9822 12.003C11.9793 12.0042 11.9787 12.0043 11.9803 12.0038C11.9818 12.0032 11.9847 12.0022 11.9888 12.0009C11.9928 11.9996 11.9974 11.9982 12.0022 11.9968C12.007 11.9954 12.0113 11.9943 12.015 11.9933C12.0186 11.9924 12.0208 11.9919 12.0214 11.9918C12.022 11.9916 12.02 11.9921 12.0153 11.993C12.0106 11.9938 12.0021 11.9953 11.9896 11.9971L10.2494 0.123996C9.20192 0.277519 8.12154 0.590845 7.1588 1.01538L12.0006 11.9952ZM11.9896 11.9971C11.9739 11.9994 11.9639 12.0006 11.9597 12.001C11.9554 12.0015 11.9549 12.0014 11.9583 12.0012C11.9615 12.001 11.9671 12.0007 11.9748 12.0004C11.9824 12.0002 11.991 12 12.0001 12C12.0091 12 12.0177 12.0002 12.0253 12.0004C12.033 12.0007 12.0386 12.001 12.0419 12.0012C12.0452 12.0014 12.0448 12.0015 12.0404 12.001C12.0362 12.0006 12.0262 11.9994 12.0105 11.9971L13.7507 0.123995C12.6227 -0.0413318 11.3774 -0.0413318 10.2494 0.123995L11.9896 11.9971ZM12.0105 11.9971C12.002 11.9959 11.9966 11.9939 11.9948 11.9932C11.9935 11.9926 11.9952 11.9932 11.9985 11.9957C12.0017 11.9982 12.0041 12.0007 12.0053 12.0022C12.0061 12.0033 12.0055 12.0026 12.0045 12.0003L22.9852 7.16051C21.3257 3.39554 17.8332 0.722345 13.7507 0.123995L12.0105 11.9971ZM12.0045 12.0003C12.0004 11.991 11.9979 11.985 11.9967 11.9821C11.9956 11.9792 11.9954 11.9786 11.996 11.9802C11.9965 11.9818 11.9976 11.9847 11.9989 11.9888C12.0002 11.9929 12.0016 11.9975 12.003 12.0024C12.0044 12.0072 12.0056 12.0116 12.0065 12.0153C12.0075 12.019 12.008 12.0212 12.0081 12.0218C12.0083 12.0224 12.0078 12.0205 12.007 12.0158C12.0061 12.0112 12.0046 12.0027 12.0028 11.9903L23.8761 10.2509C23.7227 9.20358 23.4095 8.12325 22.9852 7.1605L12.0045 12.0003ZM12.0028 11.9903C12.0005 11.9747 11.9994 11.9648 11.999 11.9606C11.9985 11.9563 11.9985 11.9559 11.9988 11.9593C11.999 11.9626 11.9993 11.9683 11.9996 11.976C11.9998 11.9837 12 11.9923 12 12.0014C12 12.0105 11.9998 12.0191 11.9996 12.0268C11.9993 12.0345 11.999 12.0402 11.9988 12.0435C11.9985 12.0468 11.9985 12.0465 11.999 12.0422C11.9994 12.038 12.0005 12.0281 12.0028 12.0125L23.8761 13.7519C24.0413 12.624 24.0413 11.3788 23.8761 10.2509L12.0028 11.9903ZM12.0028 12.0125C12.0042 12.0029 12.0059 11.9978 12.0063 11.9967C12.0066 11.9958 12.0061 11.9975 12.0042 12.0006C12.0024 12.0037 12.0004 12.0062 11.9991 12.0077C11.9979 12.009 11.9985 12.0081 12.0019 12.0056L19.1692 21.6299C21.71 19.7378 23.4156 16.8954 23.8761 13.7518L12.0028 12.0125ZM12.0019 12.0056C11.9937 12.0116 11.9916 12.0124 11.9952 12.0104C11.9989 12.0084 12.0042 12.0058 12.0099 12.0037C12.0154 12.0016 12.0168 12.0016 12.0119 12.0027C12.0069 12.0038 11.9919 12.007 11.9646 12.0096L13.1093 23.9549C15.3077 23.7442 17.3778 22.9641 19.1692 21.6299L12.0019 12.0056ZM11.9646 12.0096C12.0049 12.0058 12.0362 12.0033 12.0563 12.0019C12.077 12.0004 12.092 11.9995 12.1005 11.999C12.1163 11.9982 12.1198 11.9982 12.1091 11.9985C12.0994 11.9988 12.0834 11.9992 12.0616 11.9995C12.0402 11.9998 12.0163 12 11.9914 12C11.9665 12 11.9429 11.9998 11.9219 11.9995C11.9006 11.9992 11.8854 11.9988 11.8768 11.9985C11.8671 11.9982 11.8723 11.9982 11.8905 11.9993C11.9002 11.9998 11.9169 12.0008 11.9395 12.0025C11.9615 12.0041 11.9957 12.0069 12.0394 12.0112L10.8537 23.9525C11.4937 24.016 12.4838 24.0148 13.1093 23.9549L11.9646 12.0096ZM5.44656 17.9819V17.9819H17.4466V17.9819H5.44656ZM17.4534 16.7706L18.9954 15.2282L10.509 6.74409L8.96702 8.28646L17.4534 16.7706ZM18.9957 6.74442L18.4037 6.15218L9.91665 14.6357L10.5086 15.2279L18.9957 6.74442ZM18.4037 6.15217C18.2303 5.9787 18.0648 5.81463 17.9354 5.68796C17.8736 5.62746 17.8047 5.56053 17.742 5.50088C17.716 5.47618 17.6595 5.42255 17.5931 5.36252C17.5688 5.34061 17.4841 5.26397 17.3733 5.1728C17.3302 5.1373 17.1878 5.02027 16.9951 4.8855C16.9091 4.82531 16.6921 4.67592 16.3964 4.51698C16.2492 4.43784 15.9797 4.30034 15.6251 4.17C15.3517 4.06956 14.5827 3.80169 13.5552 3.80169V15.8017C12.5278 15.8017 11.7589 15.5339 11.4857 15.4335C11.1312 15.3032 10.862 15.1658 10.715 15.0868C10.4198 14.9281 10.2034 14.7791 10.1181 14.7194C9.92685 14.5857 9.78644 14.4702 9.74579 14.4367C9.64 14.3496 9.56212 14.279 9.54665 14.265C9.51784 14.239 9.49698 14.2196 9.48881 14.2119C9.47907 14.2028 9.47302 14.1971 9.47186 14.196C9.46988 14.1941 9.47484 14.1988 9.48877 14.2123C9.50186 14.225 9.51928 14.2419 9.54117 14.2634C9.63109 14.3514 9.76448 14.4834 9.91666 14.6357L18.4037 6.15217ZM13.5552 3.80169C12.1056 3.80169 11.054 4.34682 10.9594 4.39221C10.635 4.54784 10.3956 4.69937 10.29 4.76786C10.0634 4.91475 9.89717 5.04502 9.84309 5.08757C9.70996 5.19232 9.60994 5.28049 9.58296 5.30425C9.50847 5.36988 9.44934 5.42527 9.43062 5.44281C9.38028 5.48998 9.33247 5.53612 9.30156 5.56605C9.23254 5.6329 9.14682 5.71702 9.05609 5.80653C8.87085 5.98927 8.62416 6.23449 8.35895 6.49975L16.8449 14.9843C17.0968 14.7324 17.3232 14.5075 17.4835 14.3493C17.5655 14.2684 17.6207 14.2144 17.6503 14.1857C17.6687 14.1679 17.6596 14.1769 17.6361 14.199C17.6308 14.2039 17.5821 14.2497 17.515 14.3089C17.4916 14.3294 17.3945 14.4152 17.2634 14.5183C17.2104 14.56 17.045 14.6897 16.8191 14.8361C16.7138 14.9044 16.4746 15.0558 16.1504 15.2113C15.9858 15.2903 15.7127 15.4125 15.3609 15.5235C15.0528 15.6207 14.4022 15.8017 13.5552 15.8017V3.80169ZM8.35894 6.49976L7.41875 7.44011L15.9047 15.9247L16.8449 14.9843L8.35894 6.49976ZM15.9044 7.4398L15.3579 6.89324L6.8725 15.3784L7.41906 15.925L15.9044 7.4398ZM15.3579 6.89324L14.8113 6.34668L6.32595 14.8319L6.8725 15.3784L15.3579 6.89324ZM6.32588 6.34675L5.72728 6.94538L14.2128 15.4304L14.8114 14.8318L6.32588 6.34675ZM5.72728 6.94539L5.12868 7.54402L13.6142 16.029L14.2128 15.4304L5.72728 6.94539ZM5.1282 16.0286L6.27006 17.1707L14.7566 8.68668L13.6147 7.5445L5.1282 16.0286ZM6.27006 17.1708C6.58682 17.4876 6.87724 17.7774 7.09056 17.9895C7.19642 18.0948 7.28738 18.1851 7.35437 18.2512C7.38627 18.2827 7.42129 18.3171 7.45251 18.3475C7.46508 18.3597 7.49461 18.3884 7.52908 18.4211C7.54077 18.4322 7.58756 18.4765 7.64776 18.5307C7.66865 18.5495 7.75314 18.6256 7.86543 18.7173C7.90923 18.7531 8.055 18.8719 8.25302 19.0086C8.34215 19.0701 8.5632 19.2202 8.86437 19.3789C9.01896 19.4575 9.40625 19.6308 9.6407 19.7203C10.0091 19.8388 11.0193 20.0364 11.6617 20.0709V8.0709C12.3041 8.10538 13.3143 8.30297 13.6827 8.4215C13.9171 8.51094 14.3044 8.68422 14.4589 8.76284C14.76 8.92152 14.981 9.07152 15.07 9.13299C15.2679 9.26955 15.4134 9.38823 15.4569 9.42376C15.5686 9.51499 15.6522 9.59034 15.672 9.60814C15.73 9.6603 15.7736 9.70169 15.7812 9.70885C15.7967 9.72355 15.808 9.73448 15.8124 9.73871C15.8177 9.74378 15.821 9.74702 15.8217 9.74767C15.8228 9.74878 15.8203 9.74633 15.8127 9.7389C15.8056 9.73192 15.7961 9.7225 15.7838 9.71037C15.7332 9.66049 15.6551 9.58297 15.5528 9.48123C15.3498 9.27935 15.0678 8.99803 14.7565 8.68668L6.27006 17.1708ZM11.6617 20.0709C12.4599 20.0176 13.6409 19.7351 14.0285 19.5843C14.2526 19.4827 14.6129 19.2949 14.7515 19.2142C15.009 19.0595 15.1975 18.9191 15.2639 18.8693C15.4206 18.7517 15.5369 18.6519 15.5684 18.6248C15.6542 18.5513 15.7193 18.491 15.7347 18.4768C15.7805 18.4345 15.8167 18.3998 15.8264 18.3904C15.8545 18.3634 15.8802 18.3383 15.8942 18.3246C15.9267 18.2927 15.9665 18.2534 16.0079 18.2124C16.0931 18.128 16.2118 18.01 16.3535 17.8689C16.638 17.5855 17.0274 17.1968 17.4534 16.7706L8.96702 8.28645C8.54503 8.70856 8.16193 9.09102 7.8851 9.36675C7.74609 9.50521 7.63689 9.61375 7.5639 9.68604C7.52622 9.72336 7.50438 9.74488 7.49484 9.75422C7.48778 9.76114 7.49725 9.7518 7.51433 9.73539C7.51857 9.73132 7.55056 9.70053 7.59342 9.66094C7.60734 9.6481 7.67139 9.58882 7.75634 9.51597C7.78751 9.48923 7.9035 9.38968 8.05999 9.27222C8.12622 9.22251 8.31462 9.08221 8.57206 8.92756C8.7106 8.84683 9.07092 8.65908 9.29494 8.55743C9.68252 8.40673 10.8636 8.12422 11.6617 8.0709V20.0709Z" fill="#F7F7F7" mask="url(#path-1-outside-1)"/>
</svg>
