<svg width="24" height="24" viewBox="0 0 24 24" fill="none" xmlns="http://www.w3.org/2000/svg">
<path d="M11.9993 3.99981C7.57266 3.99981 3.99932 7.57315 3.99932 11.9998C3.99932 16.4265 7.57266 19.9998 11.9993 19.9998C16.426 19.9998 19.9993 16.4265 19.9993 11.9998C19.9993 7.57315 16.3727 3.99981 11.9993 3.99981ZM15.946 11.1998L11.6793 15.8398C11.466 16.0531 11.146 16.0531 10.9327 15.8398L7.99932 12.9065C7.78599 12.6931 7.78599 12.3731 8.05266 12.2131L9.22599 11.2531C9.43932 11.0931 9.75932 11.0931 9.91932 11.3598L10.9327 12.9065C11.0927 13.1731 11.3593 13.1198 11.5193 12.9065L14.2393 8.21315C14.3993 7.94648 14.6127 7.94648 14.7727 8.21315L15.9993 10.3998C16.2127 10.6131 16.1593 10.9865 15.946 11.1998ZM23.7327 11.0398L23.146 10.0265C22.8793 9.49314 22.6127 8.63981 22.6127 8.05315V6.87981C22.6127 6.29315 22.186 5.59981 21.706 5.27981L20.6927 4.69315C20.1593 4.37315 19.5193 3.73315 19.2527 3.25315L18.666 2.23981C18.3993 1.70648 17.6527 1.33314 17.066 1.33314H15.8927C15.306 1.33314 14.3993 1.06648 13.9193 0.799811L12.906 0.213145C12.3727 -0.106855 11.5727 -0.106855 11.0393 0.213145L10.026 0.799811C9.49266 1.06648 8.63932 1.33314 8.05266 1.33314H6.87932C6.29266 1.33314 5.59932 1.75981 5.27932 2.23981L4.74599 3.25315C4.42599 3.78648 3.78599 4.42648 3.30599 4.69315L2.23932 5.27981C1.70599 5.59981 1.33266 6.29315 1.33266 6.87981V8.05315C1.33266 8.63981 1.06599 9.54648 0.799323 10.0265L0.212656 11.0398C-0.107344 11.5731 -0.107344 12.3731 0.212656 12.9065L0.799323 13.9198C1.06599 14.4531 1.33266 15.3065 1.33266 15.8931V17.0665C1.33266 17.6531 1.75932 18.3998 2.23932 18.6665L3.25266 19.2531C3.78599 19.5198 4.42599 20.2131 4.69266 20.6931L5.27932 21.7065C5.59932 22.2398 6.29266 22.6131 6.87932 22.6131H8.05266C8.63932 22.6131 9.54599 22.8798 10.026 23.1465L11.0393 23.7331C11.5727 23.9998 12.3727 23.9998 12.906 23.7331L13.9193 23.1465C14.4527 22.8798 15.306 22.6131 15.8927 22.6131H17.066C17.6527 22.6131 18.3993 22.1865 18.666 21.7065L19.2527 20.6931C19.5193 20.1598 20.2127 19.5198 20.6927 19.2531L21.706 18.6665C22.2393 18.3998 22.6127 17.6531 22.6127 17.0665V15.8931C22.6127 15.3065 22.8793 14.3998 23.146 13.9198L23.7327 12.9065C24.0527 12.4265 24.0527 11.5731 23.7327 11.0398ZM11.9993 21.0665C6.98599 21.0665 2.93266 17.0131 2.93266 11.9998C2.93266 6.98648 6.98599 2.93315 11.9993 2.93315C17.0127 2.93315 21.066 6.98648 21.066 11.9998C21.066 17.0131 16.9593 21.0665 11.9993 21.0665Z" fill="#18CE31"/>
</svg>
