<svg width="24" height="24" viewBox="0 0 24 24" fill="none" xmlns="http://www.w3.org/2000/svg">
<path d="M11.9993 4C7.57266 4 3.99932 7.57333 3.99932 12C3.99932 16.4267 7.57266 20 11.9993 20C16.426 20 19.9993 16.4267 19.9993 12C19.9993 7.57333 16.3727 4 11.9993 4ZM15.946 11.2L11.6793 15.84C11.466 16.0533 11.146 16.0533 10.9327 15.84L7.99932 12.9067C7.78599 12.6933 7.78599 12.3733 8.05266 12.2133L9.22599 11.2533C9.43932 11.0933 9.75932 11.0933 9.91932 11.36L10.9327 12.9067C11.0927 13.1733 11.3593 13.12 11.5193 12.9067L14.2393 8.21333C14.3993 7.94666 14.6127 7.94666 14.7727 8.21333L15.9993 10.4C16.2127 10.6133 16.1593 10.9867 15.946 11.2ZM23.7327 11.04L23.146 10.0267C22.8793 9.49333 22.6127 8.64 22.6127 8.05333V6.88C22.6127 6.29333 22.186 5.6 21.706 5.27999L20.6927 4.69333C20.1593 4.37333 19.5193 3.73333 19.2527 3.25333L18.666 2.23999C18.3993 1.70666 17.6527 1.33333 17.066 1.33333H15.8927C15.306 1.33333 14.3993 1.06666 13.9193 0.799994L12.906 0.213328C12.3727 -0.106672 11.5727 -0.106672 11.0393 0.213328L10.026 0.799994C9.49266 1.06666 8.63932 1.33333 8.05266 1.33333H6.87932C6.29266 1.33333 5.59932 1.75999 5.27932 2.23999L4.74599 3.25333C4.42599 3.78666 3.78599 4.42666 3.30599 4.69333L2.23932 5.27999C1.70599 5.6 1.33266 6.29333 1.33266 6.88V8.05333C1.33266 8.64 1.06599 9.54666 0.799323 10.0267L0.212656 11.04C-0.107344 11.5733 -0.107344 12.3733 0.212656 12.9067L0.799323 13.92C1.06599 14.4533 1.33266 15.3067 1.33266 15.8933V17.0667C1.33266 17.6533 1.75932 18.4 2.23932 18.6667L3.25266 19.2533C3.78599 19.52 4.42599 20.2133 4.69266 20.6933L5.27932 21.7067C5.59932 22.24 6.29266 22.6133 6.87932 22.6133H8.05266C8.63932 22.6133 9.54599 22.88 10.026 23.1467L11.0393 23.7333C11.5727 24 12.3727 24 12.906 23.7333L13.9193 23.1467C14.4527 22.88 15.306 22.6133 15.8927 22.6133H17.066C17.6527 22.6133 18.3993 22.1867 18.666 21.7067L19.2527 20.6933C19.5193 20.16 20.2127 19.52 20.6927 19.2533L21.706 18.6667C22.2393 18.4 22.6127 17.6533 22.6127 17.0667V15.8933C22.6127 15.3067 22.8793 14.4 23.146 13.92L23.7327 12.9067C24.0527 12.4267 24.0527 11.5733 23.7327 11.04ZM11.9993 21.0667C6.98599 21.0667 2.93266 17.0133 2.93266 12C2.93266 6.98666 6.98599 2.93333 11.9993 2.93333C17.0127 2.93333 21.066 6.98666 21.066 12C21.066 17.0133 16.9593 21.0667 11.9993 21.0667Z" fill="white"/>
</svg>
