<svg width="19" height="18" viewBox="0 0 19 18" xmlns="http://www.w3.org/2000/svg">
<path d="M16.2317 9.76497C16.2317 10.6472 16.2317 11.5294 16.2317 12.4116C16.2317 13.0008 16.2317 13.59 16.2317 14.1792C16.2317 14.4928 16.2507 14.8154 16.2182 15.128C16.2162 15.146 16.214 15.1639 16.2116 15.1818C16.2221 15.1061 16.2326 15.0304 16.2431 14.9548C16.2158 15.1481 16.165 15.3354 16.0906 15.5158C16.1196 15.4463 16.1487 15.3768 16.1777 15.3073C16.1029 15.4828 16.0077 15.6469 15.8926 15.799C15.9383 15.7391 15.984 15.6791 16.0296 15.6192C15.9136 15.769 15.7811 15.9031 15.6327 16.0208C15.693 15.9739 15.7533 15.927 15.8135 15.8801C15.6559 16.0022 15.4849 16.1027 15.3015 16.181C15.3744 16.1505 15.4473 16.1201 15.5203 16.0896C15.3398 16.1641 15.1525 16.2149 14.9592 16.2422C15.0376 16.2321 15.1159 16.222 15.1943 16.2119C14.9879 16.2384 14.7792 16.2319 14.5715 16.2319C14.2325 16.2319 13.8934 16.2319 13.5544 16.2319C12.435 16.2319 11.3156 16.2319 10.1962 16.2319C8.91908 16.2319 7.64202 16.2319 6.36496 16.2319C5.44714 16.2319 4.52932 16.2319 3.61151 16.2319C3.34887 16.2319 3.07921 16.2454 2.81824 16.2119C2.89392 16.2223 2.96958 16.2328 3.04525 16.2433C2.85194 16.2161 2.66461 16.1652 2.48416 16.0908C2.55369 16.1198 2.6232 16.1489 2.69271 16.1779C2.51726 16.1031 2.35313 16.0079 2.20101 15.8928C2.26094 15.9385 2.32088 15.9841 2.38081 16.0298C2.23104 15.9138 2.09697 15.7813 1.97924 15.6329C2.02614 15.6932 2.07305 15.7535 2.11995 15.8138C1.99786 15.6561 1.89728 15.4851 1.81906 15.3017C1.84951 15.3746 1.87993 15.4475 1.91038 15.5205C1.83592 15.34 1.78508 15.1527 1.75786 14.9594C1.76798 15.0378 1.77807 15.1161 1.78817 15.1945C1.76165 14.9882 1.76813 14.7794 1.76813 14.5717C1.76813 14.2327 1.76813 13.8937 1.76813 13.5546C1.76813 12.4352 1.76813 11.3158 1.76813 10.1964C1.76813 8.91929 1.76813 7.64223 1.76813 6.36515C1.76813 5.44733 1.76813 4.52951 1.76813 3.61171C1.76813 3.34906 1.75464 3.07941 1.78817 2.81843C1.7777 2.89411 1.76723 2.96977 1.75674 3.04545C1.78397 2.85214 1.8348 2.6648 1.90926 2.48435C1.88019 2.55388 1.85114 2.62339 1.82207 2.6929C1.8969 2.51745 1.99214 2.35332 2.10718 2.2012C2.06152 2.26113 2.01585 2.32107 1.97017 2.381C2.08617 2.23123 2.21871 2.09716 2.36714 1.97943C2.30684 2.02634 2.24654 2.07324 2.18626 2.12014C2.3439 1.99805 2.51492 1.89747 2.69833 1.81926C2.6254 1.8497 2.55247 1.88013 2.47954 1.91057C2.66001 1.83611 2.84735 1.78528 3.04064 1.75805C2.96227 1.76817 2.8839 1.77827 2.80551 1.78836C3.12635 1.74713 3.46089 1.76833 3.78344 1.76833C4.36975 1.76833 4.95608 1.76833 5.5424 1.76833C6.41997 1.76833 7.29755 1.76833 8.17514 1.76833C8.65665 1.76833 9.06236 1.37452 9.06557 0.890633C9.06875 0.411541 8.66942 0.000212226 8.18787 0.000212226C7.30377 0.000212226 6.41966 0.000212226 5.53554 0.000212226C4.95115 0.000212226 4.36676 0.000212226 3.78238 0.000212226C3.37737 0.000212226 2.9858 -0.00613193 2.58311 0.050553C2.00613 0.131809 1.49245 0.4171 1.05032 0.784668C0.616522 1.1453 0.315813 1.65955 0.140082 2.18959C0.0184039 2.55651 0 2.94286 0 3.32563C0 4.11674 0 4.90788 0 5.69897C0 6.94756 0 8.19616 0 9.44474C0 10.6339 0 11.823 0 13.0122C0 13.6249 0 14.2377 0 14.8505C0 15.714 0.345197 16.5619 0.979789 17.1542C1.5708 17.7059 2.34871 18 3.15472 18C3.7964 18 4.43808 18 5.07978 18C6.27973 18 7.47968 18 8.67963 18C9.92095 18 11.1622 18 12.4035 18C13.1693 18 13.935 18 14.7008 18C15.1344 18 15.573 17.9642 15.9778 17.7971C16.1402 17.7301 16.3001 17.6658 16.4524 17.5786C16.6084 17.4892 16.7492 17.3756 16.8895 17.2642C17.1139 17.0863 17.2846 16.8715 17.4544 16.6416C17.7952 16.18 17.9576 15.598 17.9956 15.0322C18.0156 14.735 17.9998 14.4325 17.9998 14.1351C17.9998 13.5387 17.9998 12.9423 17.9998 12.3459C17.9998 11.4898 17.9998 10.6338 17.9998 9.7777C17.9998 9.29619 17.606 8.89048 17.1221 8.88728C16.643 8.88409 16.2317 9.28342 16.2317 9.76497Z"/>
<path d="M11.4402 1.76811C12.2745 1.76888 13.1088 1.76965 13.9431 1.77041C14.9661 1.77136 15.9891 1.7723 17.0121 1.77324C17.045 1.77328 17.078 1.7733 17.111 1.77334C17.5925 1.77377 17.9982 1.3792 18.0014 0.895646C18.0046 0.41622 17.6053 0.00565706 17.1237 0.00522495C16.2894 0.00445894 15.4551 0.00369293 14.6208 0.00292692C13.5979 0.00198413 12.5749 0.00104135 11.5519 9.85614e-05C11.5189 5.92786e-05 11.4859 3.96373e-05 11.4529 3.54573e-07C10.9714 -0.000431755 10.5657 0.394143 10.5625 0.877694C10.5593 1.3571 10.9587 1.76768 11.4402 1.76811Z"/>
<path d="M17.9947 6.56127C17.9955 5.72697 17.9962 4.89268 17.997 4.05837C17.9979 3.03539 17.9989 2.01239 17.9998 0.989413C17.9999 0.956415 17.9999 0.923437 17.9999 0.89044C18.0004 0.408932 17.6058 0.00322042 17.1222 1.88839e-05C16.6428 -0.00316302 16.2322 0.396185 16.2318 0.877712C16.231 1.71202 16.2303 2.5463 16.2295 3.38061C16.2285 4.40359 16.2276 5.42659 16.2266 6.44957C16.2266 6.48257 16.2266 6.51555 16.2266 6.54854C16.2261 7.03005 16.6207 7.43576 17.1043 7.43897C17.5837 7.44215 17.9942 7.0428 17.9947 6.56127Z"/>
<path d="M8.54619 10.6963C8.86921 10.3735 9.19223 10.0508 9.51525 9.72803C10.2839 8.95999 11.0526 8.19196 11.8212 7.4239C12.7349 6.51095 13.6486 5.59798 14.5623 4.68501C15.3204 3.92748 16.0786 3.16996 16.8367 2.41243C17.1391 2.11023 17.4416 1.80804 17.744 1.50584C18.0843 1.16583 18.0785 0.592638 17.7373 0.25569C17.3933 -0.0839481 16.8281 -0.0782717 16.4872 0.262388C16.1641 0.585154 15.8411 0.907901 15.5181 1.23067C14.7494 1.99872 13.9808 2.76676 13.2121 3.53479C12.2984 4.44774 11.3848 5.36071 10.471 6.27368C9.7129 7.03121 8.95477 7.78874 8.19665 8.54627C7.89421 8.84847 7.59177 9.15065 7.28934 9.45283C6.94907 9.79284 6.95482 10.366 7.29603 10.703C7.63997 11.0427 8.20523 11.037 8.54619 10.6963Z"/>
</svg>
