<svg width="24" height="24" viewBox="0 0 24 24" xmlns="http://www.w3.org/2000/svg">
<rect width="24" height="24" rx="6"/>
<path d="M18.4559 5.5441C18.3169 5.40518 18.0484 5.3049 17.8737 5.30047L7.96834 5.00013C7.5123 4.99253 7.12218 5.32894 7.09604 5.82563C7.07267 6.26965 7.47705 6.68567 7.92155 6.69796L15.8665 6.93263L5.24866 17.5507C4.91712 17.8822 4.91711 18.4197 5.24867 18.7513C5.58023 19.0829 6.1178 19.0829 6.44935 18.7513L17.0672 8.13333L17.3018 16.0784C17.3141 16.5229 17.7295 16.9077 18.1741 16.9039C18.6435 16.8997 19.0142 16.4878 18.9996 16.0316L18.6993 6.12603C18.702 5.84651 18.5944 5.68743 18.4559 5.5441Z" fill="white"/>
</svg>
