<svg width="18" height="18" viewBox="0 0 18 18" xmlns="http://www.w3.org/2000/svg">
<path d="M17.3004 0.699542C17.1218 0.520935 16.7765 0.392009 16.5519 0.386312L3.81644 0.000162163C3.23011 -0.00960728 2.72852 0.422912 2.6949 1.06151C2.66487 1.63238 3.18478 2.16724 3.75628 2.18305L13.9712 2.48475L0.319706 16.1362C-0.106562 16.5624 -0.106578 17.2536 0.319713 17.6799C0.746004 18.1061 1.43717 18.1062 1.86345 17.6799L15.5149 4.02848L15.8166 14.2434C15.8324 14.8148 16.3666 15.3095 16.9381 15.3047C17.5416 15.2993 18.0182 14.7697 17.9995 14.1832L17.6133 1.44772C17.6168 1.08835 17.4786 0.883818 17.3004 0.699542Z"/>
</svg>
