<svg width="11" height="16" viewBox="0 0 11 16" fill="none" xmlns="http://www.w3.org/2000/svg">
<path d="M9.44443 5.0574H7.29822C7.30689 4.97738 7.31133 4.8964 7.31133 4.81445C7.31133 4.79344 7.31094 4.77204 7.31036 4.75083L8.25419 3.807C8.40806 3.87815 8.57291 3.91767 8.7395 3.91767C9.03567 3.91767 9.33183 3.80488 9.55742 3.57948C9.77607 3.36102 9.89639 3.07045 9.89639 2.76137C9.89639 2.45229 9.77607 2.16171 9.55742 1.94345L7.95244 0.338076C7.50106 -0.112917 6.7674 -0.112531 6.31641 0.338269C5.96413 0.690348 5.89086 1.21384 6.08869 1.64169L5.14429 2.58494C4.52844 2.56315 3.94382 2.798 3.50132 3.23858L2.8523 3.88972C2.67009 4.07193 2.57002 4.3141 2.57079 4.57132C2.57118 4.74639 2.6215 4.91221 2.70866 5.05759H1.49759C0.671958 5.05759 0 5.72936 0 6.55518V14.5024C0 15.328 0.671765 16 1.49759 16H7.05508H7.05527H7.05546C7.18098 16 7.30419 15.951 7.39655 15.8589L10.8009 12.4547C10.8032 12.4524 10.8044 12.4493 10.8065 12.447C10.8335 12.4191 10.8556 12.3876 10.8749 12.3545C10.8809 12.344 10.8865 12.3336 10.8917 12.3228C10.9092 12.287 10.9237 12.2496 10.9318 12.2102C10.932 12.2089 10.9326 12.2077 10.9328 12.2064C10.9387 12.1759 10.942 12.1445 10.942 12.1131V6.55499C10.942 5.72917 10.2703 5.0574 9.44443 5.0574ZM7.53769 14.3532V12.5955H9.29558L7.53769 14.3532ZM6.998 1.01987C7.0356 0.982269 7.08496 0.963373 7.13452 0.963373C7.18388 0.963373 7.23324 0.982269 7.27084 1.01967L8.87582 2.62505C8.92499 2.67402 8.93232 2.73148 8.93232 2.76117C8.93232 2.79087 8.92499 2.84833 8.87582 2.89749C8.80062 2.97288 8.67857 2.97288 8.60299 2.89749L8.54708 2.84158C8.54553 2.83984 8.54438 2.83791 8.54283 2.83637L7.86798 2.16249L6.998 1.29251C6.92281 1.21731 6.92281 1.09507 6.998 1.01987ZM4.18253 3.92018C4.42509 3.67878 4.74497 3.54786 5.08047 3.54786C5.14024 3.54786 5.2004 3.55191 5.26075 3.56039C5.41114 3.58063 5.56115 3.5307 5.66778 3.42388L6.71727 2.37574L7.25233 2.91003L7.51976 3.17746L6.47104 4.22637C6.36422 4.33319 6.31371 4.48378 6.33434 4.63321C6.34282 4.69433 6.34706 4.75526 6.34706 4.81407C6.34706 4.99801 6.30889 5.17367 6.2308 5.34199C6.16871 5.48082 6.08349 5.60403 5.97532 5.71104L5.33074 6.36295L4.16807 5.19835C4.16055 5.19083 4.15168 5.18543 4.14377 5.17829L3.53409 4.56997L4.18253 3.92018ZM0.963879 14.502V6.55499C0.963879 6.26095 1.20316 6.02147 1.4974 6.02147H3.19262L2.00623 7.20786C1.81785 7.39624 1.81785 7.70127 2.00623 7.88946C2.10033 7.98355 2.22373 8.0306 2.34713 8.0306C2.47053 8.0306 2.59374 7.98355 2.68803 7.88946L4.09133 6.48616L4.65107 7.04647C4.69792 7.09294 4.74844 7.13343 4.80166 7.16833C4.81207 7.17508 4.82364 7.17894 4.83405 7.1853C4.87782 7.21152 4.92197 7.23659 4.96863 7.25529C4.98232 7.26069 4.99678 7.26281 5.01047 7.26763C5.05521 7.28325 5.10013 7.29848 5.14622 7.30735C5.16087 7.31024 5.1761 7.30947 5.19095 7.31159C5.23665 7.31815 5.28234 7.3247 5.32823 7.3247C5.32862 7.3247 5.32881 7.3247 5.3292 7.3247C5.35426 7.3247 5.37894 7.3195 5.40401 7.31757C5.44026 7.31468 5.47651 7.31391 5.51237 7.30716C5.54013 7.30176 5.56674 7.29096 5.59412 7.28306C5.62613 7.2738 5.65872 7.26725 5.68976 7.25471C5.73179 7.23775 5.77151 7.21422 5.81123 7.19089C5.82589 7.18241 5.8417 7.17682 5.85597 7.16737C5.90899 7.13247 5.95912 7.09159 6.00578 7.04512L6.65518 6.39572C6.7084 6.34328 6.75795 6.28756 6.80538 6.2301C6.81984 6.21255 6.83296 6.19385 6.84684 6.17572C6.87904 6.13408 6.91008 6.09146 6.939 6.04769C6.94498 6.03883 6.95192 6.03073 6.95771 6.02167H9.44463C9.73867 6.02167 9.97814 6.26095 9.97814 6.55518V11.6316H7.05566C6.78938 11.6316 6.57362 11.8474 6.57362 12.1136V15.0355H1.4974C1.20316 15.0355 0.963879 14.7963 0.963879 14.502Z" fill="#DADADA"/>
<path d="M6.62813 9.90879C6.62813 9.64252 6.41238 9.42676 6.1461 9.42676H2.34727C2.08099 9.42676 1.86523 9.64252 1.86523 9.90879C1.86523 10.1751 2.08099 10.3908 2.34727 10.3908H6.1461C6.41238 10.3908 6.62813 10.1751 6.62813 9.90879Z" fill="#DADADA"/>
<path d="M3.59131 11.1631H2.34727C2.08099 11.1631 1.86523 11.3788 1.86523 11.6451C1.86523 11.9114 2.08099 12.1272 2.34727 12.1272H3.59131C3.85759 12.1272 4.07334 11.9114 4.07334 11.6451C4.07334 11.3788 3.85759 11.1631 3.59131 11.1631Z" fill="#DADADA"/>
<path d="M8.75919 7.8369C8.88452 7.8369 9.00984 7.78465 9.09854 7.69615C9.18935 7.60553 9.24122 7.48213 9.24122 7.35487C9.24122 7.22761 9.18916 7.10402 9.09854 7.01339C8.91922 6.83408 8.59722 6.83408 8.4181 7.01339C8.32728 7.10402 8.27734 7.22742 8.27734 7.35487C8.27734 7.48193 8.32747 7.60746 8.4181 7.69615C8.5066 7.78465 8.63193 7.8369 8.75919 7.8369Z" fill="#DADADA"/>
</svg>
