<svg width="14" height="18" viewBox="0 0 14 18" fill="none" xmlns="http://www.w3.org/2000/svg">
<path d="M3.50907 11.232H5.69153C5.89819 11.8273 6.53831 12.1454 7.12298 11.935C7.44556 11.8222 7.70262 11.5604 7.81351 11.232H9.99597C10.2732 11.232 10.5 11.0011 10.5 10.7188C10.5 10.4366 10.2732 10.2057 9.99597 10.2057H9.78932V7.89127C9.78932 6.38256 8.71573 5.0945 7.25403 4.84305V4.26317C7.25403 3.98093 7.02722 3.75 6.75 3.75C6.47278 3.75 6.24597 3.98093 6.24597 4.26317V4.84305C4.78427 5.0945 3.71573 6.38256 3.71069 7.89127V10.2057H3.50403C3.22681 10.2057 3 10.4366 3 10.7188C3.00504 11.0062 3.23186 11.232 3.50907 11.232Z" fill="#E21B3A"/>
<path d="M12.4447 0H1.09059C0.490588 0 0 0.490588 0 1.09412V16.9059C0 17.5094 0.490588 18 1.09059 18H12.4447C13.0482 18 13.5388 17.5094 13.5388 16.9059V1.09412C13.5388 0.490588 13.0482 0 12.4447 0ZM1.09059 0.705882H12.4447C12.6565 0.705882 12.8329 0.878824 12.8329 1.09412V14.1247H0.705882V1.09412C0.705882 0.878824 0.878824 0.705882 1.09059 0.705882ZM12.4447 17.2941H1.09059C0.878824 17.2941 0.705882 17.1212 0.705882 16.9059V14.8271H12.8329V16.9059C12.8329 17.1212 12.66 17.2941 12.4447 17.2941Z" fill="#333333"/>
<path d="M6.76941 15.2715C6.34588 15.2715 6 15.6174 6 16.0409C6 16.4644 6.34588 16.8103 6.76941 16.8103C7.19294 16.8103 7.53882 16.4644 7.53882 16.0409C7.53882 15.6174 7.19294 15.2715 6.76941 15.2715Z" fill="#333333"/>
</svg>
