<svg width="12" height="12" viewBox="0 0 12 12" fill="none" xmlns="http://www.w3.org/2000/svg">
<path d="M11.055 0.959595C10.6031 0.50766 9.99912 0.258789 9.35435 0.258789C8.8996 0.258789 8.46513 0.382599 8.08997 0.614136C7.79838 0.496521 7.48316 0.434204 7.16599 0.434204C6.51649 0.434204 5.91617 0.684174 5.47562 1.13806L3.61338 2.98285C3.47004 3.12488 3.38996 3.3187 3.39127 3.52051C3.39255 3.72229 3.47513 3.91504 3.62031 4.05521L4.09266 4.51126L1.51667 7.07928C1.42951 7.1662 1.36506 7.27319 1.32905 7.3909L0.288733 10.7892C0.207343 11.0551 0.2797 11.3442 0.476783 11.5403C0.619452 11.6824 0.810584 11.7588 1.00596 11.7588C1.08042 11.7588 1.15549 11.7477 1.22874 11.7249L4.62708 10.6673C4.74311 10.6311 4.84864 10.5674 4.93455 10.4815L11.055 4.36096C11.507 3.90906 11.7559 3.30505 11.7559 2.66028C11.7559 2.0155 11.507 1.41153 11.055 0.959595ZM1.00587 11.0088L1.93708 7.9668L4.03602 10.0657L1.00587 11.0088ZM4.69309 9.66226L2.34418 7.31335L6.57044 3.10016L7.40772 3.93744L5.11036 6.2348L5.64063 6.76508L7.93799 4.46771L8.91282 5.44254L4.69309 9.66226ZM10.5247 3.83063L9.44309 4.91226L7.10154 2.57071L7.66386 2.0101C7.51133 1.92291 7.33701 1.87787 7.16294 1.87787C6.92152 1.87787 6.68064 1.96457 6.49927 2.14594L4.64408 4.00113L4.14124 3.51566L6.0138 1.66043C6.32496 1.33984 6.74464 1.1842 7.16599 1.1842C7.51942 1.1842 7.87403 1.29373 8.16666 1.50729L8.184 1.48993C8.50477 1.16916 8.92957 1.00879 9.35435 1.00879C9.77915 1.00879 10.204 1.16916 10.5247 1.48993C11.1662 2.13147 11.1662 3.18912 10.5247 3.83063Z" fill="#0A253C"/>
</svg>
