<svg width="64" height="64" viewBox="0 0 64 64" fill="none" xmlns="http://www.w3.org/2000/svg">
<circle cx="32" cy="32" r="32" fill="#021D51"/>
<path d="M32 0C14.336 0 0 14.336 0 32C0 49.664 14.336 64 32 64C49.664 64 64 49.664 64 32C64 14.336 49.664 0 32 0ZM42.496 32.96C42.432 32.96 26.944 42.88 26.688 43.072C26.496 43.2 26.24 43.328 25.984 43.328C25.344 43.328 24.832 42.816 24.832 42.176V21.888C24.832 21.248 25.344 20.736 25.984 20.736C26.24 20.736 26.496 20.8 26.688 20.992C26.944 21.184 42.432 31.104 42.496 31.104C43.008 31.488 43.136 32.192 42.816 32.704C42.752 32.768 42.624 32.896 42.496 32.96Z" fill="white"/>
</svg>
