<svg width="33" height="23" viewBox="0 0 33 23" fill="none" xmlns="http://www.w3.org/2000/svg">
<path d="M12.0334 17.2664L7.90039 13.9334L12.0667 10.9336L13.0333 12.3002L10.6668 14L13.0667 15.9665L12.0334 17.2664Z" fill="#E21B3A"/>
<path d="M20.8672 17.2664L19.834 15.9665L22.2338 14L19.8673 12.3002L20.8339 10.9336L25.0003 13.9334L20.8672 17.2664Z" fill="#E21B3A"/>
<path d="M19.0772 9.29786L17.502 8.75391L13.9771 18.9613L15.5523 19.5053L19.0772 9.29786Z" fill="#E21B3A"/>
<path d="M30 0H3C2.20435 0 1.44129 0.316071 0.87868 0.87868C0.316071 1.44129 0 2.20435 0 3V19.5C0 20.2956 0.316071 21.0587 0.87868 21.6213C1.44129 22.1839 2.20435 22.5 3 22.5H26C26.2652 22.5 26.5196 22.3946 26.7071 22.2071C26.8946 22.0196 27 21.7652 27 21.5C27 21.2348 26.8946 20.9804 26.7071 20.7929C26.5196 20.6054 26.2652 20.5 26 20.5H3C2.73478 20.5 2.48043 20.3946 2.29289 20.2071C2.10536 20.0196 2 19.7652 2 19.5V7H31V19.5C31 19.7652 30.8946 20.0196 30.7071 20.2071C30.5196 20.3946 30.2652 20.5 30 20.5H25C24.7348 20.5 24.4804 20.6054 24.2929 20.7929C24.1054 20.9804 24 21.2348 24 21.5C24 21.7652 24.1054 22.0196 24.2929 22.2071C24.4804 22.3946 24.7348 22.5 25 22.5H30C30.7956 22.5 31.5587 22.1839 32.1213 21.6213C32.6839 21.0587 33 20.2956 33 19.5V3C33 2.20435 32.6839 1.44129 32.1213 0.87868C31.5587 0.316071 30.7956 0 30 0ZM2 5V3C2 2.73478 2.10536 2.48043 2.29289 2.29289C2.48043 2.10536 2.73478 2 3 2H30C30.2652 2 30.5196 2.10536 30.7071 2.29289C30.8946 2.48043 31 2.73478 31 3V5H2Z" fill="#0A253C"/>
<path d="M3.5 4.5C4.05228 4.5 4.5 4.05228 4.5 3.5C4.5 2.94772 4.05228 2.5 3.5 2.5C2.94772 2.5 2.5 2.94772 2.5 3.5C2.5 4.05228 2.94772 4.5 3.5 4.5Z" fill="black"/>
<path d="M6 4.5C6.55228 4.5 7 4.05228 7 3.5C7 2.94772 6.55228 2.5 6 2.5C5.44772 2.5 5 2.94772 5 3.5C5 4.05228 5.44772 4.5 6 4.5Z" fill="black"/>
<path d="M8.5 4.5C9.05228 4.5 9.5 4.05228 9.5 3.5C9.5 2.94772 9.05228 2.5 8.5 2.5C7.94772 2.5 7.5 2.94772 7.5 3.5C7.5 4.05228 7.94772 4.5 8.5 4.5Z" fill="black"/>
</svg>
