<svg width="64" height="43" viewBox="0 0 64 43" fill="none" xmlns="http://www.w3.org/2000/svg">
<path d="M31.1243 15.6364C31.1243 6.97504 24.1992 0 15.5999 0C7.00064 0 0.836553 6.7451 0.0755539 15.4064C-1.06594 28.5134 8.90314 39.5508 20.9269 43.0767C16.8175 40.5472 14.0018 36.2549 13.4691 31.1961C14.154 31.2727 14.915 31.3494 15.5999 31.3494C24.1992 31.2727 31.1243 24.2977 31.1243 15.6364Z" fill="#EBEBEB"/>
<path d="M63.9992 15.6364C63.9992 6.97504 56.998 0 48.4749 0C39.8756 0 33.6354 6.7451 32.8744 15.4064C31.7329 28.5134 41.702 39.5508 53.7257 43.0767C49.6164 40.5472 46.8007 36.2549 46.268 31.1961C46.9529 31.2727 47.7139 31.3494 48.3988 31.3494C56.998 31.2727 63.9992 24.2977 63.9992 15.6364Z" fill="#EBEBEB"/>
</svg>
