<svg width="31" height="30" viewBox="0 0 31 30" fill="none" xmlns="http://www.w3.org/2000/svg">
<path d="M0 30L2.8 22C1.6 19.8 0.9 17.3 0.9 14.8C0.9 6.6 7.5 0 15.7 0C23.9 0 30.5 6.6 30.5 14.8C30.5 23 23.9 29.6 15.7 29.6C13.1 29.6 10.6 28.9 8.3 27.6L0 30ZM8.5 26L8.8 26.2C10.9 27.5 13.3 28.1 15.7 28.1C23.1 28.1 29 22.1 29 14.8C29 7.4 23 1.5 15.7 1.5C8.4 1.5 2.4 7.5 2.4 14.8C2.4 17.2 3 19.5 4.3 21.5L4.5 21.8L2.4 27.8L8.5 26Z" fill="#DDDDDD"/>
<path d="M17.8 18.5999L17.3 17.1999C18.1 16.8999 18.5 14.6999 18.6 12.8999H17.4V11.3999H20.1V12.0999C20.1 13.0999 20.1 17.7999 17.8 18.5999Z" fill="#DDDDDD"/>
<path d="M11.8999 18.5999L11.3999 17.1999C12.1999 16.8999 12.5999 14.6999 12.6999 12.8999H11.4999V11.3999H14.1999V12.0999C14.1999 13.0999 14.1999 17.7999 11.8999 18.5999Z" fill="#DDDDDD"/>
</svg>
