<svg width="33" height="24" viewBox="0 0 33 24" fill="none" xmlns="http://www.w3.org/2000/svg">
<path d="M2.25 0C1.01647 0 0 1.01647 0 2.25V21.75C0 22.9835 1.01647 24 2.25 24H24C25.2335 24 26.25 22.9835 26.25 21.75V17.5547L32.7773 11.0273C32.9162 10.8869 32.994 10.6974 32.994 10.5C32.994 10.3026 32.9162 10.1131 32.7773 9.97266L30.1523 7.34766C30.0739 7.2673 29.9784 7.20557 29.873 7.16704C29.7675 7.1285 29.6547 7.11413 29.543 7.125C29.3735 7.14635 29.2164 7.2249 29.0977 7.34766L26.25 10.1953V2.25C26.25 1.01647 25.2335 0 24 0H2.25ZM2.25 1.5H24C24.4285 1.5 24.75 1.82153 24.75 2.25V4.5H1.5V2.25C1.5 1.82153 1.82153 1.5 2.25 1.5ZM20.25 2.25C19.8358 2.25 19.5 2.58579 19.5 3C19.5 3.41421 19.8358 3.75 20.25 3.75C20.6642 3.75 21 3.41421 21 3C21 2.58579 20.6642 2.25 20.25 2.25ZM22.875 2.25C22.4608 2.25 22.125 2.58579 22.125 3C22.125 3.41421 22.4608 3.75 22.875 3.75C23.2892 3.75 23.625 3.41421 23.625 3C23.625 2.58579 23.2892 2.25 22.875 2.25ZM1.5 6H24.75V11.6953L18.9727 17.4727C18.8316 17.6121 18.7516 17.8017 18.75 18V20.625C18.75 20.8239 18.829 21.0147 18.9697 21.1553C19.1103 21.296 19.3011 21.375 19.5 21.375H22.125C22.3233 21.3734 22.5129 21.2934 22.6523 21.1523L24.75 19.0547V21.75C24.75 22.1785 24.4285 22.5 24 22.5H2.25C1.82153 22.5 1.5 22.1785 1.5 21.75V6ZM4.05469 8.625C3.95618 8.6296 3.85955 8.65355 3.7703 8.6955C3.68106 8.73745 3.60095 8.79657 3.53455 8.86948C3.46816 8.94239 3.41678 9.02767 3.38334 9.12044C3.34991 9.21321 3.33508 9.31166 3.33969 9.41016C3.34431 9.50867 3.36829 9.6053 3.41025 9.69453C3.45222 9.78377 3.51135 9.86387 3.58428 9.93025C3.6572 9.99663 3.74249 10.048 3.83527 10.0814C3.92805 10.1148 4.0265 10.1296 4.125 10.125H17.625C17.7244 10.1264 17.8231 10.108 17.9153 10.071C18.0075 10.0339 18.0914 9.9789 18.1622 9.90912C18.233 9.83933 18.2892 9.75618 18.3276 9.66449C18.3659 9.57279 18.3857 9.47439 18.3857 9.375C18.3857 9.27561 18.3659 9.17721 18.3276 9.08551C18.2892 8.99382 18.233 8.91067 18.1622 8.84088C18.0914 8.7711 18.0075 8.71608 17.9153 8.67902C17.8231 8.64196 17.7244 8.6236 17.625 8.625H4.125C4.10158 8.6239 4.07811 8.6239 4.05469 8.625ZM29.625 8.92969L31.1953 10.5L30.1875 11.5078L28.6172 9.9375L29.625 8.92969ZM27.5625 10.9922L29.1328 12.5625L21.8203 19.875H20.25V18.3047L27.5625 10.9922ZM4.05469 12C3.95618 12.0046 3.85955 12.0286 3.7703 12.0705C3.68106 12.1125 3.60095 12.1716 3.53455 12.2445C3.46816 12.3174 3.41678 12.4027 3.38334 12.4954C3.34991 12.5882 3.33508 12.6867 3.33969 12.7852C3.34431 12.8837 3.36829 12.9803 3.41025 13.0695C3.45222 13.1588 3.51135 13.2389 3.58428 13.3052C3.6572 13.3716 3.74249 13.423 3.83527 13.4564C3.92805 13.4898 4.0265 13.5046 4.125 13.5H13.125C13.2244 13.5014 13.3231 13.483 13.4153 13.446C13.5075 13.4089 13.5914 13.3539 13.6622 13.2841C13.733 13.2143 13.7892 13.1312 13.8276 13.0395C13.8659 12.9478 13.8857 12.8494 13.8857 12.75C13.8857 12.6506 13.8659 12.5522 13.8276 12.4605C13.7892 12.3688 13.733 12.2857 13.6622 12.2159C13.5914 12.1461 13.5075 12.0911 13.4153 12.054C13.3231 12.017 13.2244 11.9986 13.125 12H4.125C4.10158 11.9989 4.07811 11.9989 4.05469 12ZM4.05469 15C3.95618 15.0046 3.85955 15.0286 3.7703 15.0705C3.68106 15.1125 3.60095 15.1716 3.53455 15.2445C3.46816 15.3174 3.41678 15.4027 3.38334 15.4954C3.34991 15.5882 3.33508 15.6867 3.33969 15.7852C3.34431 15.8837 3.36829 15.9803 3.41025 16.0695C3.45222 16.1588 3.51135 16.2389 3.58428 16.3052C3.6572 16.3716 3.74249 16.423 3.83527 16.4564C3.92805 16.4898 4.0265 16.5046 4.125 16.5H16.125C16.2244 16.5014 16.3231 16.483 16.4153 16.446C16.5075 16.4089 16.5914 16.3539 16.6622 16.2841C16.733 16.2143 16.7892 16.1312 16.8276 16.0395C16.8659 15.9478 16.8857 15.8494 16.8857 15.75C16.8857 15.6506 16.8659 15.5522 16.8276 15.4605C16.7892 15.3688 16.733 15.2857 16.6622 15.2159C16.5914 15.1461 16.5075 15.0911 16.4153 15.054C16.3231 15.017 16.2244 14.9986 16.125 15H4.125C4.10158 14.9989 4.07811 14.9989 4.05469 15ZM4.05469 18.375C3.95618 18.3796 3.85955 18.4036 3.7703 18.4455C3.68106 18.4875 3.60095 18.5466 3.53455 18.6195C3.46816 18.6924 3.41678 18.7777 3.38334 18.8704C3.34991 18.9632 3.33508 19.0617 3.33969 19.1602C3.34431 19.2587 3.36829 19.3553 3.41025 19.4445C3.45222 19.5338 3.51135 19.6139 3.58428 19.6802C3.6572 19.7466 3.74249 19.798 3.83527 19.8314C3.92805 19.8648 4.0265 19.8796 4.125 19.875H13.125C13.2244 19.8764 13.3231 19.858 13.4153 19.821C13.5075 19.7839 13.5914 19.7289 13.6622 19.6591C13.733 19.5893 13.7892 19.5062 13.8276 19.4145C13.8659 19.3228 13.8857 19.2244 13.8857 19.125C13.8857 19.0256 13.8659 18.9272 13.8276 18.8355C13.7892 18.7438 13.733 18.6607 13.6622 18.5909C13.5914 18.5211 13.5075 18.4661 13.4153 18.429C13.3231 18.392 13.2244 18.3736 13.125 18.375H4.125C4.10158 18.3739 4.07811 18.3739 4.05469 18.375Z" fill="#DFDFDF"/>
</svg>
