<svg width="16" height="16" viewBox="0 0 16 16" fill="none" xmlns="http://www.w3.org/2000/svg">
<path d="M14.9005 14.359L11.9959 11.4544C13.079 10.24 13.7518 8.63179 13.7518 6.8759C13.7518 3.08513 10.6667 0 6.8759 0C3.08513 0 0 3.08513 0 6.8759C0 10.6667 3.08513 13.7518 6.8759 13.7518C8.22154 13.7518 9.46872 13.3579 10.519 12.7015L13.5385 15.721C13.719 15.9015 13.9651 16 14.2113 16C14.4574 16 14.7036 15.9015 14.8841 15.721C15.278 15.3436 15.2779 14.7364 14.9005 14.359ZM1.92 6.8759C1.92 4.1518 4.13538 1.92 6.8759 1.92C9.61641 1.92 11.8154 4.1518 11.8154 6.8759C11.8154 9.6 9.6 11.8318 6.8759 11.8318C4.15179 11.8318 1.92 9.61641 1.92 6.8759Z" fill="#333333"/>
</svg>
