<svg width="33" height="27" viewBox="0 0 33 27" fill="none" xmlns="http://www.w3.org/2000/svg">
<path d="M22.4146 17.8445L19.8146 16.8445L17.7696 14.5445C17.6101 14.3653 17.4145 14.2218 17.1956 14.1236C16.9767 14.0254 16.7395 13.9746 16.4996 13.9746C16.2597 13.9746 16.0225 14.0254 15.8036 14.1236C15.5847 14.2218 15.3891 14.3653 15.2296 14.5445L13.1846 16.8445L10.5846 17.8445C10.35 17.9308 10.1381 18.0693 9.9649 18.2494C9.79167 18.4296 9.66163 18.6468 9.5846 18.8845C9.506 19.1148 9.48047 19.3599 9.50991 19.6015C9.53934 19.843 9.62299 20.0748 9.7546 20.2795L11.4996 23.0845V25.3445C11.4993 25.6041 11.5613 25.86 11.6805 26.0905C11.7997 26.3211 11.9726 26.5197 12.1846 26.6695C12.4747 26.8817 12.8251 26.9956 13.1846 26.9945C13.3545 26.9947 13.5233 26.9677 13.6846 26.9145L16.4996 26.0545L19.2796 26.9145C19.5315 26.9925 19.7981 27.0109 20.0584 26.9684C20.3187 26.9259 20.5656 26.8236 20.7796 26.6695C20.998 26.5236 21.1777 26.3267 21.3032 26.0959C21.4286 25.8651 21.496 25.6072 21.4996 25.3445V23.0845L23.2396 20.2895C23.3729 20.0837 23.4579 19.8504 23.4882 19.6071C23.5185 19.3638 23.4933 19.1167 23.4146 18.8845C23.3376 18.6468 23.2075 18.4296 23.0343 18.2494C22.8611 18.0693 22.6492 17.9308 22.4146 17.8445Z" fill="#E21B3A"/>
<path d="M30 0H3C2.20435 0 1.44129 0.316071 0.87868 0.87868C0.316071 1.44129 0 2.20435 0 3V19.5C0 20.2956 0.316071 21.0587 0.87868 21.6213C1.44129 22.1839 2.20435 22.5 3 22.5H8C8.26522 22.5 8.51957 22.3946 8.70711 22.2071C8.89464 22.0196 9 21.7652 9 21.5C9 21.2348 8.89464 20.9804 8.70711 20.7929C8.51957 20.6054 8.26522 20.5 8 20.5H3C2.73478 20.5 2.48043 20.3946 2.29289 20.2071C2.10536 20.0196 2 19.7652 2 19.5V7H31V19.5C31 19.7652 30.8946 20.0196 30.7071 20.2071C30.5196 20.3946 30.2652 20.5 30 20.5H25C24.7348 20.5 24.4804 20.6054 24.2929 20.7929C24.1054 20.9804 24 21.2348 24 21.5C24 21.7652 24.1054 22.0196 24.2929 22.2071C24.4804 22.3946 24.7348 22.5 25 22.5H30C30.7956 22.5 31.5587 22.1839 32.1213 21.6213C32.6839 21.0587 33 20.2956 33 19.5V3C33 2.20435 32.6839 1.44129 32.1213 0.87868C31.5587 0.316071 30.7956 0 30 0ZM2 5V3C2 2.73478 2.10536 2.48043 2.29289 2.29289C2.48043 2.10536 2.73478 2 3 2H30C30.2652 2 30.5196 2.10536 30.7071 2.29289C30.8946 2.48043 31 2.73478 31 3V5H2Z" fill="#0A253C"/>
<path d="M3.5 4.5C4.05228 4.5 4.5 4.05228 4.5 3.5C4.5 2.94772 4.05228 2.5 3.5 2.5C2.94772 2.5 2.5 2.94772 2.5 3.5C2.5 4.05228 2.94772 4.5 3.5 4.5Z" fill="black"/>
<path d="M6 4.5C6.55228 4.5 7 4.05228 7 3.5C7 2.94772 6.55228 2.5 6 2.5C5.44772 2.5 5 2.94772 5 3.5C5 4.05228 5.44772 4.5 6 4.5Z" fill="black"/>
<path d="M8.5 4.5C9.05228 4.5 9.5 4.05228 9.5 3.5C9.5 2.94772 9.05228 2.5 8.5 2.5C7.94772 2.5 7.5 2.94772 7.5 3.5C7.5 4.05228 7.94772 4.5 8.5 4.5Z" fill="black"/>
</svg>
