<svg width="14" height="15" viewBox="0 0 14 15" fill="none" xmlns="http://www.w3.org/2000/svg">
<path d="M13.2084 2.66183L11.8113 1.26473C11.326 0.77942 10.6789 0.5 9.97299 0.5C9.26708 0.5 8.62 0.764714 8.13469 1.26473L6.72289 2.67654C5.84051 3.55892 5.72286 4.94131 6.39935 5.95605L7.28173 5.07367C7.06113 4.55895 7.16408 3.94128 7.57585 3.52951L9.00237 2.1177C9.26708 1.85298 9.60533 1.70592 9.98769 1.70592C10.3554 1.70592 10.7083 1.85298 10.973 2.1177L12.3701 3.5148C12.9143 4.05893 12.9143 4.94131 12.3701 5.48545L10.9583 6.91196C10.6936 7.17668 10.3259 7.30903 9.97299 7.30903C9.7818 7.30903 9.60533 7.27962 9.42885 7.20609L8.54647 8.08847C8.97296 8.36789 9.45826 8.52966 9.98769 8.52966C10.6789 8.52966 11.326 8.26494 11.826 7.76493L13.2378 6.35312C14.2231 5.32368 14.2231 3.67657 13.2084 2.66183Z" fill="#E21B3A"/>
<path d="M6.69138 9.91095C6.91198 10.4257 6.80903 11.0433 6.39726 11.4551L4.98545 12.8669C4.45602 13.3964 3.52952 13.3964 3.0148 12.8669L1.6177 11.4698C1.35298 11.2051 1.20592 10.8669 1.20592 10.4845C1.20592 10.1021 1.35298 9.74918 1.6177 9.49917L3.02951 8.07266C3.42658 7.67559 4.05895 7.57264 4.57367 7.79324L5.45605 6.91086C5.02957 6.63144 4.54426 6.48438 4.01483 6.48438C3.32363 6.48438 2.66185 6.74909 2.17654 7.2491L0.764729 8.66091C0.27942 9.14622 0 9.7933 0 10.4992C0 11.1904 0.264714 11.8375 0.764729 12.3375L2.16183 13.7346C2.64714 14.2199 3.30893 14.4993 4.00012 14.4993C4.69132 14.4993 5.35311 14.2346 5.83842 13.7346L7.25022 12.3228C8.1326 11.4404 8.25026 10.058 7.57376 9.05798L6.69138 9.91095Z" fill="#E21B3A"/>
<path d="M3.57491 10.9123C3.69256 11.03 3.83963 11.0888 4.0014 11.0888C4.14846 11.0888 4.31023 11.03 4.42788 10.9123L10.3987 4.94155C10.634 4.70625 10.634 4.32389 10.3987 4.08859C10.1634 3.85328 9.78099 3.85328 9.54569 4.08859L3.57491 10.0594C3.33961 10.2947 3.33961 10.677 3.57491 10.9123Z" fill="#E21B3A"/>
</svg>
