<svg width="81" height="80" viewBox="0 0 81 80" fill="none" xmlns="http://www.w3.org/2000/svg">
<path d="M43.3808 34.9882C42.2952 38.2032 43.9236 40.1656 47.4309 39.9986C47.8902 39.9569 48.6417 40.1656 48.8087 40.4579C50.9382 44.508 53.2346 48.5164 52.9841 53.3598C52.8588 55.7397 51.8568 57.8274 49.7273 59.6646C49.6438 58.245 49.5603 56.9506 49.435 55.698C48.9758 51.4391 45.7607 50.0195 42.3369 52.5247C38.2868 55.4892 35.8234 59.6646 33.6104 64.0487C33.3599 64.5915 33.1094 65.1343 32.8588 65.6354C32.6501 65.6354 32.4413 65.6771 32.2325 65.6771C31.8985 64.341 31.5227 63.0049 31.2305 61.627C31.1052 61.0425 31.4392 60.3326 31.2722 59.7481C30.8129 58.3702 29.8943 57.1176 29.7691 55.7397C29.6021 54.4036 30.6459 53.0675 28.934 51.8984C28.3912 51.5226 28.5582 50.0195 28.433 49.0592C28.3077 48.1823 28.4747 47.222 28.0989 46.4704C27.3474 45.0508 27.2639 43.7564 28.0572 42.3368C30.6041 37.8692 32.9006 33.318 33.9862 28.1823C34.3202 26.5957 35.6981 25.1761 36.7419 23.7982C38.6626 21.2512 39.957 18.579 39.3307 15.2804C38.7044 12.1072 37.1177 10.8963 33.7774 11.0633C33.7774 10.103 33.7774 9.14266 33.7774 8.18233C33.7774 7.3055 33.6939 6.42868 33.6522 5.55185C22.9215 6.38692 8.59997 16.9506 5.42669 32.65C1.87763 50.103 11.1887 68.1406 30.5206 74.1949C30.5624 74.4454 30.6459 74.6959 30.6459 74.9882C30.5624 78.6625 30.1866 78.9548 26.7628 77.6604C11.6062 71.8149 2.75446 60.8337 0.3745 44.842C-1.8802 29.936 6.1365 13.6521 19.2054 5.96939C27.3891 1.16772 36.1156 -0.919967 45.5937 0.374396C47.2639 0.583164 48.0572 1.12596 47.8067 3.00488C47.5144 5.34308 47.7649 7.76479 47.3056 10.0612C47.0551 11.4391 46.053 12.7335 45.1344 13.9026C44.5081 14.6959 43.506 15.1552 42.6292 15.7397C39.8317 17.4516 39.3307 18.913 40.2075 22.0028C40.3745 22.6291 40.124 23.5894 39.7064 24.1322C37.911 26.5539 37.9528 27.8483 40.0405 29.936C40.3745 30.27 40.5833 30.6875 40.792 31.1051C41.4601 32.4412 42.1282 33.7773 42.7962 35.1552C43.005 35.0299 43.2138 35.0299 43.3808 34.9882Z" fill="#E21B3A"/>
<path d="M33.4868 79.416C33.0693 70.2302 34.6977 61.8794 41.3783 55.1571C41.6705 54.8648 41.9211 54.4473 42.2968 54.322C43.5912 53.8627 45.1361 52.8606 46.2217 53.2364C47.0567 53.5287 47.8501 55.4494 47.8918 56.6602C48.0171 61.0861 47.8083 65.5538 47.7248 70.0214C47.6831 71.3993 47.7248 72.7771 47.7248 74.3638C51.9837 73.7375 55.5745 72.1926 58.9148 70.0214C73.9879 60.084 79.5829 42.9233 72.7353 26.2636C69.1444 17.4535 62.5474 11.274 53.8208 7.51617C50.397 6.01304 50.397 6.05479 51.0233 1.62891C61.8375 4.67692 70.1048 10.9817 75.2822 20.7521C83.0902 35.4494 82.0046 49.8961 72.6517 63.6331C64.5098 75.5746 48.4764 82.0047 33.4868 79.416Z" fill="#0A253C"/>
<path d="M48.4769 20.5843C50.8151 21.7534 51.0656 23.3818 49.7295 25.386C51.7337 26.6386 52.1512 28.3087 51.3161 30.3964C51.1909 30.7305 51.2326 31.2733 51.4414 31.5238C52.861 33.528 51.9842 35.0728 50.3558 36.3672C49.5207 37.077 48.6021 37.7868 47.5583 38.1209C46.8485 38.3714 45.7211 38.2044 45.2201 37.7451C44.8026 37.3693 44.8861 36.2419 45.0113 35.4904C45.1366 34.7806 45.6794 34.196 46.0552 33.4862C41.4205 32.5676 41.8381 31.4403 43.9257 28.3923C43.4247 28.434 43.0072 28.601 42.6314 28.4758C41.8381 28.267 40.4602 28.0582 40.4184 27.7242C40.2932 26.8474 40.5437 25.72 41.0865 24.9685C41.7545 24.0916 42.7984 23.5071 43.7587 22.7138C40.4184 20.6261 40.4602 19.0812 43.5082 16.91C45.3036 15.6574 46.8902 14.1543 48.7692 12.6094C50.9403 15.1981 49.7295 17.7868 48.4769 20.5843Z" fill="#0A253C"/>
<path d="M30.1877 34.6131C27.3902 29.9367 27.6824 23.9242 30.5217 19.8741C31.8995 17.9534 33.0269 15.9075 34.2795 13.9033C34.5718 13.4022 35.1563 12.6924 35.4904 12.7342C36.0749 12.8177 36.9935 13.4022 37.0352 13.8198C37.244 15.9075 37.244 17.9951 37.1605 20.0411C37.1188 20.5839 36.576 21.1267 36.2002 21.6277C33.9872 24.3417 32.1918 27.2645 31.5655 30.7718C31.3568 32.0244 30.7722 33.1517 30.1877 34.6131Z" fill="#0A253C"/>
</svg>
