<svg width="30" height="30" viewBox="0 0 30 30" xmlns="http://www.w3.org/2000/svg">
<path fill-rule="evenodd" clip-rule="evenodd" d="M15.0002 0C6.71597 0 0.000244141 6.71573 0.000244141 15C0.000244141 23.2843 6.71597 30 15.0002 30C23.2845 30 30.0002 23.2843 30.0002 15C30.0002 6.71573 23.2845 0 15.0002 0ZM14.5824 12.7109L14.5509 12.1919C14.4565 10.8466 15.2854 9.6179 16.5969 9.14124C17.0795 8.97176 17.8979 8.95057 18.433 9.09887C18.6429 9.16242 19.0416 9.37427 19.3249 9.56494L19.839 9.91449L20.4055 9.73442C20.7203 9.63909 21.14 9.4802 21.3289 9.37427C21.5072 9.27894 21.6646 9.22598 21.6646 9.25775C21.6646 9.43783 21.2764 10.0522 20.9511 10.3912C20.5105 10.8678 20.6364 10.9102 21.5282 10.5924C22.0633 10.4123 22.0738 10.4123 21.9689 10.6136C21.9059 10.7195 21.5807 11.0903 21.2344 11.4292C20.6469 12.0118 20.6154 12.0754 20.6154 12.5626C20.6154 13.3147 20.2587 14.8824 19.9019 15.7404C19.2409 17.3504 17.8245 19.0135 16.408 19.8503C14.4145 21.0261 11.76 21.3226 9.52514 20.6341C8.7802 20.4011 7.50015 19.8079 7.50015 19.702C7.50015 19.6702 7.88836 19.6278 8.36051 19.6172C9.34678 19.5961 10.333 19.3207 11.1724 18.8334L11.739 18.4944L11.0885 18.272C10.1652 17.9542 9.33628 17.2233 9.12644 16.5348C9.06349 16.3124 9.08447 16.3018 9.67204 16.3018L10.2806 16.2912L9.76646 16.0476C9.15792 15.7404 8.60183 15.2213 8.32903 14.6917C8.12968 14.3104 7.87787 13.3465 7.95132 13.2723C7.9723 13.2405 8.19264 13.3041 8.44445 13.3888C9.16841 13.6537 9.26284 13.5901 8.84315 13.1452C8.05624 12.3402 7.81492 11.1432 8.19264 10.0098L8.371 9.50138L9.06349 10.1899C10.4799 11.5775 12.1482 12.4037 14.0578 12.6474L14.5824 12.7109Z"/>
</svg>
