<svg width="36" height="36" viewBox="0 0 36 36" xmlns="http://www.w3.org/2000/svg">
<rect width="36" height="36" rx="4"/>
<path fill-rule="evenodd" clip-rule="evenodd" d="M17.9999 7.20026C15.0668 7.20026 14.6987 7.21308 13.5467 7.26551C12.3969 7.31816 11.6121 7.50018 10.9254 7.76726C10.2151 8.04312 9.61251 8.41212 9.01221 9.01265C8.41145 9.61296 8.04245 10.2155 7.76569 10.9256C7.49794 11.6126 7.31569 12.3976 7.26394 13.5469C7.21241 14.6989 7.19891 15.0672 7.19891 18.0004C7.19891 20.9335 7.21196 21.3005 7.26416 22.4525C7.31704 23.6023 7.49907 24.3871 7.76592 25.0738C8.042 25.7841 8.411 26.3867 9.01153 26.987C9.61161 27.5877 10.2142 27.9576 10.9241 28.2335C11.6112 28.5006 12.3962 28.6826 13.5458 28.7352C14.6978 28.7877 15.0657 28.8005 17.9986 28.8005C20.9319 28.8005 21.2989 28.7877 22.4509 28.7352C23.6007 28.6826 24.3864 28.5006 25.0735 28.2335C25.7837 27.9576 26.3853 27.5877 26.9854 26.987C27.5862 26.3867 27.9552 25.7841 28.2319 25.074C28.4974 24.3871 28.6797 23.602 28.7337 22.4527C28.7854 21.3007 28.7989 20.9335 28.7989 18.0004C28.7989 15.0672 28.7854 14.6991 28.7337 13.5471C28.6797 12.3974 28.4974 11.6126 28.2319 10.9258C27.9552 10.2155 27.5862 9.61296 26.9854 9.01265C26.3846 8.41189 25.7839 8.04289 25.0729 7.76726C24.3844 7.50018 23.5991 7.31816 22.4493 7.26551C21.2973 7.21308 20.9306 7.20026 17.9966 7.20026H17.9999ZM17.0323 9.14625C17.3199 9.1458 17.6407 9.14625 18.0012 9.14625C20.8848 9.14625 21.2266 9.1566 22.3653 9.20835C23.4183 9.2565 23.9898 9.43245 24.3705 9.58028C24.8745 9.77603 25.2339 10.01 25.6116 10.388C25.9896 10.766 26.2236 11.126 26.4198 11.63C26.5677 12.0103 26.7439 12.5818 26.7918 13.6348C26.8435 14.7733 26.8548 15.1153 26.8548 17.9976C26.8548 20.8799 26.8435 21.2219 26.7918 22.3604C26.7436 23.4134 26.5677 23.9849 26.4198 24.3652C26.2241 24.8692 25.9896 25.2281 25.6116 25.6058C25.2336 25.9838 24.8748 26.2178 24.3705 26.4136C23.9903 26.5621 23.4183 26.7376 22.3653 26.7858C21.2268 26.8375 20.8848 26.8488 18.0012 26.8488C15.1173 26.8488 14.7755 26.8375 13.637 26.7858C12.584 26.7372 12.0125 26.5612 11.6316 26.4134C11.1276 26.2176 10.7676 25.9836 10.3896 25.6056C10.0116 25.2276 9.77755 24.8685 9.58135 24.3643C9.43352 23.984 9.25735 23.4125 9.20942 22.3595C9.15767 21.221 9.14732 20.879 9.14732 17.9949C9.14732 15.1108 9.15767 14.7706 9.20942 13.6321C9.25757 12.5791 9.43352 12.0076 9.58135 11.6269C9.7771 11.1229 10.0116 10.7629 10.3896 10.3849C10.7676 10.0069 11.1276 9.77288 11.6316 9.57668C12.0123 9.42817 12.584 9.25267 13.637 9.2043C14.6333 9.1593 15.0194 9.1458 17.0323 9.14355V9.14625ZM23.7676 10.9389C23.052 10.9389 22.4715 11.5187 22.4715 12.2345C22.4715 12.95 23.052 13.5305 23.7676 13.5305C24.4831 13.5305 25.0636 12.95 25.0636 12.2345C25.0636 11.519 24.4831 10.9385 23.7676 10.9385V10.9389ZM18.0022 12.4541C14.9393 12.4541 12.4559 14.9374 12.4559 18.0004C12.4559 21.0634 14.9393 23.5456 18.0022 23.5456C21.0652 23.5456 23.5476 21.0634 23.5476 18.0004C23.5476 14.9374 21.065 12.4541 18.002 12.4541H18.0022ZM17.9993 14.3999C19.9874 14.3999 21.5993 16.0116 21.5993 17.9999C21.5993 19.9881 19.9874 21.6 17.9993 21.6C16.011 21.6 14.3993 19.9881 14.3993 17.9999C14.3993 16.0116 16.011 14.3999 17.9993 14.3999Z" fill="#2B2F3E"/>
</svg>
