<svg width="181" height="21" viewBox="0 0 181 21" xmlns="http://www.w3.org/2000/svg">
<path d="M14.12 14.12H15.268C15.3427 14.4187 15.408 14.7827 15.464 15.212C15.5387 15.6227 15.5947 16.0707 15.632 16.556C15.688 17.0227 15.7253 17.4893 15.744 17.956C15.7627 18.4227 15.772 18.8427 15.772 19.216C15.1187 19.6267 14.2973 19.916 13.308 20.084C12.3373 20.252 11.3387 20.336 10.312 20.336C8.76267 20.336 7.35333 20.1493 6.084 19.776C4.83333 19.384 3.76 18.7773 2.864 17.956C1.98667 17.116 1.30533 16.0613 0.82 14.792C0.334667 13.504 0.092 11.964 0.092 10.172C0.092 8.39867 0.353333 6.87733 0.876 5.608C1.41733 4.32 2.136 3.26533 3.032 2.444C3.928 1.62267 4.964 1.02533 6.14 0.651999C7.33467 0.259999 8.58533 0.0639997 9.892 0.0639997C11.124 0.0639997 12.2347 0.157333 13.224 0.343999C14.232 0.511999 15.0533 0.745333 15.688 1.044C15.688 1.34267 15.6693 1.72533 15.632 2.192C15.6133 2.65867 15.5667 3.15333 15.492 3.676C15.436 4.18 15.3613 4.684 15.268 5.188C15.1933 5.67333 15.1187 6.084 15.044 6.42H13.868L12.328 2.192C12.16 2.09867 11.8893 2.024 11.516 1.968C11.1427 1.912 10.76 1.884 10.368 1.884C9.60267 1.884 8.884 2.04267 8.212 2.36C7.54 2.65867 6.94267 3.144 6.42 3.816C5.89733 4.488 5.48667 5.356 5.188 6.42C4.88933 7.46533 4.74 8.72533 4.74 10.2C4.74 12.8693 5.272 14.9227 6.336 16.36C7.4 17.7973 8.84667 18.516 10.676 18.516C11.1987 18.516 11.6373 18.4787 11.992 18.404C12.3653 18.3107 12.6173 18.1893 12.748 18.04L14.12 14.12ZM31.4056 20H21.7736V18.936C22.147 18.7867 22.567 18.6373 23.0336 18.488C23.519 18.32 24.0043 18.1987 24.4896 18.124V2.22H21.2416L19.4496 7.008H18.3016C18.227 6.63467 18.1523 6.15867 18.0776 5.58C18.003 5.00133 17.9376 4.404 17.8816 3.788C17.8256 3.172 17.779 2.56533 17.7416 1.968C17.7043 1.352 17.6856 0.829332 17.6856 0.399999H35.4936C35.4936 0.847998 35.475 1.37067 35.4376 1.968C35.4003 2.56533 35.3536 3.172 35.2976 3.788C35.2416 4.404 35.1763 5.00133 35.1016 5.58C35.027 6.14 34.9523 6.616 34.8776 7.008H33.7296L31.9376 2.22H28.6896V18.124C29.175 18.2173 29.651 18.3293 30.1176 18.46C30.603 18.5907 31.0323 18.7493 31.4056 18.936V20ZM51.0341 14.12H52.1821C52.2567 14.4187 52.3221 14.7827 52.3781 15.212C52.4527 15.6227 52.5087 16.0707 52.5461 16.556C52.6021 17.0227 52.6394 17.4893 52.6581 17.956C52.6767 18.4227 52.6861 18.8427 52.6861 19.216C52.0327 19.6267 51.2114 19.916 50.2221 20.084C49.2514 20.252 48.2527 20.336 47.2261 20.336C45.6767 20.336 44.2674 20.1493 42.9981 19.776C41.7474 19.384 40.6741 18.7773 39.7781 17.956C38.9007 17.116 38.2194 16.0613 37.7341 14.792C37.2487 13.504 37.0061 11.964 37.0061 10.172C37.0061 8.39867 37.2674 6.87733 37.7901 5.608C38.3314 4.32 39.0501 3.26533 39.9461 2.444C40.8421 1.62267 41.8781 1.02533 43.0541 0.651999C44.2487 0.259999 45.4994 0.0639997 46.8061 0.0639997C48.0381 0.0639997 49.1487 0.157333 50.1381 0.343999C51.1461 0.511999 51.9674 0.745333 52.6021 1.044C52.6021 1.34267 52.5834 1.72533 52.5461 2.192C52.5274 2.65867 52.4807 3.15333 52.4061 3.676C52.3501 4.18 52.2754 4.684 52.1821 5.188C52.1074 5.67333 52.0327 6.084 51.9581 6.42H50.7821L49.2421 2.192C49.0741 2.09867 48.8034 2.024 48.4301 1.968C48.0567 1.912 47.6741 1.884 47.2821 1.884C46.5167 1.884 45.7981 2.04267 45.1261 2.36C44.4541 2.65867 43.8567 3.144 43.3341 3.816C42.8114 4.488 42.4007 5.356 42.1021 6.42C41.8034 7.46533 41.6541 8.72533 41.6541 10.2C41.6541 12.8693 42.1861 14.9227 43.2501 16.36C44.3141 17.7973 45.7607 18.516 47.5901 18.516C48.1127 18.516 48.5514 18.4787 48.9061 18.404C49.2794 18.3107 49.5314 18.1893 49.6621 18.04L51.0341 14.12ZM56.0277 10.844H63.9237V13.364H56.0277V10.844ZM78.8836 2.276C78.4356 2.18267 78.0436 2.07067 77.7076 1.94C77.3716 1.79067 77.0449 1.632 76.7276 1.464V0.399999H83.5036V1.464C83.2982 1.61333 83.0182 1.76267 82.6636 1.912C82.3276 2.04267 81.9449 2.164 81.5156 2.276L76.1676 14.372C75.2716 16.4253 74.3382 17.956 73.3676 18.964C72.3969 19.9533 71.3609 20.3453 70.2596 20.14C70.1102 19.9907 69.9516 19.7667 69.7836 19.468C69.6342 19.1507 69.4849 18.824 69.3356 18.488C69.2049 18.1333 69.0929 17.7973 68.9996 17.48C68.9062 17.144 68.8502 16.864 68.8316 16.64L69.6156 15.52L72.9476 16.556C73.0969 16.388 73.2369 16.1827 73.3676 15.94C73.4982 15.6973 73.6196 15.4267 73.7316 15.128L66.2836 2.276C65.9289 2.18267 65.5836 2.07067 65.2476 1.94C64.9302 1.79067 64.6316 1.632 64.3516 1.464V0.399999H73.0876V1.464C72.5276 1.8 71.8182 2.07067 70.9596 2.276L74.9076 9.864L75.4956 11.656H75.5516L76.1116 9.808L78.8836 2.276ZM86.3482 2.276C85.4709 2.12667 84.7055 1.856 84.0522 1.464V0.399999H99.0882C99.0882 0.829332 99.0695 1.30533 99.0322 1.828C98.9949 2.35067 98.9482 2.87333 98.8922 3.396C98.8362 3.91867 98.7709 4.42267 98.6962 4.908C98.6215 5.39333 98.5469 5.832 98.4722 6.224H97.3242L95.5882 2.22H90.5482V8.604C90.7162 8.58533 90.9215 8.56667 91.1642 8.548C91.4069 8.51067 91.6495 8.48267 91.8922 8.464C92.1535 8.44533 92.4055 8.436 92.6482 8.436C92.9095 8.41733 93.1335 8.408 93.3202 8.408C94.2722 8.408 95.1775 8.51067 96.0362 8.716C96.8949 8.92133 97.6415 9.25733 98.2762 9.724C98.9295 10.172 99.4429 10.76 99.8162 11.488C100.208 12.216 100.404 13.0933 100.404 14.12C100.404 15.1093 100.199 15.9773 99.7882 16.724C99.3962 17.4707 98.8455 18.096 98.1362 18.6C97.4455 19.0853 96.6149 19.4587 95.6442 19.72C94.6922 19.9627 93.6562 20.084 92.5362 20.084C92.4429 20.084 92.2095 20.0747 91.8362 20.056C91.4629 20.056 91.0429 20.0467 90.5762 20.028C90.1095 20.028 89.6429 20.0187 89.1762 20C88.7095 20 88.3362 20 88.0562 20H84.0522V18.936C84.4069 18.7307 84.7709 18.5627 85.1442 18.432C85.5362 18.2827 85.9375 18.18 86.3482 18.124V2.276ZM92.1162 10.228C91.8175 10.228 91.5282 10.2467 91.2482 10.284C90.9682 10.3027 90.7349 10.34 90.5482 10.396V18.152C90.6229 18.1707 90.7349 18.1893 90.8842 18.208C91.0522 18.2267 91.2202 18.2453 91.3882 18.264C91.5562 18.264 91.7149 18.264 91.8642 18.264C92.0322 18.264 92.1629 18.264 92.2562 18.264C93.3575 18.264 94.2162 17.9093 94.8322 17.2C95.4669 16.4907 95.7842 15.492 95.7842 14.204C95.7842 12.972 95.4949 12.0013 94.9162 11.292C94.3375 10.5827 93.4042 10.228 92.1162 10.228ZM102.522 10.2C102.522 8.744 102.727 7.4 103.138 6.168C103.548 4.91733 104.155 3.844 104.958 2.948C105.76 2.03333 106.75 1.324 107.926 0.819998C109.102 0.315999 110.455 0.0639997 111.986 0.0639997C113.516 0.0639997 114.87 0.315999 116.046 0.819998C117.222 1.324 118.202 2.03333 118.986 2.948C119.788 3.844 120.395 4.91733 120.806 6.168C121.216 7.4 121.422 8.744 121.422 10.2C121.422 11.656 121.216 13.0093 120.806 14.26C120.395 15.492 119.788 16.5653 118.986 17.48C118.202 18.376 117.222 19.076 116.046 19.58C114.87 20.084 113.516 20.336 111.986 20.336C110.455 20.336 109.102 20.084 107.926 19.58C106.75 19.076 105.76 18.376 104.958 17.48C104.155 16.5653 103.548 15.492 103.138 14.26C102.727 13.0093 102.522 11.656 102.522 10.2ZM107.282 10.2C107.282 11.3947 107.375 12.5053 107.562 13.532C107.748 14.54 108.038 15.4173 108.43 16.164C108.84 16.892 109.354 17.4707 109.97 17.9C110.604 18.3107 111.36 18.516 112.238 18.516C113.04 18.516 113.722 18.3107 114.282 17.9C114.842 17.4707 115.299 16.892 115.654 16.164C116.008 15.4173 116.26 14.54 116.41 13.532C116.578 12.5053 116.662 11.3947 116.662 10.2C116.662 9.00533 116.568 7.904 116.382 6.896C116.214 5.86933 115.934 4.992 115.542 4.264C115.168 3.51733 114.664 2.93867 114.03 2.528C113.414 2.09867 112.658 1.884 111.762 1.884C110.903 1.884 110.184 2.09867 109.606 2.528C109.027 2.93867 108.56 3.51733 108.206 4.264C107.87 4.992 107.627 5.86933 107.478 6.896C107.347 7.904 107.282 9.00533 107.282 10.2ZM129.595 18.124C130.099 18.1987 130.594 18.3107 131.079 18.46C131.583 18.5907 132.031 18.7493 132.423 18.936V20H123.099V18.936C123.454 18.7307 123.827 18.5627 124.219 18.432C124.63 18.3013 125.022 18.1987 125.395 18.124V2.276C124.966 2.20133 124.555 2.09867 124.163 1.968C123.771 1.81867 123.416 1.65067 123.099 1.464V0.399999H126.627C127.374 0.399999 128.223 0.362665 129.175 0.287998C130.146 0.213333 131.032 0.176 131.835 0.176C132.824 0.176 133.786 0.278666 134.719 0.483999C135.671 0.670666 136.511 0.997332 137.239 1.464C137.986 1.93067 138.583 2.556 139.031 3.34C139.479 4.10533 139.703 5.06667 139.703 6.224C139.703 7.32533 139.479 8.27733 139.031 9.08C138.602 9.88267 138.023 10.5453 137.295 11.068C136.567 11.5907 135.727 11.9827 134.775 12.244C133.823 12.4867 132.843 12.608 131.835 12.608C131.742 12.608 131.592 12.608 131.387 12.608C131.182 12.608 130.958 12.608 130.715 12.608C130.491 12.5893 130.267 12.58 130.043 12.58C129.838 12.5613 129.688 12.5427 129.595 12.524V18.124ZM131.107 1.996C130.734 1.996 130.435 2.01467 130.211 2.052C130.006 2.07067 129.8 2.108 129.595 2.164V10.676C129.763 10.732 130.015 10.7693 130.351 10.788C130.687 10.788 130.958 10.788 131.163 10.788C131.667 10.788 132.152 10.704 132.619 10.536C133.086 10.368 133.496 10.1067 133.851 9.752C134.224 9.39733 134.523 8.94 134.747 8.38C134.971 7.82 135.083 7.148 135.083 6.364C135.083 4.87067 134.719 3.76933 133.991 3.06C133.263 2.35067 132.302 1.996 131.107 1.996ZM151.621 0.399999H159.125V1.464C158.808 1.66933 158.444 1.84667 158.033 1.996C157.623 2.12667 157.249 2.22 156.913 2.276L151.593 9.024C152.023 9.62133 152.527 10.3027 153.105 11.068C153.684 11.8147 154.3 12.5987 154.953 13.42C155.607 14.2227 156.279 15.044 156.969 15.884C157.66 16.7053 158.332 17.4893 158.985 18.236L160.329 19.048V20H155.457L154.337 19.216C153.889 18.656 153.413 18.04 152.909 17.368C152.424 16.6773 151.939 15.968 151.453 15.24C150.968 14.4933 150.492 13.7467 150.025 13C149.559 12.2533 149.12 11.5253 148.709 10.816H147.505V18.124C147.916 18.1987 148.289 18.3107 148.625 18.46C148.961 18.6093 149.251 18.768 149.493 18.936V20H141.009V18.936C141.383 18.7493 141.765 18.5907 142.157 18.46C142.549 18.3107 142.932 18.1987 143.305 18.124V2.276C142.876 2.22 142.456 2.11733 142.045 1.968C141.653 1.81867 141.308 1.65067 141.009 1.464V0.399999H149.493V1.464C149.251 1.61333 148.952 1.76267 148.597 1.912C148.261 2.06133 147.897 2.18267 147.505 2.276V9.388L149.157 8.996L153.665 2.276C153.292 2.20133 152.919 2.08933 152.545 1.94C152.191 1.772 151.883 1.61333 151.621 1.464V0.399999ZM167.244 20H160.328V18.936C160.627 18.7493 160.944 18.5907 161.28 18.46C161.635 18.3107 161.98 18.1987 162.316 18.124L169.54 0.0639997H171.612L178.64 18.124C179.013 18.1987 179.387 18.3107 179.76 18.46C180.133 18.5907 180.46 18.7493 180.74 18.936V20H171.976V18.936C172.331 18.768 172.713 18.6093 173.124 18.46C173.535 18.3107 173.927 18.1987 174.3 18.124L172.676 13.672H166.46L164.808 18.124C165.667 18.236 166.479 18.5067 167.244 18.936V20ZM167.132 11.852H172.088L170.268 6.504L169.736 4.096H169.68L169.064 6.56L167.132 11.852Z"/>
</svg>
