<svg width="76" height="76" viewBox="0 0 76 76" fill="none" xmlns="http://www.w3.org/2000/svg">
<path d="M38 0C17.0132 0 0 17.0132 0 38C0 58.9868 17.0132 76 38 76C58.9868 76 76 58.9868 76 38C76 17.0132 58.9868 0 38 0Z" fill="#353E60"/>
<path d="M32.143 29.7015L26.7045 24.2599C26.1037 23.6587 26.1037 22.6841 26.7045 22.0829C27.3053 21.4818 28.2794 21.4818 28.8802 22.0829L34.3186 27.5246C34.9194 28.1257 34.9194 29.1004 34.3186 29.7015C33.7172 30.3026 32.7438 30.3026 32.143 29.7015Z" fill="#F25929"/>
<path d="M51.7212 49.2913L46.2827 43.8497C45.682 43.2486 45.682 42.2739 46.2827 41.6728C46.8835 41.0716 47.8576 41.0716 48.4584 41.6728L53.8969 47.1144C54.4977 47.7156 54.4977 48.6902 53.8969 49.2913C53.2961 49.8925 52.322 49.8925 51.7212 49.2913Z" fill="#F25929"/>
<path d="M54.3591 46.6521L48.9206 41.2111C48.0923 40.3817 46.6482 40.3817 45.8206 41.2111L42.2505 44.7833C41.9798 45.0541 41.566 45.1254 41.2417 44.9592C36.776 42.6508 33.3419 39.2147 31.0349 34.7464C30.8682 34.4226 30.9394 34.0079 31.2101 33.7377L34.7808 30.1649C35.6359 29.3093 35.6359 27.918 34.7808 27.0631L29.3423 21.6221C28.514 20.7926 27.0699 20.7926 26.2423 21.6221L23.0115 24.8541C20.7829 27.084 20.3579 30.5011 21.9786 33.1628C27.217 41.7632 34.2304 48.7813 42.8245 54.0201C43.9044 54.6795 45.1086 55 46.3076 55C48.0616 55 49.8045 54.3119 51.1283 52.9873L54.3578 49.7565C54.3578 49.7565 54.3591 49.7559 54.3597 49.7552C55.2135 48.899 55.2135 47.5077 54.3591 46.6521L54.3591 46.6521ZM47.9956 42.136L53.434 47.577C53.7792 47.9217 53.7792 48.4843 53.434 48.829C53.0895 49.1731 52.528 49.1731 52.1828 48.829L46.7443 43.3874C46.3998 43.0426 46.3998 42.4807 46.7443 42.136C47.079 41.8011 47.6621 41.8011 47.9956 42.136H47.9956ZM28.4173 22.5463L33.8558 27.9873C34.2009 28.3321 34.2009 28.8946 33.8558 29.2393C33.5112 29.5827 32.9497 29.5841 32.6045 29.2393L27.166 23.7977C26.8215 23.453 26.8215 22.8911 27.166 22.5463C27.5001 22.2114 28.0832 22.2114 28.4173 22.5463L28.4173 22.5463ZM50.2032 52.0617C48.4028 53.8651 45.648 54.2092 43.5043 52.9029C35.09 47.7726 28.2231 40.9017 23.0945 32.4812C21.7883 30.337 22.1342 27.5805 23.9352 25.7784L25.7507 23.9625C25.8572 24.2392 26.0187 24.4996 26.2416 24.7226L31.6801 30.1643C31.903 30.3873 32.1632 30.5489 32.4398 30.6555L30.2857 32.8115C29.6064 33.4905 29.441 34.5089 29.8732 35.3462C32.307 40.0605 35.9301 43.6856 40.6423 46.1216C40.9528 46.2818 41.2875 46.3597 41.6216 46.3597C42.1871 46.3597 42.748 46.1353 43.1749 45.7088L45.3302 43.5522C45.4368 43.8289 45.5983 44.0892 45.8212 44.3123L51.2597 49.7539C51.4826 49.977 51.7428 50.1386 52.0193 50.2452L50.2032 52.0617Z" fill="white"/>
</svg>
