<svg width="76" height="76" viewBox="0 0 76 76" fill="none" xmlns="http://www.w3.org/2000/svg">
<path d="M38 0C17.0132 0 0 17.0132 0 38C0 58.9868 17.0132 76 38 76C58.9868 76 76 58.9868 76 38C76 17.0132 58.9868 0 38 0Z" fill="#353E60"/>
<path d="M54.1539 35.4528C54.1539 34.3611 53.4231 33.3058 52.1603 32.5268C52.8757 31.4066 53.0694 30.2812 52.685 29.3538C52.2663 28.3447 51.1862 27.649 49.7217 27.4129C49.9534 26.1056 49.7013 24.9919 48.9902 24.2816C48.3143 23.6071 47.251 23.344 46.008 23.5289C45.682 22.4086 45.0507 21.596 44.2183 21.2518C43.25 20.8477 42.0377 21.0888 40.8685 21.8832C40.3043 21.1078 39.2725 20 37.9885 20C36.8339 20 35.7823 21.0801 35.1721 21.862C34.2323 21.1765 32.8958 20.8112 31.8362 21.2511C30.8905 21.642 30.2562 22.6169 30.0078 24.0346C28.6383 23.7554 27.4435 24.0002 26.7091 24.7332C26.0638 25.3777 25.7963 26.3504 25.9308 27.5196C24.7133 27.8265 23.8335 28.4747 23.4688 29.3546C23.0845 30.2827 23.2774 31.4073 23.9943 32.5276C22.7308 33.3051 22 34.3596 22 35.4528C22 36.4562 22.6095 37.4215 23.7005 38.1823C22.8323 39.3844 22.5612 40.6384 22.9792 41.6483C23.3643 42.5757 24.2975 43.2341 25.5961 43.5205C25.2541 44.9638 25.4836 46.2258 26.2567 46.9975C27.0394 47.7795 27.8462 47.9183 29.3077 47.7385V55.0565C29.3077 56.6788 30.6282 58 32.252 58C32.8695 58 33.4621 57.81 33.9634 57.4512L37.2161 55.1288C37.7313 54.7605 38.4233 54.7605 38.9385 55.1288L42.1904 57.4512C42.6925 57.81 43.2844 58 43.9019 58C45.5257 58 46.8462 56.6788 46.8462 55.0557V48.2406C47.5769 48.321 48.8397 48.0535 49.444 47.4499C50.4123 46.4831 50.3926 44.9419 50.0082 43.6192C51.3418 43.4431 52.6718 42.8636 53.1746 41.6483C53.5926 40.6391 53.3222 39.3851 52.4541 38.183C53.5444 37.4215 54.1538 36.4569 54.1538 35.4528H54.1539ZM43.9019 56.5385C43.5906 56.5385 43.2932 56.4427 43.0403 56.2622L39.7891 53.9398C38.7653 53.2083 37.3907 53.2069 36.3662 53.9398L33.1143 56.2622C32.8607 56.4427 32.5633 56.5385 32.2527 56.5385C31.435 56.5385 30.7692 55.8735 30.7692 55.0557V49.9944C30.7692 50.4022 31.4445 50.7325 31.9246 50.9313C32.8855 51.3273 34.0847 51.095 35.2467 50.3101C36.0184 51.4786 37.0378 52.1538 38.0769 52.1538C39.1168 52.1538 40.1355 51.4786 40.9079 50.3108C42.0691 51.095 43.2683 51.3281 44.2293 50.932C44.6816 50.7449 45.3846 50.4161 45.3846 49.982V55.0565C45.3846 55.8735 44.7196 56.5385 43.9019 56.5385L43.9019 56.5385ZM50.8179 38.4928C51.6817 39.4158 52.0858 40.4586 51.8249 41.0885C51.5413 41.774 50.3772 42.2439 48.9924 42.2176L47.8312 42.2L48.3172 43.2545C48.828 44.3631 49.0246 45.8042 48.4122 46.4158C47.9474 46.8806 46.9068 46.9267 45.758 46.5269L44.8468 46.2112L44.7898 47.1737C44.7174 48.3845 44.279 49.3287 43.671 49.5808C43.0615 49.8337 42.083 49.4741 41.1761 48.6688L40.4549 48.0287L40.0339 48.8968C39.5034 49.9871 38.7354 50.6923 38.0769 50.6923C37.4192 50.6923 36.6512 49.9871 36.1214 48.8968L35.7005 48.0287L34.9792 48.6688C34.073 49.4748 33.0945 49.8329 32.4844 49.5808C31.6834 49.249 31.3122 47.8416 31.3604 46.6227L31.4065 45.4622L30.341 45.9233C29.0709 46.4736 27.8169 46.4875 27.2908 45.9635C26.8012 45.4739 26.7763 44.3814 27.2272 43.18L27.5663 42.276L26.6039 42.1957C25.4449 42.0985 24.5738 41.6739 24.3304 41.0878C24.0703 40.4586 24.4744 39.4151 25.3382 38.4921L25.998 37.7855L25.1387 37.3433C24.1039 36.8106 23.4615 36.0864 23.4615 35.4528C23.4615 34.7608 24.2172 33.9701 25.3871 33.4388L26.2677 33.0391L25.6436 32.301C24.8924 31.4139 24.5767 30.499 24.8193 29.9129C25.0459 29.367 25.8117 28.9607 26.8699 28.8284L27.6817 28.7261L27.4881 27.9303C27.2542 26.9686 27.3492 26.1589 27.7431 25.7658C28.2072 25.3025 29.2492 25.2557 30.3973 25.6547L31.3085 25.9704L31.3655 25.008C31.4415 23.7174 31.8179 22.8405 32.3959 22.6015C33.028 22.3377 34.1783 22.744 34.7154 23.4207L35.3585 24.229L35.9073 23.3535C36.3859 22.5906 37.3776 21.4615 37.9885 21.4615C38.7763 21.4615 39.7153 22.7009 40.0471 23.3016L40.4877 24.0989L41.171 23.4982C42.075 22.7031 43.0549 22.3487 43.6593 22.6015C44.1781 22.8164 44.5786 23.5281 44.7299 24.5045L44.8555 25.3134L45.6455 25.0964C46.673 24.815 47.5389 24.8961 47.9577 25.3149C48.4064 25.7643 48.4663 26.7304 48.1133 27.836L47.8188 28.7568L48.7849 28.7889C50.0484 28.8321 51.0744 29.2837 51.3353 29.9136C51.5779 30.4997 51.2622 31.4146 50.5117 32.3025L49.8876 33.0398L50.7675 33.4396C51.9367 33.9716 52.6923 34.7615 52.6923 35.4536C52.6923 36.0871 52.05 36.8121 51.0167 37.3448L50.1573 37.7869L50.8179 38.4928Z" fill="white"/>
<path d="M34.6924 39.8204C34.6924 40.1317 34.365 40.3845 33.9616 40.3845H32.5001C32.0967 40.3845 31.7693 40.1317 31.7693 39.8204V34.1793C31.7693 33.868 32.0967 33.6152 32.5001 33.6152H33.9616C34.365 33.6152 34.6924 33.868 34.6924 34.1793V39.8204Z" fill="#F25929"/>
<path d="M40.8572 32.8155C40.5327 32.8155 40.2693 32.5329 40.2693 32.1847V29.6616C40.2693 28.6215 39.4874 27.7775 38.5197 27.7693C38.1905 27.7668 37.9177 28.0468 37.9177 28.4001V31.2751C37.9177 31.8182 37.5937 32.3001 37.1134 32.4723L36.5555 32.6716C36.3156 32.7574 36.1539 32.9984 36.1539 33.2696V39.7539C36.1539 40.1021 36.4173 40.3847 36.7418 40.3847H40.8572C42.8056 40.3847 44.3847 38.6898 44.3847 36.6001V34.077C44.3847 33.38 43.8585 32.8155 43.2089 32.8155H40.8572Z" fill="#F25929"/>
</svg>
