<?xml version="1.0" encoding="utf-8"?><svg viewBox="0 0 512 512" xmlns="http://www.w3.org/2000/svg" xmlns:xlink="http://www.w3.org/1999/xlink"><style>:root>svg{display:none}:root>svg:target{display:block}</style><svg viewBox="0 0 24 24" id="facebook" xmlns="http://www.w3.org/2000/svg"><path d="M15.997 3.985h2.191V.169C17.81.117 16.51 0 14.996 0c-3.159 0-5.323 1.987-5.323 5.639V9H6.187v4.266h3.486V24h4.274V13.267h3.345l.531-4.266h-3.877V6.062c.001-1.233.333-2.077 2.051-2.077z"/></svg><svg viewBox="0 0 371 200.3" id="fox-logo" xmlns="http://www.w3.org/2000/svg"><path class="bst0" fill="#BB3F0C" d="M185.4 191.2L68.6 98.6v-64L136.1 0h99.7l66.3 34.6v63.6z"/><path class="bst1" fill="#AA2F00" d="M156 138.8l29.4-47.1 30.3 47.1-15.2 28.8h-29.6z"/><path class="bst2" fill="#C7C7C7" d="M76.6 105l78 34.3v28.3M294.3 104.4l-75.1 34.7-.6 27.1"/><path class="bst3" fill="#BB3F0C" d="M79.3 35.2L12.5 69l66.8 31.5M291.6 99.9l66.8-31.2-66.8-33.5" stroke="#000" stroke-width="11" stroke-miterlimit="10"/><path class="bst4" fill="#0B0B0B" d="M204.4 160.2H167l18.4 35.3 19-35.3z"/><path class="bst5" fill="#EDE0E0" d="M145.4 89l.6.6.6.6.6.6.5.6.5.6.5.6.5.7.5.7.5.7.4.7.4.7.4.7.4.7.4.8.3.8.3.8.3.8.3.8.3.8.2.8.2.8.2.8.2.8.2.8.1.8.1.8.1.9.1.9.1.9v1.8l-.1 25 28.3 58-28.3-24.4v-33.6l-32.8-61.9 22.5 12.9.6.6zm72 83.4s-29.4 24-29.8 23.1c-.4-.8 28.7-56.6 28.7-56.6l-.4-25.1V112l.1-.9.1-.9.1-.9.1-.8.2-.8.2-.8.2-.8.2-.8.2-.8.3-.8.3-.8.3-.8.3-.8.3-.8.4-.8.4-.8.4-.7.4-.7.4-.7.5-.7.5-.7.5-.7.5-.7.5-.6.5-.6.6-.6.6-.6.6-.6.6-.6.6-.5 23.9-13.6-34.4 62.6 1.1 33.5z"/><path class="bst6" d="M144.3 89.4l.6.6.6.6.6.6.5.6.5.6.5.6.5.7.5.7.5.7.4.7.4.7.4.7.4.7.4.8.3.8.3.8.3.8.3.8.3.8.2.8.2.8.2.8.2.8.2.8.1.8.1.8.1.9.1.9.1.9v27.3l32.9 60-32.9-26.2v-33.8l-34.6-65.8 24.1 16.4.7.5zm73 49.4V172l-33.2 26.4 33.2-59.6V111.6l.1-.9.1-.9.1-.9.1-.8.2-.8.2-.8.2-.8.2-.8.2-.8.3-.8.3-.8.3-.8.3-.8.3-.8.4-.8.4-.8.4-.7.4-.7.4-.7.5-.7.5-.7.5-.7.5-.7.5-.6.5-.6.6-.6.6-.6.6-.6.6-.6.6-.5L253 72.6l-35.7 66.2" stroke="#000" stroke-width="5" fill="none"/><path d="M268.3 124.9h-9.7L280.4 2.3h9.7z"/></svg><svg viewBox="0 0 512.001 512.001" id="instagram" xmlns="http://www.w3.org/2000/svg"><path d="M373.406 0H138.594C62.172 0 0 62.172 0 138.594V373.41C0 449.828 62.172 512 138.594 512H373.41C449.828 512 512 449.828 512 373.41V138.594C512 62.172 449.828 0 373.406 0zm108.578 373.41c0 59.867-48.707 108.574-108.578 108.574H138.594c-59.871 0-108.578-48.707-108.578-108.574V138.594c0-59.871 48.707-108.578 108.578-108.578H373.41c59.867 0 108.574 48.707 108.574 108.578zm0 0"/><path d="M256 116.004c-77.195 0-139.996 62.8-139.996 139.996S178.804 395.996 256 395.996 395.996 333.196 395.996 256 333.196 116.004 256 116.004zm0 249.976c-60.64 0-109.98-49.335-109.98-109.98 0-60.64 49.34-109.98 109.98-109.98 60.645 0 109.98 49.34 109.98 109.98 0 60.645-49.335 109.98-109.98 109.98zm0 0M399.344 66.285c-22.813 0-41.367 18.559-41.367 41.367 0 22.813 18.554 41.371 41.367 41.371s41.37-18.558 41.37-41.37-18.558-41.368-41.37-41.368zm0 52.719c-6.258 0-11.352-5.094-11.352-11.352 0-6.261 5.094-11.351 11.352-11.351 6.261 0 11.355 5.09 11.355 11.351 0 6.258-5.094 11.352-11.355 11.352zm0 0"/></svg><svg viewBox="0 0 512 512" id="quote" xmlns="http://www.w3.org/2000/svg"><path d="M477.626 230.931c-21.458-21.851-49.904-34.501-80.375-35.812-.144-1.904-.251-4.528-.251-8.119 0-14.712 11.188-59.665 18.241-84.544L422.458 77h-87.584l-5.867 9.453C326.68 90.203 272 179.852 272 315c0 66.168 53.832 120 120 120s120-53.832 120-120c0-31.641-12.208-61.497-34.374-84.069zM392 395c-44.112 0-80-35.888-80-80 0-99.32 32.836-172.834 45.812-198h12.129C364.194 139.584 357 171.041 357 187c0 12.664.94 22.838 5.531 31.33 4.089 7.564 12.641 16.573 30.183 16.669l.873.022C436.824 235.859 472 271.737 472 315c0 44.112-35.888 80-80 80zM205.626 230.931c-21.458-21.851-49.904-34.501-80.375-35.812-.144-1.904-.251-4.528-.251-8.119 0-14.712 11.188-59.665 18.241-84.544L150.458 77H62.874l-5.867 9.453C54.68 90.203 0 179.852 0 315c0 66.168 53.832 120 120 120s120-53.832 120-120c0-31.641-12.208-61.497-34.374-84.069zM120 395c-44.112 0-80-35.888-80-80 0-99.32 32.836-172.834 45.812-198h12.129C92.194 139.584 85 171.041 85 187c0 12.664.94 22.838 5.531 31.33 4.089 7.564 12.641 16.573 30.183 16.669l.873.022C164.824 235.859 200 271.737 200 315c0 44.112-35.888 80-80 80z"/></svg><svg viewBox="0 0 14.171 14.171" id="vk" xmlns="http://www.w3.org/2000/svg"><path d="M13.268 0H.905C.405 0 0 .405 0 .904v12.363c0 .499.405.904.905.904h12.362a.904.904 0 00.904-.904V.904A.902.902 0 0013.268 0zm-1.513 8.635c.259.264.821.707.719 1.158-.094.414-.712.263-1.312.287-.685.029-1.091.044-1.503-.287-.194-.157-.308-.343-.494-.551-.169-.188-.382-.525-.672-.512-.521.026-.358.752-.543 1.247-2.896.456-4.059-1.333-5.085-3.069-.497-.841-1.215-2.647-1.215-2.647l2.048-.007s.657 1.195.831 1.503c.148.262.311.47.479.704.141.194.364.574.608.543.397-.051.469-1.591.223-2.107-.098-.209-.333-.282-.576-.353.082-.518 2.297-.626 2.655-.224.52.584-.36 2.21.352 2.684 1-.524 1.854-2.718 1.854-2.718l2.398.015s-.375 1.186-.768 1.712c-.229.308-.989.994-.959 1.503.024.403.642.795.96 1.119z"/></svg></svg>