<svg width="42" height="42" fill="none" xmlns="http://www.w3.org/2000/svg"><path d="M20.526 41.053c11.337 0 20.527-9.19 20.527-20.526C41.053 9.19 31.863 0 20.527 0 9.19 0 0 9.19 0 20.526c0 11.337 9.19 20.527 20.526 20.527z" fill="#E73151"/><path d="M20.526 37.87c9.58 0 17.345-7.765 17.345-17.343 0-9.58-7.766-17.345-17.345-17.345-9.578 0-17.344 7.766-17.344 17.345 0 9.578 7.766 17.344 17.345 17.344z" fill="#E73151" stroke="#fff" stroke-width="2" stroke-miterlimit="10"/><path d="M20.771 12h-7.475C12.6 12 12 12.453 12 13.01V19.03c0 .536.576.97 1.246.97H20.77c.696 0 1.229-.453 1.229-1.01v-5.98c0-.557-.533-1.01-1.229-1.01zM23.544 14h5.912c.3 0 .544-.449.544-1 0-.55-.244-.996-.544-.996L23.544 12c-.3 0-.544.449-.544 1 0 .551.244 1 .544 1zM23.544 17h5.912c.3 0 .544-.449.544-1 0-.55-.244-.996-.544-.996L23.544 15c-.3 0-.544.449-.544 1 0 .551.244 1 .544 1zM23.544 20h5.912c.3 0 .544-.449.544-1 0-.55-.244-.996-.544-.996L23.544 18c-.3 0-.544.449-.544 1 0 .551.244 1 .544 1zM13.4 23h15.2c.772 0 1.4-.449 1.4-1 0-.55-.628-.996-1.4-.996L13.4 21c-.772 0-1.4.449-1.4 1 0 .551.628 1 1.4 1zM13.4 26h15.2c.772 0 1.4-.449 1.4-1 0-.55-.628-.996-1.4-.996L13.4 24c-.772 0-1.4.449-1.4 1 0 .551.628 1 1.4 1zM13.4 29h15.2c.772 0 1.4-.449 1.4-1 0-.55-.628-.996-1.4-.996L13.4 27c-.772 0-1.4.449-1.4 1 0 .551.628 1 1.4 1z" fill="#fff"/></svg>