<?xml version="1.0" encoding="utf-8"?><svg viewBox="0 0 42 42" xmlns="http://www.w3.org/2000/svg" xmlns:xlink="http://www.w3.org/1999/xlink"><style>:root>svg{display:none}:root>svg:target{display:block}</style><svg fill="none" viewBox="0 0 27 25" id="bell" xmlns="http://www.w3.org/2000/svg"><path d="M20.727 16.007a4.329 4.329 0 01-.974-2.756v-2.283c0-3.313-2.478-6.041-5.68-6.46v-1.14a.808.808 0 00-1.614 0v1.169c-3.202.39-5.68 3.146-5.68 6.459v2.283a4.33 4.33 0 01-.974 2.756L4.802 17.26a2.085 2.085 0 00-.278 2.255c.362.752 1.086 1.225 1.921 1.225h3.118c.14 1.865 1.726 3.369 3.675 3.369a3.725 3.725 0 003.703-3.397h3.118c.835 0 1.56-.473 1.921-1.225a2.085 2.085 0 00-.278-2.255l-.975-1.225zm-7.489 6.46a2.093 2.093 0 01-2.06-1.755h4.12a2.093 2.093 0 01-2.06 1.754zm7.294-3.648a.468.468 0 01-.445.279H6.417a.468.468 0 01-.445-.279c-.028-.083-.112-.306.055-.529l1.003-1.225a5.963 5.963 0 001.336-3.758v-2.283c0-2.7 2.2-4.872 4.872-4.872 2.673 0 4.872 2.199 4.872 4.872v2.283c0 1.364.474 2.7 1.337 3.758l1.002 1.225c.195.195.111.418.083.53zM19.28 3.089a.829.829 0 00-1.142.14.829.829 0 00.14 1.14 8.728 8.728 0 012.978 4.4.802.802 0 00.78.584c.083 0 .139 0 .223-.028a.777.777 0 00.556-1.002A9.83 9.83 0 0019.28 3.09zM5.22 8.769a8.394 8.394 0 012.979-4.4.804.804 0 00.139-1.14.804.804 0 00-1.141-.14 10.036 10.036 0 00-3.564 5.234c-.111.446.14.891.557 1.002.083.028.139.028.222.028a.835.835 0 00.808-.584zM26.463 8.63a13.386 13.386 0 00-5.29-8.464c-.362-.279-.863-.195-1.142.167-.278.362-.194.863.168 1.141a11.703 11.703 0 014.649 7.434c.083.39.418.668.807.668h.14c.445-.084.723-.501.668-.947zM6.278 1.474c.362-.278.445-.78.167-1.141-.278-.362-.78-.446-1.142-.167a13.386 13.386 0 00-5.29 8.463.818.818 0 00.669.947h.14c.389 0 .723-.278.807-.668.528-2.98 2.199-5.624 4.649-7.434z" fill="#fff"/></svg><svg viewBox="0 0 24 24" id="cross" xmlns="http://www.w3.org/2000/svg"><path d="M12 0c6.632 0 12 5.367 12 12s-5.367 12-12 12C5.368 24 0 18.633 0 12 0 5.368 5.367 0 12 0zm0 22.125A10.12 10.12 0 0022.125 12 10.12 10.12 0 0012 1.875 10.12 10.12 0 001.875 12 10.12 10.12 0 0012 22.125z"/><path d="M7.895 14.78l2.78-2.78-2.78-2.78A.938.938 0 019.22 7.894l2.78 2.78 2.78-2.78a.937.937 0 111.326 1.326L13.326 12l2.78 2.78a.937.937 0 11-1.326 1.326L12 13.326l-2.78 2.78a.938.938 0 01-1.325-1.326z"/></svg><svg viewBox="0 0 16 16" id="fb" xmlns="http://www.w3.org/2000/svg"><path d="M14 0H2C.897 0 0 .897 0 2v12c0 1.103.897 2 2 2h6v-5.5H6V8h2V6a3 3 0 013-3h2v2.5h-1c-.552 0-1-.052-1 .5v2h2.5l-1 2.5H11V16h3c1.103 0 2-.897 2-2V2c0-1.103-.897-2-2-2z"/></svg><svg fill="none" viewBox="0 0 42 42" id="instagram-circle" xmlns="http://www.w3.org/2000/svg"><path d="M20.526 41.053c11.337 0 20.527-9.19 20.527-20.526C41.053 9.19 31.863 0 20.527 0 9.19 0 0 9.19 0 20.526c0 11.337 9.19 20.527 20.526 20.527z" fill="#F55690"/><path d="M20.344 37.688c9.579 0 17.344-7.765 17.344-17.344S29.923 3 20.344 3 3 10.765 3 20.344s7.765 17.344 17.344 17.344z" fill="#F55690" stroke="#fff" stroke-width="2" stroke-miterlimit="10"/><path d="M25.128 11h-8.256A4.878 4.878 0 0012 15.872v8.256A4.878 4.878 0 0016.872 29h8.256A4.878 4.878 0 0030 24.128v-8.256A4.878 4.878 0 0025.128 11zM21 24.922A4.927 4.927 0 0116.078 20 4.927 4.927 0 0121 15.078 4.927 4.927 0 0125.922 20 4.927 4.927 0 0121 24.922zm5.04-8.683a1.456 1.456 0 01-1.455-1.454c0-.802.652-1.455 1.454-1.455.802 0 1.455.653 1.455 1.455s-.653 1.454-1.455 1.454z" fill="#fff"/><path d="M21 16.134A3.87 3.87 0 0017.133 20 3.871 3.871 0 0021 23.866 3.87 3.87 0 0024.866 20 3.87 3.87 0 0021 16.134zM26.04 14.386a.4.4 0 100 .799.4.4 0 000-.8z" fill="#fff"/></svg><svg viewBox="0 0 21 17" id="mail" xmlns="http://www.w3.org/2000/svg"><path d="M19.174 0H1.826A1.826 1.826 0 000 1.826v13.057a1.826 1.826 0 001.826 1.826h17.348A1.826 1.826 0 0021 14.883V1.826A1.826 1.826 0 0019.174 0zM17.63 5.086l-5.88 3.36a2.484 2.484 0 01-2.502 0l-5.88-3.36a.913.913 0 01-.112-1.512.913.913 0 011.016-.068l5.88 3.36a.722.722 0 00.694 0l5.88-3.36a.913.913 0 011.25.338.913.913 0 01-.346 1.242z"/></svg><svg viewBox="0 0 18 18" id="ok" xmlns="http://www.w3.org/2000/svg"><path d="M9 0a9 9 0 100 18A9 9 0 009 0zm.013 2.737c1.753.005 3.16 1.439 3.15 3.211-.008 1.732-1.438 3.135-3.188 3.129C7.243 9.071 5.822 7.635 5.832 5.9a3.175 3.175 0 013.18-3.163zm3.55 7.585a3.811 3.811 0 01-1.372.887c-.49.19-1.027.286-1.558.35.08.087.118.13.168.18.722.725 1.446 1.446 2.165 2.173.245.248.296.555.16.843-.146.315-.476.522-.8.5-.205-.015-.365-.117-.507-.26-.545-.547-1.1-1.085-1.632-1.643-.156-.163-.23-.132-.367.01a108.5 108.5 0 01-1.664 1.67c-.251.248-.55.293-.842.151-.31-.15-.507-.466-.492-.785.01-.215.116-.38.264-.526.714-.713 1.426-1.427 2.138-2.141.047-.048.09-.098.16-.172-.972-.101-1.847-.34-2.597-.926-.093-.073-.189-.143-.274-.225-.328-.315-.36-.676-.101-1.048.222-.318.595-.403.982-.22.075.035.147.08.215.126 1.397.96 3.316.987 4.719.043.139-.106.287-.193.46-.237a.72.72 0 01.825.33c.206.334.203.66-.05.92z"/></svg><svg viewBox="0 0 13 18" id="phone" xmlns="http://www.w3.org/2000/svg"><path d="M11.7 0H3.6A3.61 3.61 0 000 3.6v13.5c0 .54.36.9.9.9H9c1.98 0 3.6-1.62 3.6-3.6V.9c0-.54-.36-.9-.9-.9zM6.3 16.2c-.54 0-.9-.36-.9-.9s.36-.9.9-.9.9.36.9.9-.36.9-.9.9zm4.5-3.6h-9v-9c0-.99.81-1.8 1.8-1.8h7.2v10.8z"/></svg><svg fill="none" viewBox="0 0 42 42" id="site-circle" xmlns="http://www.w3.org/2000/svg"><path d="M20.526 41.053c11.337 0 20.527-9.19 20.527-20.526C41.053 9.19 31.863 0 20.527 0 9.19 0 0 9.19 0 20.526c0 11.337 9.19 20.527 20.526 20.527z" fill="#E73151"/><path d="M20.526 37.87c9.58 0 17.345-7.765 17.345-17.343 0-9.58-7.766-17.345-17.345-17.345-9.578 0-17.344 7.766-17.344 17.345 0 9.578 7.766 17.344 17.345 17.344z" fill="#E73151" stroke="#fff" stroke-width="2" stroke-miterlimit="10"/><path d="M20.771 12h-7.475C12.6 12 12 12.453 12 13.01V19.03c0 .536.576.97 1.246.97H20.77c.696 0 1.229-.453 1.229-1.01v-5.98c0-.557-.533-1.01-1.229-1.01zM23.544 14h5.912c.3 0 .544-.449.544-1 0-.55-.244-.996-.544-.996L23.544 12c-.3 0-.544.449-.544 1 0 .551.244 1 .544 1zM23.544 17h5.912c.3 0 .544-.449.544-1 0-.55-.244-.996-.544-.996L23.544 15c-.3 0-.544.449-.544 1 0 .551.244 1 .544 1zM23.544 20h5.912c.3 0 .544-.449.544-1 0-.55-.244-.996-.544-.996L23.544 18c-.3 0-.544.449-.544 1 0 .551.244 1 .544 1zM13.4 23h15.2c.772 0 1.4-.449 1.4-1 0-.55-.628-.996-1.4-.996L13.4 21c-.772 0-1.4.449-1.4 1 0 .551.628 1 1.4 1zM13.4 26h15.2c.772 0 1.4-.449 1.4-1 0-.55-.628-.996-1.4-.996L13.4 24c-.772 0-1.4.449-1.4 1 0 .551.628 1 1.4 1zM13.4 29h15.2c.772 0 1.4-.449 1.4-1 0-.55-.628-.996-1.4-.996L13.4 27c-.772 0-1.4.449-1.4 1 0 .551.628 1 1.4 1z" fill="#fff"/></svg><svg viewBox="0 0 18 15" id="telegram" xmlns="http://www.w3.org/2000/svg"><path d="M7.063 9.886l-.298 4.188c.426 0 .61-.183.832-.402l1.997-1.91 4.139 3.032c.759.423 1.294.2 1.498-.699l2.717-12.729C18.19.242 17.544-.196 16.804.08L.836 6.193C-.254 6.616-.238 7.223.65 7.5l4.083 1.27 9.482-5.934c.447-.295.852-.132.518.164l-7.67 6.887z"/></svg><svg fill="none" viewBox="0 0 42 42" id="telegram-circle" xmlns="http://www.w3.org/2000/svg"><path d="M20.526 41.053c11.337 0 20.527-9.19 20.527-20.526C41.053 9.19 31.863 0 20.527 0 9.19 0 0 9.19 0 20.526c0 11.337 9.19 20.527 20.526 20.527z" fill="#08C"/><path d="M20.527 37.87c9.579 0 17.344-7.765 17.344-17.343 0-9.58-7.765-17.345-17.344-17.345-9.58 0-17.344 7.766-17.344 17.345 0 9.578 7.765 17.344 17.344 17.344z" fill="#08C" stroke="#fff" stroke-width="2" stroke-miterlimit="10"/><path d="M27.528 14.109c-.16-.372-.53-.584-.955-.584-.318 0-.636.106-.69.106-.105.053-9.865 3.766-13.843 5.41-.371.16-.583.372-.69.584-.158.371.107.796.372.901 1.008.425 3.076 1.061 3.713 1.22.212.69.955 3.183 1.326 4.244.106.265.371.424.69.424h.105c.107 0 .16-.053.266-.106.053-.053.106-.106.106-.212l.212-2.97c.371.318.955.742 1.591 1.166 1.22.955 2.705 2.016 3.554 2.652.318.213.583.319.848.319.584 0 .955-.53 1.061-.955.69-2.652 1.698-7.744 2.281-10.767l.106-.637c.106-.371.053-.636-.053-.795zM17.45 22.436l-.159 2.652c-.477-1.432-1.114-3.66-1.114-3.713l7.638-4.986s.53-.37.743-.424c.265-.053.318.053.265.106-.16.265-1.06 1.008-1.06 1.008l-6.1 5.039c-.16.106-.213.212-.213.318z" fill="#fff"/></svg><svg fill="none" viewBox="0 0 42 42" id="twitter-circle" xmlns="http://www.w3.org/2000/svg"><path d="M20.526 41.053c11.337 0 20.527-9.19 20.527-20.526C41.053 9.19 31.863 0 20.527 0 9.19 0 0 9.19 0 20.526c0 11.337 9.19 20.527 20.526 20.527z" fill="#00ACEE"/><path d="M20.527 37.87c9.579 0 17.344-7.765 17.344-17.343 0-9.58-7.765-17.345-17.344-17.345-9.58 0-17.344 7.766-17.344 17.345 0 9.578 7.765 17.344 17.344 17.344z" fill="#00ACEE" stroke="#fff" stroke-width="2" stroke-miterlimit="10"/><path d="M18.715 27.25c-.778 0-1.58-.061-2.385-.183-1.42-.216-2.857-.934-3.263-1.149L12 25.354l1.155-.367c1.262-.402 2.03-.65 2.98-1.04a3.876 3.876 0 01-2.038-2.285l-.269-.789.22.033a3.893 3.893 0 01-.501-.599c-.455-.668-.696-1.484-.644-2.183l.05-.689.426.16c-.18-.329-.31-.68-.386-1.047a3.87 3.87 0 01.439-2.681l.371-.66.497.577c1.57 1.825 3.558 2.907 5.918 3.224a3.32 3.32 0 01.215-1.82c.279-.647.774-1.196 1.432-1.587a4.416 4.416 0 012.496-.593 4.057 4.057 0 012.45.977c.328-.082.57-.17.897-.29.197-.07.42-.152.699-.245l1.028-.343-.67 1.853c.044-.004.09-.007.137-.009L30 14.903l-.649.858-.06.082c-.052.077-.117.171-1.008 1.322a1.585 1.585 0 00-.314 1.057c.08 1.495-.11 2.848-.564 4.02a7.108 7.108 0 01-1.974 2.83c-1.091.95-2.482 1.6-4.134 1.933-.81.163-1.68.245-2.582.245z" fill="#fff"/></svg><svg viewBox="0 0 26 15" id="vk" xmlns="http://www.w3.org/2000/svg"><path d="M24.442 11.72c-.76-.91-1.653-1.687-2.498-2.512-.763-.744-.811-1.175-.198-2.034.67-.937 1.389-1.838 2.064-2.77.63-.873 1.274-1.742 1.606-2.786.21-.664.024-.957-.657-1.073a2.102 2.102 0 00-.358-.022L20.361.52c-.497-.008-.773.21-.948.65a24.708 24.708 0 01-.766 1.767c-.642 1.304-1.36 2.565-2.365 3.633-.221.235-.467.533-.837.41-.463-.17-.6-.933-.593-1.19l-.004-4.664c-.09-.666-.237-.963-.898-1.093L9.753.033c-.56 0-.841.217-1.14.567-.173.202-.225.334.13.4.696.133 1.089.584 1.193 1.282.167 1.116.155 2.236.059 3.357a3.121 3.121 0 01-.214.959c-.203.48-.531.578-.961.282-.39-.267-.664-.645-.932-1.023C6.882 4.434 6.078 2.9 5.424 1.289c-.19-.466-.516-.748-1.01-.755C3.204.514 1.992.51.779.534.05.549-.168.903.128 1.565c1.32 2.936 2.79 5.791 4.708 8.392.985 1.334 2.116 2.513 3.577 3.348 1.655.946 3.437 1.231 5.314 1.143.879-.04 1.143-.27 1.184-1.145.027-.6.095-1.196.39-1.734.29-.529.73-.63 1.237-.3.253.164.467.374.668.595.495.54.972 1.098 1.485 1.621.644.655 1.407 1.043 2.366.964h3.714c.598-.039.908-.772.564-1.44-.24-.468-.557-.884-.893-1.287z"/></svg><svg fill="none" viewBox="0 0 42 42" id="vk-circle" xmlns="http://www.w3.org/2000/svg"><path d="M20.526 41.053c11.337 0 20.527-9.19 20.527-20.526C41.053 9.19 31.863 0 20.527 0 9.19 0 0 9.19 0 20.526c0 11.337 9.19 20.527 20.526 20.527z" fill="#45668E"/><path d="M20.527 37.87c9.579 0 17.344-7.765 17.344-17.343 0-9.58-7.765-17.345-17.344-17.345-9.58 0-17.344 7.766-17.344 17.345 0 9.578 7.765 17.344 17.344 17.344z" fill="#45668E" stroke="#fff" stroke-width="2" stroke-miterlimit="10"/><path d="M28.707 26c-.592 0-1.315-.017-1.624-.023l-.17-.004a1.789 1.789 0 01-1.268-.5c-.28-.267-.552-.56-.815-.843-.148-.16-.302-.325-.457-.486a3.826 3.826 0 00-.45-.405.986.986 0 00-.586-.22c-.319 0-.581.199-.72.545-.16.4-.282 1.375-.287 1.435-.02.274-.177.414-.483.431-.2.01-.396.016-.584.016-1.207 0-2.225-.229-3.114-.7-.9-.478-1.705-1.177-2.464-2.137-.96-1.213-1.823-2.619-2.8-4.559a102.93 102.93 0 01-.87-1.857c-.02-.083-.031-.219.04-.265.054-.005.219-.013.711-.013.82 0 2.028.024 2.095.027.338.018.522.15.653.47.573 1.4 1.254 2.582 2.084 3.612.126.157.29.306.476.432.13.088.269.135.402.135.254 0 .464-.161.56-.431.111-.307.2-.872.206-1.172a23.3 23.3 0 00-.042-1.95c-.037-.68-.364-1.087-.997-1.24.193-.206.455-.259.856-.28.224-.012.47-.018.75-.018.261 0 .528.005.786.01l.544.008c.299.003.558.029.792.08.143.03.339.11.397.452.03.174.042.342.039.5-.008.326-.019.657-.03.977-.015.46-.03.937-.036 1.407-.005.364.027.7.093.999.087.392.324.625.634.625.13 0 .33-.046.542-.263.335-.346.66-.747 1.05-1.303.51-.725.951-1.57 1.387-2.662.146-.364.184-.39.573-.391a603.2 603.2 0 012.88 0c.171 0 .31.018.422.054.078.024.144.06.107.222-.136.6-.486 1.124-.804 1.569-.386.54-.791 1.08-1.184 1.604-.207.276-.413.551-.618.828a3.372 3.372 0 00-.227.357c-.29.521-.245.887.164 1.305.218.222.443.44.662.652.308.298.627.607.92.924.37.401.695.821.967 1.247.126.197.163.388.1.523-.062.131-.218.22-.442.252-.064.009-.256.024-.82.024z" fill="#fff"/></svg><svg viewBox="0 0 18 18" id="whatsapp" xmlns="http://www.w3.org/2000/svg"><path d="M15.475 2.525A8.566 8.566 0 009.377 0 8.566 8.566 0 003.28 2.525 8.566 8.566 0 00.755 8.623c0 1.459.37 2.892 1.07 4.162L0 18l5.215-1.825a8.62 8.62 0 004.162 1.07 8.566 8.566 0 006.098-2.525A8.566 8.566 0 0018 8.623a8.566 8.566 0 00-2.525-6.098zm-1.835 9.3l-.995.996c-.825.825-3.165-.178-5.226-2.24C5.357 8.52 4.354 6.18 5.179 5.355l.995-.995a.528.528 0 01.747 0l1.244 1.244a.528.528 0 010 .747l-.746.746a7.325 7.325 0 003.484 3.484l.746-.746a.528.528 0 01.747 0l1.244 1.244a.528.528 0 010 .747z"/></svg></svg>