<?xml version="1.0" encoding="utf-8"?><svg viewBox="0 0 512 512" xmlns="http://www.w3.org/2000/svg" xmlns:xlink="http://www.w3.org/1999/xlink"><style>:root>svg{display:none}:root>svg:target{display:block}</style><svg viewBox="0 0 512 512" id="calendar" xmlns="http://www.w3.org/2000/svg"><defs><path id="aa" d="M0 0h512v512H0z"/></defs><path class="ast0" d="M386 190c11 0 20 9 20 20s-9 20-20 20-20-9-20-20 9-20 20-20"/><path class="ast0" d="M432 40h-26V20c0-11-9-20-20-20s-20 9-20 20v20h-91V20c0-11-9-20-20-20s-20 9-20 20v20h-90V20c0-11-9-20-20-20s-20 9-20 20v20H80C35.9 40 0 75.9 0 120v312c0 44.1 35.9 80 80 80h153c11 0 20-9 20-20s-9-20-20-20H80c-22.1 0-40-17.9-40-40V120c0-22.1 17.9-40 40-40h25v20c0 11 9 20 20 20s20-9 20-20V80h90v20c0 11 9 20 20 20s20-9 20-20V80h91v20c0 11 9 20 20 20s20-9 20-20V80h26c22.1 0 40 17.9 40 40v114c0 11 9 20 20 20s20-9 20-20V120c0-44.1-35.9-80-80-80"/><path class="ast0" d="M391 270c-66.7 0-121 54.3-121 121s54.3 121 121 121 121-54.3 121-121-54.3-121-121-121m0 202c-44.7 0-81-36.3-81-81s36.3-81 81-81 81 36.3 81 81-36.3 81-81 81"/><path class="ast0" d="M420 371h-9v-21c0-11-9-20-20-20s-20 9-20 20v41c0 11 9 20 20 20h29c11 0 20-9 20-20s-9-20-20-20M299 190c11 0 20 9 20 20s-9 20-20 20-20-9-20-20 9-20 20-20m-87 87c11 0 20 9 20 20s-9 20-20 20-20-9-20-20 9-20 20-20m-87-87c11 0 20 9 20 20s-9 20-20 20-20-9-20-20 9-20 20-20m0 87c11 0 20 9 20 20s-9 20-20 20-20-9-20-20 9-20 20-20m0 87c11 0 20 9 20 20s-9 20-20 20-20-9-20-20 9-20 20-20m87 0c11 0 20 9 20 20s-9 20-20 20-20-9-20-20 9-20 20-20m0-174c11 0 20 9 20 20s-9 20-20 20-20-9-20-20 9-20 20-20"/></svg><svg viewBox="0 0 28 28" id="cross" xmlns="http://www.w3.org/2000/svg"><path d="M21 7L7 21M7 7l14 14"/></svg><svg viewBox="0 0 23.6 23.6" id="info" xmlns="http://www.w3.org/2000/svg"><path d="M14.3 18.3c-.6.2-1.1.4-1.5.5-.3.2-.8.2-1.2.2-.7 0-1.3-.2-1.7-.5s-.6-.8-.6-1.4v-.7c0-.2.1-.5.1-.8l.8-2.7c.1-.3.1-.5.2-.7 0-.2.1-.4.1-.6 0-.3-.1-.6-.2-.7-.1-.1-.4-.2-.8-.2-.2 0-.4 0-.6.1-.3.1-.5.2-.6.2l.2-.8c.5-.2.9-.4 1.4-.5.5-.1.9-.2 1.3-.2.7 0 1.3.2 1.7.5.4.4.6.8.6 1.4v.6c0 .3-.1.6-.2.8l-.8 2.7c-.1.2-.1.5-.2.7 0 .3-.1.5-.1.6 0 .4.1.6.2.7.2.1.4.2.8.2.2 0 .4 0 .6-.1.2-.1.4-.1.5-.2v.9zm-.2-10.9c-.4.3-.8.5-1.3.5s-.9-.2-1.3-.5c-.3-.3-.5-.7-.5-1.2s.2-.9.5-1.2c.4-.3.8-.5 1.3-.5s.9.2 1.3.5.5.7.5 1.2c.1.5-.1.9-.5 1.2z"/></svg><svg viewBox="0 0 23.7 28.6" id="location" xmlns="http://www.w3.org/2000/svg"><defs><path id="da" d="M0 0h23.7v28.6H0z"/></defs><clipPath id="db"><use xlink:href="#da" overflow="visible"/></clipPath><path d="M23.4 8.9C21.9 3 16.5-.6 10.1.1 4.6.7.1 5.7 0 11.5c-.1 2.7.6 5.3 2.4 7.3 3 3.3 6.3 6.4 9.8 9.8 1.6-1.7 3.2-3.5 4.8-5.2 1-1.1 2.1-2.1 3.2-3.2 1.9-1.9 3.1-4.1 3.5-6.8 0-.2.2-3.3-.3-4.5m-15.3 3C8.1 9.8 9.9 8 12 8.1c2.1 0 3.8 1.8 3.8 3.9 0 2.1-1.8 3.8-3.9 3.8-2.1 0-3.8-1.8-3.8-3.9" clip-path="url(#db)"/></svg><svg viewBox="0 0 24 24" id="menu" xmlns="http://www.w3.org/2000/svg"><path d="M3 12h18M3 6h18M3 18h18"/></svg><svg version="1.1" id="phone" x="0" y="0" viewBox="0 0 473.1 473.8" xml:space="preserve" xmlns="http://www.w3.org/2000/svg"><style>.fst0{clip-path:url(#fSVGID_2_)}</style><defs><path id="fSVGID_1_" d="M0 0h473.1v473.8H0z"/></defs><clipPath id="fSVGID_2_"><use xlink:href="#fSVGID_1_" overflow="visible"/></clipPath><path class="fst0" d="M374.1 293.5c-9.7-10.1-21.4-15.5-33.8-15.5-12.3 0-24.1 5.3-34.2 15.4l-31.6 31.5c-2.6-1.4-5.2-2.7-7.7-4-3.6-1.8-7-3.5-9.9-5.3-29.6-18.8-56.5-43.3-82.3-75-12.5-15.8-20.9-29.1-27-42.6 8.2-7.5 15.8-15.3 23.2-22.8 2.8-2.8 5.6-5.7 8.4-8.5 21-21 21-48.2 0-69.2l-27.3-27.3c-3.1-3.1-6.3-6.3-9.3-9.5-6-6.2-12.3-12.6-18.8-18.6-9.7-9.6-21.3-14.7-33.5-14.7s-24 5.1-34 14.7l-.2.2-34 34.3C9.3 89.4 2 105 .4 123.1c-2.4 29.2 6.2 56.4 12.8 74.2 16.2 43.7 40.4 84.2 76.5 127.6 43.8 52.3 96.5 93.6 156.7 122.7 23 10.9 53.7 23.8 88 26 2.1.1 4.3.2 6.3.2 23.1 0 42.5-8.3 57.7-24.8.1-.2.3-.3.4-.5 5.2-6.3 11.2-12 17.5-18.1 4.3-4.1 8.7-8.4 13-12.9 9.9-10.3 15.1-22.3 15.1-34.6 0-12.4-5.3-24.3-15.4-34.3l-54.9-55.1zm35.8 105.3c-.1 0-.1.1 0 0-3.9 4.2-7.9 8-12.2 12.2-6.5 6.2-13.1 12.7-19.3 20-10.1 10.8-22 15.9-37.6 15.9-1.5 0-3.1 0-4.6-.1-29.7-1.9-57.3-13.5-78-23.4-56.6-27.4-106.3-66.3-147.6-115.6-34.1-41.1-56.9-79.1-72-119.9-9.3-24.9-12.7-44.3-11.2-62.6 1-11.7 5.5-21.4 13.8-29.7l34.1-34.1c4.9-4.6 10.1-7.1 15.2-7.1 6.3 0 11.4 3.8 14.6 7l.3.3c6.1 5.7 11.9 11.6 18 17.9 3.1 3.2 6.3 6.4 9.5 9.7l27.3 27.3c10.6 10.6 10.6 20.4 0 31-2.9 2.9-5.7 5.8-8.6 8.6-8.4 8.6-16.4 16.6-25.1 24.4-.2.2-.4.3-.5.5-8.6 8.6-7 17-5.2 22.7l.3.9c7.1 17.2 17.1 33.4 32.3 52.7l.1.1c27.6 34 56.7 60.5 88.8 80.8 4.1 2.6 8.3 4.7 12.3 6.7 3.6 1.8 7 3.5 9.9 5.3.4.2.8.5 1.2.7 3.4 1.7 6.6 2.5 9.9 2.5 8.3 0 13.5-5.2 15.2-6.9l34.2-34.2c3.4-3.4 8.8-7.5 15.1-7.5 6.2 0 11.3 3.9 14.4 7.3l.2.2 55.1 55.1c10.3 10.2 10.3 20.7.1 31.3M255.7 112.7c26.2 4.4 50 16.8 69 35.8s31.3 42.8 35.8 69c1.1 6.6 6.8 11.2 13.3 11.2.8 0 1.5-.1 2.3-.2 7.4-1.2 12.3-8.2 11.1-15.6-5.4-31.7-20.4-60.6-43.3-83.5s-51.8-37.9-83.5-43.3c-7.4-1.2-14.3 3.7-15.6 11-1.3 7.3 3.5 14.4 10.9 15.6M472.9 209c-8.9-52.2-33.5-99.7-71.3-137.5S316.3 9.1 264.1.2c-7.3-1.3-14.2 3.7-15.5 11-1.2 7.4 3.7 14.3 11.1 15.6 46.6 7.9 89.1 30 122.9 63.7 33.8 33.8 55.8 76.3 63.7 122.9 1.1 6.6 6.8 11.2 13.3 11.2.8 0 1.5-.1 2.3-.2 7.3-1.1 12.3-8.1 11-15.4"/></svg><svg viewBox="0 0 46 46" id="success" xmlns="http://www.w3.org/2000/svg"><defs><path id="ga" d="M0 0h46v46H0z"/></defs><clipPath id="gb"><use xlink:href="#ga" overflow="visible"/></clipPath><circle cx="23" cy="23" r="22" clip-path="url(#gb)" fill="none"/><path d="M29.6 18.4c-.6-.6-1.5-.6-2 0l-6.2 6.2-1.9-1.9c-.6-.6-1.5-.6-2 0-.6.6-.6 1.5 0 2l2.9 2.9c.6.6 1.5.6 2 0l7.2-7.2c.5-.6.5-1.5 0-2" clip-path="url(#gb)" fill-rule="evenodd" clip-rule="evenodd"/></svg><svg viewBox="0 0 59.9 59.9" id="time" xmlns="http://www.w3.org/2000/svg"><defs><path id="ha" d="M0 0h59.9v59.9H0z"/></defs><clipPath id="hb"><use xlink:href="#ha" overflow="visible"/></clipPath><path d="M27 24V3c0-1.7 1.3-3 3-3 16.6 0 30 13.4 29.9 30 0 16.5-13.4 30-30 29.9C13.3 59.8 0 46.5 0 29.9c0-11 6-21.1 15.7-26.3 1.5-.8 3.3-.2 4.1 1.2.8 1.4.2 3.3-1.2 4.1C7 15.2 2.6 29.8 8.9 41.4s20.9 16 32.5 9.7 16-20.9 9.7-32.5C47.4 11.8 40.7 7.1 33 6.2V30c0 1.7-1.3 3-3 3-.6 0-1.3-.2-1.8-.6l-12-9c-1.3-1-1.5-2.9-.5-4.2s2.8-1.5 4.1-.6L27 24z" clip-path="url(#hb)"/></svg></svg>