<?xml version="1.0" encoding="utf-8"?><svg viewBox="0 0 181 76" xmlns="http://www.w3.org/2000/svg" xmlns:xlink="http://www.w3.org/1999/xlink"><style>:root>svg{display:none}:root>svg:target{display:block}</style><svg fill="none" viewBox="0 0 40 40" id="24" xmlns="http://www.w3.org/2000/svg"><path d="M0 20c0 11.028 8.972 20 20 20s20-8.972 20-20S31.028 0 20 0c-4.216 0-8.21 1.297-11.61 3.731L5.956 1.297a1.693 1.693 0 00-1.594-.45 1.682 1.682 0 00-1.218 1.115L.938 8.584a2.569 2.569 0 00.624 2.653 2.57 2.57 0 001.828.759c.276 0 .553-.044.825-.134l6.622-2.207a1.685 1.685 0 001.116-1.218 1.687 1.687 0 00-.45-1.594L9.536 4.878A18.232 18.232 0 0120 1.6c10.147 0 18.4 8.253 18.4 18.4 0 10.147-8.253 18.4-18.4 18.4C9.853 38.4 1.6 30.147 1.6 20H0zM10.372 7.975c.01.01.038.041.025.094-.013.053-.05.065-.066.069l-6.621 2.21a.982.982 0 01-1.016-.242.975.975 0 01-.241-1.016l2.21-6.621c.003-.016.015-.053.068-.066.01-.003.02-.003.028-.003.038 0 .056.022.066.028l5.547 5.547z" fill="#2C47F0"/><path d="M20 35.2v1.6c9.262 0 16.8-7.538 16.8-16.8h-1.6c0 8.382-6.818 15.2-15.2 15.2zM16.534 13.6h-4.667a.657.657 0 00-.667.647v1.082c0 .357.298.647.666.647L16.8 16v3.043l-3.572.769c-1.192.284-2.028 1.305-2.028 2.477v1.557c0 1.41 1.198 2.554 2.677 2.554h4.659c.366 0 .664-.29.664-.646v-1.107a.656.656 0 00-.664-.647H13.6v-1.764l3.589-.804c1.181-.287 2.011-1.322 2.011-2.51v-2.735c0-1.429-1.194-2.587-2.666-2.587zM28.16 13.6h-1.12a.64.64 0 00-.64.64v5.4L24 19v-4.76a.64.64 0 00-.64-.64h-1.12a.64.64 0 00-.64.64v4.793c0 1.16.78 2.174 1.9 2.473l2.9.773v3.48c0 .354.287.64.64.64h1.12a.64.64 0 00.64-.64V14.24a.64.64 0 00-.64-.64z" fill="#F25929"/></svg><svg fill="none" viewBox="0 0 76 76" id="cleaning" xmlns="http://www.w3.org/2000/svg"><path d="M38 0C17.013 0 0 17.013 0 38s17.013 38 38 38 38-17.013 38-38S58.987 0 38 0z" fill="#353E60"/><path d="M24 40.5V40a2 2 0 012-2h15.5a2 2 0 012 2v.5a2 2 0 01-2 2H26a2 2 0 01-2-2zM28.75 54.5h-3a1.75 1.75 0 110-3.5h3a1.75 1.75 0 110 3.5zM34.75 54.5h-2a1.75 1.75 0 110-3.5h2a1.75 1.75 0 110 3.5zM41.75 54.5h-2a1.75 1.75 0 110-3.5h2a1.75 1.75 0 110 3.5z" fill="#F25929"/><path d="M41.36 37.32h-2.04c-.75 0-1.36-.61-1.36-1.36V24.4c0-1.875-1.525-3.4-3.4-3.4H33.2a3.404 3.404 0 00-3.4 3.4v11.56c0 .75-.61 1.36-1.36 1.36H26.4a3.404 3.404 0 00-3.4 3.4v10.2a4.078 4.078 0 007.48 2.253 4.078 4.078 0 006.8 0 4.078 4.078 0 007.48-2.253v-10.2c0-1.875-1.525-3.4-3.4-3.4zM33.2 22.36h1.36c1.125 0 2.04.915 2.04 2.04v10.2h-5.44V24.4c0-1.125.915-2.04 2.04-2.04zm-2.04 13.6h5.44c0 .498.144.958.378 1.36h-6.196c.234-.402.378-.862.378-1.36zM43.4 50.92c0 1.5-1.22 2.72-2.72 2.72-1.5 0-2.72-1.22-2.72-2.72v-1.36H36.6v1.36c0 1.5-1.22 2.72-2.72 2.72-1.5 0-2.72-1.22-2.72-2.72v-1.36H29.8v1.36c0 1.5-1.22 2.72-2.72 2.72-1.5 0-2.72-1.22-2.72-2.72v-8.16h2.04v2.72h1.36v-2.72h2.04v1.36h1.36v-1.36h2.04v2.72h1.36v-2.72h2.04v1.36h1.36v-1.36H40v2.72h1.36v-2.72h2.04v8.16zM24.36 41.4v-.68c0-1.125.915-2.04 2.04-2.04h14.96c1.125 0 2.04.915 2.04 2.04v.68H24.36zM47.48 38.68h2.72v1.36h-2.72v-1.36zM47.48 41.4h5.44v1.36h-5.44V41.4zM48.84 44.12h6.8v1.36h-6.8v-1.36zM50.2 46.84h8.16v1.36H50.2v-1.36z" fill="#fff"/><path d="M52.629 30.15l.282 1.228a1.586 1.586 0 001.19 1.19l1.229.282c.413.095.413.683 0 .778l-1.229.282a1.586 1.586 0 00-1.19 1.19l-.282 1.229c-.094.412-.683.412-.777 0l-.282-1.23a1.586 1.586 0 00-1.19-1.19l-1.23-.281c-.412-.095-.412-.683 0-.778l1.23-.282a1.586 1.586 0 001.19-1.19l.282-1.229c.094-.412.682-.412.777 0zM45.149 24.71l.282 1.228a1.586 1.586 0 001.19 1.19l1.229.282c.413.095.413.683 0 .778l-1.229.282a1.586 1.586 0 00-1.19 1.19l-.282 1.229c-.095.412-.683.412-.777 0l-.282-1.23a1.586 1.586 0 00-1.19-1.19l-1.23-.281c-.412-.095-.412-.683 0-.778l1.23-.282a1.586 1.586 0 001.19-1.19l.282-1.229c.094-.412.682-.412.777 0z" fill="#F25929"/></svg><svg viewBox="0 0 36 36" id="fb" xmlns="http://www.w3.org/2000/svg"><rect width="36" height="36" rx="4"/><path fill-rule="evenodd" clip-rule="evenodd" d="M19.302 28.8V18h2.982l.395-3.722h-3.377l.005-1.863c0-.971.092-1.491 1.487-1.491h1.864V7.2h-2.982c-3.582 0-4.843 1.806-4.843 4.843v2.234H12.6V18h2.233V28.8h4.47z" fill="#2B2F3E"/></svg><svg viewBox="0 0 36 36" id="inst" xmlns="http://www.w3.org/2000/svg"><rect width="36" height="36" rx="4"/><path fill-rule="evenodd" clip-rule="evenodd" d="M18 7.2c-2.933 0-3.301.013-4.453.066-1.15.052-1.935.234-2.622.501a5.289 5.289 0 00-1.913 1.246c-.6.6-.97 1.203-1.246 1.913-.268.687-.45 1.472-.502 2.62-.052 1.153-.065 1.521-.065 4.454s.013 3.3.065 4.453c.053 1.15.235 1.934.502 2.62.276.711.645 1.314 1.246 1.914.6.6 1.202.97 1.912 1.247.687.267 1.472.449 2.622.501 1.152.053 1.52.066 4.453.066 2.933 0 3.3-.013 4.452-.066 1.15-.052 1.935-.234 2.622-.502a5.285 5.285 0 001.912-1.246 5.3 5.3 0 001.247-1.913c.265-.687.448-1.472.502-2.621.051-1.152.065-1.52.065-4.453 0-2.933-.014-3.3-.065-4.453-.054-1.15-.237-1.934-.502-2.621a5.3 5.3 0 00-1.247-1.913c-.6-.601-1.201-.97-1.912-1.246-.689-.267-1.474-.449-2.624-.501-1.152-.053-1.518-.066-4.452-.066H18zm-.968 1.946h.97c2.883 0 3.225.01 4.363.062 1.053.049 1.625.224 2.006.372.504.196.863.43 1.24.808.379.378.613.738.809 1.242.148.38.324.952.372 2.005.051 1.138.063 1.48.063 4.363 0 2.882-.012 3.224-.063 4.362-.048 1.053-.224 1.625-.372 2.005-.196.504-.43.863-.808 1.24a3.34 3.34 0 01-1.241.809c-.38.148-.953.324-2.006.372-1.138.051-1.48.063-4.364.063s-3.226-.012-4.364-.063c-1.053-.049-1.625-.225-2.005-.373a3.346 3.346 0 01-1.242-.807 3.348 3.348 0 01-.809-1.242c-.147-.38-.324-.951-.372-2.005-.051-1.138-.062-1.48-.062-4.364s.01-3.224.062-4.363c.049-1.053.225-1.624.372-2.005.196-.504.43-.864.809-1.242a3.352 3.352 0 011.242-.808c.38-.149.952-.324 2.005-.373.996-.045 1.382-.058 3.395-.06v.002zm6.736 1.793a1.296 1.296 0 10-.001 2.592 1.296 1.296 0 000-2.593zm-5.766 1.515a5.547 5.547 0 10.001 11.093 5.547 5.547 0 00-.001-11.093zM18 14.4a3.6 3.6 0 110 7.2 3.6 3.6 0 010-7.2z" fill="#2B2F3E"/></svg><svg viewBox="0 0 181 21" id="logo" xmlns="http://www.w3.org/2000/svg"><path d="M14.12 14.12h1.148c.075.299.14.663.196 1.092.075.41.13.859.168 1.344.056.467.093.933.112 1.4.019.467.028.887.028 1.26-.653.41-1.475.7-2.464.868-.97.168-1.97.252-2.996.252-1.55 0-2.959-.187-4.228-.56-1.25-.392-2.324-.999-3.22-1.82-.877-.84-1.559-1.895-2.044-3.164-.485-1.288-.728-2.828-.728-4.62 0-1.773.261-3.295.784-4.564.541-1.288 1.26-2.343 2.156-3.164A8.225 8.225 0 016.14.652 11.957 11.957 0 019.892.064c1.232 0 2.343.093 3.332.28 1.008.168 1.83.401 2.464.7 0 .299-.019.681-.056 1.148-.019.467-.065.961-.14 1.484-.056.504-.13 1.008-.224 1.512-.075.485-.15.896-.224 1.232h-1.176l-1.54-4.228c-.168-.093-.439-.168-.812-.224a7.73 7.73 0 00-1.148-.084c-.765 0-1.484.159-2.156.476-.672.299-1.27.784-1.792 1.456-.523.672-.933 1.54-1.232 2.604-.299 1.045-.448 2.305-.448 3.78 0 2.67.532 4.723 1.596 6.16 1.064 1.437 2.51 2.156 4.34 2.156a6.52 6.52 0 001.316-.112c.373-.093.625-.215.756-.364l1.372-3.92zM31.406 20h-9.632v-1.064c.373-.15.793-.299 1.26-.448.485-.168.97-.29 1.456-.364V2.22h-3.248L19.45 7.008h-1.148c-.075-.373-.15-.85-.224-1.428a48.034 48.034 0 01-.196-1.792 64.9 64.9 0 01-.14-1.82A26.594 26.594 0 0117.686.4h17.808c0 .448-.019.97-.056 1.568a64.524 64.524 0 01-.14 1.82 47.823 47.823 0 01-.196 1.792c-.075.56-.15 1.036-.224 1.428H33.73L31.938 2.22H28.69v15.904c.485.093.961.205 1.428.336.485.13.914.29 1.288.476V20zm19.628-5.88h1.148c.075.299.14.663.196 1.092.075.41.13.859.168 1.344.056.467.093.933.112 1.4.019.467.028.887.028 1.26-.653.41-1.475.7-2.464.868-.97.168-1.97.252-2.996.252-1.55 0-2.959-.187-4.228-.56-1.25-.392-2.324-.999-3.22-1.82-.877-.84-1.559-1.895-2.044-3.164-.485-1.288-.728-2.828-.728-4.62 0-1.773.261-3.295.784-4.564.541-1.288 1.26-2.343 2.156-3.164A8.225 8.225 0 0143.054.652a11.957 11.957 0 013.752-.588c1.232 0 2.343.093 3.332.28 1.008.168 1.83.401 2.464.7 0 .299-.019.681-.056 1.148-.019.467-.065.961-.14 1.484-.056.504-.13 1.008-.224 1.512-.075.485-.15.896-.224 1.232h-1.176l-1.54-4.228c-.168-.093-.439-.168-.812-.224a7.73 7.73 0 00-1.148-.084c-.765 0-1.484.159-2.156.476-.672.299-1.27.784-1.792 1.456-.523.672-.933 1.54-1.232 2.604-.299 1.045-.448 2.305-.448 3.78 0 2.67.532 4.723 1.596 6.16 1.064 1.437 2.51 2.156 4.34 2.156a6.52 6.52 0 001.316-.112c.373-.093.625-.215.756-.364l1.372-3.92zm4.994-3.276h7.896v2.52h-7.896v-2.52zm22.856-8.568a7.465 7.465 0 01-1.176-.336c-.336-.15-.663-.308-.98-.476V.4h6.776v1.064a4.27 4.27 0 01-.84.448c-.336.13-.72.252-1.148.364l-5.348 12.096c-.896 2.053-1.83 3.584-2.8 4.592-.971.99-2.007 1.381-3.108 1.176-.15-.15-.308-.373-.476-.672a49.2 49.2 0 01-.448-.98c-.131-.355-.243-.69-.336-1.008a4.714 4.714 0 01-.168-.84l.784-1.12 3.332 1.036c.149-.168.289-.373.42-.616.13-.243.252-.513.364-.812L66.284 2.276a9.584 9.584 0 01-1.036-.336c-.318-.15-.616-.308-.896-.476V.4h8.736v1.064c-.56.336-1.27.607-2.128.812l3.948 7.588.588 1.792h.056l.56-1.848 2.772-7.532zm7.464 0c-.877-.15-1.642-.42-2.296-.812V.4h15.036c0 .43-.018.905-.056 1.428a44.354 44.354 0 01-.14 1.568 33.186 33.186 0 01-.196 1.512c-.075.485-.15.924-.224 1.316h-1.148L95.588 2.22h-5.04v6.384c.168-.019.373-.037.616-.056a9.66 9.66 0 011.484-.112c.261-.019.486-.028.672-.028.952 0 1.858.103 2.716.308.859.205 1.605.541 2.24 1.008a4.7 4.7 0 011.54 1.764c.392.728.588 1.605.588 2.632 0 .99-.205 1.857-.616 2.604a5.3 5.3 0 01-1.652 1.876c-.69.485-1.521.859-2.492 1.12-.952.243-1.988.364-3.108.364-.093 0-.326-.01-.7-.028-.373 0-.793-.01-1.26-.028-.466 0-.933-.01-1.4-.028h-5.124v-1.064a6.397 6.397 0 011.092-.504c.392-.15.793-.252 1.204-.308V2.276zm5.768 7.952c-.299 0-.588.019-.868.056-.28.019-.513.056-.7.112v7.756c.075.019.187.037.336.056l.504.056h.868c1.102 0 1.96-.355 2.576-1.064.635-.71.952-1.708.952-2.996 0-1.232-.29-2.203-.868-2.912-.578-.71-1.512-1.064-2.8-1.064zm10.406-.028c0-1.456.205-2.8.616-4.032.41-1.25 1.017-2.324 1.82-3.22.802-.915 1.792-1.624 2.968-2.128s2.529-.756 4.06-.756c1.53 0 2.884.252 4.06.756 1.176.504 2.156 1.213 2.94 2.128.802.896 1.409 1.97 1.82 3.22.41 1.232.616 2.576.616 4.032s-.206 2.81-.616 4.06c-.411 1.232-1.018 2.305-1.82 3.22-.784.896-1.764 1.596-2.94 2.1s-2.53.756-4.06.756c-1.531 0-2.884-.252-4.06-.756-1.176-.504-2.166-1.204-2.968-2.1-.803-.915-1.41-1.988-1.82-3.22-.411-1.25-.616-2.604-.616-4.06zm4.76 0c0 1.195.093 2.305.28 3.332.186 1.008.476 1.885.868 2.632.41.728.924 1.307 1.54 1.736.634.41 1.39.616 2.268.616.802 0 1.484-.205 2.044-.616.56-.43 1.017-1.008 1.372-1.736.354-.747.606-1.624.756-2.632.168-1.027.252-2.137.252-3.332 0-1.195-.094-2.296-.28-3.304-.168-1.027-.448-1.904-.84-2.632-.374-.747-.878-1.325-1.512-1.736-.616-.43-1.372-.644-2.268-.644-.859 0-1.578.215-2.156.644-.579.41-1.046.99-1.4 1.736-.336.728-.579 1.605-.728 2.632a25.732 25.732 0 00-.196 3.304zm22.313 7.924c.504.075.999.187 1.484.336.504.13.952.29 1.344.476V20h-9.324v-1.064a6.058 6.058 0 011.12-.504c.411-.13.803-.233 1.176-.308V2.276a8.502 8.502 0 01-1.232-.308 7.021 7.021 0 01-1.064-.504V.4h3.528c.747 0 1.596-.037 2.548-.112a34.918 34.918 0 012.66-.112c.989 0 1.951.103 2.884.308.952.187 1.792.513 2.52.98a5.234 5.234 0 011.792 1.876c.448.765.672 1.727.672 2.884 0 1.101-.224 2.053-.672 2.856a5.749 5.749 0 01-1.736 1.988c-.728.523-1.568.915-2.52 1.176-.952.243-1.932.364-2.94.364h-1.12a8.074 8.074 0 00-.672-.028 4.727 4.727 0 01-.448-.056v5.6zm1.512-16.128c-.373 0-.672.019-.896.056a3.564 3.564 0 00-.616.112v8.512c.168.056.42.093.756.112h.812c.504 0 .989-.084 1.456-.252.467-.168.877-.43 1.232-.784.373-.355.672-.812.896-1.372.224-.56.336-1.232.336-2.016 0-1.493-.364-2.595-1.092-3.304-.728-.71-1.689-1.064-2.884-1.064zM151.621.4h7.504v1.064a5.384 5.384 0 01-1.092.532c-.41.13-.784.224-1.12.28l-5.32 6.748c.43.597.934 1.279 1.512 2.044.579.747 1.195 1.53 1.848 2.352.654.803 1.326 1.624 2.016 2.464.691.821 1.363 1.605 2.016 2.352l1.344.812V20h-4.872l-1.12-.784a75.108 75.108 0 01-1.428-1.848c-.485-.69-.97-1.4-1.456-2.128a154.98 154.98 0 01-1.428-2.24 77.921 77.921 0 01-1.316-2.184h-1.204v7.308c.411.075.784.187 1.12.336.336.15.626.308.868.476V20h-8.484v-1.064a8.793 8.793 0 011.148-.476c.392-.15.775-.261 1.148-.336V2.276a5.925 5.925 0 01-1.26-.308 5.96 5.96 0 01-1.036-.504V.4h8.484v1.064c-.242.15-.541.299-.896.448-.336.15-.7.27-1.092.364v7.112l1.652-.392 4.508-6.72a6.411 6.411 0 01-1.12-.336 14.048 14.048 0 01-.924-.476V.4zM167.244 20h-6.916v-1.064a5.68 5.68 0 01.952-.476c.355-.15.7-.261 1.036-.336L169.54.064h2.072l7.028 18.06a6.39 6.39 0 011.12.336c.373.13.7.29.98.476V20h-8.764v-1.064c.355-.168.737-.327 1.148-.476.411-.15.803-.261 1.176-.336l-1.624-4.452h-6.216l-1.652 4.452a6.707 6.707 0 012.436.812V20zm-.112-8.148h4.956l-1.82-5.348-.532-2.408h-.056l-.616 2.464-1.932 5.292z"/></svg><svg fill="none" viewBox="0 0 76 76" id="phone" xmlns="http://www.w3.org/2000/svg"><path d="M38 0C17.013 0 0 17.013 0 38s17.013 38 38 38 38-17.013 38-38S58.987 0 38 0z" fill="#353E60"/><path d="M32.143 29.701l-5.439-5.441a1.54 1.54 0 012.176-2.177l5.439 5.442a1.54 1.54 0 01-2.176 2.177zM51.721 49.291l-5.438-5.441a1.54 1.54 0 012.175-2.177l5.439 5.441a1.54 1.54 0 01-2.176 2.177z" fill="#F25929"/><path d="M54.36 46.652l-5.44-5.44c-.828-.83-2.272-.83-3.1 0l-3.57 3.571a.877.877 0 01-1.008.176c-4.466-2.308-7.9-5.744-10.207-10.213a.876.876 0 01.175-1.008l3.57-3.573a2.196 2.196 0 000-3.102l-5.438-5.44c-.828-.83-2.272-.83-3.1 0l-3.23 3.231c-2.23 2.23-2.654 5.647-1.033 8.309 5.238 8.6 12.251 15.618 20.846 20.857 1.08.66 2.284.98 3.483.98a6.812 6.812 0 004.82-2.013l3.23-3.23.002-.002a2.2 2.2 0 000-3.103zm-6.364-4.516l5.438 5.441a.886.886 0 01-1.251 1.252l-5.439-5.442a.887.887 0 010-1.251.905.905 0 011.252 0zm-19.579-19.59l5.439 5.441a.886.886 0 010 1.252.887.887 0 01-1.252 0l-5.438-5.441a.887.887 0 010-1.252.905.905 0 011.251 0zm21.786 29.516c-1.8 1.803-4.555 2.147-6.699.84-8.414-5.13-15.28-12-20.41-20.42-1.306-2.145-.96-4.901.841-6.704l1.816-1.816c.106.277.268.538.49.76l5.44 5.442c.222.223.482.385.759.491l-2.154 2.157a2.169 2.169 0 00-.413 2.534c2.434 4.715 6.057 8.34 10.77 10.776.31.16.645.238.979.238.565 0 1.126-.225 1.553-.651l2.155-2.157c.107.277.268.537.491.76l5.439 5.442c.223.223.483.385.76.491l-1.817 1.817z" fill="#fff"/></svg><svg fill="none" viewBox="0 0 76 76" id="reward" xmlns="http://www.w3.org/2000/svg"><path d="M38 0C17.013 0 0 17.013 0 38s17.013 38 38 38 38-17.013 38-38S58.987 0 38 0z" fill="#353E60"/><path d="M54.154 35.453c0-1.092-.73-2.147-1.994-2.926.716-1.12.91-2.246.525-3.173-.419-1.01-1.499-1.705-2.963-1.941.231-1.307-.02-2.421-.732-3.131-.676-.675-1.739-.938-2.982-.753-.326-1.12-.957-1.933-1.79-2.277-.968-.404-2.18-.163-3.35.631-.564-.775-1.596-1.883-2.88-1.883-1.154 0-2.206 1.08-2.816 1.862-.94-.685-2.276-1.05-3.336-.61-.945.39-1.58 1.365-1.828 2.783-1.37-.28-2.564-.035-3.299.698-.645.645-.913 1.617-.778 2.787-1.218.306-2.098.955-2.462 1.835-.385.928-.192 2.052.525 3.173C22.731 33.305 22 34.36 22 35.453c0 1.003.61 1.968 1.7 2.73-.868 1.201-1.139 2.455-.72 3.465.384.928 1.317 1.586 2.616 1.872-.342 1.444-.112 2.706.66 3.477.783.782 1.59.921 3.052.742v7.318A2.948 2.948 0 0032.252 58c.617 0 1.21-.19 1.711-.549l3.253-2.322a1.48 1.48 0 011.722 0l3.252 2.322a2.928 2.928 0 001.712.549 2.948 2.948 0 002.944-2.944V48.24c.73.08 1.994-.188 2.598-.791.968-.967.949-2.508.564-3.83 1.334-.177 2.664-.756 3.167-1.972.418-1.009.147-2.263-.72-3.465 1.09-.761 1.699-1.726 1.699-2.73zM43.902 56.538c-.311 0-.609-.095-.862-.276l-3.25-2.322a2.941 2.941 0 00-3.424 0l-3.252 2.322a1.485 1.485 0 01-2.345-1.206v-5.062c0 .408.676.739 1.156.937.96.396 2.16.164 3.322-.62.771 1.168 1.79 1.843 2.83 1.843s2.059-.675 2.83-1.843c1.162.784 2.361 1.017 3.322.621.453-.187 1.156-.516 1.156-.95v5.075c0 .816-.665 1.481-1.483 1.481zm6.916-18.045c.864.923 1.268 1.966 1.007 2.596-.284.685-1.448 1.155-2.833 1.129l-1.16-.018.485 1.054c.511 1.11.708 2.55.095 3.162-.465.465-1.505.51-2.654.11l-.911-.315-.057.963c-.073 1.21-.511 2.155-1.119 2.407-.61.253-1.588-.107-2.495-.912l-.721-.64-.421.868c-.53 1.09-1.299 1.795-1.957 1.795-.658 0-1.426-.705-1.956-1.795l-.42-.868-.722.64c-.906.806-1.885 1.164-2.495.912-.8-.332-1.172-1.74-1.124-2.958l.047-1.16-1.066.46c-1.27.55-2.524.564-3.05.04-.49-.49-.515-1.582-.064-2.783l.34-.904-.963-.08c-1.16-.097-2.03-.522-2.274-1.108-.26-.63.144-1.673 1.008-2.596l.66-.706-.86-.443c-1.034-.532-1.677-1.257-1.677-1.89 0-.692.756-1.483 1.926-2.014l.88-.4-.623-.738c-.752-.887-1.067-1.802-.825-2.388.227-.546.993-.952 2.05-1.085l.813-.102-.194-.796c-.234-.961-.139-1.771.255-2.164.464-.463 1.506-.51 2.654-.111l.912.315.056-.962c.077-1.29.453-2.168 1.03-2.406.633-.264 1.783.142 2.32.819l.643.808.55-.875c.478-.763 1.47-1.892 2.08-1.892.788 0 1.727 1.239 2.06 1.84l.44.797.683-.6c.904-.796 1.884-1.15 2.488-.897.52.214.92.926 1.07 1.902l.127.81.79-.218c1.027-.281 1.893-.2 2.312.219.448.45.508 1.415.155 2.521l-.294.92.966.033c1.263.043 2.29.495 2.55 1.125.243.586-.073 1.5-.823 2.389l-.624.737.88.4c1.169.532 1.924 1.322 1.924 2.014 0 .633-.642 1.358-1.675 1.89l-.86.443.66.706z" fill="#fff"/><path d="M34.692 39.82c0 .312-.327.565-.73.565H32.5c-.403 0-.73-.253-.73-.565v-5.64c0-.312.327-.565.73-.565h1.462c.403 0 .73.253.73.564v5.641zM40.857 32.816c-.324 0-.588-.283-.588-.631v-2.523c0-1.04-.782-1.884-1.75-1.893-.328-.002-.601.278-.601.631v2.875c0 .543-.324 1.025-.805 1.197l-.557.2a.628.628 0 00-.402.598v6.484c0 .348.263.63.588.63h4.115c1.949 0 3.528-1.694 3.528-3.784v-2.523c0-.697-.526-1.261-1.176-1.261h-2.352z" fill="#F25929"/></svg><svg viewBox="0 0 36 36" id="vk" xmlns="http://www.w3.org/2000/svg"><rect width="36" height="36" rx="4"/><path fill-rule="evenodd" clip-rule="evenodd" d="M18.795 23.838s.38-.041.576-.247c.179-.189.173-.545.173-.545s-.024-1.662.762-1.907c.775-.241 1.77 1.607 2.825 2.318.798.537 1.403.42 1.403.42l2.821-.039s1.475-.09.776-1.228c-.058-.093-.408-.842-2.097-2.382-1.77-1.61-1.532-1.35.598-4.138 1.297-1.697 1.816-2.733 1.654-3.176-.154-.424-1.109-.312-1.109-.312l-3.175.02s-.236-.032-.41.07c-.17.101-.281.335-.281.335s-.502 1.313-1.173 2.43c-1.414 2.357-1.979 2.482-2.21 2.336-.538-.342-.404-1.371-.404-2.102 0-2.285.353-3.237-.687-3.483-.345-.082-.6-.136-1.482-.145-1.134-.011-2.092.004-2.635.265-.362.173-.64.56-.47.583.21.027.684.125.937.462.325.435.314 1.41.314 1.41s.187 2.69-.438 3.023c-.427.23-1.014-.238-2.275-2.377-.646-1.095-1.133-2.306-1.133-2.306s-.094-.226-.263-.347c-.203-.147-.487-.193-.487-.193l-3.018.02s-.453.011-.62.205c-.147.172-.01.527-.01.527s2.362 5.426 5.037 8.16c2.454 2.507 5.238 2.343 5.238 2.343h1.263z" fill="#2B2F3E"/></svg></svg>