<svg version="1" xmlns="http://www.w3.org/2000/svg" width="74.318" height="23.041" viewBox="0 0 74.318 23.041" fill="#fff"><path d="M0 1.46C0 .747.585.163 1.266.163h7.24c5.13 0 8.507 2.726 8.507 7.205v.064c0 4.901-4.091 7.431-8.928 7.431h-5.52v6.881c0 .714-.584 1.297-1.299 1.297-.681 0-1.266-.583-1.266-1.297V1.46zm8.182 11.067c3.767 0 6.234-2.012 6.234-4.998v-.065c0-3.245-2.435-4.932-6.104-4.932H2.565v9.995h5.617zM22.448 1.298c0-.714.584-1.298 1.266-1.298.714 0 1.299.584 1.299 1.298v20.446c0 .714-.584 1.297-1.299 1.297-.682 0-1.267-.583-1.267-1.297V1.298zm8.69.032c0-.68.584-1.265 1.266-1.265h.357c.584 0 .942.292 1.299.747L47.859 18.4V1.266c0-.682.553-1.266 1.266-1.266.682 0 1.234.584 1.234 1.266v20.51c0 .682-.487 1.2-1.17 1.2h-.129c-.552 0-.941-.324-1.332-.778L33.638 4.187v17.589c0 .682-.552 1.265-1.267 1.265-.682 0-1.233-.583-1.233-1.265V1.33zm24.901-.032c0-.714.584-1.298 1.265-1.298.715 0 1.3.584 1.3 1.298v12.429L71.558.455c.291-.26.584-.455 1.007-.455.682 0 1.233.617 1.233 1.266 0 .357-.163.649-.422.909l-8.053 7.983 8.637 10.645c.228.292.357.553.357.941 0 .681-.584 1.297-1.299 1.297-.486 0-.812-.259-1.039-.583L63.505 11.91l-4.901 4.9v4.934c0 .714-.585 1.297-1.3 1.297-.682 0-1.266-.583-1.266-1.297V1.298z"/></svg>