<svg version="1" xmlns="http://www.w3.org/2000/svg" fill="#dedede" width="260.644" height="301.835" viewBox="0 0 260.644 301.835"><path d="M256.317 138.176a129.817 129.817 0 0 0-24.729-48.707l7.494-7.49c5.312-5.314 5.312-13.931 0-19.241-2.916-2.921-6.805-4.072-10.609-3.789-3.144.223-6.249 1.396-8.629 3.789l-7.489 7.487c-7.944-6.433-16.688-11.854-26.007-16.292-8.412-3.985-17.275-7.167-26.535-9.332-.078-.014-.179-.014-.271-.032-4.013-.933-8.052-1.736-12.213-2.286v-8.256h6.017c9.392 0 17.009-7.618 17.009-17.032 0-9.38-7.617-16.994-17.009-16.994h-47.084c-1.499 0-2.936.253-4.339.609 0 0-.008.025-.017.025-7.282 1.926-12.65 8.497-12.65 16.359 0 9.414 7.618 17.032 17.006 17.032h7.052v8.256C69.505 47.997 32.655 75.514 13.73 113.52c-3.778 7.572-6.903 15.521-9.144 23.823A129.528 129.528 0 0 0 0 171.507c0 56.342 35.818 104.221 85.912 122.402 13.882 5.016 28.796 7.926 44.408 7.926 6.503 0 12.889-.489 19.112-1.429.667-.084 1.299-.281 1.97-.394 18.337-3.002 35.447-9.771 50.375-19.585 20.617-13.554 37.065-32.768 47.302-55.442 7.367-16.356 11.564-34.396 11.564-53.479a130.032 130.032 0 0 0-4.326-33.33zm-57.908 101.426c-12.415 12.411-27.622 20.884-44.204 25.133-5.686 1.422-11.595 2.194-17.552 2.594-.85.053-1.645.201-2.488.211-1.29.063-2.551.261-3.845.261-3.537 0-7.053-.228-10.525-.603-21.743-2.358-41.883-11.903-57.572-27.596-18.188-18.187-28.214-42.38-28.214-68.095 0-2.036.174-4.021.292-6.032 1.452-23.453 11.165-45.325 27.922-62.071 2.084-2.075 4.265-4.021 6.491-5.892l.014-.013c17.273-14.413 38.815-22.303 61.593-22.303 4.161 0 8.256.285 12.29.812a96.146 96.146 0 0 1 35.635 12.034c.119.072.25.162.358.244 7.128 4.15 13.816 9.138 19.806 15.116 1.407 1.417 2.684 2.916 3.979 4.4.047.046.09.104.146.16 2.646 3.015 5.011 6.248 7.252 9.523 1.426 2.136 2.855 4.28 4.106 6.499a95.238 95.238 0 0 1 12.582 44.668c.034.952.134 1.878.134 2.853-.001 25.717-10.01 49.91-28.2 68.097z"/></svg>