<svg version="1.1" id="Capa_1" xmlns="http://www.w3.org/2000/svg" xmlns:xlink="http://www.w3.org/1999/xlink" x="0px" y="0px"
	 viewBox="0 0 436.4 117.3" style="enable-background:new 0 0 436.4 117.3;" xml:space="preserve">
<g>
	<g>
		<path d="M147,11.1c-1.6,0-2.4,0.7-2.4,2.2V17c-1-1.7-2.5-3.1-4.4-4.1c-1.9-1-3.9-1.5-5.9-1.5c-5.1,0-9.2,2-12.2,6.1
			c-2.7,3.7-4.1,8.1-4.1,13.4c0,5.3,1.4,9.8,4.1,13.5c3,4.1,7.1,6.2,12.2,6.2c2.1,0,4.1-0.4,6-1.3c2.1-1,3.6-2.4,4.4-4.2
			c0,10-3.5,14.9-10.4,14.9c-2.4,0-4.7-0.5-7-1.5c-1.5-0.8-3-1.6-4.5-2.4c-0.5-0.3-1-0.4-1.5-0.4c-1.4,0-2.1,0.8-2.1,2.3
			c0,1,0.4,1.9,1.2,2.6c3.4,2.9,7.9,4.4,13.5,4.4c4.9,0,8.7-1.5,11.5-4.4c2.8-2.9,4.2-6.8,4.2-11.7V13.5
			C149.5,11.9,148.7,11.1,147,11.1z M142.1,41.4c-2,3.2-4.6,4.8-7.9,4.8c-3.3,0-5.9-1.6-7.9-4.9c-1.8-2.9-2.7-6.4-2.7-10.6
			c0-4.1,0.9-7.5,2.6-10.3c2-3.1,4.6-4.6,8-4.6c3.4,0,6,1.6,8,4.7c1.7,2.8,2.6,6.3,2.6,10.4C144.8,35,143.9,38.5,142.1,41.4z"/>
		<path d="M168.6,11.3c-2.7,0-5.6,2.5-8.7,7.4v-4.8c0-1.8-0.8-2.7-2.4-2.7c-1.7,0-2.5,0.9-2.5,2.8v33.1c0,1.7,0.8,2.5,2.5,2.5
			c1.6,0,2.4-0.8,2.4-2.5V29.6c0-3.9,1.1-6.9,3.2-8.9c1-0.9,3-1.9,5.8-3c2.1-0.8,3.2-1.8,3.2-2.9c0-1-0.3-1.9-1-2.6
			C170.5,11.6,169.6,11.3,168.6,11.3z"/>
		<path d="M201.4,11.1c-1.7,0-2.6,1.1-2.6,3.2c0,1.5,0,2.5,0,3.2c-0.9-1.7-2.4-3.2-4.5-4.4c-2.1-1.2-4.2-1.7-6.4-1.7
			c-4.8,0-8.6,2.2-11.5,6.5c-2.6,3.9-3.9,8.6-3.9,14.1c0,5.1,1.2,9.4,3.6,12.9c2.7,3.8,6.3,5.8,11,5.8c2.8,0,5-0.3,6.6-0.9
			c2-0.7,3.7-2.1,5.3-4c0,0.6,0,1.6,0.1,2.9c0,1.3,0.9,1.9,2.5,1.9c1.6,0,2.4-0.7,2.4-2V14.1C203.9,12.1,203.1,11.1,201.4,11.1z
			 M196.1,41.6c-2.1,3.2-4.8,4.8-8.2,4.8c-3.1,0-5.6-1.6-7.5-4.7c-1.6-2.8-2.5-6.3-2.5-10.3c0-4.1,0.8-7.5,2.5-10.3
			c1.9-3.1,4.4-4.6,7.5-4.6c3.5,0,6.3,1.5,8.3,4.6c1.8,2.7,2.7,6.1,2.7,10.1C198.9,35.1,197.9,38.7,196.1,41.6z"/>
		<path d="M224.9,11.3c-3.7,0-7.2,2.1-10.5,6.4V14c0-1.8-0.8-2.8-2.5-2.8c-1.7,0-2.5,0.8-2.5,2.5v48.9c0,1.7,0.8,2.5,2.4,2.5
			c1.7,0,2.6-0.8,2.6-2.5V45.2c3.2,3.6,6.7,5.4,10.5,5.4c5.2,0,9.3-2,12.2-6c2.7-3.6,4-8.1,4-13.4c0-5.4-1.4-10-4.1-13.8
			C234,13.3,229.9,11.3,224.9,11.3z M232.6,41.5c-1.9,3.2-4.5,4.8-7.7,4.8c-3.3,0-5.9-1.6-7.8-4.9c-1.8-2.9-2.7-6.4-2.7-10.6
			c0-4.1,0.9-7.6,2.6-10.3c1.9-3.1,4.5-4.7,7.9-4.7c3.3,0,5.9,1.6,7.8,4.8c1.7,2.8,2.5,6.3,2.5,10.4
			C235.2,35.1,234.3,38.6,232.6,41.5z"/>
		<path d="M269.9,14.7c-2.5-2.2-5.4-3.3-8.8-3.3c-4.3,0-7.7,1.7-10.3,5.1V2.6c0-1.7-0.8-2.6-2.5-2.6c-1.6,0-2.4,0.9-2.4,2.6v44.7
			c0,1.7,0.8,2.5,2.4,2.5c1.7,0,2.5-0.8,2.5-2.5v-21c0-3.2,1-5.8,2.9-7.7c1.7-1.7,3.8-2.5,6.3-2.5c2.5,0,4.5,0.8,6.2,2.5
			c1.9,1.9,2.8,4.4,2.8,7.7v21c0,1.6,0.8,2.5,2.4,2.5c1.7,0,2.5-0.8,2.5-2.5V24.1C273.9,20.3,272.6,17.2,269.9,14.7z"/>
		<path d="M282.6,0c-2.3,0-3.4,1.1-3.4,3.2c0,0.9,0.3,1.8,0.9,2.5c0.6,0.7,1.4,1.1,2.4,1.1c2.4,0,3.6-1.1,3.6-3.2
			c0-0.9-0.3-1.8-1-2.5C284.5,0.4,283.7,0,282.6,0z"/>
		<path d="M282.6,11.3c-1.6,0-2.4,0.8-2.4,2.5v33.4c0,1.7,0.8,2.5,2.5,2.5c1.7,0,2.5-0.8,2.5-2.5V13.8
			C285.1,12.1,284.3,11.3,282.6,11.3z"/>
		<path d="M307.9,16.6c1.4,0,2.8,0.4,4.1,1.2c1.4,0.8,2.2,1.2,2.6,1.2c0.8,0,1.5-0.3,2-0.8c0.5-0.6,0.8-1.2,0.8-1.9
			c0-0.9-0.4-1.7-1.1-2.3c-0.9-0.8-2.3-1.5-4.1-1.9c-1.5-0.4-2.9-0.6-4-0.6c-5.3,0-9.5,2.1-12.7,6.2c-2.9,3.8-4.3,8.3-4.3,13.6
			s1.4,9.8,4.2,13.4c3.2,4.1,7.5,6.1,12.9,6.1c3.4,0,5.9-0.7,7.6-2.1c0.8-0.7,1.3-1.6,1.3-2.5c0-1.6-0.8-2.3-2.5-2.3
			c-0.3,0-1.3,0.3-3,0.8c-1.7,0.6-3.1,0.8-4.2,0.8c-3.5,0-6.3-1.4-8.3-4.3c-1.8-2.5-2.7-5.7-2.7-9.5c0-4,1-7.4,2.9-10.2
			C301.6,18.1,304.4,16.6,307.9,16.6z"/>
		<path d="M334.1,11.3c-2.7,0-5.6,2.5-8.7,7.4v-4.8c0-1.8-0.8-2.7-2.4-2.7c-1.7,0-2.5,0.9-2.5,2.8v33.1c0,1.7,0.8,2.5,2.5,2.5
			c1.6,0,2.4-0.8,2.4-2.5V29.6c0-3.9,1.1-6.9,3.2-8.9c1-0.9,3-1.9,5.8-3c2.1-0.8,3.2-1.8,3.2-2.9c0-1-0.3-1.9-1-2.6
			C336,11.6,335.1,11.3,334.1,11.3z"/>
		<path d="M344.8,0c-2.3,0-3.4,1.1-3.4,3.2c0,0.9,0.3,1.8,0.9,2.5c0.6,0.7,1.4,1.1,2.5,1.1c2.4,0,3.6-1.1,3.6-3.2
			c0-0.9-0.3-1.8-1-2.5C346.7,0.4,345.9,0,344.8,0z"/>
		<path d="M344.8,11.3c-1.6,0-2.4,0.8-2.4,2.5v33.4c0,1.7,0.8,2.5,2.5,2.5c1.7,0,2.5-0.8,2.5-2.5V13.8
			C347.3,12.1,346.5,11.3,344.8,11.3z"/>
		<path d="M378.9,12.5c-1.3,0-2.3,1-3,2.9l-8.9,26l-8.5-25.9c-0.6-2-1.6-2.9-3-2.9c-1.4,0-2.1,0.8-2.1,2.3c0,0.4,0.1,0.8,0.2,1.2
			l10.7,31.8c0.5,1.4,1.4,2.1,2.7,2.1c1.5,0,2.5-0.7,2.9-2.1l10.9-31.8c0.1-0.4,0.2-0.7,0.2-1.1C381.1,13.2,380.3,12.5,378.9,12.5z"
			/>
		<path d="M414.9,28c0-5.1-1.4-9.2-4.2-12.2c-2.8-3-6.5-4.5-11.3-4.5c-5.1,0-9.1,2.1-12.1,6.2c-2.8,3.7-4.2,8.2-4.2,13.5
			c0,5.4,1.4,9.9,4.2,13.5c3.2,4.1,7.6,6.2,13.1,6.2c6,0,10.6-2,13.7-6c0.3-0.4,0.5-0.8,0.5-1.3c0-0.6-0.2-1.2-0.7-1.7
			c-0.5-0.5-1.1-0.8-1.7-0.8c-0.5,0-1.4,0.5-2.6,1.5c-1.7,1.3-2.9,2.2-3.8,2.6c-1.7,1-3.5,1.5-5.4,1.5c-3,0-5.7-1.3-8.1-4
			c-2.4-2.7-3.5-5.6-3.5-8.8h24.3C414.3,33.4,414.9,31.6,414.9,28z M388.8,28.4c0.1-3.9,1.2-7,3.4-9.3c2-2.1,4.4-3.1,7.3-3.1
			c2.8,0,5.2,1,7.1,3.1c2.1,2.3,3.2,5.4,3.2,9.3H388.8z"/>
		<path d="M435.3,12.3c-0.7-0.7-1.5-1-2.5-1c-2.7,0-5.6,2.5-8.7,7.4v-4.8c0-1.8-0.8-2.7-2.4-2.7c-1.7,0-2.5,0.9-2.5,2.8v33.1
			c0,1.7,0.8,2.5,2.5,2.5c1.6,0,2.4-0.8,2.4-2.5V29.6c0-3.9,1.1-6.9,3.2-8.9c1-0.9,3-1.9,5.8-3c2.1-0.8,3.2-1.8,3.2-2.9
			C436.3,13.8,436,12.9,435.3,12.3z"/>
		<path d="M91.1,8.8L91,8.7c0.1,6.4,1.1,35.2,8.5,18.9C99.5,27.6,94,34.2,91.1,8.8z"/>
		<path d="M99.5,2.1H38.8c-2.7,0-4.9,2.2-4.9,4.9v60.6c0,1,0.3,2,0.9,2.8c-3,1.7-6.3,2.6-9.8,2.6h0c-5.8,0-12.7-2-21.7-6.3l-3.1-1.5
			L0,68.6c0,0.3-0.3,7.9,5.5,14c5.1,5.4,13.2,7.9,24.1,7.4c-0.1,5.3,0.6,17.4,7.5,25.3l1.7,1.9l1.7-1.9c0.3-0.3,6.7-7.8,12.1-33
			c5.4-2.2,19.1-9.8,19.1-9.8h27.7c2.7,0,4.9-2.2,4.9-4.9V7C104.4,4.3,102.2,2.1,99.5,2.1z M60.2,10.9l12.4-1.2
			c-6.8,6.5-13.6,23.2-13.6,23.2L58.8,32l-0.1-0.3l0-0.3l-0.5-4L57.6,23l-0.1-0.5l0.1-0.4l0.5-3.9l-0.4-3.5l-0.4-3L60.2,10.9z
			 M102.7,30.5c-2,1.6-5.4,5.8-6.4,8.7c-9,25.3-46,39.2-46.4,39.4l-1.2,0.4l-0.3,1.2c-3.5,17-7.5,25.8-9.7,29.6
			c-5.6-8.9-4.5-21.9-4.5-22.1l0.2-2.7l-2.7,0.2c-10.6,0.9-18.4-1-22.9-5.8c-2.2-2.3-3.3-4.9-3.8-7c7.9,3.4,14.3,5.1,19.9,5.1h0
			c14.2,0,24-10.2,32.8-34.1c1.5-4.2,3.4-8.3,5.5-12.2c0,0,12.1-27.1,24.4-27.8c5.1-0.2,6.6,0.3,6.6,0.3c5.2,0.8,8.5,4.1,8.5,9.1
			L102.7,30.5z"/>
	</g>
</g>
</svg>
