<svg version="1.1" id="Capa_1" xmlns="http://www.w3.org/2000/svg" xmlns:xlink="http://www.w3.org/1999/xlink" x="0px" y="0px"
	 viewBox="0 0 433.3 79.8" style="enable-background:new 0 0 433.3 79.8;" xml:space="preserve">
<g>
	<g>
		<path d="M109.4,23.3c-1.7,0-2.8,0-3.3,0V13.1c0-1.7-0.8-2.5-2.5-2.5c-1.7,0-2.5,0.8-2.5,2.5v10.2h-3.5c-1.5,0-2.3,0.7-2.3,2.2
			c0,1.5,0.8,2.3,2.4,2.3h3.4v30.2c0,1.7,0.8,2.5,2.4,2.5c1.7,0,2.6-0.8,2.6-2.5V27.8h3.4c1.7,0,2.5-0.7,2.5-2.2
			S111.2,23.3,109.4,23.3z"/>
		<path d="M140.5,25.4c-2.5-2.2-5.4-3.4-8.8-3.4c-4.3,0-7.7,1.7-10.3,5.1V13.2c0-1.7-0.8-2.6-2.5-2.6c-1.6,0-2.4,0.9-2.4,2.6v44.7
			c0,1.7,0.8,2.5,2.4,2.5c1.7,0,2.5-0.8,2.5-2.5v-21c0-3.2,1-5.8,2.9-7.7c1.7-1.7,3.8-2.5,6.3-2.5c2.5,0,4.5,0.8,6.2,2.5
			c1.9,1.9,2.8,4.4,2.8,7.7v21c0,1.7,0.8,2.5,2.4,2.5c1.6,0,2.5-0.8,2.5-2.5V34.7C144.5,30.9,143.1,27.8,140.5,25.4z"/>
		<path d="M181.4,38.6c0-5.1-1.4-9.2-4.2-12.2c-2.8-3-6.5-4.5-11.3-4.5c-5.1,0-9.1,2.1-12.1,6.2c-2.8,3.7-4.2,8.2-4.2,13.5
			c0,5.4,1.4,9.9,4.2,13.5c3.2,4.1,7.6,6.2,13.1,6.2c6,0,10.6-2,13.7-6c0.3-0.4,0.5-0.8,0.5-1.3c0-0.6-0.2-1.2-0.7-1.7
			c-0.5-0.5-1.1-0.8-1.7-0.8c-0.5,0-1.4,0.5-2.6,1.5c-1.7,1.3-2.9,2.2-3.8,2.6c-1.7,1-3.5,1.5-5.4,1.5c-3,0-5.7-1.3-8.1-4
			c-2.4-2.7-3.5-5.6-3.5-8.8h24.3C180.8,44.1,181.4,42.2,181.4,38.6z M155.3,39c0.1-3.9,1.2-7,3.4-9.3c2-2.1,4.4-3.1,7.3-3.1
			c2.8,0,5.2,1,7.1,3.1c2.1,2.3,3.2,5.4,3.2,9.3H155.3z"/>
		<path d="M231,25c-2.4-2.1-5.3-3.2-8.7-3.2c-5.1,0-9,2.1-11.8,6.4c-2.3-4.3-5.7-6.4-10.1-6.4c-4,0-7.2,1.8-9.8,5.3v-2.4
			c0-1.9-0.8-2.9-2.4-2.9c-1.6,0-2.4,1-2.4,2.9v33c0,1.7,0.8,2.5,2.5,2.5c1.6,0,2.4-0.8,2.4-2.5V37.6c0-3.2,1-5.8,2.9-7.8
			c1.8-1.7,3.9-2.6,6.4-2.6c2.1,0,4,0.7,5.4,2.2c1.6,1.6,2.4,3.8,2.4,6.6v21.9c0,1.7,0.8,2.5,2.5,2.5c1.6,0,2.4-0.8,2.4-2.5V37.7
			c0-3.3,1-5.9,3-7.8c1.8-1.8,3.9-2.7,6.4-2.7c2.1,0,3.9,0.7,5.4,2.2c1.6,1.6,2.4,3.8,2.4,6.6v21.9c0,1.6,0.8,2.4,2.5,2.4
			c1.7,0,2.5-0.8,2.5-2.4V33.8C234.8,30.2,233.6,27.3,231,25z"/>
		<path d="M271.8,38.6c0-5.1-1.4-9.2-4.2-12.2c-2.8-3-6.5-4.5-11.3-4.5c-5.1,0-9.1,2.1-12.1,6.2c-2.8,3.7-4.2,8.2-4.2,13.5
			c0,5.4,1.4,9.9,4.2,13.5c3.2,4.1,7.6,6.2,13.1,6.2c6,0,10.6-2,13.7-6c0.3-0.4,0.5-0.8,0.5-1.3c0-0.6-0.2-1.2-0.7-1.7
			c-0.5-0.5-1.1-0.8-1.7-0.8c-0.5,0-1.4,0.5-2.6,1.5c-1.7,1.3-2.9,2.2-3.8,2.6c-1.7,1-3.5,1.5-5.4,1.5c-3.1,0-5.7-1.3-8.1-4
			c-2.4-2.7-3.5-5.6-3.5-8.8H270C271.2,44.1,271.8,42.2,271.8,38.6z M245.7,39c0.1-3.9,1.2-7,3.4-9.3c2-2.1,4.4-3.1,7.3-3.1
			c2.8,0,5.2,1,7.1,3.1c2.2,2.3,3.2,5.4,3.2,9.3H245.7z"/>
		<path d="M289.5,10.6h-4.4c-3.6,0-5.4,2.1-5.4,6.2v6.4h-3.2c-1.8,0-2.7,0.9-2.7,2.6c0,1.6,0.9,2.4,2.7,2.4h3.2v29.8
			c0,1.7,0.8,2.5,2.4,2.5c1.7,0,2.5-0.8,2.5-2.5V28.2h4.1c1.9,0,2.9-0.8,2.9-2.5c0-1.6-0.9-2.5-2.8-2.5c-2.1,0-3.6,0-4.3,0v-4.7
			c0-1.7,0.4-2.7,1.1-3.1c0.4-0.2,1.7-0.3,3.8-0.3c2,0,3-0.7,3-2.2C292.4,11.4,291.4,10.6,289.5,10.6z"/>
		<path d="M309.9,21.9c-5.1,0-9.2,2-12.2,6.1c-2.7,3.7-4,8.2-4,13.5c0,5.3,1.3,9.8,4,13.5c3,4.1,7.1,6.2,12.2,6.2
			c5.2,0,9.2-2,12.2-6c2.7-3.6,4-8,4-13.2c0-5.4-1.4-10-4.1-13.7C319,24,315,21.9,309.9,21.9z M317.9,52.3c-1.9,3-4.6,4.5-8,4.5
			c-3.3,0-5.9-1.7-7.9-5c-1.8-3-2.7-6.6-2.7-10.8c0-4,0.8-7.4,2.5-10.1c1.9-3,4.6-4.6,8-4.6c3.2,0,5.8,1.7,7.8,5
			c1.9,3.1,2.8,6.7,2.8,10.9C320.5,46.4,319.6,49.7,317.9,52.3z"/>
		<path d="M344.8,21.9c-2.7,0-5.6,2.5-8.7,7.4v-4.8c0-1.8-0.8-2.7-2.4-2.7c-1.7,0-2.5,0.9-2.5,2.8v33.1c0,1.7,0.8,2.5,2.5,2.5
			c1.6,0,2.4-0.8,2.4-2.5V40.2c0-3.9,1.1-6.9,3.2-8.9c1-0.9,3-1.9,5.8-3c2.1-0.8,3.2-1.8,3.2-2.9c0-1-0.4-1.9-1-2.5
			C346.6,22.2,345.8,21.9,344.8,21.9z"/>
		<path d="M380.5,38.6c0-5.1-1.4-9.2-4.2-12.2c-2.8-3-6.5-4.5-11.3-4.5c-5,0-9.1,2.1-12.1,6.2c-2.8,3.7-4.2,8.2-4.2,13.5
			c0,5.4,1.4,9.9,4.2,13.5c3.2,4.1,7.6,6.2,13.1,6.2c6,0,10.6-2,13.7-6c0.3-0.4,0.5-0.8,0.5-1.3c0-0.6-0.2-1.2-0.7-1.7
			c-0.5-0.5-1.1-0.8-1.7-0.8c-0.5,0-1.4,0.5-2.6,1.5c-1.7,1.3-2.9,2.2-3.8,2.6c-1.7,1-3.5,1.5-5.4,1.5c-3,0-5.7-1.3-8.1-4
			c-2.4-2.7-3.5-5.6-3.5-8.8h24.3C380,44.1,380.5,42.2,380.5,38.6z M354.5,39c0.1-3.9,1.2-7,3.4-9.3c2-2.1,4.4-3.1,7.3-3.1
			s5.2,1,7.1,3.1c2.1,2.3,3.2,5.4,3.2,9.3H354.5z"/>
		<path d="M406.8,41.3c-1-0.7-4.4-2.3-10.1-5c-3.6-1.7-5.4-3.2-5.4-4.6c0-3.2,1.7-4.8,5.2-4.8c3.6,0,7.2,1.2,10.8,3.5
			c0.5,0.3,1,0.5,1.5,0.5c1.4,0,2.1-0.9,2.1-2.6c0-0.9-0.4-1.7-1.1-2.3c-3.2-2.6-7.2-4-12-4c-3.4,0-6.2,0.8-8.4,2.4
			c-2.5,1.8-3.7,4.5-3.7,8c0,3.1,1.8,5.7,5.4,7.8c3.3,1.5,6.6,3,10,4.6c3.5,1.7,5.3,3.6,5.3,5.6c0,4-2.1,6-6.4,6
			c-2.1,0-4.3-0.5-6.5-1.4c-2.2-1-3.8-2-4.6-3.2c-0.5-0.7-1.1-1.1-1.7-1.1c-0.6,0-1.2,0.3-1.6,1c-0.5,0.6-0.7,1.4-0.7,2.2
			c0,0.8,0.2,1.5,0.7,2.1c3,3.5,7.4,5.3,13.1,5.3c3.8,0,6.9-0.9,9.5-2.8c2.8-2.1,4.2-5,4.2-8.7C412.3,46.5,410.4,43.7,406.8,41.3z"
			/>
		<path d="M430.7,23.3c-1.7,0-2.8,0-3.3,0V13.1c0-1.7-0.8-2.5-2.5-2.5c-1.7,0-2.5,0.8-2.5,2.5v10.2h-3.5c-1.5,0-2.3,0.7-2.3,2.2
			c0,1.5,0.8,2.3,2.4,2.3h3.4v30.2c0,1.7,0.8,2.5,2.4,2.5c1.7,0,2.6-0.8,2.6-2.5V27.8h3.4c1.7,0,2.5-0.7,2.5-2.2
			C433.3,24,432.4,23.3,430.7,23.3z"/>
		<path d="M85,42C84.9,42,84.9,42,85,42c-1.8-1.9-4.5-2.7-8.8-2.7c-1.6,0-3.7,0.1-5.7,0.3l0-34.7c0-2.7-2.2-4.9-4.9-4.9H4.9
			C2.2,0,0,2.2,0,4.9v60.6c0,2.7,2.2,4.9,4.9,4.9h16.3c0.3,0.5,0.7,1,1,1.5c4.3,5.2,11.8,7.9,22.3,7.9c8,0,16.3-1.5,21.8-2.5l2-0.4
			c6.7-1.2,10.3-2.6,12.6-5c1-0.4,2.2-1,2.7-2c0.3-0.5,0.3-1.1,0.1-1.7c-0.2-0.4-0.5-0.8-0.8-1.1c0.3-0.4,0.5-0.7,0.7-1.1
			c0.8-0.4,1.6-1,2-1.7c0.3-0.5,0.3-1.1,0.1-1.7c-0.2-0.6-0.6-1-1.2-1.3c0-0.3,0-0.7-0.1-1c0.1-0.2,0.2-0.4,0.3-0.6
			c1.2-0.4,3-1.3,3.6-2.6c0.3-0.6,0.4-1.4,0.1-2c-0.4-1.2-1.6-1.8-2.9-2.3c0-0.2,0.1-0.3,0.2-0.4c0.3-0.5,0.7-1,1-1.6
			c1.5-0.6,3.4-1.5,4.2-3.1c0.4-0.8,0.4-1.7,0.1-2.5C90.3,43,87.1,42.3,85,42z M83.7,50.8l-7.5,1.1l7.2,0.8c0.6,1.7,1,5-1.9,7.8
			c0,0,0,0.1,0.1,0.2l-5.9,0.8l6.3,0.6c0.1,1,0.1,2.3-0.6,3.5l-4.9,1.4l4-0.1c0,0.8-0.8,4.1-12.3,6.1c-13.1,2.3-50,10.3-44.2-18.6
			c5.7-28.8,36.5-41.4,42.8-41.4v27.8c-3.4,0.5-6.4,1.1-9.1,1.7c-2.9-0.4-10-1.2-13.6-0.1l8.3,1.4c-7.5,2.1-10.8,3.9-10.8,3.9
			c8.7-2.5,18.5-4,23.1-4.7c7.7-0.9,16.3-0.3,18,1.5C85.5,47.8,84.5,49.8,83.7,50.8z"/>
	</g>
</g>
</svg>
