<svg version="1.1" id="Capa_1" xmlns="http://www.w3.org/2000/svg" xmlns:xlink="http://www.w3.org/1999/xlink" x="0px" y="0px"
	 viewBox="0 0 363.8 86.9" style="enable-background:new 0 0 363.8 86.9;" xml:space="preserve">
<g>
	<g>
		<path d="M127.7,28.3c-1.3,0-2.3,1-3,2.9l-8.9,26l-8.5-25.9c-0.6-2-1.6-2.9-3-2.9c-1.4,0-2.1,0.8-2.1,2.3c0,0.4,0.1,0.8,0.2,1.2
			l10.7,31.8c0.5,1.4,1.4,2.1,2.7,2.1c1.5,0,2.5-0.7,2.9-2.1l10.9-31.8c0.1-0.4,0.2-0.7,0.2-1.1C129.9,29,129.2,28.3,127.7,28.3z"/>
		<path d="M137.8,27.1c-1.6,0-2.4,0.8-2.4,2.5V63c0,1.7,0.8,2.5,2.5,2.5c1.7,0,2.5-0.8,2.5-2.5V29.6
			C140.3,27.9,139.5,27.1,137.8,27.1z"/>
		<path d="M137.8,15.8c-2.3,0-3.4,1.1-3.4,3.2c0,0.9,0.3,1.8,0.9,2.5c0.6,0.7,1.4,1.1,2.4,1.1c2.4,0,3.6-1.1,3.6-3.2
			c0-0.9-0.3-1.8-1-2.5C139.7,16.2,138.9,15.8,137.8,15.8z"/>
		<path d="M175.4,15.8c-1.7,0-2.6,0.9-2.6,2.6v14.9c-3.3-4.2-6.9-6.2-10.9-6.2c-4.8,0-8.7,2.1-11.6,6.3c-2.6,3.8-3.9,8.4-3.9,13.8
			c0,5.2,1.3,9.7,3.8,13.3c2.9,4,6.8,6,11.7,6c4.9,0,8.6-1.8,10.9-5.5v3.1c0,1.6,0.9,2.3,2.6,2.3c1.6,0,2.4-0.8,2.4-2.3V18.4
			C177.9,16.7,177.1,15.8,175.4,15.8z M170.4,57c-2.1,3-4.9,4.6-8.4,4.6c-3.2,0-5.8-1.5-7.6-4.5c-1.7-2.7-2.5-6-2.5-9.9
			c0-4,0.9-7.4,2.6-10.3c1.9-3.1,4.4-4.7,7.6-4.7c3.5,0,6.3,1.5,8.4,4.6c1.9,2.8,2.8,6.2,2.8,10.2C173.2,50.9,172.3,54.2,170.4,57z"
			/>
		<path d="M215.2,43.8c0-5.1-1.4-9.2-4.2-12.2c-2.8-3-6.5-4.5-11.3-4.5c-5.1,0-9.1,2.1-12.1,6.2c-2.8,3.7-4.2,8.2-4.2,13.5
			c0,5.4,1.4,9.8,4.2,13.5c3.2,4.1,7.6,6.2,13.1,6.2c6,0,10.6-2,13.7-6c0.3-0.4,0.5-0.8,0.5-1.3c0-0.6-0.2-1.2-0.7-1.7
			c-0.5-0.5-1.1-0.8-1.8-0.8c-0.5,0-1.4,0.5-2.6,1.5c-1.7,1.3-2.9,2.2-3.8,2.6c-1.8,1-3.5,1.5-5.4,1.5c-3.1,0-5.7-1.3-8.1-4
			c-2.4-2.7-3.5-5.6-3.5-8.8h24.3C214.6,49.2,215.2,47.4,215.2,43.8z M189.1,44.1c0.1-3.9,1.2-7,3.4-9.3c2-2.1,4.4-3.1,7.3-3.1
			c2.8,0,5.2,1,7.1,3.1c2.2,2.3,3.2,5.4,3.2,9.3H189.1z"/>
		<path d="M235.7,27.1c-5.1,0-9.2,2-12.2,6.1c-2.7,3.7-4,8.2-4,13.5c0,5.3,1.4,9.8,4,13.5c3,4.1,7.1,6.2,12.2,6.2
			c5.2,0,9.3-2,12.2-6c2.7-3.6,4-8,4-13.2c0-5.4-1.4-10-4.1-13.7C244.8,29.2,240.7,27.1,235.7,27.1z M243.6,57.5
			c-1.9,3-4.6,4.5-8,4.5c-3.3,0-5.9-1.7-7.9-5c-1.8-3-2.7-6.6-2.7-10.8c0-4,0.9-7.4,2.5-10.1c1.9-3,4.6-4.6,8-4.6
			c3.2,0,5.8,1.7,7.8,5c1.9,3.1,2.8,6.7,2.8,10.9C246.3,51.5,245.4,54.8,243.6,57.5z"/>
		<path d="M281,30.5c-2.5-2.2-5.4-3.4-8.9-3.4c-4.3,0-7.7,1.7-10.3,5.1V18.4c0-1.8-0.8-2.6-2.5-2.6c-1.6,0-2.4,0.9-2.4,2.6v44.7
			c0,1.7,0.8,2.5,2.4,2.5c1.7,0,2.5-0.8,2.5-2.5v-21c0-3.2,1-5.8,2.9-7.7c1.8-1.7,3.9-2.5,6.3-2.5c2.5,0,4.5,0.8,6.2,2.5
			c1.9,1.9,2.8,4.4,2.8,7.7v21c0,1.7,0.8,2.5,2.4,2.5c1.7,0,2.5-0.8,2.5-2.5V39.9C285,36.1,283.7,33,281,30.5z"/>
		<path d="M293.6,15.8c-2.3,0-3.4,1.1-3.4,3.2c0,0.9,0.3,1.8,0.9,2.5c0.6,0.7,1.4,1.1,2.4,1.1c2.4,0,3.6-1.1,3.6-3.2
			c0-0.9-0.3-1.8-1-2.5C295.6,16.2,294.7,15.8,293.6,15.8z"/>
		<path d="M293.6,27.1c-1.6,0-2.5,0.8-2.5,2.5V63c0,1.7,0.8,2.5,2.5,2.5c1.7,0,2.5-0.8,2.5-2.5V29.6
			C296.2,27.9,295.3,27.1,293.6,27.1z"/>
		<path d="M327.7,28.3c-1.3,0-2.3,1-3,2.9l-8.9,26l-8.5-25.9c-0.6-2-1.6-2.9-3-2.9c-1.4,0-2.1,0.8-2.1,2.3c0,0.4,0.1,0.8,0.2,1.2
			l10.7,31.8c0.5,1.4,1.4,2.1,2.7,2.1c1.5,0,2.5-0.7,2.9-2.1l10.9-31.8c0.1-0.4,0.2-0.7,0.2-1.1C329.9,29,329.2,28.3,327.7,28.3z"/>
		<path d="M361.1,56.5c-0.5,0-1.4,0.5-2.6,1.5c-1.7,1.3-2.9,2.2-3.8,2.6c-1.7,1-3.5,1.5-5.4,1.5c-3.1,0-5.7-1.3-8.1-4
			c-2.4-2.7-3.5-5.6-3.5-8.8H362c1.2,0,1.8-1.8,1.8-5.4c0-5.1-1.4-9.2-4.2-12.2c-2.8-3-6.5-4.5-11.3-4.5c-5.1,0-9.1,2.1-12.1,6.2
			c-2.8,3.7-4.2,8.2-4.2,13.5c0,5.4,1.4,9.8,4.2,13.5c3.2,4.1,7.6,6.2,13.1,6.2c6,0,10.6-2,13.7-6c0.3-0.4,0.5-0.8,0.5-1.3
			c0-0.6-0.2-1.2-0.7-1.7C362.3,56.7,361.7,56.5,361.1,56.5z M341.1,34.8c2-2.1,4.4-3.1,7.3-3.1c2.8,0,5.2,1,7.1,3.1
			c2.2,2.3,3.2,5.4,3.2,9.3h-21C337.8,40.3,338.9,37.1,341.1,34.8z"/>
		<path d="M82.6,8.5h-1.7c-0.4-0.6-0.9-1.1-1.4-1.6c-2.4-2.4-5.5-3.7-8.8-3.7c-3.1,0-6.1,1.2-8.4,3.2c-1.5-1.4-3.2-2.6-5.2-3.7
			C52.3,0.2,47-0.7,43.2,0.5c-2.1,0.6-3.6,1.8-4.5,3.5c-0.7,1.3-0.9,2.8-0.6,4.4H21.9c-2.7,0-4.9,2.2-4.9,4.9v28.4
			c-0.5-0.1-0.9-0.1-1.4-0.1c-3.3,0-6.5,1.3-8.8,3.7c-2.4,2.4-3.6,5.5-3.6,8.8c0,3.1,1.2,6.1,3.2,8.4c-1.4,1.5-2.6,3.2-3.7,5.2
			c-2.6,4.8-3.4,10.1-2.2,13.9c0.6,2.1,1.8,3.6,3.5,4.5c1.6,0.9,3.6,1,5.7,0.3c3.5-1.1,7-4.2,9.5-8.4c0.8,0.5,1.7,0.9,2.7,0.9h60.6
			c2.7,0,4.9-2.2,4.9-4.9V13.4C87.5,10.7,85.3,8.5,82.6,8.5z M70.2,5.2c2.9,0,5.6,1.1,7.7,3.2c2.1,2.1,3.2,4.8,3.2,7.7
			c0,1-0.2,2-0.4,3L67.3,5.6C68.2,5.4,69.2,5.2,70.2,5.2z M77.2,24.6l-0.8,0.8L71,19.9c0.6,0.1,1.3,0.3,1.9,0.7
			C74.4,21.4,75.9,22.8,77.2,24.6z M74.5,19.2c-0.2-0.1-0.4-0.3-0.6-0.4c-1.7-0.9-3.3-1.2-4.9-0.9l-1.8-1.8c0.1-1.9-0.4-3.9-1.6-5.9
			L74.5,19.2z M65.7,22.8c0.2-0.4,0.4-0.7,0.7-1l6.8,6.8l-2,2c-0.1,0.1-0.1,0.1-0.2,0.2L65,24.6C65.2,23.9,65.5,23.3,65.7,22.8z
			 M62,9c1.5,1.6,2.5,3.3,2.9,4.9L61,10L62,9z M63.6,19c-0.6,0.5-1.4,1-2.3,1.3c-0.2,0.1-0.4,0.1-0.5,0.1l-5.1-5.1
			c0-0.1,0.1-0.1,0.1-0.2l2-2L63.6,19z M40.5,5c0.6-1.1,1.7-2,3.3-2.5c3.3-1,8.1-0.2,12.4,2c1.8,0.9,3.4,2.1,4.7,3.3l-6.6,6.6
			c-1.4,1.4-2.4,3-3,4.8c-0.8-0.3-1.6-0.7-2.4-1.1c-4.3-2.3-7.6-5.8-8.7-9.1C39.8,7.5,39.9,6.1,40.5,5z M54.2,20.2
			c-0.4-0.1-0.8-0.2-1.2-0.3c0.1-0.2,0.1-0.4,0.2-0.6L54.2,20.2z M20.6,51.9c0.8-1.5,2.2-3,4-4.3l0.8,0.8l-5.5,5.5
			C20,53.2,20.2,52.6,20.6,51.9z M24.6,59.8c-0.6-0.2-1.3-0.4-1.8-0.7c-0.4-0.2-0.7-0.4-1-0.7l6.8-6.8l2,2c0.1,0.1,0.1,0.1,0.2,0.2
			L24.6,59.8z M33.1,57.7c0.2,0.7,0.4,1.4,0.5,2.2c-1.1,0.2-2.1,0.4-3.2,0.5L33.1,57.7z M17.9,55.9l-1.8,1.8
			c-1.9-0.1-3.9,0.4-5.9,1.6l9-9c-0.1,0.2-0.3,0.4-0.4,0.6C17.9,52.7,17.6,54.3,17.9,55.9z M13.8,59.9L10,63.8l-1-1
			C10.6,61.4,12.3,60.4,13.8,59.9z M5.6,57.6c-0.3-1-0.4-1.9-0.4-3c0-2.9,1.1-5.6,3.2-7.7s4.8-3.2,7.7-3.2c1,0,2,0.2,3,0.4L5.6,57.6
			z M18.2,75.9c-2.3,4.3-5.8,7.7-9.1,8.7c-1.6,0.5-3,0.4-4.1-0.2c-1.2-0.6-2-1.8-2.5-3.3c-1-3.3-0.2-8.1,2.1-12.4
			c0.9-1.8,2.1-3.4,3.3-4.7l6.6,6.6c1.4,1.4,3,2.4,4.8,3C18.9,74.3,18.6,75.1,18.2,75.9z M19.8,71.8c-0.2-0.1-0.4-0.1-0.6-0.2l1-1
			C20.1,71,20,71.4,19.8,71.8z M15.3,69.1c-0.1-0.1-0.1-0.1-0.2-0.2l-2-2l5.8-5.8c0.5,0.6,1,1.4,1.3,2.3c0.1,0.2,0.1,0.4,0.1,0.5
			L15.3,69.1z M21.8,60.9c0.4,0.2,0.8,0.4,1.2,0.5l-1.1,1.1c-0.3-0.8-0.7-1.6-1.2-2.2C21.1,60.4,21.5,60.7,21.8,60.9z M22.8,72.2
			c-0.3,0-0.6,0-1,0c0.4-1.4,0.7-2.7,0.8-4l2-2c-0.3,1.3,0.1,2.8,1.1,3.8l1.9,1.1C26.2,71.8,24.5,72.2,22.8,72.2z M27.7,63l0.6-0.6
			c1.7,0,3.5-0.1,5.3-0.5c-0.1,1.5-0.4,2.9-1.1,4.2l-1.2-1.9C30.4,63.1,29,62.8,27.7,63z M29.5,72.5c0.2-0.1,0.3-0.2,0.5-0.3
			l3.5-3.6l5.6,9.3L29.5,72.5z M45.5,52.1c-1.6,3-5.4,5.8-10,7.3c-0.5-2.4-1.6-4.6-3.4-6.4l-6.2-6.2c1.5-0.9,3.1-1.6,4.9-2.2
			c7.1-2.2,14.1-0.6,15.3,3.4C46.5,49.2,46.3,50.6,45.5,52.1z M47.1,39.5l5.5-9.7c0,0,0,0,0,0.1l4,3.9L47.1,39.5z M54.9,25.7l-1.1,2
			c-0.8-1.5-1.2-3.2-1.2-4.9c0-0.3,0-0.6,0-1c1.4,0.4,2.7,0.7,4,0.8l2,2C57.4,24.3,55.9,24.7,54.9,25.7z M58.8,32.6l1.9-1.2
			c1-1,1.3-2.4,1.1-3.7l0.6,0.6c-0.1,1.7,0.1,3.5,0.5,5.3C61.5,33.6,60.1,33.2,58.8,32.6z M63.4,23l-1-1.1c0.8-0.3,1.6-0.7,2.2-1.2
			c-0.2,0.3-0.5,0.7-0.7,1.1C63.8,22.2,63.6,22.6,63.4,23z M64.5,30.4l2.6,2.6c-0.7,0.2-1.4,0.4-2.2,0.5
			C64.7,32.5,64.6,31.5,64.5,30.4z M76.9,46.1c-1.2,0.4-2.7,0.2-4.1-0.6c-3-1.6-5.8-5.4-7.3-10c2.4-0.5,4.6-1.6,6.4-3.4l6.2-6.2
			c0.9,1.5,1.6,3.1,2.1,4.9C82.4,37.9,80.9,44.9,76.9,46.1z"/>
	</g>
</g>
</svg>
