<svg width="27" height="25" viewBox="0 0 27 25" fill="none" xmlns="http://www.w3.org/2000/svg">
<path d="M20.7274 16.0072C20.087 15.2276 19.753 14.2532 19.753 13.2509V10.968C19.753 7.65493 17.2751 4.92653 14.0734 4.50892V3.36744C14.0734 2.92199 13.7115 2.56006 13.266 2.56006C12.8206 2.56006 12.4587 2.92199 12.4587 3.36744V4.53676C9.25697 4.92653 6.77914 7.68277 6.77914 10.9958V13.2788C6.77914 14.281 6.44505 15.2555 5.80471 16.035L4.80244 17.26C4.27347 17.9003 4.1621 18.7634 4.52403 19.5151C4.88596 20.2668 5.60982 20.7401 6.44505 20.7401H9.56322C9.70242 22.6054 11.2894 24.1088 13.2382 24.1088C15.1871 24.1088 16.774 22.6054 16.941 20.7123H20.0592C20.8944 20.7123 21.6183 20.239 21.9802 19.4873C22.3422 18.7356 22.2308 17.8725 21.7018 17.2322L20.7274 16.0072ZM13.2382 22.4662C12.2081 22.4662 11.345 21.7145 11.178 20.7123H15.2984C15.1314 21.7145 14.2683 22.4662 13.2382 22.4662ZM20.5325 18.8191C20.5047 18.9026 20.3655 19.0975 20.087 19.0975H6.41721C6.1388 19.0975 5.9996 18.9026 5.97175 18.8191C5.94391 18.7356 5.86039 18.5128 6.02744 18.2901L7.02971 17.0651C7.89277 16.0072 8.36607 14.6708 8.36607 13.3066V11.0237C8.36607 8.32311 10.5655 6.15152 13.2382 6.15152C15.9109 6.15152 18.1103 8.35095 18.1103 11.0237V13.3066C18.1103 14.6708 18.5836 16.0072 19.4467 17.0651L20.449 18.2901C20.6439 18.485 20.5603 18.7077 20.5325 18.8191Z" fill="white"/>
<path d="M19.2795 3.08898C18.9176 2.81057 18.4165 2.8941 18.1381 3.22819C17.8596 3.59012 17.9432 4.09125 18.2773 4.36966C19.6971 5.48329 20.7551 7.04238 21.2562 8.76851C21.3676 9.13044 21.6738 9.35317 22.0358 9.35317C22.1193 9.35317 22.175 9.35317 22.2585 9.32533C22.7039 9.21396 22.9545 8.76851 22.8153 8.32306C22.2585 6.26284 21.0057 4.3975 19.2795 3.08898Z" fill="white"/>
<path d="M5.21983 8.76856C5.69312 7.04243 6.75107 5.48335 8.1988 4.36971C8.56073 4.09131 8.61641 3.59017 8.338 3.22824C8.05959 2.86631 7.55846 2.81063 7.19653 3.08904C5.4704 4.39756 4.21756 6.26289 3.6329 8.32311C3.52154 8.76856 3.77211 9.21402 4.18972 9.32538C4.27324 9.35322 4.32892 9.35322 4.41244 9.35322C4.77438 9.35322 5.10847 9.13049 5.21983 8.76856Z" fill="white"/>
<path d="M26.4627 8.62933C25.8502 5.23275 23.9848 2.22594 21.1729 0.16572C20.811 -0.112688 20.3099 -0.0291658 20.0314 0.332765C19.753 0.694695 19.8366 1.19583 20.1985 1.47424C22.6763 3.28389 24.3189 5.92877 24.8479 8.90773C24.9314 9.29751 25.2655 9.57591 25.6553 9.57591C25.711 9.57591 25.7388 9.57591 25.7945 9.57591C26.2399 9.49239 26.5184 9.07478 26.4627 8.62933Z" fill="white"/>
<path d="M6.27793 1.47424C6.63986 1.19583 6.72338 0.694695 6.44498 0.332765C6.16657 -0.0291658 5.66543 -0.112688 5.3035 0.16572C2.49158 2.22594 0.626246 5.23275 0.0137485 8.62933C-0.0697739 9.07478 0.236475 9.49239 0.681928 9.57591C0.73761 9.57591 0.76545 9.57591 0.821132 9.57591C1.2109 9.57591 1.54499 9.29751 1.62852 8.90773C2.15749 5.92877 3.82794 3.28389 6.27793 1.47424Z" fill="white"/>
</svg>
