<svg width="30" height="30" viewBox="0 0 30 30" xmlns="http://www.w3.org/2000/svg">
<path fill-rule="evenodd" clip-rule="evenodd" d="M14.9998 0C6.71548 0 -0.000244141 6.71573 -0.000244141 15C-0.000244141 23.2843 6.71548 30 14.9998 30C23.284 30 29.9998 23.2843 29.9998 15C29.9998 6.71573 23.284 0 14.9998 0ZM16.2214 19.7346C16.0735 19.8905 15.7847 19.922 15.7847 19.922H14.8284C14.8284 19.922 12.7186 20.0465 10.86 18.1476C8.83321 16.0758 7.0435 11.9654 7.0435 11.9654C7.0435 11.9654 6.9402 11.6958 7.0521 11.566C7.1781 11.4193 7.52164 11.41 7.52164 11.41L9.8075 11.3954C9.8075 11.3954 10.0227 11.43 10.1769 11.5414C10.3044 11.6336 10.3756 11.8049 10.3756 11.8049C10.3756 11.8049 10.745 12.7221 11.2341 13.5517C12.1896 15.1717 12.6341 15.5258 12.9581 15.3522C13.4308 15.0995 13.2891 13.0624 13.2891 13.0624C13.2891 13.0624 13.2977 12.3234 13.0512 11.9938C12.8603 11.7388 12.5003 11.6643 12.3414 11.6436C12.2123 11.6267 12.4236 11.3332 12.6975 11.2019C13.1091 11.0045 13.8353 10.9929 14.6938 11.0014C15.3629 11.0083 15.5554 11.049 15.8168 11.1112C16.4234 11.2549 16.4045 11.7154 16.3636 12.7093C16.3514 13.0065 16.3372 13.3514 16.3372 13.7499C16.3372 13.8394 16.3345 13.9348 16.3318 14.033C16.3176 14.5422 16.3014 15.1252 16.6432 15.3422C16.8185 15.4529 17.2465 15.3584 18.3178 13.5732C18.8257 12.7267 19.2061 11.7319 19.2061 11.7319C19.2061 11.7319 19.2898 11.5545 19.4189 11.4784C19.5512 11.4008 19.7296 11.4246 19.7296 11.4246L22.1352 11.41C22.1352 11.41 22.8583 11.3248 22.9749 11.6459C23.0977 11.9816 22.7049 12.7666 21.722 14.0525C20.7896 15.2726 20.3359 15.7219 20.3775 16.1192C20.408 16.4095 20.7029 16.672 21.2689 17.1874C22.4504 18.2641 22.7671 18.8306 22.8432 18.9667C22.8495 18.978 22.8541 18.9864 22.8575 18.9918C23.3873 19.8544 22.2698 19.922 22.2698 19.922L20.1326 19.9512C20.1326 19.9512 19.674 20.0403 19.0699 19.6332C18.7534 19.4201 18.4442 19.0721 18.1496 18.7406C17.6998 18.2344 17.2843 17.7667 16.9296 17.8772C16.3341 18.0631 16.3521 19.3221 16.3521 19.3221C16.3521 19.3221 16.3567 19.5917 16.2214 19.7346Z"/>
</svg>
