<svg width="30" height="30" viewBox="0 0 30 30" xmlns="http://www.w3.org/2000/svg">
<path fill-rule="evenodd" clip-rule="evenodd" d="M15 0C6.71573 0 0 6.71573 0 15C0 23.2843 6.71573 30 15 30C23.2843 30 30 23.2843 30 15C30 6.71573 23.2843 0 15 0ZM21.2511 9.8436C21.9396 10.0325 22.4818 10.5892 22.6658 11.296C23.0001 12.5772 23.0001 15.2503 23.0001 15.2503C23.0001 15.2503 23.0001 17.9233 22.6658 19.2045C22.4818 19.9114 21.9396 20.468 21.2511 20.657C20.0035 21.0003 15.0001 21.0003 15.0001 21.0003C15.0001 21.0003 9.99677 21.0003 8.74904 20.657C8.06059 20.468 7.51841 19.9114 7.33441 19.2045C7.00013 17.9233 7.00013 15.2503 7.00013 15.2503C7.00013 15.2503 7.00013 12.5772 7.33441 11.296C7.51841 10.5892 8.06059 10.0325 8.74904 9.8436C9.99677 9.50027 15.0001 9.50027 15.0001 9.50027C15.0001 9.50027 20.0035 9.50027 21.2511 9.8436Z"/>
<path fill-rule="evenodd" clip-rule="evenodd" d="M13.5002 17.9995V12.9995L17.5002 15.4996L13.5002 17.9995Z" fill="#B0B0B0"/>
</svg>
