<svg width="33" height="32" viewBox="0 0 33 32" fill="none" xmlns="http://www.w3.org/2000/svg">
<path d="M0 29.9909L4.0015 29.4923L7.0915 29.1075C9.76854 30.979 12.9836 32 16.2556 32C25.0773 32 32.255 24.8223 32.255 16C32.255 7.17768 25.0773 0 16.255 0C7.43263 0 0.254958 7.17768 0.254958 16C0.254958 18.7776 0.964764 21.4708 2.31855 23.8635L1.4268 26.2198L0 29.9909ZM16.255 2.43106C23.7486 2.43106 29.8239 8.50632 29.8239 16C29.8239 23.4937 23.7486 29.5689 16.255 29.5689C13.0387 29.5689 10.0881 28.4444 7.7624 26.5741L3.70046 27.0798L5.01594 23.6032C3.54545 21.4343 2.68542 18.8171 2.68542 15.9994C2.68602 8.50632 8.76128 2.43106 16.255 2.43106Z" fill="#BEC4CC"/>
<path d="M15.5551 11.5229C15.8112 11.5229 16.0446 11.5618 16.2547 11.6402C16.4648 11.7186 16.6431 11.8251 16.7892 11.961C16.9352 12.0962 17.0471 12.2584 17.1255 12.4469C17.2039 12.6355 17.2428 12.8401 17.2428 13.061C17.2428 13.3171 17.2075 13.5506 17.1363 13.7606C17.0651 13.9707 16.9579 14.1736 16.8155 14.3693C16.6731 14.565 16.5001 14.7613 16.2972 14.957C16.0943 15.1527 15.8573 15.3646 15.5868 15.5926C15.3306 15.8063 15.1062 16.0217 14.9135 16.239C14.7208 16.4562 14.561 16.6842 14.4329 16.9224C14.3048 17.1612 14.2085 17.4156 14.1444 17.6861C14.0804 17.9566 14.0481 18.2559 14.0481 18.5832C14.0481 18.7897 14.0678 19.0088 14.1067 19.2404C14.1456 19.472 14.2013 19.6803 14.2725 19.8652H17.0824C17.004 19.7443 16.9418 19.5947 16.8957 19.4163C16.8496 19.238 16.8263 19.0638 16.8263 18.8927C16.8263 18.6431 16.8586 18.4211 16.9226 18.2248C16.9867 18.029 17.0812 17.8435 17.2057 17.6694C17.3302 17.4952 17.487 17.3186 17.6755 17.1403C17.864 16.9619 18.0831 16.7698 18.3327 16.5633C18.7031 16.2569 19.0305 15.9595 19.3154 15.6716C19.6003 15.3837 19.8391 15.0821 20.0312 14.7691C20.2233 14.4561 20.3693 14.1227 20.4693 13.7702C20.5692 13.4177 20.6189 13.0239 20.6189 12.59C20.6189 11.9065 20.4998 11.3206 20.261 10.8328C20.0222 10.345 19.6912 9.94406 19.2675 9.63105C18.8438 9.31744 18.347 9.08822 17.7773 8.94219C17.2075 8.79616 16.5917 8.72314 15.9291 8.72314C15.2385 8.72314 14.5688 8.80514 13.9206 8.96912C13.2724 9.13311 12.6739 9.37849 12.1257 9.70646V12.9221C12.6602 12.4523 13.2264 12.1016 13.8242 11.87C14.4221 11.6384 14.9997 11.5229 15.5551 11.5229Z" fill="#BEC4CC"/>
<path d="M15.8324 21.0195C15.2627 21.0195 14.7893 21.1871 14.4116 21.5217C14.034 21.8562 13.8455 22.2728 13.8455 22.7713C13.8455 23.2555 14.034 23.6756 14.4116 24.0317C14.7893 24.3735 15.2627 24.5446 15.8324 24.5446C16.4022 24.5446 16.872 24.3771 17.2425 24.0425C17.6058 23.7079 17.7871 23.2842 17.7871 22.7713C17.7871 22.2656 17.6022 21.849 17.2317 21.5217C16.8612 21.1871 16.395 21.0195 15.8324 21.0195Z" fill="#BEC4CC"/>
</svg>
