<svg width="42" height="42" viewBox="0 0 42 42" fill="none" xmlns="http://www.w3.org/2000/svg">
<path d="M20.5265 41.053C31.863 41.053 41.053 31.863 41.053 20.5265C41.053 9.19003 31.863 0 20.5265 0C9.19003 0 0 9.19003 0 20.5265C0 31.863 9.19003 41.053 20.5265 41.053Z" fill="#F55690"/>
<path d="M20.3441 37.6882C29.923 37.6882 37.6882 29.923 37.6882 20.3441C37.6882 10.7652 29.923 3 20.3441 3C10.7652 3 3 10.7652 3 20.3441C3 29.923 10.7652 37.6882 20.3441 37.6882Z" fill="#F55690" stroke="white" stroke-width="2" stroke-miterlimit="10"/>
<path d="M25.1276 11H16.8724C14.1857 11 12 13.1857 12 15.8724V24.1277C12 26.8143 14.1857 29 16.8724 29H25.1277C27.8143 29 30 26.8143 30 24.1277V15.8724C30 13.1857 27.8143 11 25.1276 11V11ZM21 24.9217C18.2861 24.9217 16.0783 22.7139 16.0783 20C16.0783 17.2861 18.2861 15.0783 21 15.0783C23.7139 15.0783 25.9217 17.2861 25.9217 20C25.9217 22.7139 23.7139 24.9217 21 24.9217V24.9217ZM26.0394 16.239C25.2374 16.239 24.5851 15.5867 24.5851 14.7847C24.5851 13.9827 25.2374 13.3302 26.0394 13.3302C26.8414 13.3302 27.4939 13.9827 27.4939 14.7847C27.4939 15.5867 26.8414 16.239 26.0394 16.239Z" fill="white"/>
<path d="M20.9998 16.1335C18.8679 16.1335 17.1333 17.868 17.1333 20C17.1333 22.1319 18.8679 23.8665 20.9998 23.8665C23.1318 23.8665 24.8663 22.1319 24.8663 20C24.8663 17.868 23.1318 16.1335 20.9998 16.1335V16.1335Z" fill="white"/>
<path d="M26.0392 14.3856C25.8192 14.3856 25.6401 14.5647 25.6401 14.7847C25.6401 15.0047 25.8192 15.1837 26.0392 15.1837C26.2594 15.1837 26.4384 15.0048 26.4384 14.7847C26.4384 14.5645 26.2594 14.3856 26.0392 14.3856Z" fill="white"/>
</svg>
