<svg width="21" height="17" viewBox="0 0 21 17" xmlns="http://www.w3.org/2000/svg">
<path d="M19.1739 0H1.82609C1.34178 0 0.877306 0.192391 0.534848 0.534848C0.192391 0.877306 0 1.34178 0 1.82609V14.8826C0 15.3669 0.192391 15.8314 0.534848 16.1738C0.877306 16.5163 1.34178 16.7087 1.82609 16.7087H19.1739C19.6582 16.7087 20.1227 16.5163 20.4652 16.1738C20.8076 15.8314 21 15.3669 21 14.8826V1.82609C21 1.34178 20.8076 0.877306 20.4652 0.534848C20.1227 0.192391 19.6582 0 19.1739 0ZM17.6309 5.08565L11.7509 8.44565C11.3712 8.66703 10.9395 8.78367 10.5 8.78367C10.0605 8.78367 9.62883 8.66703 9.24913 8.44565L3.36913 5.08565C3.15873 4.96674 3.00406 4.76925 2.93903 4.53649C2.87399 4.30372 2.90389 4.05467 3.02217 3.84391C3.08182 3.73929 3.16158 3.6475 3.25685 3.57383C3.35213 3.50016 3.46103 3.44607 3.5773 3.41467C3.69357 3.38327 3.8149 3.37518 3.93431 3.39087C4.05371 3.40656 4.16883 3.44572 4.27304 3.50609L10.153 6.86609C10.2594 6.92443 10.3787 6.95501 10.5 6.95501C10.6213 6.95501 10.7406 6.92443 10.847 6.86609L16.727 3.50609C16.8312 3.44572 16.9463 3.40656 17.0657 3.39087C17.1851 3.37518 17.3064 3.38327 17.4227 3.41467C17.539 3.44607 17.6479 3.50016 17.7431 3.57383C17.8384 3.6475 17.9182 3.73929 17.9778 3.84391C18.0961 4.05467 18.126 4.30372 18.061 4.53649C17.9959 4.76925 17.8413 4.96674 17.6309 5.08565Z"/>
</svg>
