<svg width="18" height="18" viewBox="0 0 18 18" xmlns="http://www.w3.org/2000/svg">
<path d="M9 0C4.02942 0 0 4.02961 0 9C0 13.9704 4.02942 18 9 18C13.9706 18 18 13.9704 18 9C18 4.02961 13.9706 0 9 0ZM9.01289 2.73692C10.7659 2.74171 12.173 4.17563 12.1639 5.94801C12.1551 7.67951 10.7251 9.08286 8.97496 9.07697C7.24272 9.07108 5.82206 7.63495 5.83237 5.89995C5.84213 4.14598 7.26353 2.73213 9.01289 2.73692ZM12.5635 10.3225C12.1759 10.7204 11.7093 11.0084 11.1911 11.2094C10.7013 11.3992 10.1645 11.4948 9.63308 11.5585C9.71355 11.6458 9.7513 11.6887 9.80139 11.7388C10.5225 12.4637 11.2471 13.185 11.9658 13.912C12.2107 14.1599 12.2617 14.467 12.1269 14.7548C11.9798 15.0697 11.6496 15.2767 11.3257 15.2544C11.1206 15.2402 10.9606 15.1384 10.8186 14.9953C10.2743 14.4477 9.71963 13.9098 9.18672 13.3519C9.03112 13.1894 8.95673 13.2204 8.81954 13.3614C8.27208 13.9253 7.7156 14.4801 7.15599 15.032C6.90463 15.2798 6.60559 15.3248 6.3139 15.183C6.00399 15.0331 5.80696 14.7165 5.82206 14.3982C5.83274 14.1834 5.93843 14.0188 6.08612 13.8719C6.80004 13.1594 7.51175 12.4448 8.22365 11.7307C8.27098 11.6833 8.3148 11.6331 8.38349 11.5594C7.4125 11.4579 6.5369 11.2189 5.78725 10.6328C5.69408 10.5599 5.59814 10.4895 5.51343 10.4078C5.1851 10.0927 5.15214 9.7316 5.4116 9.36C5.63386 9.0418 6.00657 8.95673 6.39419 9.13958C6.46932 9.17475 6.54077 9.21931 6.60927 9.26645C8.00618 10.2264 9.92532 10.2527 11.3278 9.30936C11.4666 9.20329 11.6152 9.11601 11.7874 9.072C12.1218 8.98582 12.4341 9.10901 12.6134 9.4018C12.8188 9.73639 12.8164 10.0627 12.5635 10.3225Z"/>
</svg>
