<svg width="42" height="42" viewBox="0 0 42 42" fill="none" xmlns="http://www.w3.org/2000/svg">
<path d="M20.5265 41.053C31.863 41.053 41.053 31.863 41.053 20.5265C41.053 9.19003 31.863 0 20.5265 0C9.19003 0 0 9.19003 0 20.5265C0 31.863 9.19003 41.053 20.5265 41.053Z" fill="#E73151"/>
<path d="M20.5265 37.8706C30.1054 37.8706 37.8706 30.1054 37.8706 20.5265C37.8706 10.9476 30.1054 3.1824 20.5265 3.1824C10.9476 3.1824 3.18237 10.9476 3.18237 20.5265C3.18237 30.1054 10.9476 37.8706 20.5265 37.8706Z" fill="#E73151" stroke="white" stroke-width="2" stroke-miterlimit="10"/>
<path d="M20.771 12H13.2963C12.6 12 12 12.4531 12 13.0101V13.0505V18.9899V19.0303C12 19.5658 12.5764 20 13.2458 20H13.2963H20.7205H20.771C21.4673 20 22 19.5469 22 18.9899V13.0101C22 12.4531 21.4673 12 20.771 12Z" fill="white"/>
<path d="M23.5442 14H29.4558C29.7559 14 30 13.5514 30 12.9999C30 12.4508 29.7559 12.0037 29.4558 12.0037L23.5442 12C23.2441 12 23 12.4486 23 12.9999C22.9999 13.5514 23.2441 14 23.5442 14Z" fill="white"/>
<path d="M23.5442 17H29.4558C29.7559 17 30 16.5514 30 15.9999C30 15.4508 29.7559 15.0037 29.4558 15.0037L23.5442 15C23.2441 15 23 15.4486 23 15.9999C22.9999 16.5514 23.2441 17 23.5442 17Z" fill="white"/>
<path d="M23.5442 20H29.4558C29.7559 20 30 19.5514 30 18.9999C30 18.4508 29.7559 18.0037 29.4558 18.0037L23.5442 18C23.2441 18 23 18.4486 23 18.9999C22.9999 19.5514 23.2441 20 23.5442 20Z" fill="white"/>
<path d="M13.3994 23H28.6006C29.3724 23 30 22.5514 30 21.9999C30 21.4508 29.3722 21.0037 28.6006 21.0037L13.3994 21C12.6276 21 12 21.4486 12 21.9999C11.9998 22.5514 12.6276 23 13.3994 23Z" fill="white"/>
<path d="M13.3994 26H28.6006C29.3724 26 30 25.5514 30 24.9999C30 24.4508 29.3722 24.0037 28.6006 24.0037L13.3994 24C12.6276 24 12 24.4486 12 24.9999C11.9998 25.5514 12.6276 26 13.3994 26Z" fill="white"/>
<path d="M13.3994 29H28.6006C29.3724 29 30 28.5514 30 27.9999C30 27.4508 29.3722 27.0037 28.6006 27.0037L13.3994 27C12.6276 27 12 27.4486 12 27.9999C11.9998 28.5514 12.6276 29 13.3994 29Z" fill="white"/>
</svg>
