<svg width="42" height="42" viewBox="0 0 42 42" fill="none" xmlns="http://www.w3.org/2000/svg">
<path d="M20.5265 41.053C31.863 41.053 41.053 31.863 41.053 20.5265C41.053 9.19003 31.863 0 20.5265 0C9.19003 0 0 9.19003 0 20.5265C0 31.863 9.19003 41.053 20.5265 41.053Z" fill="#0088CC"/>
<path d="M20.5267 37.8706C30.1056 37.8706 37.8708 30.1054 37.8708 20.5265C37.8708 10.9476 30.1056 3.1824 20.5267 3.1824C10.9478 3.1824 3.18262 10.9476 3.18262 20.5265C3.18262 30.1054 10.9478 37.8706 20.5267 37.8706Z" fill="#0088CC" stroke="white" stroke-width="2" stroke-miterlimit="10"/>
<path d="M27.528 14.1087C27.3689 13.7374 26.9976 13.5252 26.5733 13.5252C26.255 13.5252 25.9368 13.6313 25.8838 13.6313C25.7777 13.6844 16.0183 17.3972 12.0403 19.0414C11.669 19.2005 11.4569 19.4127 11.3508 19.6249C11.1917 19.9961 11.4569 20.4205 11.7221 20.5265C12.7298 20.9509 14.7984 21.5873 15.4349 21.7465C15.647 22.436 16.3896 24.9289 16.7609 25.9897C16.8669 26.2549 17.1321 26.414 17.4504 26.414C17.5034 26.414 17.5565 26.414 17.5565 26.414C17.6625 26.414 17.7156 26.3609 17.8217 26.3079C17.8747 26.2549 17.9277 26.2018 17.9277 26.0957L18.1399 23.1255C18.5112 23.4437 19.0946 23.8681 19.7311 24.2924C20.951 25.2471 22.4362 26.3079 23.2848 26.9444C23.603 27.1565 23.8682 27.2626 24.1334 27.2626C24.7169 27.2626 25.0882 26.7322 25.1942 26.3079C25.8838 23.6559 26.8915 18.564 27.475 15.5408L27.581 14.9043C27.6871 14.533 27.6341 14.2678 27.528 14.1087ZM17.4504 22.436L17.2913 25.088C16.8139 23.6559 16.1774 21.4282 16.1774 21.3752L23.8152 16.3894C23.8152 16.3894 24.3456 16.0181 24.5578 15.9651C24.823 15.912 24.876 16.0181 24.823 16.0712C24.6638 16.3364 23.7622 17.0789 23.7622 17.0789L17.6625 22.1177C17.5034 22.2238 17.4504 22.3299 17.4504 22.436Z" fill="white"/>
</svg>
