<svg width="42" height="42" viewBox="0 0 42 42" fill="none" xmlns="http://www.w3.org/2000/svg">
<path d="M20.5265 41.053C31.863 41.053 41.053 31.863 41.053 20.5265C41.053 9.19003 31.863 0 20.5265 0C9.19003 0 0 9.19003 0 20.5265C0 31.863 9.19003 41.053 20.5265 41.053Z" fill="#00ACEE"/>
<path d="M20.5267 37.8706C30.1056 37.8706 37.8708 30.1054 37.8708 20.5265C37.8708 10.9476 30.1056 3.1824 20.5267 3.1824C10.9478 3.1824 3.18262 10.9476 3.18262 20.5265C3.18262 30.1054 10.9478 37.8706 20.5267 37.8706Z" fill="#00ACEE" stroke="white" stroke-width="2" stroke-miterlimit="10"/>
<path d="M18.7152 27.25C17.9368 27.25 17.1357 27.189 16.3297 27.0668C14.9101 26.8514 13.4731 26.1331 13.0665 25.9181L12 25.354L13.1547 24.9867C14.4168 24.5853 15.1846 24.3362 16.1351 23.9462C15.1834 23.5004 14.4499 22.6985 14.0969 21.6618L13.8282 20.8731L14.0485 20.9056C13.8396 20.702 13.6747 20.4953 13.5469 20.3073C13.0922 19.6393 12.8514 18.823 12.9027 18.1235L12.9532 17.435L13.3793 17.5947C13.1996 17.2663 13.0696 16.9156 12.9933 16.548C12.8072 15.6517 12.9629 14.6994 13.4319 13.8666L13.8031 13.2075L14.2996 13.7842C15.8696 15.6086 17.8583 16.6908 20.2185 17.0077C20.1221 16.3649 20.1944 15.7445 20.4335 15.1885C20.7118 14.541 21.207 13.992 21.8651 13.6007C22.596 13.1662 23.4823 12.9556 24.3608 13.0078C25.2928 13.0632 26.139 13.401 26.8111 13.9854C27.1393 13.9029 27.3812 13.8148 27.708 13.6958C27.9046 13.6242 28.1277 13.5429 28.4067 13.4499L29.435 13.1072L28.7645 14.9597C28.8087 14.9561 28.8543 14.9531 28.9019 14.9511L30 14.903L29.351 15.761C29.3138 15.8101 29.3043 15.8241 29.2911 15.8433C29.2388 15.9196 29.1737 16.0144 28.2829 17.1651C28.0598 17.4532 27.9485 17.8284 27.9692 18.2219C28.0482 19.7171 27.8585 21.0699 27.4052 22.2426C26.9764 23.3521 26.3121 24.304 25.4307 25.0719C24.34 26.0219 22.9493 26.6724 21.297 27.0051C20.4865 27.1682 19.6161 27.25 18.7152 27.25V27.25Z" fill="white"/>
</svg>
