<svg width="42" height="42" viewBox="0 0 42 42" fill="none" xmlns="http://www.w3.org/2000/svg">
<path d="M20.5265 41.053C31.863 41.053 41.053 31.863 41.053 20.5265C41.053 9.19003 31.863 0 20.5265 0C9.19003 0 0 9.19003 0 20.5265C0 31.863 9.19003 41.053 20.5265 41.053Z" fill="#45668E"/>
<path d="M20.5267 37.8706C30.1056 37.8706 37.8708 30.1054 37.8708 20.5265C37.8708 10.9476 30.1056 3.1824 20.5267 3.1824C10.9478 3.1824 3.18262 10.9476 3.18262 20.5265C3.18262 30.1054 10.9478 37.8706 20.5267 37.8706Z" fill="#45668E" stroke="white" stroke-width="2" stroke-miterlimit="10"/>
<path d="M28.7072 26C28.1154 26 27.3916 25.9835 27.0826 25.9766C26.9895 25.9745 26.9288 25.9731 26.9123 25.9731C26.4171 25.9709 25.9907 25.8027 25.6449 25.473C25.3644 25.2055 25.0929 24.9131 24.8303 24.6302C24.6816 24.4702 24.528 24.3047 24.373 24.1439C24.2167 23.9819 24.0696 23.8496 23.923 23.7392C23.7327 23.5955 23.53 23.5194 23.3373 23.5194C23.0185 23.5194 22.756 23.7179 22.6171 24.0643C22.4574 24.4635 22.3349 25.4387 22.3304 25.4988C22.3108 25.7727 22.1527 25.9134 21.8473 25.93C21.6471 25.9408 21.4505 25.9463 21.2632 25.9463C20.0565 25.9463 19.0378 25.717 18.1489 25.2451C17.2499 24.768 16.4439 24.0693 15.6849 23.109C14.7259 21.8961 13.8623 20.4901 12.8847 18.5502C12.8378 18.4571 12.0875 16.8721 12.0155 16.6933C11.995 16.61 11.9838 16.4741 12.0549 16.4284C12.1091 16.4233 12.2739 16.4147 12.766 16.4147C13.5864 16.4147 14.7938 16.4393 14.8606 16.4416C15.1986 16.4598 15.3828 16.5916 15.5139 16.9118C16.0866 18.3129 16.7684 19.4945 17.5984 20.524C17.7243 20.6808 17.8886 20.8302 18.0736 20.9558C18.2034 21.044 18.3426 21.0907 18.4762 21.0907H18.4762C18.7304 21.0907 18.9399 20.9297 19.0365 20.6598C19.1475 20.3528 19.2367 19.7878 19.2422 19.4881C19.2567 18.753 19.2403 18.2735 19.2003 17.5377C19.1629 16.8573 18.8364 16.4508 18.2032 16.2983C18.3958 16.0919 18.6582 16.0391 19.0591 16.0179C19.2835 16.0059 19.5289 16 19.8096 16C20.0705 16 20.3373 16.0049 20.5952 16.0097C20.7765 16.0131 20.9576 16.0165 21.1387 16.0182C21.4376 16.0209 21.6966 16.0468 21.9311 16.0976C22.0737 16.1284 22.2697 16.2086 22.3276 16.5502C22.3572 16.7236 22.3703 16.8918 22.3666 17.0504C22.3591 17.3759 22.348 17.7071 22.3374 18.0274C22.322 18.4879 22.3061 18.964 22.3006 19.4339C22.2963 19.7985 22.3276 20.1346 22.3936 20.4328C22.4809 20.8245 22.718 21.0581 23.0279 21.0581C23.1582 21.0581 23.3579 21.0124 23.5697 20.7948C23.9053 20.4495 24.2294 20.0477 24.6204 19.4922C25.1305 18.7671 25.5711 17.9214 26.0071 16.8305C26.1534 16.4655 26.1909 16.4398 26.5805 16.439C27.0918 16.4377 27.603 16.437 28.1142 16.437C28.5629 16.437 29.0116 16.4376 29.4602 16.439C29.6313 16.4397 29.7694 16.4572 29.8824 16.4928C29.9597 16.5172 30.0265 16.5527 29.9895 16.7146C29.8529 17.315 29.5027 17.8394 29.1852 18.2837C28.7995 18.8232 28.3936 19.3646 28.0012 19.8881C27.7945 20.1637 27.588 20.4394 27.383 20.7162C27.3079 20.8178 27.2357 20.9311 27.1561 21.0725C26.8652 21.5942 26.9114 21.96 27.3201 22.3783C27.5375 22.6004 27.7634 22.8189 27.9818 23.03C28.2902 23.3282 28.6091 23.6365 28.9017 23.9537C29.2716 24.3554 29.5973 24.775 29.8694 25.2008C29.9954 25.3979 30.0315 25.5888 29.9682 25.7244C29.9072 25.8553 29.7507 25.9447 29.5273 25.9761C29.463 25.9849 29.2707 26 28.7072 26Z" fill="white"/>
</svg>
