<svg width="26" height="15" viewBox="0 0 26 15" xmlns="http://www.w3.org/2000/svg">
<path d="M24.4416 11.7208C23.6824 10.8103 22.789 10.0331 21.9437 9.2079C21.1811 8.46406 21.133 8.03255 21.7461 7.17403C22.4151 6.23702 23.1347 5.33596 23.8098 4.40318C24.44 3.53145 25.0842 2.66209 25.4159 1.61833C25.6262 0.95429 25.4402 0.660981 24.7592 0.544714C24.6419 0.524368 24.5206 0.523311 24.4012 0.523311L20.3612 0.518555C19.8636 0.511156 19.5885 0.728099 19.4125 1.16912C19.175 1.76525 18.93 2.36085 18.647 2.93611C18.0049 4.24041 17.2878 5.50111 16.2823 6.56865C16.0606 6.80409 15.8154 7.10162 15.4449 6.97902C14.9815 6.8099 14.8448 6.04624 14.8525 5.78808L14.8485 1.12499C14.7587 0.458836 14.611 0.161827 13.9496 0.0323486L9.75289 0.0331414C9.1927 0.0331414 8.91181 0.249556 8.61269 0.599941C8.44014 0.802351 8.38808 0.933679 8.7427 1.0008C9.43924 1.13292 9.83164 1.58372 9.93575 2.28211C10.1028 3.398 10.0911 4.51839 9.99494 5.63878C9.96667 5.96591 9.91038 6.29225 9.78064 6.59771C9.5777 7.07784 9.25004 7.17561 8.81959 6.88019C8.42983 6.61278 8.15608 6.23544 7.88814 5.85651C6.88164 4.43436 6.07861 2.9007 5.42381 1.28909C5.23462 0.82349 4.90828 0.541279 4.41494 0.533616C3.20286 0.514327 1.99051 0.511156 0.778432 0.534673C0.0491235 0.548414 -0.168348 0.902499 0.12866 1.56363C1.44882 4.50016 2.91827 7.35503 4.8364 9.95571C5.82123 11.2904 6.95193 12.4687 8.41266 13.3037C10.0681 14.2502 11.8502 14.535 13.7271 14.4473C14.606 14.4061 14.8699 14.1775 14.9106 13.3015C14.9381 12.7022 15.006 12.1064 15.3017 11.5678C15.5919 11.0394 16.0313 10.9387 16.5378 11.2674C16.7913 11.432 17.0048 11.6416 17.2064 11.8625C17.701 12.4036 18.178 12.9612 18.6914 13.4841C19.3354 14.1395 20.0982 14.5266 21.0574 14.4476L24.7706 14.4484C25.3688 14.4092 25.679 13.6757 25.3355 13.008C25.0943 12.5403 24.7777 12.1238 24.4416 11.7208Z"/>
</svg>
