<svg width="18" height="18" viewBox="0 0 18 18" xmlns="http://www.w3.org/2000/svg">
<path d="M15.4745 2.52548C13.8459 0.896871 11.6806 0 9.37747 0C7.07432 0 4.90897 0.896871 3.28036 2.52548C1.65175 4.1541 0.75491 6.31937 0.75491 8.62253C0.75491 10.0815 1.12423 11.5151 1.82524 12.7851L0 18L5.21483 16.1748C6.48482 16.8757 7.91849 17.2451 9.37744 17.2451C11.6806 17.2451 13.8459 16.3482 15.4745 14.7196C17.1031 13.091 18 10.9257 18 8.62253C18 6.31934 17.1031 4.15406 15.4745 2.52548ZM13.6401 11.8257L12.6446 12.8211C11.82 13.6458 9.4802 12.643 7.4186 10.5814C5.35697 8.51977 4.35421 6.18001 5.17887 5.35535L6.17428 4.35994C6.38044 4.15378 6.7147 4.15378 6.92086 4.35994L8.16514 5.60422C8.3713 5.81038 8.3713 6.14464 8.16514 6.3508L7.41857 7.09738C8.14275 8.62622 9.37378 9.85721 10.9026 10.5814L11.6492 9.83482C11.8554 9.62866 12.1896 9.62866 12.3958 9.83482L13.6401 11.0791C13.8463 11.2853 13.8463 11.6195 13.6401 11.8257Z"/>
</svg>
