<?xml version="1.0" encoding="utf-8"?><svg viewBox="0 0 1288 1288" xmlns="http://www.w3.org/2000/svg" xmlns:xlink="http://www.w3.org/1999/xlink"><style>:root>svg{display:none}:root>svg:target{display:block}</style><svg fill="#787878" viewBox="0 0 27 32" id="arc" xmlns="http://www.w3.org/2000/svg"><path d="M22.453 7.573l2.987-2.987v2.453h1.067V2.772H22.24v1.067h2.453l-2.987 2.987c-2.72-2.56-6.293-4.107-10.293-4.107C7.04 2.719 2.88 4.639 0 7.892l.8.693.32-.32 9.547 9.6-3.573 3.573H4.427L.694 25.171h3.413v3.413l3.733-3.733v-2.667l3.573-3.573 9.547 9.547-.32.32.693.8a15.105 15.105 0 005.173-11.413c.053-4-1.493-7.627-4.053-10.293zm-15.68 16.8l-1.6 1.6v-1.92H3.306l1.6-1.6h1.92v1.92zM1.867 7.52c2.56-2.4 5.973-3.733 9.547-3.733 3.68 0 7.04 1.44 9.547 3.733l-9.547 9.547L1.867 7.52zm19.84.8c2.347 2.507 3.733 5.867 3.733 9.547 0 3.573-1.333 6.933-3.733 9.547l-9.547-9.547 9.547-9.547z"/></svg><svg viewBox="0 -15 966.25 966" id="checklist" xmlns="http://www.w3.org/2000/svg"><path d="M77.922 841.703h405.203v-31.176H77.922c-25.82 0-46.754-20.933-46.754-46.754V78.047c0-25.828 20.934-46.754 46.754-46.754h685.726c25.832 0 46.754 20.926 46.754 46.754v358.445h31.176V78.047c-.05-43.016-34.91-77.871-77.93-77.922H77.922C34.914.175.055 35.031 0 78.047v685.726c.055 43.016 34.914 77.872 77.922 77.93zm0 0"/><path d="M62.344 62.469h31.164v31.164H62.344zm62.332 0h31.176v31.164h-31.176zm62.34 0h31.172v31.164h-31.172zM62.344 124.8h716.89v31.177H62.344zm160.41 66.907l-39.586 39.586c-33.461-22.152-78.27-15.356-103.664 15.723-25.39 31.074-23.113 76.34 5.262 104.71 28.37 28.383 73.64 30.66 104.718 5.266 31.075-25.39 37.875-70.207 15.72-103.66l39.581-39.586zm-82.496 151.277c-25.817 0-46.75-20.93-46.75-46.75 0-25.824 20.933-46.75 46.75-46.75a45.917 45.917 0 0120.031 4.668L129.246 285.2l22.031 22.04 31.067-31.028a45.887 45.887 0 014.672 20.023c0 25.82-20.926 46.75-46.758 46.75zm124.683-93.5h264.934v31.164H264.941zm0 62.336h109.09v31.164h-109.09zm140.262 0h218.18v31.164h-218.18zm155.844-62.336h155.848v31.164H561.047zM222.754 378.723l-39.586 39.586c-33.461-22.153-78.27-15.356-103.664 15.722-25.39 31.078-23.113 76.34 5.262 104.719 28.37 28.375 73.64 30.652 104.718 5.258 31.075-25.395 37.875-70.196 15.72-103.66l39.581-39.586zm-82.496 151.28c-25.817 0-46.75-20.933-46.75-46.753 0-25.824 20.933-46.758 46.75-46.758a45.98 45.98 0 0120.031 4.676l-31.043 31.055 22.031 22.03 31.067-31.03a45.917 45.917 0 014.672 20.027c0 25.82-20.926 46.754-46.758 46.754zm124.683-93.511h264.934v31.172H264.941zm0 62.344h109.09v31.168h-109.09zm140.262 0h124.672v31.168H405.203zm155.844-62.344h62.336v31.172h-62.336zM222.754 565.738l-39.586 39.586c-33.461-22.152-78.27-15.355-103.664 15.723-25.39 31.078-23.113 76.34 5.262 104.719 28.37 28.379 73.64 30.648 104.718 5.257 31.075-25.394 37.875-70.199 15.72-103.664l39.581-39.582zM140.258 717.02c-25.817 0-46.75-20.934-46.75-46.754 0-25.825 20.933-46.754 46.75-46.754a45.866 45.866 0 0120.031 4.672l-31.043 31.054 22.031 22.032 31.067-31.032a45.93 45.93 0 014.672 20.028c0 25.82-20.926 46.754-46.758 46.754zm124.683-93.508H467.54v31.176H264.941zm0 62.34h109.09v31.168h-109.09zm140.262 0h62.336v31.168h-62.336zM732.484 935.21c129.114 0 233.766-104.67 233.766-233.773 0-129.113-104.652-233.773-233.766-233.773-129.113 0-233.773 104.66-233.773 233.774.152 129.042 104.723 233.617 233.773 233.773zm0-436.374c111.887 0 202.602 90.707 202.602 202.601 0 111.895-90.715 202.598-202.602 202.598-111.898 0-202.609-90.703-202.609-202.597.133-111.84 90.762-202.477 202.61-202.602zm0 0"/><path d="M637.418 710.05l-27.898 13.93 31.171 62.34a15.574 15.574 0 0011.45 8.422c.804.125 1.609.192 2.418.203 4.129 0 8.093-1.644 11.023-4.566L852.59 603.363l-22.031-22.039-171.735 171.727zm0 0"/></svg><svg viewBox="0 0 32 32" id="clock" xmlns="http://www.w3.org/2000/svg"><path d="M16 3.205C8.934 3.205 3.205 8.934 3.205 16S8.934 28.795 16 28.795 28.795 23.066 28.795 16 23.066 3.205 16 3.205zm0 24.524C9.533 27.729 4.271 22.468 4.271 16S9.532 4.271 16 4.271 27.729 9.532 27.729 16c0 6.467-5.261 11.729-11.729 11.729z"/><path d="M16 17.066H9.602v1.066h7.464V7.513H16z"/></svg><svg fill="#787878" viewBox="0 0 28 32" id="diamond" xmlns="http://www.w3.org/2000/svg"><path d="M27.467 10.667L21.174 3.2h-14.4L.481 10.667l-.48.533.427.533L13.975 28.8l13.973-17.6-.48-.533zm-1.387 0H15.36l5.333-6.347 5.387 6.347zm-12.16 0l-5.547-6.4H19.36l-5.44 6.4zm-6.773-6.24l5.387 6.24H1.867l5.28-6.24zm6.293 7.306V26.4L1.76 11.733h11.68zM14.507 26.4V11.733h11.627L14.507 26.4z"/></svg><svg fill="#787878" viewBox="0 0 29 32" id="joy" xmlns="http://www.w3.org/2000/svg"><path d="M21.76 12.725c-2.003 0-4.095 1.81-6.549 2.067v-1.046c.014-2.569 1.939-5.217 5.156-5.217h.61c2.96 0 6.003-2.343 6.328-6.294h-1.05c-.314 3.296-2.831 5.245-5.278 5.245h-.61c-3.806 0-6.169 3.221-6.203 6.229h-.002v.04l-.001.026h.001v1.018c-2.454-.257-4.546-2.067-6.548-2.067C5.458 12.726 0 17.003 0 25.386c0 4.245 2.865 4.379 3.23 4.379h.038c1.779 0 3.422-.855 5.475-2.909s2.874-2.592 4.362-2.592h3.165c1.489 0 2.309.539 4.362 2.592s3.695 2.909 5.475 2.909h.038c.364 0 3.229-.134 3.229-4.379 0-8.383-5.457-12.66-7.613-12.66zm4.395 15.992l-.025-.001h-.025c-1.494 0-2.909-.778-4.733-2.601-2.015-2.015-3.107-2.899-5.104-2.899h-3.164c-1.997 0-3.089.884-5.104 2.899-1.824 1.823-3.239 2.601-4.733 2.601l.002-.003-.04.003c-.512 0-2.181-.24-2.181-3.33 0-8.01 5.217-11.611 6.565-11.611.792 0 1.731.422 2.726.869 1.269.57 2.707 1.216 4.356 1.229 1.631-.013 3.069-.66 4.339-1.229.995-.447 1.934-.869 2.726-.869 1.346 0 6.564 3.601 6.564 11.611 0 3.091-1.669 3.33-2.169 3.331z"/><path d="M8.396 16.921H7.347v2.098H5.249v1.049h2.098v2.098h1.049v-2.098h2.098v-1.049H8.396zm11.011 1.046a1.574 1.574 0 100 3.147 1.574 1.574 0 000-3.147zm0 2.098a.525.525 0 010-1.049.525.525 0 010 1.049zm4.196-1.049a1.574 1.574 0 100 3.147 1.574 1.574 0 000-3.147zm0 2.098a.525.525 0 110-1.047.525.525 0 010 1.047z"/></svg><svg viewBox="0 0 32 32" id="like" xmlns="http://www.w3.org/2000/svg"><path d="M21.886 5.115a6.376 6.376 0 016.376 6.376 6.354 6.354 0 01-1.964 4.6L16.001 26.44 5.517 15.904a6.35 6.35 0 01-1.778-4.413 6.376 6.376 0 0112.262-2.452 6.377 6.377 0 015.886-3.924zm0-1.066A7.424 7.424 0 0016 6.933a7.42 7.42 0 00-5.886-2.884c-4.104 0-7.442 3.339-7.442 7.442 0 1.928.737 3.758 2.075 5.152L16 27.952l11.053-11.108a7.368 7.368 0 002.275-5.352c0-4.104-3.339-7.442-7.442-7.442z"/></svg><svg fill="#fff" viewBox="0 0 32 32" id="look" xmlns="http://www.w3.org/2000/svg"><path d="M16 6.404c-5.847 0-10.404 3.66-15.994 9.593 4.816 5.073 8.857 9.6 15.994 9.6s12.382-5.73 15.994-9.492c-3.697-4.407-8.943-9.7-15.994-9.7zm0 18.126c-6.336 0-10.16-3.929-14.524-8.532C6.668 10.584 10.796 7.471 16 7.471c6.161 0 10.975 4.443 14.558 8.591-3.523 3.674-8.293 8.469-14.558 8.469z"/><path d="M16 9.603c-3.528 0-6.398 2.87-6.398 6.397s2.87 6.397 6.398 6.397 6.398-2.87 6.398-6.397S19.528 9.603 16 9.603zm0 11.728c-2.939 0-5.331-2.391-5.331-5.331s2.392-5.331 5.331-5.331S21.331 13.06 21.331 16A5.338 5.338 0 0116 21.331z"/><path d="M16 12.268c-2.058 0-3.732 1.674-3.732 3.732s1.674 3.732 3.732 3.732c2.058 0 3.732-1.674 3.732-3.732S18.058 12.268 16 12.268zm0 6.398c-1.47 0-2.666-1.196-2.666-2.666S14.53 13.334 16 13.334 18.666 14.53 18.666 16A2.67 2.67 0 0116 18.666z"/></svg><svg fill="#787878" viewBox="0 0 26 32" id="magic-wand" xmlns="http://www.w3.org/2000/svg"><path d="M-.007 28.236L13.909 14.32l.754.754L.747 28.99l-.754-.754zm9.98-17.783h4.267v1.067H9.973v-1.067zm11.734 0h4.267v1.067h-4.267v-1.067zM17.44 14.72h1.067v4.267H17.44V14.72zm0-11.733h1.067v4.267H17.44V2.987zm6.551 2.73l-3.017 3.017-.754-.754 3.017-3.017.754.754zm-.745 11.325l-3.017-3.017.754-.754L24 16.288l-.754.754zm-8.26-8.301l-3.017-3.017.754-.754 3.017 3.017-.754.754z"/></svg><svg fill="#787878" viewBox="0 0 28 32" id="paint-bucket" xmlns="http://www.w3.org/2000/svg"><path d="M22.347 14.827l-10.4-10.453-.213.16v-.267c0-1.76-1.44-3.2-3.2-3.2s-3.2 1.44-3.2 3.2v6.667L.907 15.361a3.122 3.122 0 000 4.427l6.027 6.027c.587.64 1.44.907 2.24.907s1.6-.32 2.24-.907l7.627-7.68h6.56l-3.253-3.307zM6.4 4.267c0-1.173.96-2.133 2.133-2.133s2.133.96 2.133 2.133V5.6L6.399 9.867v-5.6zm12.213 12.8l-8 8c-.373.373-.907.587-1.493.587a2.058 2.058 0 01-1.44-.587L1.653 19.04c-.8-.8-.8-2.133 0-2.933l9.013-8.96v6.72h1.067V6.08l.16-.16L23.04 17.067h-4.427zm9.6 9.92c-.32-2.88-3.413-6.72-3.413-6.72s-3.147 3.893-3.413 6.773v.427c0 1.92 1.547 3.467 3.467 3.467s3.467-1.547 3.467-3.467c-.053-.16-.053-.32-.107-.48zm-3.413 2.88a2.39 2.39 0 01-2.4-2.4V27.2c.16-1.6 1.387-3.68 2.347-5.12.96 1.387 2.187 3.52 2.4 5.067v.32c.053 1.333-1.013 2.4-2.347 2.4z"/></svg><svg fill="#787878" viewBox="0 0 32 32" id="phone" xmlns="http://www.w3.org/2000/svg"><path d="M23.086 1.606H8.913c-.797 0-1.444.647-1.444 1.444v25.901c0 .798.647 1.444 1.444 1.444h14.173c.797 0 1.444-.646 1.444-1.444V3.05c0-.797-.647-1.444-1.444-1.444zm.378 27.345a.377.377 0 01-.377.377H8.914a.377.377 0 01-.377-.377v-4.95h14.928v4.95zm0-6.017H8.536V5.892h14.928v17.042zm0-18.108H8.536V3.05c0-.208.169-.378.377-.378h14.173c.208 0 .377.17.377.378v1.776z"/><path d="M14.401 26.129H17.6v1.066h-3.199v-1.066z"/></svg><svg fill="#787878" viewBox="0 0 32 32" id="plane" xmlns="http://www.w3.org/2000/svg"><path d="M9.123 30.464l-1.33-6.268-6.318-1.397 1.291-2.475 5.785-.316c.297-.386.96-1.234 1.374-1.648l5.271-5.271L4.207 7.701l2.782-2.782 13.932 2.444 4.933-4.933c.585-.585 1.496-.894 2.634-.894.776 0 1.395.143 1.421.149l.3.07.089.295c.469 1.55.187 3.298-.67 4.155l-4.956 4.956 2.434 13.875-2.782 2.782-5.367-10.945-4.923 4.924a90.2 90.2 0 01-2.033 1.912l-.431 5.425-2.449 1.329zm-6.058-8.405l5.63 1.244 1.176 5.544.685-.372.418-5.268.155-.142c.016-.014 1.542-1.409 2.153-2.02l5.978-5.979 5.367 10.945 1.334-1.335L23.527 10.8l5.349-5.348c.464-.464.745-1.598.484-2.783a6.038 6.038 0 00-.87-.066c-.593 0-1.399.101-1.881.582L21.284 8.51 7.351 6.066 6.016 7.4l10.989 5.388-6.326 6.326c-.483.482-1.418 1.722-1.428 1.734l-.149.198-5.672.31-.366.702z"/></svg><svg viewBox="0 0 32 32" id="portfolio" xmlns="http://www.w3.org/2000/svg"><path d="M19.732 7.203V4.537h-7.464v2.666H3.205v20.259h25.59V7.203h-9.063zm-6.398-1.599h5.331v1.599h-5.331V5.604zM12.268 8.27h15.461v8.53h-7.997v-2.133h-7.464V16.8H4.271V8.27h7.997zm6.398 7.463v3.199h-5.331v-3.199h5.331zM4.271 26.396v-8.53h7.997v2.133h7.464v-2.133h7.997v8.53H4.272z"/></svg><svg viewBox="0 0 32 32" id="star" xmlns="http://www.w3.org/2000/svg"><path d="M19.38 12.803L16 2.405l-3.381 10.398H1.606l8.925 6.397-3.427 10.395L16 23.147l8.895 6.448L21.469 19.2l8.925-6.397H19.38zm1.077 6.731l2.394 7.261-6.85-4.965-6.851 4.965 2.64-8.005-.637-.456-6.228-4.464h8.471l2.606-8.016 2.605 8.016h8.471l-6.864 4.92.245.744z"/></svg></svg>