<?xml version="1.0" encoding="utf-8"?>
<!-- Generator: Adobe Illustrator 15.0.0, SVG Export Plug-In . SVG Version: 6.00 Build 0)  -->
<!DOCTYPE svg PUBLIC "-//W3C//DTD SVG 1.0//EN" "http://www.w3.org/TR/2001/REC-SVG-20010904/DTD/svg10.dtd">
<svg version="1.0" id="Layer_1" xmlns="http://www.w3.org/2000/svg" xmlns:xlink="http://www.w3.org/1999/xlink" x="0px" y="0px"
	 width="63px" height="75.084px" viewBox="0 0 63 75.084" enable-background="new 0 0 63 75.084" fill="#81b3d2" xml:space="preserve">
<path fill-rule="evenodd" clip-rule="evenodd" d="M60.165,22.23h-0.103H35.758c13.603-6.815,14.688-11.115,14.188-13.52
	c-1.145-3.916-5.605-6.938-9.849-5.341c-5.484,2.063-7.028,10.262-8.513,16.19c-1.894-5.998-3.726-13.649-8.011-17.525
	c-1.242-1.125-3.049-2.237-5.676-2.003c-3.965,0.352-9.652,5.317-7.344,10.849c2.217,5.313,9.539,8.67,14.354,11.35H3.104h-0.27
	C1.275,22.23,0,23.506,0,25.065V36.25c0,1.559,1.275,2.834,2.835,2.834h0.27v33.062v2.405v0.532h56.958v-0.532v-2.405V39.084h0.103
	c1.56,0,2.835-1.275,2.835-2.834V25.065C63,23.506,61.725,22.23,60.165,22.23z M41.766,5.873c2.07-0.306,4.907,1.283,5.175,3.171
	c0.386,2.723-3.348,5.192-5.008,6.343c-2.484,1.723-4.852,2.611-7.177,4.006C35.628,15.748,37.267,6.539,41.766,5.873z
	 M19.232,15.721c-2.19-1.467-6.444-4.378-6.342-7.678c0.11-3.552,5.655-6.491,8.68-3.839c3.797,3.331,5.625,10.972,7.01,16.357
	C25.381,19.042,22.35,17.808,19.232,15.721z M25.114,72.147H6.042V39.084h19.072V72.147z M25.114,36.084H3V25.23h22.114V36.084z
	 M35.115,36.084v3v33.062h-7.063V39.084v-3V25.23h7.063V36.084z M57.125,72.147H38.053V39.084h19.072V72.147z M60,36.084H38.053
	V25.23H60V36.084z"/>
</svg>
