<?xml version="1.0" encoding="utf-8"?>
<!-- Generator: Adobe Illustrator 15.0.0, SVG Export Plug-In . SVG Version: 6.00 Build 0)  -->
<!DOCTYPE svg PUBLIC "-//W3C//DTD SVG 1.0//EN" "http://www.w3.org/TR/2001/REC-SVG-20010904/DTD/svg10.dtd">
<svg version="1.0" id="Layer_1" xmlns="http://www.w3.org/2000/svg" xmlns:xlink="http://www.w3.org/1999/xlink" x="0px" y="0px"
	 width="26.096px" height="33.803px" viewBox="0 0 26.096 33.803" enable-background="new 0 0 26.096 33.803" xml:space="preserve">
<g>
	<path d="M13.047,0L0,1.456v24.475l13.047,7.835v0.037l13.049-7.872V1.558L13.047,0z M24.037,24.745l-10.989,6.622v-7.385
		l-6.369-2.858v-0.021l6.373-2.816v-0.02h0.002v0.011l6.365,2.814v-0.006l0.01,0.006v-1.234l-6.365-2.813l-0.004,0.003l-0.006-0.003
		v0.011h-0.002v-0.003L6.678,19.87v-1.235l0,0l5.849-2.585l-1.386-0.621l-4.463,1.973v-1.234l3.078-1.361l-1.386-0.621l-1.692,0.748
		v-1.234l0.307-0.135l-3.73-1.675l9.793-4.248V2.084l10.989,1.321V24.745z"/>
	<polygon points="19.428,17.39 14.958,15.413 13.57,16.035 19.428,18.624 	"/>
	<polygon points="19.428,14.921 17.734,14.173 16.346,14.793 19.428,16.155 	"/>
</g>
</svg>
