<?xml version="1.0" encoding="utf-8"?>
<!-- Generator: Adobe Illustrator 15.0.0, SVG Export Plug-In . SVG Version: 6.00 Build 0)  -->
<!DOCTYPE svg PUBLIC "-//W3C//DTD SVG 1.0//EN" "http://www.w3.org/TR/2001/REC-SVG-20010904/DTD/svg10.dtd">
<svg version="1.0" id="Layer_1" xmlns="http://www.w3.org/2000/svg" xmlns:xlink="http://www.w3.org/1999/xlink" x="0px" y="0px"
	 width="25.988px" height="29.922px" viewBox="0 0 25.988 29.922" enable-background="new 0 0 25.988 29.922" xml:space="preserve">
<path d="M0,0h25.988v29.922l-12.994-4.811L0,29.922V0z M20.154,17.895c-0.241,0-0.509-0.006-0.801-0.018
	c-0.293-0.014-0.508-0.051-0.645-0.116c-0.225-0.103-0.391-0.26-0.5-0.469c-0.107-0.21-0.162-0.492-0.162-0.854
	c0-0.394,0.018-1.211,0.055-2.457c0.035-1.244,0.054-2.318,0.054-3.226c0-0.858-0.146-1.556-0.439-2.089
	c-0.294-0.535-0.688-0.941-1.186-1.223c-0.522-0.289-1.108-0.48-1.759-0.571c-0.649-0.093-1.365-0.14-2.143-0.14
	c-0.562,0-1.172,0.068-1.83,0.199c-0.658,0.133-1.24,0.318-1.746,0.561C8.539,7.725,8.104,8.02,7.747,8.377
	C7.39,8.734,7.211,9.137,7.211,9.586c0,0.521,0.174,0.946,0.52,1.271c0.346,0.323,0.857,0.486,1.533,0.486
	c0.476,0,0.827-0.043,1.057-0.132c0.229-0.089,0.437-0.213,0.621-0.374c0.139-0.119,0.242-0.283,0.314-0.486
	c0.072-0.205,0.109-0.375,0.109-0.512c0-0.306-0.057-0.621-0.17-0.951c-0.112-0.329-0.181-0.573-0.205-0.734
	c0.145-0.104,0.335-0.207,0.572-0.308c0.236-0.101,0.532-0.151,0.885-0.151c0.394,0,0.711,0.09,0.952,0.266
	c0.241,0.177,0.417,0.393,0.53,0.651c0.104,0.225,0.172,0.501,0.205,0.831c0.031,0.327,0.048,0.593,0.048,0.795v1.154
	c-0.468,0.225-1.206,0.48-2.22,0.767c-1.013,0.285-1.881,0.56-2.604,0.825c-0.378,0.144-0.726,0.301-1.044,0.471
	c-0.316,0.17-0.596,0.381-0.838,0.64c-0.265,0.281-0.47,0.604-0.614,0.969c-0.146,0.366-0.217,0.811-0.217,1.333
	c0,0.909,0.329,1.637,0.989,2.189c0.658,0.551,1.455,0.825,2.387,0.825c0.627,0,1.115-0.044,1.465-0.132
	c0.35-0.089,0.715-0.223,1.092-0.396c0.289-0.138,0.561-0.303,0.814-0.494c0.253-0.193,0.517-0.426,0.79-0.699h0.071
	c0.169,0.546,0.484,0.965,0.949,1.259c0.465,0.293,1.19,0.438,2.176,0.438c0.536,0,1.045-0.064,1.525-0.192s0.896-0.269,1.25-0.421
	V17.895z M14.133,16.593c-0.217,0.265-0.468,0.487-0.754,0.668c-0.286,0.183-0.65,0.271-1.094,0.271
	c-0.419,0-0.771-0.139-1.057-0.42c-0.287-0.282-0.43-0.738-0.43-1.363c0-0.475,0.084-0.888,0.254-1.238
	c0.169-0.349,0.403-0.638,0.701-0.862c0.281-0.218,0.644-0.425,1.087-0.622c0.442-0.197,0.89-0.371,1.342-0.525L14.133,16.593z"/>
</svg>
