<?xml version="1.0" encoding="utf-8"?>
<!-- Generator: Adobe Illustrator 15.0.0, SVG Export Plug-In . SVG Version: 6.00 Build 0)  -->
<!DOCTYPE svg PUBLIC "-//W3C//DTD SVG 1.0//EN" "http://www.w3.org/TR/2001/REC-SVG-20010904/DTD/svg10.dtd">
<svg version="1.0" id="Layer_1" xmlns="http://www.w3.org/2000/svg" xmlns:xlink="http://www.w3.org/1999/xlink" x="0px" y="0px"
	 width="255.917px" height="28.91px" viewBox="0 0 255.917 28.91" enable-background="new 0 0 255.917 28.91" fill="#766357" xml:space="preserve">
<g>
	<path d="M63.999,14.454l-0.202,0.23c-1.353,1.468-3.023,2.188-4.521,2.217l2.822-4.866c1.814-3.138,0.144-6.104-2.678-6.104
		c-2.304,0-4.089,0.921-5.816,3.916l-1.468,2.562l-1.227,2.098l-0.154,0.177c-2.159,2.505-4.261,4.491-5.586,4.491
		c-0.662,0-1.037-0.461-0.345-1.641l6.421-11.201h2.447l0.864-1.44H52.08L54.902,0h-2.995l-2.822,4.895h-2.707l-0.864,1.44h2.735
		l-6.018,10.423c-1.267,2.217-0.374,4.262,2.044,4.262c1.739,0,3.662-1.309,5.511-3.084c-0.005,3.816,5.298,4.561,8.539,0.463h0.662
		c1.785,0,4.607-1.094,6.133-2.908C64.92,15.087,64.402,14.627,63.999,14.454z M57.607,14.656h-0.144
		c-0.979,0-1.756,0.806-1.756,1.786c0,0.373,0.115,0.719,0.288,1.008l-0.029,0.057c-1.411,2.419-4.837,1.958-3.052-1.151
		l2.274-3.945l1.44-2.447c2.102-3.57,4.981-2.16,3.167,0.95L57.607,14.656z"/>
	<path d="M105.455,14.454l-0.202,0.23c-2.16,2.505-4.924,4.491-7.025,4.491c-1.843,0-2.937-1.151-1.555-3.57l0.288-0.519
		c1.929,0.806,5.557,0.432,7.803-3.455l0.432-0.749c1.612-2.764,0.058-4.837-2.39-4.837c-2.419,0-4.348,1.267-5.615,3.455
		l-2.906,4.985l-0.173,0.198c-2.16,2.505-4.261,4.491-5.586,4.491c-0.662,0-1.037-0.461-0.346-1.641L92.5,9.962
		c1.295-2.275,0.058-3.916-1.613-3.916c-1.295,0-2.678,0.72-4.175,2.274L91.492,0h-2.995l-8.354,14.492l-0.168,0.192
		c-2.159,2.505-4.261,4.491-5.586,4.491c-0.662,0-1.037-0.461-0.345-1.641l6.421-11.201h2.447l0.864-1.44h-2.476L84.123,0h-2.995
		l-2.822,4.895H75.6l-0.864,1.44h2.735l-6.018,10.423c-1.267,2.217-0.374,4.262,2.044,4.262c1.213,0,2.517-0.639,3.822-1.627
		l-0.771,1.338h3.023l4.549-7.917c4.607-5.788,6.651-5.039,5.355-2.822l-3.887,6.767c-1.267,2.217-0.374,4.262,2.044,4.262
		c1.782,0,3.757-1.375,5.647-3.217c0.144,1.865,1.653,3.217,4.054,3.217c3.397,0,6.766-2.649,9.243-5.529
		C106.376,15.087,105.858,14.627,105.455,14.454z M99.754,10.25c1.728-2.965,4.78-2.476,2.995,0.634l-0.432,0.749
		c-1.439,2.447-3.369,2.39-4.492,1.987L99.754,10.25z"/>
	<path d="M214.624,14.454l-0.201,0.23c-1.095,1.295-2.419,2.447-3.6,3.253c0.95-2.85,0.749-7.227,2.592-11.056l-2.246-1.209
		c-1.238,1.699-3.944,5.615-6.651,8.782c0,0,0.001,0.001,0.001,0.001l-0.201,0.229c-2.159,2.505-4.261,4.491-5.586,4.491
		c-0.662,0-1.036-0.461-0.345-1.641l6.392-11.201h-2.994l-5.327,9.3c-2.274,2.072-4.031,3.225-4.606,2.965
		c-0.749-0.316,0-1.439,0.374-2.072l5.845-10.193h-2.994l-4.694,8.124l-0.198,0.227c-1.354,1.468-3.023,2.188-4.521,2.217
		l2.821-4.866c1.814-3.138,0.145-6.104-2.678-6.104c-2.303,0-4.088,0.921-5.815,3.916l-1.469,2.562l-1.226,2.097l-0.155,0.178
		c-2.159,2.505-4.924,4.491-7.025,4.491c-1.843,0-2.938-1.151-1.555-3.57l0.288-0.519c1.929,0.806,5.557,0.432,7.803-3.455
		l0.432-0.749c1.612-2.764,0.058-4.837-2.39-4.837c-2.419,0-4.348,1.267-5.615,3.455l-2.904,4.984l-0.175,0.199
		c-2.476,2.851-4.606,4.692-6.968,5.7l6.709-11.459h-1.757c0-1.238-1.267-2.879-3.138-2.879c-1.612,0-3.858,1.267-5.126,3.455
		l-2.871,4.957c-0.002-0.001-0.005-0.003-0.007-0.004l-0.201,0.23c-2.159,2.505-4.262,4.491-5.586,4.491
		c-0.662,0-1.036-0.461-0.346-1.641l2.995-5.241c1.036-1.814,0.547-2.879-0.433-4.06l-1.67-2.016
		c-0.432-0.547-0.432-1.152,0.173-1.728l-1.555-1.699c-1.699,1.526-1.843,3.225-0.777,4.607l0.259,0.346
		c-1.324,1.872-3.109,4.405-5.067,6.709c0,0,0.001,0.001,0.001,0.001l-0.2,0.229c-1.354,1.468-3.023,2.188-4.521,2.217l2.821-4.866
		c1.814-3.138,0.145-6.104-2.678-6.104c-2.303,0-4.088,0.921-5.815,3.916l-1.469,2.562l-1.228,2.101l-0.152,0.174
		c-2.477,2.851-4.607,4.692-6.968,5.7l6.709-11.459h-1.756c0-1.238-1.267-2.879-3.139-2.879c-1.612,0-3.858,1.267-5.125,3.455
		l-4.204,7.256c-1.267,2.217-0.374,4.262,2.044,4.262c0.835,0,1.843-0.375,2.851-1.008l-0.835,1.41
		c-4.031,1.238-6.565,2.879-6.565,5.125c0,2.88,4.405,3.484,6.565-0.201l2.275-3.945c2.396-0.747,4.743-2.156,7.18-4.482
		c-0.022,3.832,5.293,4.585,8.539,0.48h0.662c1.785,0,4.607-1.094,6.133-2.908c0,0-0.001-0.001-0.001-0.001
		c1.439-1.67,2.562-3.167,4.951-6.419l0.403,0.489c0.374,0.49,0.519,1.094,0.173,1.699l-3.167,5.5
		c-1.268,2.217-0.375,4.262,2.044,4.262c1.518,0,3.176-0.997,4.802-2.43c-0.049,1.391,0.879,2.43,2.597,2.43
		c0.835,0,1.843-0.375,2.851-1.008l-0.835,1.41c-4.031,1.238-6.564,2.879-6.564,5.125c0,2.88,4.405,3.484,6.564-0.201l2.274-3.945
		c2.44-0.761,4.83-2.214,7.315-4.617c0.134,1.875,1.647,3.236,4.057,3.236c2.438,0,4.859-1.367,6.948-3.201
		c-0.118,3.92,5.266,4.721,8.541,0.58h0.662c0.938,0,2.158-0.308,3.329-0.856c-0.805,2.081-0.063,3.478,1.65,3.478
		c1.641,0,3.483-1.498,4.923-2.88c-0.288,1.612,0.662,2.88,2.562,2.88c2.477,0,5.327-2.649,7.804-5.529c0,0-0.001-0.001-0.001-0.001
		c1.698-1.958,3.195-4.059,4.261-5.469c-1.181,3.109-0.548,8.695-3.398,8.695c-1.008,0-1.41-1.094-1.41-1.094l-1.872,0.979
		c0,0,0.547,2.42,3.282,2.42c0.288,0,0.548-0.029,0.835-0.059c0.029,0,0.058-0.028,0.087-0.028c3.052-0.403,6.075-2.821,8.321-5.442
		C215.574,15.03,215.055,14.569,214.624,14.454z M171.641,10.25c1.728-2.965,4.779-2.476,2.994,0.634l-0.432,0.749
		c-1.44,2.447-3.369,2.39-4.492,1.987L171.641,10.25z M114.465,25.855c-0.634,1.123-1.641,0.951-1.641,0.145
		c0-0.777,0.72-1.67,2.994-2.562L114.465,25.855z M115.847,19.176c-0.662,0-1.037-0.461-0.345-1.641l4.175-7.285
		c1.612-2.793,4.809-2.073,3.34,0.634l-2.274,3.973C118.928,17.766,117.114,19.176,115.847,19.176z M134.244,14.656h-0.145
		c-0.979,0-1.756,0.806-1.756,1.786c0,0.373,0.115,0.719,0.288,1.008l-0.029,0.057c-1.41,2.419-4.837,1.958-3.052-1.151l2.274-3.945
		l1.439-2.447c2.103-3.57,4.981-2.16,3.168,0.95L134.244,14.656z M153.071,25.855c-0.634,1.123-1.642,0.951-1.642,0.145
		c0-0.777,0.72-1.67,2.995-2.562L153.071,25.855z M154.453,19.176c-0.662,0-1.036-0.461-0.346-1.641l4.176-7.285
		c1.612-2.793,4.808-2.073,3.34,0.634l-2.275,3.973C157.534,17.766,155.719,19.176,154.453,19.176z M183.992,14.656h-0.145
		c-0.979,0-1.756,0.806-1.756,1.786c0,0.373,0.115,0.719,0.288,1.008l-0.029,0.057c-1.41,2.419-4.837,1.958-3.052-1.151l2.274-3.945
		l1.439-2.447c2.103-3.57,4.981-2.16,3.168,0.95L183.992,14.656z"/>
</g>
<rect y="11.275" width="28.917" height="1.958"/>
<rect x="227" y="11.275" width="28.918" height="1.958"/>
</svg>
