<?xml version="1.0" encoding="utf-8"?>
<!-- Generator: Adobe Illustrator 15.0.0, SVG Export Plug-In . SVG Version: 6.00 Build 0)  -->
<!DOCTYPE svg PUBLIC "-//W3C//DTD SVG 1.0//EN" "http://www.w3.org/TR/2001/REC-SVG-20010904/DTD/svg10.dtd">
<svg version="1.0" id="Layer_1" xmlns="http://www.w3.org/2000/svg" xmlns:xlink="http://www.w3.org/1999/xlink" x="0px" y="0px"
	 width="293.826px" height="79.393px" viewBox="0 0 293.826 79.393" enable-background="new 0 0 293.826 79.393" fill="white"
	 xml:space="preserve">
<g>
	<path d="M33.419,17.06c7.658-2.589,8.242-12.181,0.693-12.181c-2.079,0-4.559,1.459-6.272,4.449L17.628,26.979
		c-0.474,0.839-0.948,1.532-1.458,2.151c-2.626-3.61-1.86-9.007,1.823-11.378l-1.532-1.933c-7.95,5.069-5.616,19.693,7.659,19.693
		C35.462,35.513,40.713,21.91,33.419,17.06z M24.047,32.595c-2.261,0-4.048-0.511-5.47-1.313c0.657-0.766,1.313-1.714,1.896-2.699
		l6.382-11.05l1.021,0.109C36.774,19.503,33.237,32.595,24.047,32.595z M28.131,15.309l3.063-5.251
		c2.771-4.777,6.309-1.969,4.413,1.604C34.149,14.397,31.997,15.236,28.131,15.309z"/>
	<path d="M65.499,29.321c-0.629,2.248,0.573,4.076,3.146,4.076c1.532,0,3.428-0.985,5.251-2.48c0.183,1.459,1.35,2.48,3.282,2.48
		c2.02,0,4.235-1.395,6.394-3.358c-0.42,2.048,0.541,3.358,2.41,3.358c2.079,0,4.413-1.896,6.236-3.647
		c-0.365,2.042,0.839,3.647,3.246,3.647c3.136,0,6.747-3.355,9.883-7.002c-0.025-0.05-0.069-0.102-0.101-0.152
		c2.097-2.437,3.946-5.026,5.268-6.777c-1.496,3.939-0.693,11.014-4.304,11.014c-1.276,0-1.787-1.386-1.787-1.386l-2.371,1.24
		c0,0,0.693,3.063,4.157,3.063c0.365,0,0.693-0.037,1.058-0.073c0.037,0,0.073-0.036,0.109-0.036
		c2.786-0.368,5.55-2.064,7.943-4.224c0.058,2.495,1.995,4.333,5.145,4.333c4.303,0,8.57-3.355,11.707-7.002
		c-0.255-0.511-0.912-1.094-1.422-1.313l-0.255,0.292c-2.735,3.172-6.236,5.689-8.898,5.689c-2.334,0-3.72-1.459-1.969-4.522
		l0.365-0.657c2.443,1.021,7.039,0.547,9.883-4.376l0.547-0.948c2.042-3.501,0.073-6.127-3.027-6.127
		c-3.063,0-5.507,1.605-7.111,4.376l-3.683,6.318c-0.035-0.012-0.071-0.037-0.105-0.046l-0.255,0.292
		c-1.386,1.641-3.063,3.1-4.558,4.121c1.203-3.61,0.948-9.153,3.282-14.004l-2.844-1.532c-1.568,2.152-4.996,7.112-8.424,11.123
		c0.032,0.046,0.074,0.091,0.11,0.138l-0.135,0.154c-2.735,3.172-5.397,5.689-7.075,5.689c-0.838,0-1.312-0.583-0.438-2.079
		l8.096-14.187h-3.793l-6.747,11.779c-2.881,2.626-5.105,4.084-5.835,3.756c-0.948-0.401,0-1.823,0.474-2.625l7.403-12.91h-3.793
		l-6.036,10.446c-0.098-0.06-0.196-0.123-0.288-0.162l-0.255,0.292c-2.735,3.172-5.397,5.689-7.075,5.689
		c-0.838,0-1.312-0.583-0.438-2.079l6.127-10.722h-2.152c0.146-1.605-1.495-3.83-3.975-3.83c-2.042,0-4.887,1.605-6.491,4.376
		l-3.846,6.637c-0.195-0.152-0.394-0.286-0.577-0.365l-0.255,0.292c-2.735,3.172-6.236,5.689-8.898,5.689
		c-2.334,0-3.72-1.459-1.97-4.522l3.902-6.783c2.188-3.756,6.054-3.136,3.792,0.802l-0.547,0.948h3.1l0.547-0.948
		c2.042-3.501,0.073-6.127-3.027-6.127c-3.063,0-5.507,1.605-7.111,4.376l-3.77,6.467c-0.118-0.077-0.236-0.147-0.347-0.195
		l-0.255,0.292c-2.735,3.172-6.236,5.689-8.898,5.689c-2.334,0-3.72-1.459-1.97-4.522l0.365-0.657
		c2.443,1.021,7.039,0.547,9.883-4.376l0.547-0.948c2.042-3.501,0.073-6.127-3.027-6.127c-3.063,0-5.507,1.605-7.111,4.376
		l-3.975,6.819c-2.371,4.048-0.328,7.768,4.157,7.768c3.341,0,6.657-2.024,9.442-4.635c-0.098,2.647,1.865,4.635,5.141,4.635
		C59.77,33.397,62.847,31.656,65.499,29.321z M123.528,19.758c2.188-3.756,6.054-3.136,3.792,0.802l-0.547,0.948
		c-1.823,3.1-4.267,3.027-5.689,2.516L123.528,19.758z M69.337,28.985l5.288-9.227c2.042-3.538,6.09-2.626,4.23,0.802l-2.954,5.179
		c-2.297,3.61-4.559,5.324-6.126,5.324C68.936,31.063,68.462,30.48,69.337,28.985z M45.153,19.758
		c2.188-3.756,6.054-3.136,3.792,0.802l-0.547,0.948c-1.823,3.1-4.267,3.027-5.689,2.516L45.153,19.758z"/>
	<path d="M173.737,33.397c4.304,0,8.57-3.355,11.706-7.002c-0.255-0.511-0.911-1.094-1.422-1.313l-0.255,0.292
		c-2.735,3.172-6.236,5.689-8.898,5.689c-2.334,0-3.72-1.459-1.97-4.522l0.365-0.657c2.443,1.021,7.038,0.547,9.883-4.376
		l0.547-0.948c2.042-3.501,0.073-6.127-3.027-6.127c-3.062,0-5.506,1.605-7.111,4.376l-3.693,6.336
		c-0.037-0.019-0.077-0.048-0.113-0.064l-0.256,0.292c-2.734,3.172-5.396,5.689-7.074,5.689c-0.839,0-1.313-0.583-0.438-2.079
		l5.47-9.591c1.642-2.881,0.073-4.96-2.042-4.96c-1.642,0-3.392,0.912-5.288,2.881l6.054-10.54h-3.793l-10.697,18.559
		c-0.148-0.104-0.297-0.192-0.434-0.251l-0.256,0.292c-2.735,3.172-5.397,5.689-7.075,5.689c-0.838,0-1.312-0.583-0.438-2.079
		l8.133-14.187h3.1l1.095-1.823h-3.137l3.574-6.2h-3.793l-3.574,6.2h-3.428l-1.094,1.823h3.464L140.199,28
		c-1.604,2.808-0.474,5.397,2.589,5.397c1.885,0,3.941-1.216,5.962-2.975l-1.504,2.61h3.83l5.762-10.029
		c5.835-7.33,8.424-6.382,6.783-3.574L158.698,28c-1.604,2.808-0.475,5.397,2.589,5.397c2.305,0,4.864-1.813,7.304-4.221
		C168.703,31.615,170.633,33.397,173.737,33.397z M176.8,19.758c2.188-3.756,6.054-3.136,3.793,0.802l-0.547,0.948
		c-1.824,3.1-4.268,3.027-5.689,2.516L176.8,19.758z"/>
	<path d="M288.756,25.083l-0.256,0.292c-2.734,3.172-5.397,5.689-7.074,5.689c-0.839,0-1.313-0.583-0.438-2.079l12.837-22.209
		h-3.793l-5.58,9.628c-0.656-1.058-1.896-1.97-3.464-1.97c-2.043,0-4.888,1.605-6.492,4.376l-3.711,6.406
		c-0.08-0.047-0.162-0.101-0.237-0.133l-0.256,0.292c-2.734,3.172-5.396,5.689-7.074,5.689c-0.839,0-1.313-0.583-0.438-2.079
		l5.47-9.591c1.642-2.881,0.073-4.96-2.042-4.96c-1.642,0-3.355,0.875-5.252,2.845l1.423-2.48h-3.793l-6.062,10.487
		c-0.123-0.081-0.246-0.153-0.36-0.203l-0.256,0.292c-2.734,3.172-5.397,5.689-7.074,5.689c-0.839,0-1.313-0.583-0.438-2.079
		l6.126-10.722h-2.151c0.146-1.605-1.495-3.83-3.975-3.83c-2.043,0-4.888,1.605-6.492,4.376l-3.667,6.329l-0.206,0.235
		c-2.734,3.172-5.397,5.689-7.074,5.689c-0.839,0-1.313-0.583-0.438-2.079l3.792-6.637c1.313-2.298,0.693-3.647-0.547-5.142
		l-2.115-2.553c-0.547-0.693-0.547-1.458,0.219-2.188l-1.969-2.151c-2.152,1.933-2.334,4.084-0.985,5.835l0.329,0.438
		c-1.678,2.371-3.939,5.58-6.419,8.497c0.074,0.108,0.163,0.215,0.258,0.322c-3.125,3.592-5.781,5.918-8.763,7.191l4.813-8.242
		h-3.792l-0.401,0.657c-2.006,3.537-4.304,6.054-7.258,6.054c-2.589,0-3.062-2.589-0.802-6.455l1.058-1.86
		c0.692,0.109,1.386,0.183,2.151,0.183c13.493,0,20.021-18.052,8.133-18.052c-2.079,0-4.559,1.459-6.272,4.449l-5.908,10.175
		c-2.225-1.167-3.392-3.282-3.392-5.397c0-1.75,0.803-3.501,2.443-4.777l-1.24-2.225c-2.698,1.933-3.901,4.522-3.901,7.075
		c0,3.027,1.714,5.944,4.777,7.549l-1.131,1.969c-2.662,4.595-2.188,9.701,3.173,9.701c1.604,0,2.954-0.474,4.121-1.204
		l-0.985,1.714c-5.142,1.568-8.314,3.646-8.314,6.491c0,3.647,5.58,4.413,8.314-0.255l2.918-4.996
		c3.938-1.24,7.804-3.938,11.962-8.752c-0.059-0.117-0.143-0.238-0.236-0.357c1.684-1.979,3.114-3.888,5.97-7.775l0.51,0.62
		c0.475,0.62,0.657,1.386,0.219,2.152L223.238,28c-1.605,2.808-0.475,5.397,2.589,5.397c1.907,0,3.989-1.244,6.033-3.036
		c-0.044,1.745,1.149,3.036,3.311,3.036c1.531,0,3.428-0.985,5.251-2.48c0.183,1.459,1.35,2.48,3.282,2.48
		c1.816,0,3.792-1.129,5.742-2.785l-1.398,2.42h3.829l5.798-10.102c5.799-7.257,8.388-6.309,6.747-3.501L259.499,28
		c-1.604,2.808-0.475,5.397,2.589,5.397c2.016,0,4.226-1.388,6.381-3.346c-0.202,1.901,1.006,3.346,3.294,3.346
		c1.531,0,3.428-0.985,5.251-2.48c0.183,1.459,1.35,2.48,3.282,2.48c3.137,0,6.747-3.355,9.883-7.002
		C289.923,25.885,289.267,25.301,288.756,25.083z M210.793,10.933c1.131-1.933,2.371-2.771,3.429-2.771
		c6.018,0,1.787,12.253-8.133,12.253h-0.766L210.793,10.933z M202.734,39.524c-0.802,1.422-2.078,1.204-2.078,0.183
		c0-0.985,0.875-2.115,3.793-3.246L202.734,39.524z M242.427,25.739c-2.298,3.61-4.559,5.324-6.127,5.324
		c-0.839,0-1.312-0.583-0.438-2.079l5.288-9.227c2.042-3.538,6.09-2.626,4.23,0.802L242.427,25.739z M279.128,25.52
		c-2.298,3.756-4.632,5.543-6.236,5.543c-0.839,0-1.312-0.583-0.438-2.079l5.288-9.227c2.042-3.538,6.09-2.626,4.23,0.802h0.036
		L279.128,25.52z"/>
	<path d="M162.051,61.082l-0.255,0.293c-2.735,3.172-5.397,5.688-7.075,5.688c-0.839,0-1.312-0.583-0.438-2.079l5.471-9.591
		c1.641-2.881,0.072-4.96-2.043-4.96c-1.641,0-3.354,0.875-5.251,2.845l1.422-2.479h-3.793l-6.112,10.574
		c-0.165-0.119-0.331-0.225-0.484-0.291l-0.255,0.293c-1.714,1.859-3.83,2.771-5.726,2.808l3.574-6.163
		c2.297-3.976,0.182-7.731-3.392-7.731c-2.917,0-5.178,1.167-7.367,4.96l-1.86,3.245l-1.626,2.782
		c-0.117-0.076-0.234-0.146-0.343-0.193l-0.255,0.293c-3.136,3.609-5.798,5.943-8.789,7.221l10.394-17.797h-3.792l-6.71,11.67
		c-2.917,2.698-5.178,4.193-5.908,3.865c-0.948-0.4,0-1.823,0.474-2.625l7.403-12.91h-3.793l-6.051,10.47
		c-0.113-0.072-0.226-0.142-0.331-0.187l-0.255,0.293c-2.735,3.172-5.397,5.688-7.075,5.688c-0.838,0-1.312-0.583-0.438-2.079
		l5.47-9.591c1.641-2.881,0.073-4.96-2.042-4.96c-1.641,0-3.355,0.875-5.251,2.845l1.422-2.479h-3.793l-6.062,10.486
		c-0.123-0.081-0.246-0.153-0.36-0.203l-0.255,0.293c-2.735,3.172-5.397,5.688-7.075,5.688c-0.838,0-1.312-0.583-0.438-2.079
		l6.127-10.721h-2.152c0.146-1.605-1.495-3.83-3.975-3.83c-2.042,0-4.887,1.605-6.491,4.377l-3.918,6.762
		c-0.259-0.235-0.558-0.417-0.831-0.49l-0.255,0.293c-2.735,3.172-6.09,5.688-9.847,5.688c-2.589,0-4.157-2.589-1.896-6.455
		l1.058-1.86c0.693,0.109,1.386,0.184,2.151,0.184c4.048,0,8.643-2.08,11.634-7.295c1.057-1.859,1.531-3.609,1.531-5.105
		c0-3.428-2.225-5.652-5.032-5.652c-2.079,0-4.559,1.459-6.273,4.449l-5.908,10.175c-2.225-1.167-3.392-3.282-3.392-5.397
		c0-1.75,0.802-3.501,2.443-4.777l-1.24-2.225c-2.699,1.934-3.902,4.521-3.902,7.075c0,3.026,1.714,5.944,4.777,7.549l-1.13,1.97
		c-2.662,4.595-1.094,9.7,4.267,9.7c4.241,0,7.353-1.889,9.968-4.372c-0.826,2.383,0.374,4.372,3.059,4.372
		c1.532,0,3.428-0.985,5.251-2.479c0.183,1.459,1.35,2.479,3.282,2.479c1.816,0,3.792-1.129,5.742-2.784l-1.399,2.42h3.83
		l5.798-10.102c5.798-7.258,8.388-6.31,6.747-3.502L98.09,64c-1.604,2.809-0.474,5.397,2.589,5.397c2.041,0,4.282-1.425,6.464-3.423
		c-0.455,2.086,0.509,3.423,2.398,3.423c1.824,0,3.902-1.532,5.616-3.063l-2.079,3.574c-5.142,1.531-8.351,3.646-8.351,6.491
		c0,3.647,5.58,4.413,8.314-0.255l2.917-4.996c3.171-0.998,6.297-2.965,9.563-6.196c-0.524,5.297,6.533,6.505,10.786,1.126h0.839
		c1.385,0,3.26-0.523,4.952-1.455l-2.549,4.41h3.83l5.798-10.102c5.798-7.258,8.388-6.31,6.747-3.502L151.001,64
		c-1.604,2.809-0.475,5.397,2.59,5.397c3.136,0,6.746-3.354,9.883-7.002C163.218,61.885,162.562,61.301,162.051,61.082z
		 M67.664,46.933c1.13-1.933,2.371-2.771,3.428-2.771c1.422,0,2.079,0.948,2.079,2.334c0,3.538-4.303,9.919-10.211,9.919h-0.766
		L67.664,46.933z M81.019,61.739c-2.297,3.61-4.559,5.324-6.127,5.324c-0.838,0-1.312-0.583-0.438-2.079l5.288-9.227
		c2.042-3.537,6.09-2.625,4.23,0.803L81.019,61.739z M109.87,75.523c-0.803,1.423-2.079,1.204-2.079,0.184
		c0-0.985,0.912-2.115,3.829-3.246L109.87,75.523z M135.397,61.338h-0.183c-1.24,0-2.225,1.021-2.225,2.262
		c0,0.474,0.146,0.911,0.365,1.275l-0.036,0.073c-1.787,3.063-6.127,2.479-3.866-1.459l2.881-4.996l1.823-3.1
		c2.663-4.522,6.309-2.735,4.012,1.204L135.397,61.338z"/>
	<path d="M249.958,62.396c-0.219-0.583-0.875-1.167-1.422-1.313l-0.256,0.293c-1.386,1.641-3.063,3.1-4.559,4.12
		c1.204-3.61,0.948-9.153,3.282-14.004l-2.845-1.532c-1.567,2.152-4.996,7.112-8.424,11.123c0.006,0.01,0.015,0.018,0.021,0.026
		c-0.015-0.007-0.031-0.02-0.046-0.026l-0.255,0.293c-2.735,3.172-5.397,5.688-7.075,5.688c-0.839,0-1.641-0.839-1.641-2.553v-1.568
		c2.662,0.328,5.47-1.423,7.257-4.522l1.021-1.75c3.537-6.054-2.225-8.06-6.091-4.521l5.397-9.373h-3.793l-10.816,18.766
		c-0.23-0.195-0.475-0.364-0.695-0.459l-0.255,0.293c-2.735,3.172-6.236,5.688-8.898,5.688c-2.334,0-3.72-1.459-1.97-4.522
		l3.902-6.783c2.188-3.756,6.054-3.136,3.793,0.803l-0.547,0.948h3.1l0.547-0.948c2.042-3.501,0.073-6.127-3.027-6.127
		c-3.062,0-5.507,1.605-7.111,4.377l-3.732,6.404c-0.079-0.047-0.161-0.101-0.235-0.133l-0.256,0.293
		c-2.734,3.172-5.396,5.688-7.074,5.688c-0.839,0-1.313-0.583-0.438-2.079l8.096-14.186h-3.793l-6.746,11.779
		c-2.882,2.625-5.106,4.084-5.835,3.756c-0.948-0.4,0-1.823,0.474-2.625l7.403-12.91h-3.793l-7.365,12.744
		c-0.821,0.746-1.66,1.413-2.45,1.952c1.203-3.61,0.948-9.153,3.282-14.004l-2.845-1.532c-1.568,2.152-10.32,13.75-13.749,17.761
		c0.328,0.474,0.876,0.948,1.423,1.313c2.151-2.48,9.372-11.779,10.722-13.566c-1.495,3.938-0.693,11.014-4.304,11.014
		c-1.276,0-1.787-1.387-1.787-1.387l-2.37,1.24c0,0,0.693,3.063,4.157,3.063c0.365,0,0.693-0.036,1.058-0.073
		c0.036,0,0.073-0.036,0.109-0.036c1.926-0.255,3.841-1.142,5.631-2.379c-0.013,1.542,0.919,2.488,2.508,2.488
		c2.078,0,4.412-1.896,6.235-3.647c-0.364,2.043,0.839,3.647,3.246,3.647c2.355,0,4.979-1.893,7.467-4.38
		c0.034,2.519,1.975,4.38,5.145,4.38c3.078,0,6.136-1.72,8.776-4.032l-2.114,3.668h3.829l4.34-7.549v3.026
		c0,3.245,0.62,4.887,3.683,4.887c3.137,0,6.747-3.354,9.884-7.002c-0.006-0.011-0.017-0.022-0.022-0.034
		c0.016,0.012,0.031,0.023,0.047,0.034c2.152-2.479,4.049-5.142,5.397-6.929c-1.495,3.938-0.692,11.014-4.303,11.014
		c-1.276,0-1.787-1.387-1.787-1.387l-2.37,1.24c0,0,0.692,3.063,4.157,3.063c0.364,0,0.692-0.036,1.058-0.073
		c0.036,0,0.072-0.036,0.109-0.036C243.285,68.777,247.114,65.714,249.958,62.396z M224.77,59.405l1.094-1.896
		c4.377-6.091,7.367-4.413,6.018-2.115l-1.823,3.136C228.927,60.499,225.609,61.885,224.77,59.405z"/>
	<path d="M249.811,64.984c-1.239,0-2.188,0.984-2.188,2.225s0.948,2.188,2.188,2.188c1.24,0,2.225-0.948,2.225-2.188
		S251.051,64.984,249.811,64.984z"/>
	<polygon points="249.994,63.489 253.823,63.489 265.711,42.775 261.919,42.775 	"/>
</g>
<g>
	<path d="M5.75,6.9c0,0.293-0.057,0.587-0.169,0.879C5.468,8.073,5.299,8.338,5.074,8.575C4.848,8.812,4.572,9.003,4.245,9.15
		c-0.327,0.147-0.694,0.22-1.1,0.22c-0.451,0-0.885-0.084-1.302-0.253C1.426,8.947,1.071,8.705,0.778,8.389
		C0.529,8.096,0.338,7.746,0.203,7.34C0.067,6.934,0,6.506,0,6.055c0-0.856,0.152-1.646,0.457-2.368
		c0.304-0.722,0.738-1.364,1.302-1.928C2.007,1.511,2.288,1.28,2.604,1.065C2.92,0.852,3.219,0.671,3.501,0.524
		C3.782,0.378,4.025,0.26,4.228,0.169C4.431,0.079,4.555,0.023,4.6,0l1.353,1.996c-0.249,0.09-0.524,0.209-0.829,0.355
		C4.82,2.498,4.532,2.678,4.262,2.892C3.991,3.106,3.766,3.36,3.585,3.653C3.405,3.946,3.303,4.285,3.281,4.668
		c0.654,0,1.229,0.192,1.725,0.575S5.75,6.179,5.75,6.9z M13.616,6.9c0,0.293-0.057,0.587-0.169,0.879
		c-0.113,0.293-0.282,0.558-0.507,0.795c-0.226,0.237-0.502,0.429-0.829,0.575c-0.328,0.147-0.694,0.22-1.1,0.22
		c-0.451,0-0.885-0.084-1.302-0.253C9.292,8.947,8.937,8.705,8.644,8.389C8.396,8.096,8.204,7.746,8.069,7.34
		C7.934,6.934,7.866,6.506,7.866,6.055c0-0.856,0.152-1.646,0.457-2.368c0.304-0.722,0.738-1.364,1.302-1.928
		c0.248-0.248,0.529-0.479,0.846-0.693c0.315-0.214,0.614-0.394,0.896-0.541c0.282-0.146,0.524-0.265,0.728-0.355
		c0.203-0.09,0.327-0.146,0.372-0.169l1.353,1.996c-0.249,0.09-0.524,0.209-0.829,0.355c-0.305,0.147-0.592,0.327-0.863,0.541
		c-0.271,0.214-0.496,0.468-0.676,0.761c-0.181,0.293-0.282,0.631-0.305,1.015c0.654,0,1.229,0.192,1.725,0.575
		C13.368,5.626,13.616,6.179,13.616,6.9z"/>
</g>
<g>
	<path d="M278.776,65.842c0-0.294,0.057-0.588,0.168-0.88c0.113-0.294,0.283-0.558,0.508-0.795c0.226-0.237,0.502-0.429,0.828-0.575
		c0.328-0.146,0.694-0.22,1.1-0.22c0.451,0,0.886,0.085,1.303,0.253c0.418,0.17,0.772,0.412,1.065,0.729
		c0.249,0.293,0.44,0.643,0.575,1.048c0.135,0.406,0.203,0.834,0.203,1.286c0,0.855-0.152,1.645-0.457,2.367
		c-0.305,0.722-0.738,1.364-1.303,1.928c-0.248,0.248-0.529,0.479-0.846,0.693c-0.314,0.215-0.613,0.395-0.896,0.541
		c-0.281,0.146-0.523,0.266-0.727,0.355s-0.326,0.146-0.372,0.17l-1.353-1.996c0.248-0.09,0.523-0.209,0.828-0.355
		s0.592-0.327,0.863-0.541c0.27-0.215,0.496-0.469,0.676-0.762c0.181-0.293,0.282-0.631,0.305-1.014
		c-0.654,0-1.229-0.192-1.725-0.576C279.024,67.115,278.776,66.562,278.776,65.842z M270.909,65.842c0-0.294,0.057-0.588,0.17-0.88
		c0.113-0.294,0.281-0.558,0.507-0.795s0.503-0.429,0.829-0.575c0.327-0.146,0.693-0.22,1.1-0.22c0.451,0,0.885,0.085,1.302,0.253
		c0.417,0.17,0.772,0.412,1.065,0.729c0.248,0.293,0.439,0.643,0.575,1.048c0.136,0.406,0.202,0.834,0.202,1.286
		c0,0.855-0.151,1.645-0.456,2.367c-0.304,0.722-0.738,1.364-1.302,1.928c-0.248,0.248-0.529,0.479-0.846,0.693
		s-0.614,0.395-0.896,0.541c-0.281,0.146-0.524,0.266-0.728,0.355s-0.327,0.146-0.372,0.17l-1.354-1.996
		c0.249-0.09,0.525-0.209,0.829-0.355c0.305-0.146,0.593-0.327,0.862-0.541c0.271-0.215,0.496-0.469,0.677-0.762
		s0.282-0.631,0.305-1.014c-0.653,0-1.229-0.192-1.726-0.576C271.158,67.115,270.909,66.562,270.909,65.842z"/>
</g>
</svg>
