<?xml version="1.0" encoding="utf-8"?><svg viewBox="0 0 154 50" xmlns="http://www.w3.org/2000/svg" xmlns:xlink="http://www.w3.org/1999/xlink"><style>:root>svg{display:none}:root>svg:target{display:block}</style><svg fill="none" viewBox="0 0 24 24" id="about" xmlns="http://www.w3.org/2000/svg"><circle cx="12" cy="5" r="4.4"/><circle cx="5" cy="19" r="4.4"/><circle cx="19" cy="19" r="4.4"/></svg><svg fill="none" viewBox="0 0 12 12" id="check" xmlns="http://www.w3.org/2000/svg"><path d="M10 3L4.5 8.5 2 6"/></svg><svg fill="none" viewBox="0 0 18 21" id="contacts" xmlns="http://www.w3.org/2000/svg"><path d="M17 8.667c0 6.222-8 11.555-8 11.555S1 14.89 1 8.667a8 8 0 1116 0z"/><path d="M9 11.333A2.667 2.667 0 109 6a2.667 2.667 0 000 5.333z"/></svg><svg viewBox="0 0 28 28" id="cross" xmlns="http://www.w3.org/2000/svg"><path d="M21 7L7 21M7 7l14 14"/></svg><svg fill="none" viewBox="0 0 154 50" id="dj-store-logo" xmlns="http://www.w3.org/2000/svg"><path d="M145.172 30.77H3.924A3.924 3.924 0 000 34.692v7.537a3.924 3.924 0 003.924 3.924h141.248a3.924 3.924 0 003.924-3.924v-7.537a3.924 3.924 0 00-3.924-3.924z" fill="#2D3786"/><path d="M33.35 3.37h-.298V23.282H41.717c2.82 0 4.779-.631 6.004-2.34 1.202-1.676 1.644-4.326 1.644-8.208 0-3.356-.462-5.712-1.647-7.225-1.201-1.536-3.089-2.137-5.746-2.137H33.35zm4.15 4.164h4.217c1.32 0 2.03.202 2.468.921.234.382.406.934.518 1.737.112.802.16 1.83.16 3.153 0 1.315-.057 2.336-.19 3.13-.131.795-.334 1.34-.61 1.716-.53.73-1.406.937-2.99.937H37.5V7.534zM56.245 14.722v-.298H51.96v2.3c0 2.363.392 4.052 1.423 5.14 1.035 1.094 2.645 1.511 4.89 1.511 2.263 0 3.915-.448 4.993-1.547 1.076-1.097 1.514-2.778 1.514-5.082V2.587h-4.518V16.77c0 .528-.026.936-.09 1.254-.063.317-.159.524-.282.666-.244.28-.685.41-1.616.41-1.036 0-1.478-.142-1.705-.418-.117-.141-.202-.347-.255-.665-.053-.319-.07-.724-.07-1.247v-2.048zM75.674 10.762h0c-1.01-.063-1.753-.139-2.303-.241-.555-.104-.882-.23-1.082-.373-.182-.132-.275-.291-.325-.524-.055-.253-.056-.57-.056-1.014 0-.575.069-1.038.43-1.378.374-.35 1.128-.636 2.683-.636.682 0 1.212.028 1.625.1.413.071.685.183.872.333.361.29.51.811.51 1.919V9.5h4.383V8.206c0-2.281-.746-3.724-2.11-4.57-1.33-.826-3.195-1.05-5.349-1.05-2.509 0-4.409.457-5.685 1.458-1.291 1.012-1.89 2.54-1.89 4.548 0 2.362.65 3.895 1.93 4.862 1.253.947 3.057 1.305 5.249 1.47.862.065 1.543.137 2.08.235.538.098.912.218 1.174.366.251.143.4.312.491.528.097.226.14.523.14.933 0 .857-.136 1.357-.55 1.678-.445.344-1.28.543-2.87.543-.791 0-1.393-.012-1.858-.072-.465-.06-.753-.165-.944-.318-.182-.148-.313-.37-.396-.755-.084-.391-.113-.918-.113-1.64v-.552h-4.332v1.324c0 2.784.857 4.375 2.312 5.238 1.414.838 3.332.943 5.332.943 3.184 0 5.164-.539 6.334-1.699 1.174-1.163 1.46-2.879 1.46-5.014 0-2.216-.652-3.653-1.928-4.553-1.246-.879-3.038-1.204-5.214-1.347zM85.04 6.798v.298h5.354v15.987h4.603V7.095h5.352V2.879H85.04v3.918zM110.719 2.587c-3.096 0-5.184.519-6.466 2.103-1.265 1.562-1.68 4.085-1.68 7.885 0 2.188.082 3.956.312 5.374.229 1.418.61 2.51 1.223 3.331 1.242 1.662 3.348 2.095 6.611 2.095 3.174 0 5.276-.512 6.544-2.205.627-.837 1.03-1.936 1.278-3.342.248-1.405.345-3.137.345-5.253 0-3.758-.436-6.28-1.712-7.852-1.294-1.593-3.384-2.136-6.455-2.136zm0 16.553c-.84 0-1.466-.029-1.946-.153-.464-.12-.775-.325-1.004-.681-.239-.373-.405-.937-.506-1.81-.1-.87-.134-2.01-.134-3.513 0-1.562.038-2.731.145-3.61.107-.884.279-1.437.521-1.793.229-.339.539-.525 1.001-.629.48-.107 1.098-.121 1.923-.121.81 0 1.422.015 1.901.124.462.105.776.293 1.011.635.246.358.424.912.536 1.794.112.877.155 2.044.155 3.6 0 1.492-.037 2.628-.142 3.494-.105.87-.275 1.436-.519 1.813-.233.36-.549.569-1.012.691-.479.127-1.101.159-1.93.159zM121.779 3.37h-.298V23.282h4.478v-6.306h4.148c.807 0 1.31.162 1.616.446.301.28.47.736.47 1.475v4.385h4.489V18.59c0-1.047-.19-1.923-.594-2.602a2.974 2.974 0 00-1.175-1.121c.789-.477 1.277-1.19 1.572-1.991.361-.984.436-2.11.436-3.126 0-2.139-.468-3.752-1.523-4.826-1.057-1.075-2.645-1.552-4.75-1.552h-8.869zm4.18 4.164h4.284c.916 0 1.408.173 1.697.526.305.373.453 1.023.453 2.166 0 1.02-.18 1.651-.519 2.031-.331.37-.872.567-1.767.567h-4.148v-5.29zM152.038 7.457h.298V3.371h-12.82V23.28h12.82v-4.08h-8.439v-3.959h8.049v-4.081h-8.049V7.457h8.141z" fill="#3F476B" stroke="#3F476B" stroke-width=".596" stroke-miterlimit="10"/><path d="M27.465 13.461c0 7.435-6.15 13.462-13.735 13.462C6.148 26.923 0 20.896 0 13.462 0 6.026 6.148 0 13.73 0c7.585 0 13.735 6.027 13.735 13.461z" fill="#397DFF"/><path d="M21.578 18.895c.004.71-.642 1.29-1.425 1.29l-12.833.007c-.787 0-1.43-.58-1.43-1.287l-.005-.656c0-.707.646-1.288 1.431-1.288l12.833-.005c.787 0 1.43.58 1.43 1.287v.652h-.001zM20.05 14.99c.785 0 1.079-.486.654-1.083l-6.203-8.65c-.426-.597-1.123-.597-1.55 0l-6.19 8.654c-.427.596-.136 1.082.656 1.082l12.633-.004z" fill="#fff"/><path d="M148.115 34.615H8.828a3.924 3.924 0 00-3.924 3.924v7.537A3.924 3.924 0 008.828 50h139.287a3.923 3.923 0 003.923-3.924V38.54a3.923 3.923 0 00-3.923-3.924z" fill="#397DFF"/><path d="M37.362 39.389h.971v5.296l4.061-5.296h.903v6.866h-.962v-5.287l-4.07 5.287h-.903v-6.866zm14.078 0v6.866h-.98v-3.06h-3.944v3.06h-.98v-6.866h.98v2.952h3.943V39.39h.981zm5.31 6.944c-.687 0-1.308-.15-1.864-.45a3.413 3.413 0 01-1.294-1.256 3.506 3.506 0 01-.471-1.805c0-.667.157-1.266.47-1.795a3.302 3.302 0 011.305-1.256 3.787 3.787 0 011.864-.46c.536 0 1.026.09 1.471.274.445.176.824.441 1.138.794l-.638.618c-.516-.542-1.16-.814-1.932-.814-.51 0-.971.115-1.383.343a2.514 2.514 0 00-.971.952 2.651 2.651 0 00-.343 1.344c0 .497.114.948.343 1.353.235.4.559.713.971.942a2.8 2.8 0 001.383.343c.765 0 1.41-.274 1.932-.824l.638.618a3.044 3.044 0 01-1.148.805 3.828 3.828 0 01-1.471.274zm8.71-6.091h-2.354v6.013h-.962v-6.013H59.8v-.853h5.66v.853zm5.408 4.296H67.22l-.756 1.717h-1.01l3.11-6.866h.97l3.12 6.866h-1.03l-.756-1.717zm-.343-.784l-1.481-3.365-1.481 3.365h2.962zm9.051-4.365v6.866h-.961v-6.013h-3.04l-.07 2.01c-.032.95-.11 1.717-.235 2.306-.118.589-.307 1.033-.569 1.334-.261.294-.614.441-1.06.441-.202 0-.408-.026-.617-.078l.069-.873c.104.026.209.04.313.04a.81.81 0 00.677-.334c.17-.23.298-.57.383-1.02.085-.452.14-1.047.166-1.786l.108-2.893h4.836zm7.762 0v6.866h-.962v-6.013h-3.04l-.07 2.01c-.032.95-.11 1.717-.235 2.306-.117.589-.307 1.033-.569 1.334-.261.294-.614.441-1.059.441-.203 0-.409-.026-.618-.078l.069-.873c.104.026.21.04.314.04a.81.81 0 00.676-.334c.17-.23.298-.57.383-1.02.085-.452.14-1.047.167-1.786l.108-2.893h4.836zm7.268 0v6.866h-.961v-2.001h-1.893c-.118 0-.206-.003-.265-.01l-1.373 2.01h-1.04l1.52-2.177c-.49-.163-.866-.434-1.128-.814-.261-.386-.392-.853-.392-1.402 0-.779.249-1.384.746-1.815.503-.438 1.18-.657 2.03-.657h2.756zm-4.541 2.462c0 .51.147.902.441 1.177.301.268.742.402 1.324.402h1.815v-3.188h-1.756c-.588 0-1.04.137-1.353.412-.314.275-.471.674-.471 1.197zm13.609 3.55v2.413h-.912v-1.56h-5.915V39.39h.971V45.4h3.826V39.39h.971V45.4h1.059zm1.404-6.012h.971v5.296l4.061-5.296h.902v6.866h-.961v-5.287l-4.071 5.287h-.902v-6.866zm8.173 0h.971v5.296l4.061-5.296h.902v6.866h-.961v-5.287l-4.071 5.287h-.902v-6.866z" fill="#fff"/></svg><svg stroke="transparent" viewBox="0 0 24 24" id="home" xmlns="http://www.w3.org/2000/svg"><path d="M23.4 10.392l-.002-.002L13.608.6a2.194 2.194 0 00-1.562-.647c-.59 0-1.145.23-1.563.647L.698 10.385a2.212 2.212 0 00-.006 3.13 2.197 2.197 0 001.535.648h.39v7.204a2.589 2.589 0 002.586 2.586h3.83a.703.703 0 00.703-.703v-5.648c0-.651.53-1.18 1.18-1.18h2.26c.65 0 1.179.529 1.179 1.18v5.648c0 .388.315.703.703.703h3.83a2.589 2.589 0 002.586-2.586v-7.204h.362a2.213 2.213 0 001.564-3.77zm-.996 2.13a.798.798 0 01-.568.235h-1.065a.703.703 0 00-.703.703v7.907c0 .65-.53 1.18-1.18 1.18h-3.127v-4.945a2.589 2.589 0 00-2.586-2.586h-2.259a2.59 2.59 0 00-2.586 2.586v4.945H5.203c-.65 0-1.18-.53-1.18-1.18V13.46a.703.703 0 00-.703-.703H2.273a.797.797 0 01-.586-.236.804.804 0 010-1.136s0 0 0 0h.001l9.79-9.79a.797.797 0 01.568-.236c.214 0 .416.084.568.236l9.787 9.787.005.004a.805.805 0 01-.002 1.135z"/></svg><svg fill="none" viewBox="0 0 21 17" id="mail" xmlns="http://www.w3.org/2000/svg"><path class="gst0" d="M2.5.5h16c1.1 0 2 .9 2 2v12c0 1.1-.9 2-2 2h-16c-1.1 0-2-.9-2-2v-12c0-1.1.9-2 2-2z"/><path class="gst0" d="M20.5 2.5l-10 7-10-7"/></svg><svg viewBox="0 0 24 24" id="menu" xmlns="http://www.w3.org/2000/svg"><path d="M3 12h18M3 6h18M3 18h18"/></svg><svg fill="none" viewBox="0 0 22 22" id="phone" xmlns="http://www.w3.org/2000/svg"><path d="M21 15.92v3a2 2 0 01-2.18 2 19.79 19.79 0 01-8.63-3.07 19.5 19.5 0 01-6-6 19.79 19.79 0 01-3.07-8.67A2 2 0 013.11 1h3a2 2 0 012 1.72c.127.96.361 1.903.7 2.81a2 2 0 01-.45 2.11L7.09 8.91a16 16 0 006 6l1.27-1.27a2 2 0 012.11-.45c.907.338 1.85.573 2.81.7A2 2 0 0121 15.92z"/></svg><svg fill="none" viewBox="0 0 11 11" id="plus" xmlns="http://www.w3.org/2000/svg"><path d="M5.415 1v9M1 5.5h9"/></svg><svg stroke="transparent" viewBox="0 0 24 16" id="projects" xmlns="http://www.w3.org/2000/svg"><path d="M16.122.122A7.803 7.803 0 0012 1.289 7.803 7.803 0 007.878.122C3.533.122 0 3.655 0 8c0 4.345 3.533 7.878 7.878 7.878A7.803 7.803 0 0012 14.711a7.803 7.803 0 004.122 1.167C20.467 15.878 24 12.345 24 8 24 3.655 20.467.122 16.122.122zm-8.244 14.7a6.823 6.823 0 01-6.822-6.817 6.827 6.827 0 016.822-6.822c1.109 0 2.202.265 3.178.785a7.873 7.873 0 000 12.064c-.976.52-2.07.79-3.178.79zM12 13.427a6.816 6.816 0 010-10.86 6.816 6.816 0 010 10.86zm4.122 1.39a6.757 6.757 0 01-3.178-.785 7.873 7.873 0 000-12.064 6.71 6.71 0 013.178-.785 6.82 6.82 0 016.817 6.822 6.807 6.807 0 01-6.817 6.812z"/></svg><svg stroke="transparent" viewBox="0 0 16 22" id="services" xmlns="http://www.w3.org/2000/svg"><path d="M9.714 21.714H6.286c-.8 0-1.715-.685-1.715-2.057v-2.4c0-1.143-.571-2.171-1.485-2.971C1.029 12.686 0 10.4 0 7.886.114 3.543 3.657.114 7.886 0c2.171 0 4.228.8 5.714 2.286C15.086 3.77 16 5.829 16 8c0 2.4-1.029 4.686-2.971 6.171-1.029.8-1.6 2.058-1.6 3.2V20c0 .914-.8 1.714-1.715 1.714zM8 1.143c-3.657 0-6.743 3.086-6.857 6.743 0 2.171.914 4.228 2.628 5.485 1.258 1.029 1.943 2.4 1.943 3.886v2.4c0 .229 0 .915.572.915h3.428c.343 0 .572-.23.572-.572v-2.628c0-1.486.8-3.086 2.057-4.115 1.6-1.257 2.514-3.2 2.514-5.257 0-1.829-.686-3.543-2.057-4.914C11.543 1.829 9.829 1.143 8 1.143z"/></svg><svg stroke="transparent" viewBox="0 0 24 24" id="solutions" xmlns="http://www.w3.org/2000/svg"><path d="M24 12c0-.57-.303-1.09-.81-1.392l-1.337-.786 1.337-.795c.508-.303.81-.822.81-1.39 0-.57-.303-1.09-.81-1.392-1.67-.994-7.335-4.36-10.127-5.96-.647-.372-1.433-.387-2.132.003 0 0-7.593 4.46-10.12 5.956C.303 6.546 0 7.066 0 7.636c0 .568.303 1.088.81 1.392l1.337.794-1.336.786C.303 10.91 0 11.43 0 12c0 .568.303 1.088.81 1.391.363.217.822.49 1.337.795l-1.336.786c-.508.301-.811.821-.811 1.392 0 .568.303 1.088.81 1.391 2.161 1.286 7.474 4.44 10.127 5.96.325.187.693.286 1.063.286s.738-.099 1.064-.286c2.652-1.52 7.965-4.674 10.126-5.96.508-.303.81-.823.81-1.391 0-.57-.302-1.09-.81-1.392l-1.337-.786 1.337-.795c.508-.303.81-.823.81-1.391zM1.368 8.091c-.083-.05-.277-.194-.277-.454 0-.262.193-.404.276-.453C3.89 5.689 11.474 1.235 11.473 1.236a1.036 1.036 0 011.048-.004c2.785 1.597 8.444 4.959 10.111 5.95.083.05.277.195.277.455s-.194.404-.277.454c-2.158 1.284-7.465 4.434-10.11 5.95a1.04 1.04 0 01-1.043 0c-2.646-1.516-7.953-4.666-10.111-5.95zm21.265 7.82c.083.049.276.192.276.453 0 .26-.194.405-.277.454-2.158 1.284-7.465 4.435-10.11 5.95a1.04 1.04 0 01-1.043.001c-2.646-1.516-7.953-4.667-10.111-5.95-.083-.05-.277-.194-.277-.455s.193-.404.276-.453l1.85-1.09a759.435 759.435 0 007.72 4.531c.325.186.693.285 1.063.285s.738-.099 1.064-.285a756.414 756.414 0 007.718-4.53l1.851 1.089zm0-3.457c-2.16 1.284-7.466 4.435-10.111 5.951a1.04 1.04 0 01-1.043 0c-2.646-1.516-7.953-4.667-10.111-5.95-.083-.05-.277-.194-.277-.454 0-.262.193-.405.276-.454l1.85-1.089a759.435 759.435 0 007.72 4.53c.325.187.693.285 1.063.285s.738-.098 1.064-.285a756.414 756.414 0 007.718-4.53l1.851 1.09c.083.048.276.191.276.453 0 .26-.194.404-.277.454z"/></svg><svg viewBox="0 0 28 28" id="speaker" xmlns="http://www.w3.org/2000/svg"><path d="M23.22 1.1A3.58 3.58 0 0020.656 0H7.345A3.621 3.621 0 004.78 1.071a3.672 3.672 0 00-1.072 2.566v20.726c0 1.015.423 1.917 1.072 2.566A3.672 3.672 0 007.346 28h13.309a3.621 3.621 0 002.566-1.072 3.672 3.672 0 001.071-2.566V3.666A3.621 3.621 0 0023.221 1.1zm-.337 23.263c0 .62-.254 1.156-.649 1.579a2.237 2.237 0 01-1.58.648H7.347c-.62 0-1.156-.254-1.58-.648a2.238 2.238 0 01-.648-1.58V3.666c0-.62.254-1.156.649-1.58a2.238 2.238 0 011.579-.648h13.309c.62 0 1.156.254 1.579.649.395.394.648.958.648 1.579v20.697z"/><path d="M14 19.459a.733.733 0 100-1.467.733.733 0 000 1.466z"/><path d="M14.001 12.04a6.815 6.815 0 00-4.737 1.945 6.645 6.645 0 00-1.946 4.737c0 1.833.762 3.525 1.946 4.737A6.644 6.644 0 0014 25.405a6.815 6.815 0 004.737-1.946 6.645 6.645 0 001.946-4.737 6.815 6.815 0 00-1.946-4.737 6.815 6.815 0 00-4.737-1.945zm3.722 10.404a5.218 5.218 0 01-3.722 1.551 5.218 5.218 0 01-3.722-1.55 5.218 5.218 0 01-1.55-3.723c0-1.466.591-2.763 1.55-3.722a5.218 5.218 0 013.722-1.55c1.438 0 2.763.592 3.722 1.55a5.218 5.218 0 011.551 3.722c-.028 1.438-.592 2.764-1.55 3.722z"/><path d="M14 14.89c-1.071 0-2.03.424-2.707 1.128a3.818 3.818 0 00-1.128 2.707c0 1.072.423 2.03 1.128 2.707A3.817 3.817 0 0014 22.56c1.072 0 2.03-.423 2.707-1.128a3.817 3.817 0 001.128-2.706c0-1.072-.423-2.03-1.128-2.707-.677-.705-1.635-1.128-2.707-1.128zm1.72 5.555a2.383 2.383 0 01-1.72.705c-.677 0-1.269-.281-1.72-.704a2.384 2.384 0 01-.705-1.72c0-.677.282-1.27.705-1.72A2.384 2.384 0 0114 16.3c.677 0 1.27.282 1.72.705.451.452.705 1.044.705 1.72 0 .677-.282 1.27-.705 1.72zM14 11.222c1.184 0 2.255-.48 3.045-1.27a4.284 4.284 0 001.269-3.044c0-1.185-.48-2.256-1.27-3.046A4.284 4.284 0 0014 2.593c-1.185 0-2.256.48-3.046 1.27a4.284 4.284 0 00-1.269 3.045c0 1.184.48 2.255 1.27 3.045A4.284 4.284 0 0014 11.222zm-2.03-6.345A2.902 2.902 0 0114 4.031c.79 0 1.522.31 2.03.846.507.508.846 1.241.846 2.03 0 .79-.31 1.523-.846 2.03a2.901 2.901 0 01-2.03.847c-.79 0-1.523-.31-2.03-.846a2.902 2.902 0 01-.847-2.03c0-.79.31-1.495.846-2.03z"/><path d="M14 8.572c.451 0 .846-.198 1.156-.48.31-.31.48-.705.48-1.156 0-.45-.198-.846-.48-1.156-.31-.31-.705-.48-1.156-.48-.451 0-.846.198-1.156.48-.31.31-.48.705-.48 1.156 0 .451.17.846.48 1.156.31.31.705.48 1.156.48zm-.338-1.974A.467.467 0 0114 6.457c.113 0 .254.056.31.14a.453.453 0 01.141.311c0 .141-.056.254-.14.31A.453.453 0 0114 7.36c-.141 0-.254-.056-.31-.14a.453.453 0 01-.141-.311c0-.113.056-.226.113-.31z"/></svg></svg>