<svg version="1.1" id="Слой_1" xmlns="http://www.w3.org/2000/svg" xmlns:xlink="http://www.w3.org/1999/xlink" x="0" y="0" viewBox="0 0 512 512" xml:space="preserve"><defs><path id="SVGID_1_" d="M0 0h512v512H0z"/></defs><clipPath id="SVGID_2_"><use xlink:href="#SVGID_1_" overflow="visible"/></clipPath><path class="st0" d="M386 190c11 0 20 9 20 20s-9 20-20 20-20-9-20-20 9-20 20-20"/><path class="st0" d="M432 40h-26V20c0-11-9-20-20-20s-20 9-20 20v20h-91V20c0-11-9-20-20-20s-20 9-20 20v20h-90V20c0-11-9-20-20-20s-20 9-20 20v20H80C35.9 40 0 75.9 0 120v312c0 44.1 35.9 80 80 80h153c11 0 20-9 20-20s-9-20-20-20H80c-22.1 0-40-17.9-40-40V120c0-22.1 17.9-40 40-40h25v20c0 11 9 20 20 20s20-9 20-20V80h90v20c0 11 9 20 20 20s20-9 20-20V80h91v20c0 11 9 20 20 20s20-9 20-20V80h26c22.1 0 40 17.9 40 40v114c0 11 9 20 20 20s20-9 20-20V120c0-44.1-35.9-80-80-80"/><path class="st0" d="M391 270c-66.7 0-121 54.3-121 121s54.3 121 121 121 121-54.3 121-121-54.3-121-121-121m0 202c-44.7 0-81-36.3-81-81s36.3-81 81-81 81 36.3 81 81-36.3 81-81 81"/><path class="st0" d="M420 371h-9v-21c0-11-9-20-20-20s-20 9-20 20v41c0 11 9 20 20 20h29c11 0 20-9 20-20s-9-20-20-20M299 190c11 0 20 9 20 20s-9 20-20 20-20-9-20-20 9-20 20-20M212 277c11 0 20 9 20 20s-9 20-20 20-20-9-20-20 9-20 20-20M125 190c11 0 20 9 20 20s-9 20-20 20-20-9-20-20 9-20 20-20M125 277c11 0 20 9 20 20s-9 20-20 20-20-9-20-20 9-20 20-20M125 364c11 0 20 9 20 20s-9 20-20 20-20-9-20-20 9-20 20-20M212 364c11 0 20 9 20 20s-9 20-20 20-20-9-20-20 9-20 20-20M212 190c11 0 20 9 20 20s-9 20-20 20-20-9-20-20 9-20 20-20"/></svg>