<svg xmlns="http://www.w3.org/2000/svg" viewBox="0 0 23.6 23.6"><path d="M14.3 18.3c-.6.2-1.1.4-1.5.5-.3.2-.8.2-1.2.2-.7 0-1.3-.2-1.7-.5s-.6-.8-.6-1.4v-.7c0-.2.1-.5.1-.8l.8-2.7c.1-.3.1-.5.2-.7 0-.2.1-.4.1-.6 0-.3-.1-.6-.2-.7-.1-.1-.4-.2-.8-.2-.2 0-.4 0-.6.1-.3.1-.5.2-.6.2l.2-.8c.5-.2.9-.4 1.4-.5.5-.1.9-.2 1.3-.2.7 0 1.3.2 1.7.5.4.4.6.8.6 1.4v.6c0 .3-.1.6-.2.8l-.8 2.7c-.1.2-.1.5-.2.7 0 .3-.1.5-.1.6 0 .4.1.6.2.7.2.1.4.2.8.2.2 0 .4 0 .6-.1.2-.1.4-.1.5-.2v.9zm-.2-10.9c-.4.3-.8.5-1.3.5s-.9-.2-1.3-.5c-.3-.3-.5-.7-.5-1.2s.2-.9.5-1.2c.4-.3.8-.5 1.3-.5s.9.2 1.3.5.5.7.5 1.2c.1.5-.1.9-.5 1.2z"/></svg>