<svg xmlns="http://www.w3.org/2000/svg" xmlns:xlink="http://www.w3.org/1999/xlink" viewBox="0 0 23.7 28.6"><defs><path id="a" d="M0 0h23.7v28.6H0z"/></defs><clipPath id="b"><use xlink:href="#a" overflow="visible"/></clipPath><path d="M23.4 8.9C21.9 3 16.5-.6 10.1.1 4.6.7.1 5.7 0 11.5c-.1 2.7.6 5.3 2.4 7.3 3 3.3 6.3 6.4 9.8 9.8 1.6-1.7 3.2-3.5 4.8-5.2 1-1.1 2.1-2.1 3.2-3.2 1.9-1.9 3.1-4.1 3.5-6.8 0-.2.2-3.3-.3-4.5m-15.3 3C8.1 9.8 9.9 8 12 8.1c2.1 0 3.8 1.8 3.8 3.9 0 2.1-1.8 3.8-3.9 3.8-2.1 0-3.8-1.8-3.8-3.9" clip-path="url(#b)"/></svg>