<svg xmlns="http://www.w3.org/2000/svg" xmlns:xlink="http://www.w3.org/1999/xlink" viewBox="0 0 59.9 59.9"><defs><path id="a" d="M0 0h59.9v59.9H0z"/></defs><clipPath id="b"><use xlink:href="#a" overflow="visible"/></clipPath><path d="M27 24V3c0-1.7 1.3-3 3-3 16.6 0 30 13.4 29.9 30 0 16.5-13.4 30-30 29.9C13.3 59.8 0 46.5 0 29.9c0-11 6-21.1 15.7-26.3 1.5-.8 3.3-.2 4.1 1.2.8 1.4.2 3.3-1.2 4.1C7 15.2 2.6 29.8 8.9 41.4s20.9 16 32.5 9.7 16-20.9 9.7-32.5C47.4 11.8 40.7 7.1 33 6.2V30c0 1.7-1.3 3-3 3-.6 0-1.3-.2-1.8-.6l-12-9c-1.3-1-1.5-2.9-.5-4.2s2.8-1.5 4.1-.6L27 24z" clip-path="url(#b)"/></svg>