<?xml version="1.0" encoding="utf-8"?>
<!-- Generator: Adobe Illustrator 16.0.0, SVG Export Plug-In . SVG Version: 6.00 Build 0)  -->
<!DOCTYPE svg PUBLIC "-//W3C//DTD SVG 1.1//EN" "http://www.w3.org/Graphics/SVG/1.1/DTD/svg11.dtd">



<svg version="1.1" id="Слой_1" xmlns="http://www.w3.org/2000/svg" xmlns:xlink="http://www.w3.org/1999/xlink" x="0px" y="0px"
	 width="1885.939px" height="805.992px" viewBox="0 0 1885.939 805.992" enable-background="new 0 0 1885.939 805.992"
	 xml:space="preserve">
<g>
	<path fill-rule="evenodd"  clip-rule="evenodd" d="M843.573,202.311c54.216,54.222,108.042,108.052,162.542,162.559
		c-16.278,17.073-32.866,34.473-49.778,52.21c-21.489-18.376-42.525-36.363-63.562-54.352c-0.46,0.24-0.921,0.48-1.381,0.72
		c-0.217,4.557-0.623,9.112-0.625,13.668c-0.037,99.665-0.192,199.329,0.028,298.993c0.146,66.312-45.172,112.64-95.607,125.235
		c-10.414,2.602-21.35,4.223-32.063,4.322c-48.662,0.451-97.33,0.367-145.995,0.152c-59.503-0.263-112.292-42.05-124.147-98.953
		c-2.757-13.232-2.646-27.109-3.307-40.717c-0.491-10.1-0.097-20.243-0.097-30.701c37.055,0,73.45,0,110.626,0
		c0,3.955-0.176,7.737,0.032,11.498c0.732,13.261-0.152,26.912,2.76,39.69c7.009,30.761,34.949,51.547,66.556,51.57
		c19.167,0.015,38.333,0.052,57.499-0.008c36.595-0.113,67.899-30.775,67.983-67.427c0.224-98.664,0.09-197.329,0.074-295.993
		c0-2.826-0.207-5.656-0.433-8.476c-0.271-3.368-2.165-4.197-4.972-2.134c-1.197,0.88-2.189,2.043-3.247,3.106
		c-15.397,15.479-30.851,30.901-46.123,46.503c-2.529,2.584-4.061,2.931-6.859,0.348c-14.818-13.673-29.842-27.124-44.738-40.713
		c-3.163-2.886-6.093-6.028-9.518-9.438C734.188,309.907,788.922,256.068,843.573,202.311z M842.925,206.604
		c0.391-0.306-0.173,0.053-0.638,0.511c-51.841,51.154-103.661,102.33-155.545,153.438c-2.687,2.646-2.573,4.368,0.201,6.847
		c15.409,13.763,30.75,27.604,45.968,41.577c3.096,2.843,5.037,2.397,7.804-0.439c11.169-11.454,22.549-22.702,33.858-34.02
		c4.241-4.244,8.192-8.864,12.888-12.527c2.133-1.665,5.774-1.859,8.69-1.736c0.737,0.03,1.524,3.799,1.904,5.918
		c0.318,1.777,0.083,3.655,0.081,5.488c-0.079,96.164-0.147,192.327-0.268,288.49c-0.007,5.488-0.251,10.991-0.705,16.461
		c-2.664,32.153-30.059,60.99-62.168,63.276c-22.882,1.629-46.025,1.993-68.913,0.612c-36.946-2.229-62.621-26.758-67.674-63.212
		c-1.453-10.479-0.551-21.289-0.661-31.948c-0.077-7.51-0.025-7.519-7.763-7.52c-20.833-0.005-41.665-0.003-62.498-0.002
		c-10.167,0.001-20.333,0.025-30.499-0.004c-2.752-0.008-4.931,0.28-4.855,3.946c0.333,16.15-0.509,32.399,0.98,48.437
		c5.833,62.813,58.93,111.861,121.763,112.475c50.16,0.489,100.333,0.53,150.492-0.049c31.531-0.363,59.329-11.698,82.419-33.329
		c27.092-25.378,40.278-56.872,40.197-94.063c-0.197-89.83-0.227-179.66-0.31-269.491c-0.013-13.666,0-27.332,0.102-40.998
		c0.035-4.73,3.104-6.458,7.249-4.153c1.437,0.799,2.674,1.979,3.939,3.06c17.242,14.704,34.49,29.4,51.694,44.148
		c5.302,4.545,5.246,4.616,10.249-0.546c12.758-13.162,25.517-26.325,38.264-39.498c1.016-1.049,1.943-2.18,3.113-3.5
		C949.146,311.686,896.23,259.337,842.925,206.604z"/>
	<path fill-rule="evenodd"  clip-rule="evenodd"  
  d="M1876.229,376.468c-12.54,15.618-24.026,30.056-35.652,44.38
		c-40.848,50.329-81.746,100.616-122.618,150.925c-4.808,5.918-4.827,5.966,0.723,12.887
		c38.986,48.609,77.989,97.207,116.989,145.806c15.643,19.491,31.297,38.973,46.936,58.468c1.01,1.259,1.928,2.591,3.334,4.489
		c-4.947,0.26-9.195,0.671-13.445,0.676c-39.997,0.05-79.994-0.029-119.991,0.117c-4.149,0.016-6.624-1.363-8.991-4.729
		c-30.184-42.938-60.513-85.773-90.808-128.633c-1.235-1.748-2.5-3.474-4.151-5.766c-1.38,1.866-2.46,3.25-3.458,4.69
		c-29.997,43.271-60.016,86.526-89.915,129.864c-2.212,3.207-4.545,4.587-8.539,4.573c-43.163-0.141-86.326-0.07-129.49-0.116
		c-4.263-0.004-8.524-0.395-13.684-0.65c1.796-2.211,3.104-3.842,4.434-5.454c55.265-66.945,110.531-133.889,165.798-200.832
		c0.53-0.643,1.022-1.323,1.603-1.918c3.73-3.821,3.547-7.038,0.043-11.459c-48.021-60.596-95.841-121.35-143.662-182.103
		c-3.589-4.561-6.813-9.407-10.734-14.852c2.008-0.146,3.511-0.35,5.013-0.35c42.997-0.018,85.994,0.026,128.991-0.089
		c3.441-0.01,5.384,1.186,7.242,3.992c26.847,40.546,53.805,81.019,80.741,121.504c1.007,1.515,2.076,2.987,3.54,5.088
		c1.375-1.814,2.559-3.284,3.644-4.823c28.024-39.753,56.126-79.452,83.938-119.354c3.345-4.799,6.79-6.516,12.613-6.477
		c40.829,0.271,81.659,0.145,122.49,0.145C1870.951,376.468,1872.744,376.468,1876.229,376.468z M1880.938,790.98
		c-2.063-2.693-3.231-4.285-4.467-5.822c-54.701-68.041-109.396-136.088-164.158-204.079c-2.117-2.629-2.465-4.397-0.146-7.248
		c47.512-58.426,94.916-116.938,142.338-175.438c4.86-5.997,9.694-12.016,15.042-18.646c-1.985-0.203-2.934-0.386-3.882-0.386
		c-40.493-0.014-80.988-0.075-121.48,0.157c-2.281,0.013-5.324,1.911-6.709,3.858c-29.159,41.001-58.126,82.14-87.156,123.233
		c-1.09,1.543-2.429,2.909-4.021,4.794c-1.574-2.197-2.769-3.766-3.859-5.402c-27.085-40.615-54.2-81.211-81.163-121.907
		c-2.293-3.46-4.765-4.846-8.925-4.831c-40.16,0.138-80.321,0.08-120.481,0.092c-1.441,0.001-2.881,0.147-4.883,0.257
		c0.986,1.535,1.59,2.669,2.371,3.663c8.846,11.271,17.726,22.515,26.583,33.776c41.507,52.774,82.986,105.571,124.571,158.284
		c2.403,3.046,2.428,4.959-0.117,8.028c-56.049,67.586-111.979,135.27-167.919,202.947c-0.995,1.204-1.815,2.555-3.303,4.669
		c3.019,0,4.974,0,6.928,0c41.827,0,83.655-0.179,125.479,0.179c6.857,0.059,10.672-2.195,14.459-7.74
		c29.127-42.65,58.601-85.063,87.977-127.544c1.298-1.876,2.693-3.685,4.445-6.072c1.977,2.67,3.579,4.749,5.092,6.892
		c30.364,43.011,60.768,85.994,90.99,129.104c2.688,3.836,5.477,5.315,10.188,5.292c39.827-0.193,79.654-0.11,119.481-0.11
		C1876.01,790.98,1877.807,790.98,1880.938,790.98z"/>
	<path fill-rule="evenodd" clip-rule="evenodd"  
  d="M651.905,389.336c18.931,17.139,37.92,34.33,57.563,52.113
		c-55.162,54.325-109.967,108.3-164.358,161.866c-54.314-54.171-108.395-108.109-162.909-162.48
		c16.32-17.012,32.875-34.267,49.784-51.892c21.571,18.013,42.376,36.62,63.905,54.334c0.491-0.353,0.982-0.705,1.474-1.058
		c0.112-2.251,0.322-4.502,0.322-6.753c0.016-101.319,0.113-202.639-0.038-303.958c-0.057-38.353,12.994-71.064,41.089-97.272
		c23.741-22.146,52.209-33.683,84.661-33.958c49.323-0.419,98.652-0.298,147.978-0.071c64.027,0.295,118.109,47.449,125.947,110.84
		c2.296,18.575,1.101,37.588,1.308,56.401c0.012,1.085-1.574,2.551-2.765,3.177c-1.062,0.558-2.606,0.235-3.938,0.236
		c-32.329,0.007-64.657,0.013-96.986,0c-6.863-0.003-6.728-0.04-6.9-6.879c-0.318-12.637,0.301-25.425-1.449-37.871
		c-4.473-31.805-31.061-58.355-68.567-58.599c-19.99-0.129-40.014-0.448-59.969,0.482c-30.968,1.443-56.164,23.366-62.73,53.789
		c-1.43,6.622-2.208,13.52-2.217,20.292c-0.139,97.486-0.095,194.972-0.094,292.458c0,1.666-0.085,3.34,0.038,4.997
		c0.254,3.441,2.509,4.488,5.397,2.463c1.075-0.755,1.917-1.84,2.865-2.775C618.037,422.73,634.76,406.241,651.905,389.336z
		 M790.624,167.254c0.968,0.27,1.438,0.516,1.909,0.516c33.326,0.039,66.652,0.024,99.979,0.123
		c3.916,0.012,3.675-2.466,3.672-5.005c-0.017-13.33,0.243-26.67-0.193-39.986c-0.239-7.283-1.071-14.659-2.65-21.768
		C880.312,42.492,830.533,2.749,769.089,2.278c-47.155-0.36-94.315-0.147-141.473-0.05c-27.231,0.057-52.467,7.154-74.586,23.309
		c-34.61,25.276-52.77,59.625-52.89,102.482c-0.284,101.644,0.102,203.289,0.102,304.935c0,4.057,0.153,10.405-2.079,11.701
		c-4.964,2.884-8.479-2.748-12.019-5.749c-16.901-14.326-33.69-28.785-50.501-43.218c-1.895-1.627-3.362-2.905-5.803-0.334
		c-13.185,13.895-26.436,27.729-39.912,41.338c-3.284,3.315-3.564,5.225-0.079,8.699C439.999,495.396,490,545.55,540.044,595.661
		c1.268,1.27,2.616,2.46,4.256,3.996c53.61-52.828,106.928-105.369,160.256-157.92c-0.904-1.215-1.22-1.82-1.694-2.252
		c-16.262-14.803-32.571-29.553-48.781-44.411c-2.71-2.484-4.101-0.534-5.743,1.107c-10.373,10.365-20.736,20.739-31.098,31.116
		c-5.181,5.188-10.064,10.73-15.67,15.407c-2.188,1.826-5.98,2.073-9.069,2.172c-0.58,0.019-1.834-4.07-1.856-6.273
		c-0.163-16.821-0.116-33.645-0.098-50.467c0.091-83.984,0.155-167.969,0.31-251.953c0.073-39.343,31.267-70.873,70.638-71.343
		c19.66-0.235,39.328-0.258,58.987,0.018c32.006,0.447,60.667,22.686,67.284,53.946c2.821,13.323,1.806,27.459,2.527,41.226
		C790.421,162.474,790.518,164.918,790.624,167.254z"/>
	<path fill-rule="evenodd"  clip-rule="evenodd" 
  d="M1392.214,791.901c-4.803,0.356-8.921,0.918-13.041,0.926
		c-34.495,0.071-68.991-0.042-103.486,0.139c-4.554,0.024-6.738-1.434-8.442-5.688c-10.338-25.819-21.063-51.482-31.441-77.286
		c-1.494-3.715-3.423-4.88-7.366-4.871c-57.325,0.128-114.651,0.133-171.978-0.006c-4.163-0.01-6.111,1.316-7.66,5.166
		c-10.441,25.956-21.219,51.778-31.67,77.731c-1.498,3.72-3.484,4.943-7.397,4.93c-35.661-0.129-71.324-0.051-106.986-0.123
		c-3.122-0.006-6.242-0.656-10.028-1.082c0.82-2.023,1.428-3.669,2.142-5.268c59.999-134.444,120.022-268.877,179.928-403.363
		c1.65-3.704,3.475-5.127,7.656-5.108c39.828,0.178,79.656,0.167,119.484,0.011c3.923-0.016,5.798,1.149,7.414,4.77
		c60.16,134.738,120.439,269.422,180.701,404.114C1390.701,788.364,1391.326,789.852,1392.214,791.901z M896.072,789.796
		c2.74,0,4.374,0,6.007,0c35.165,0,70.331-0.069,105.495,0.092c4.141,0.019,6.127-1.276,7.678-5.148
		c10.344-25.818,21.044-51.494,31.376-77.317c1.638-4.092,3.812-5.402,8.118-5.393c58.331,0.128,116.662,0.136,174.992-0.012
		c4.555-0.012,6.768,1.424,8.467,5.678c10.252,25.676,20.859,51.209,31.18,76.858c1.487,3.697,3.233,5.379,7.57,5.354
		c35.498-0.2,70.997-0.109,106.495-0.126c1.42,0,2.84-0.191,4.891-0.339c-0.925-2.18-1.595-3.838-2.325-5.47
		c-20.49-45.757-40.973-91.518-61.482-137.267c-38.974-86.934-77.98-173.854-116.887-260.818c-1.591-3.554-3.646-4.909-7.574-4.896
		c-38.665,0.128-77.33,0.134-115.995-0.008c-3.985-0.015-5.911,1.411-7.462,4.967c-8.055,18.474-16.336,36.849-24.566,55.245
		c-49.387,110.378-98.782,220.751-148.173,331.126C901.438,777.77,899.008,783.222,896.072,789.796z"/>
	<path fill-rule="evenodd"  clip-rule="evenodd"   
  d="M499.653,791.938c-4.791,0.334-9.069,0.882-13.348,0.891
		c-33.995,0.071-67.992-0.063-101.986,0.147c-5.205,0.032-7.895-1.358-9.922-6.482c-10.106-25.551-20.754-50.887-31.038-76.368
		c-1.448-3.588-3.227-5.024-7.284-5.015c-57.492,0.144-114.985,0.148-172.477-0.008c-4.124-0.012-5.821,1.561-7.241,5.074
		c-10.418,25.786-21.078,51.476-31.445,77.282c-1.607,4.001-3.696,5.521-8.077,5.5c-35.328-0.166-70.657-0.065-105.985-0.139
		c-3.442-0.008-6.882-0.646-10.85-1.043c6.331-14.22,12.466-28.027,18.623-41.824c54.51-122.138,109.042-244.265,163.458-366.444
		c1.79-4.018,3.813-5.563,8.428-5.536c39.66,0.227,79.323,0.193,118.983,0.032c3.925-0.016,5.768,1.158,7.376,4.76
		c60.098,134.583,120.316,269.111,180.51,403.651C498.114,788.061,498.754,789.749,499.653,791.938z M495.661,789.493
		c-0.7-1.893-1.125-3.284-1.716-4.603c-59.45-132.66-118.933-265.306-178.285-398.009c-2.027-4.531-4.665-5.938-9.489-5.915
		c-37.156,0.184-74.314,0.271-111.468-0.063c-6.36-0.058-9.342,1.983-11.859,7.728c-15.836,36.147-32.062,72.125-48.179,108.15
		C91.822,592.543,48.968,688.299,6.131,784.063c-0.716,1.601-1.271,3.272-2.119,5.475c2.334,0.108,3.954,0.248,5.573,0.249
		c35.157,0.013,70.314-0.061,105.471,0.103c4.122,0.02,6.151-1.22,7.706-5.101c10.343-25.813,21.025-51.488,31.371-77.299
		c1.62-4.041,3.78-5.467,8.112-5.458c58.484,0.126,116.968,0.116,175.452,0.017c4.056-0.007,6.208,1.22,7.785,5.158
		c10.405,25.967,21.157,51.794,31.586,77.751c1.477,3.676,3.333,4.95,7.321,4.932c35.323-0.161,70.647-0.09,105.971-0.105
		C491.958,789.783,493.556,789.613,495.661,789.493z"/>
	<path fill-rule="evenodd"  clip-rule="evenodd" fill="rgb(52,62,252)"  class="svg-change--1"
  d="M842.925,206.604c53.305,52.733,106.221,105.082,159.358,157.648
		c-1.17,1.32-2.098,2.451-3.113,3.5c-12.747,13.173-25.506,26.336-38.264,39.498c-5.003,5.162-4.947,5.091-10.249,0.546
		c-17.204-14.748-34.453-29.444-51.694-44.148c-1.266-1.08-2.503-2.261-3.939-3.06c-4.145-2.305-7.214-0.577-7.249,4.153
		c-0.101,13.666-0.114,27.332-0.102,40.998c0.083,89.831,0.113,179.661,0.31,269.491c0.082,37.191-13.105,68.686-40.197,94.063
		c-23.091,21.631-50.888,32.966-82.419,33.329c-50.158,0.579-100.332,0.538-150.492,0.049
		c-62.833-0.613-115.93-49.662-121.763-112.475c-1.489-16.037-0.646-32.286-0.98-48.437c-0.076-3.666,2.103-3.954,4.855-3.946
		c10.167,0.029,20.333,0.005,30.499,0.004c20.833-0.001,41.665-0.003,62.498,0.002c7.737,0.001,7.686,0.01,7.763,7.52
		c0.109,10.659-0.792,21.469,0.661,31.948c5.054,36.454,30.728,60.982,67.674,63.212c22.888,1.381,46.031,1.017,68.913-0.612
		c32.109-2.286,59.504-31.123,62.168-63.276c0.453-5.47,0.698-10.973,0.705-16.461c0.121-96.163,0.189-192.326,0.268-288.49
		c0.001-1.833,0.237-3.711-0.081-5.488c-0.379-2.119-1.167-5.888-1.904-5.918c-2.916-0.123-6.557,0.071-8.69,1.736
		c-4.695,3.663-8.647,8.283-12.888,12.527c-11.309,11.317-22.689,22.565-33.858,34.02c-2.767,2.837-4.708,3.282-7.804,0.439
		c-15.218-13.974-30.559-27.814-45.968-41.577c-2.774-2.479-2.888-4.2-0.201-6.847c51.885-51.108,103.705-102.284,155.545-153.438
		C842.752,206.656,843.316,206.298,842.925,206.604z"/>
	<path fill-rule="evenodd" clip-rule="evenodd" fill="rgb(215,24,28)" d="M1880.938,790.98c-3.131,0-4.928,0-6.725,0
		c-39.827,0-79.654-0.083-119.481,0.11c-4.712,0.023-7.5-1.456-10.188-5.292c-30.223-43.11-60.626-86.094-90.99-129.104
		c-1.513-2.143-3.115-4.222-5.092-6.892c-1.752,2.388-3.147,4.196-4.445,6.072c-29.376,42.48-58.85,84.894-87.977,127.544
		c-3.787,5.545-7.602,7.799-14.459,7.74c-41.824-0.357-83.652-0.179-125.479-0.179c-1.954,0-3.909,0-6.928,0
		c1.487-2.114,2.308-3.465,3.303-4.669c55.939-67.678,111.87-135.361,167.919-202.947c2.545-3.069,2.521-4.982,0.117-8.028
		c-41.585-52.713-83.064-105.51-124.571-158.284c-8.857-11.262-17.737-22.506-26.583-33.776c-0.781-0.994-1.385-2.128-2.371-3.663
		c2.002-0.109,3.441-0.256,4.883-0.257c40.16-0.012,80.321,0.046,120.481-0.092c4.16-0.015,6.632,1.371,8.925,4.831
		c26.963,40.696,54.078,81.292,81.163,121.907c1.091,1.637,2.285,3.205,3.859,5.402c1.592-1.885,2.931-3.251,4.021-4.794
		c29.03-41.094,57.997-82.232,87.156-123.233c1.385-1.947,4.428-3.846,6.709-3.858c40.492-0.232,80.987-0.171,121.48-0.157
		c0.948,0,1.896,0.183,3.882,0.386c-5.348,6.631-10.182,12.649-15.042,18.646c-47.422,58.499-94.826,117.012-142.338,175.438
		c-2.318,2.851-1.971,4.619,0.146,7.248c54.763,67.991,109.457,136.038,164.158,204.079
		C1877.706,786.695,1878.874,788.287,1880.938,790.98z"/>
	<path fill-rule="evenodd" clip-rule="evenodd" class="svg-change--2"
  d="M790.624,167.254c-0.106-2.336-0.203-4.78-0.332-7.224
		c-0.721-13.767,0.294-27.902-2.527-41.226c-6.617-31.261-35.278-53.499-67.284-53.946c-19.659-0.275-39.327-0.253-58.987-0.018
		c-39.371,0.47-70.565,32-70.638,71.343c-0.155,83.984-0.219,167.969-0.31,251.953c-0.018,16.822-0.064,33.646,0.098,50.467
		c0.021,2.203,1.276,6.292,1.856,6.273c3.089-0.099,6.881-0.346,9.069-2.172c5.606-4.677,10.489-10.22,15.67-15.407
		c10.361-10.377,20.725-20.751,31.098-31.116c1.642-1.642,3.033-3.592,5.743-1.107c16.21,14.858,32.52,29.608,48.781,44.411
		c0.474,0.432,0.791,1.037,1.694,2.252C651.229,494.288,597.91,546.829,544.3,599.657c-1.64-1.536-2.988-2.727-4.256-3.996
		C490,545.55,439.999,495.396,389.849,445.392c-3.485-3.475-3.205-5.384,0.079-8.699c13.477-13.609,26.728-27.443,39.912-41.338
		c2.44-2.571,3.908-1.293,5.803,0.334c16.811,14.433,33.6,28.892,50.501,43.218c3.54,3.001,7.055,8.633,12.019,5.749
		c2.232-1.296,2.079-7.645,2.079-11.701c0-101.646-0.385-203.291-0.102-304.935c0.12-42.857,18.28-77.206,52.89-102.482
		c22.119-16.154,47.354-23.252,74.586-23.309c47.158-0.098,94.318-0.311,141.473,0.05c61.444,0.471,111.223,40.214,124.252,98.855
		c1.579,7.108,2.411,14.484,2.65,21.768c0.437,13.316,0.176,26.656,0.193,39.986c0.003,2.539,0.244,5.017-3.672,5.005
		c-33.326-0.099-66.652-0.084-99.979-0.123C792.063,167.77,791.592,167.523,790.624,167.254z"/>
	<path fill-rule="evenodd" clip-rule="evenodd" fill="rgb(215,24,28)" d="M896.072,789.796c2.936-6.574,5.365-12.026,7.803-17.474
		c49.391-110.375,98.787-220.748,148.173-331.126c8.23-18.396,16.512-36.771,24.566-55.245c1.551-3.556,3.477-4.981,7.462-4.967
		c38.665,0.142,77.33,0.136,115.995,0.008c3.929-0.013,5.983,1.343,7.574,4.896c38.906,86.965,77.913,173.885,116.887,260.818
		c20.51,45.749,40.992,91.51,61.482,137.267c0.73,1.632,1.4,3.29,2.325,5.47c-2.051,0.147-3.471,0.339-4.891,0.339
		c-35.498,0.017-70.997-0.074-106.495,0.126c-4.337,0.024-6.083-1.657-7.57-5.354c-10.32-25.649-20.928-51.183-31.18-76.858
		c-1.699-4.254-3.912-5.689-8.467-5.678c-58.33,0.147-116.661,0.14-174.992,0.012c-4.307-0.01-6.48,1.301-8.118,5.393
		c-10.332,25.823-21.032,51.499-31.376,77.317c-1.551,3.872-3.537,5.167-7.678,5.148c-35.164-0.161-70.33-0.092-105.495-0.092
		C900.446,789.796,898.813,789.796,896.072,789.796z M1143.979,473.438c-0.574,0.03-1.147,0.061-1.721,0.091
		c-21.059,53.455-42.118,106.909-63.339,160.775c43.278,0,85.569,0,128.923,0C1186.285,580.006,1165.132,526.722,1143.979,473.438z"
		/>
	<path fill-rule="evenodd" clip-rule="evenodd" fill="rgb(215,24,28)" d="M495.661,789.493c-2.105,0.12-3.704,0.29-5.302,0.29
		c-35.324,0.016-70.648-0.056-105.971,0.105c-3.988,0.019-5.844-1.256-7.321-4.932c-10.429-25.957-21.181-51.784-31.586-77.751
		c-1.578-3.938-3.729-5.165-7.785-5.158c-58.484,0.1-116.968,0.109-175.452-0.017c-4.332-0.009-6.492,1.417-8.112,5.458
		c-10.345,25.811-21.028,51.486-31.371,77.299c-1.555,3.881-3.584,5.12-7.706,5.101c-35.156-0.163-70.313-0.09-105.471-0.103
		c-1.62-0.001-3.239-0.141-5.573-0.249c0.847-2.202,1.403-3.874,2.119-5.475c42.837-95.764,85.69-191.52,128.533-287.28
		c16.117-36.025,32.343-72.003,48.179-108.15c2.517-5.744,5.499-7.785,11.859-7.728c37.154,0.334,74.312,0.246,111.468,0.063
		c4.825-0.023,7.462,1.384,9.489,5.915c59.353,132.703,118.835,265.349,178.285,398.009
		C494.536,786.209,494.961,787.601,495.661,789.493z M186.44,634.303c43.475,0,85.802,0,128.935,0
		c-21.556-54.274-42.743-107.619-63.93-160.965c-0.566,0.081-1.133,0.162-1.7,0.243C228.726,526.945,207.707,580.31,186.44,634.303z
		"/>
	<path fill-rule="evenodd" clip-rule="evenodd" 
  d="M1143.979,473.438c21.153,53.284,42.307,106.568,63.863,160.866
		c-43.354,0-85.645,0-128.923,0c21.221-53.866,42.28-107.32,63.339-160.775C1142.831,473.498,1143.404,473.468,1143.979,473.438z
		 M1203.416,631.601c-20.213-50.75-39.944-100.293-59.677-149.836c-0.413,0.011-0.825,0.021-1.237,0.033
		c-19.65,49.752-39.299,99.505-59.164,149.803C1123.539,631.601,1162.86,631.601,1203.416,631.601z"/>
	<path fill-rule="evenodd" clip-rule="evenodd" d="M186.44,634.303c21.267-53.993,42.286-107.357,63.305-160.722
		c0.566-0.081,1.133-0.162,1.7-0.243c21.187,53.346,42.374,106.69,63.93,160.965C272.242,634.303,229.915,634.303,186.44,634.303z
		 M251.324,481.906c-0.447-0.004-0.895-0.008-1.342-0.012c-19.637,49.722-39.273,99.442-59.069,149.567c40.32,0,79.726,0,119.96,0
		C290.776,580.988,271.05,531.447,251.324,481.906z"/>
</g>
</svg>

