<?xml version="1.0" encoding="UTF-8" standalone="no"?>
<svg width="650" xmlns="http://www.w3.org/2000/svg" version="1.1" height="500">
 <g id="svg_1" fill="#fff">
  <path id="path2997" d="m135.56 251.35c-0.053741-5.2974 102.72-10.313 229.4-11.194 126.68-0.88095 229.54 2.7024 229.6 7.9998 0.053711 5.2974-102.72 10.311-229.4 11.194-126.68 0.88095-229.54-2.7025-229.6-7.9999z"/>
  <path id="path3009" d="m57.729 252.6c0.38784-1.8521 6.2068-2.9001 16.054-2.5834 9.8444 0.31863 23.721 2.0806 39.553 6.1458 12.986 3.3378 27.242 8.2493 41.393 14.836 12.17 5.664 23.09 12.013 32.364 18.395 9.2739 6.3837 16.909 12.792 22.77 18.539 5.8608 5.7484 9.9612 10.827 12.299 14.641 2.3401 3.8137 2.9363 6.3549 1.7136 7.2186-1.2203 0.86371-4.1402-0.019226-8.437-2.19-4.2992-2.1688-9.9917-5.6179-16.932-9.8117-6.9408-4.1937-15.137-9.1303-24.427-14.303-9.288-5.1726-19.672-10.576-30.88-15.792-13.033-6.067-25.746-11.209-37.252-15.464-14.045-5.1957-26.281-9.115-34.922-12.244-8.6404-3.1285-13.683-5.5353-13.295-7.3876z"/>
  <path id="path3009-4" d="m56.349 253.15c-0.38784-1.8522 4.6545-4.259 13.296-7.3875 8.6381-3.1285 20.876-7.0478 34.922-12.244 11.506-4.2552 24.219-9.3971 37.252-15.464 11.205-5.2167 21.589-10.62 30.88-15.792 9.2903-5.1726 17.487-10.107 24.427-14.303 6.9408-4.1938 12.633-7.6428 16.932-9.8117 4.2969-2.1708 7.2144-3.0537 8.4371-2.19 1.2227 0.8656 0.62653 3.4049-1.7136 7.2186s-6.4382 8.8923-12.299 14.641c-5.8608 5.7484-13.496 12.155-22.77 18.539-9.2763 6.3838-20.194 12.731-32.364 18.395-14.15 6.5872-28.406 11.499-41.393 14.836-15.831 4.0651-29.708 5.8271-39.555 6.1458-9.8451 0.31667-15.664-0.73135-16.052-2.5834z"/>
 </g>
</svg>
