<?xml version="1.0" encoding="UTF-8" standalone="no"?>
<svg viewBox="0 0 30 30" xmlns="http://www.w3.org/2000/svg">
<defs>
<linearGradient gradientUnits="userSpaceOnUse" id="linearGradient2487" x1="21.375" x2="32.5" y1="23.87895" y2="25.50395">
<stop offset="0" stop-color="#f57900"/>
<stop offset="1" stop-color="#c66100"/>
</linearGradient>
<linearGradient gradientUnits="userSpaceOnUse" id="linearGradient2438" x1="6.125" x2="17.75" y1="7.62895" y2="12.75395">
<stop offset="0" stop-color="#73d216"/>
<stop offset="1" stop-color="#5ba711"/>
</linearGradient>
<linearGradient gradientUnits="userSpaceOnUse" id="linearGradient2465" x1="19.31251" x2="24.03672" y1="6.65196" y2="7.29305">
<stop offset="0" stop-color="#ef2929"/>
<stop offset="1" stop-color="#b80d0d"/>
</linearGradient>
</defs>
<g transform="translate(.21769,1.92526)">
<path d="m7.83823.12497c-.0969.01294-.19006.04582-.27361.09657l-7.21054,4.12031c-.2187.12609-.35364.35916-.35409.61161v7.21054c-.0008.24029.12043.46456.3219.59551l6.18046,4.12031c.22405.14442.51025.15064.74037.01609l7.21053-4.12031c.2187-.12609.35364-.35917.35409-.61161v-7.21054c.0008-.24029-.12043-.46456-.3219-.59551l-6.18046-4.12031c-.13769-.09082-.30279-.13067-.46675-.11266z" fill="#315b09"/>
<g transform="matrix(.45425,0,0,.45425,.873826,1.059764)">
<path d="m1.375,9.50395 12,8v14l-12-8v-14z" fill="#8ae234"/>
<path d="m15.375,1.50395 12,8-14,8-12-8 14-8z" fill="url(#linearGradient2438)"/>
<path d="m27.375,9.50395v14l-14,8v-14l14-8z" fill="#4e9a06"/>
</g>
</g>
<path d="m22.8132,2.05023c-.0969.01294-.19006.04582-.27361.09657l-7.21054,4.12031c-.2187.12609-.35364.35916-.35409.61161v7.21054c-.0008.24029.12043.46456.3219.59551l6.18046,4.12031c.22405.14442.51025.15064.74037.01609l7.21054-4.12031c.2187-.12609.35364-.35916.35409-.61161v-7.21054c.0008-.24029-.12043-.46456-.3219-.59551l-6.18046-4.12031c-.13769-.09082-.30279-.13067-.46675-.11266z" fill="#640000"/>
<path d="m16.45639,7.29305 5.46669,3.64446v6.3778l-5.46669-3.64446v-6.3778z" fill="#d40000"/>
<path d="m22.8342,3.64859 5.46669,3.64446-6.3778,3.64446-5.46669-3.64446 6.3778-3.64446z" fill="url(#linearGradient2465)"/>
<path d="m28.30089,7.29305v6.3778l-6.3778,3.64446v-6.3778l6.3778-3.64446z" fill="#a40000"/>
<g transform="translate(-.32691,2.72076)">
<path d="m15.31954,8.36558c-.0969.01294-.19006.04582-.27361.09657l-7.21053,4.12031c-.2187.12609-.35364.35916-.35409.61161v7.21053c-.0008.24029.12043.46456.3219.59551l6.18046,4.12031c.22405.14442.51025.15064.74037.01609l7.21054-4.12031c.2187-.12609.35364-.35917.35409-.61161v-7.21053c.0008-.24029-.12043-.46456-.3219-.59551l-6.18046-4.12031c-.13769-.09082-.30279-.13067-.46675-.11266z" fill="#6e3600"/>
<g transform="matrix(.452159,0,0,.452159,1.817266,2.100359)">
<path d="m15.90072,25.50395 12,8v14l-12-8v-14z" fill="#fcaf3e"/>
<path d="m29.90072,17.50395 12,8-14,8-12-8 14-8z" fill="url(#linearGradient2487)"/>
<path d="m41.90072,25.50395v14l-14,8v-14l14-8z" fill="#b65100"/>
</g>
</g>
</svg>
