<?xml version="1.0" encoding="utf-8"?>
<!-- Generator: Adobe Illustrator 15.0.0, SVG Export Plug-In . SVG Version: 6.00 Build 0)  -->
<!DOCTYPE svg PUBLIC "-//W3C//DTD SVG 1.1//EN" "http://www.w3.org/Graphics/SVG/1.1/DTD/svg11.dtd">
<svg version="1.1" id="Layer_1" xmlns="http://www.w3.org/2000/svg" xmlns:xlink="http://www.w3.org/1999/xlink" x="0px" y="0px"
	 width="224.945px" height="117.49px" viewBox="30.331 80.675 224.945 117.49"
	 enable-background="new 30.331 80.675 224.945 117.49" xml:space="preserve">
<g id="Layer_1_1_">
</g>
<g id="Layer_5">
	<g>
		
			<radialGradient id="SVGID_1_" cx="-421.5361" cy="716.1724" r="22.1647" gradientTransform="matrix(-0.9973 0.0878 0.0878 0.9973 -301.4687 -599.2348)" gradientUnits="userSpaceOnUse">
			<stop  offset="0" style="stop-color:#FAA71C"/>
			<stop  offset="1" style="stop-color:#EA5124"/>
		</radialGradient>
		<path fill="url(#SVGID_1_)" d="M193.642,98.321c-1.189-8.856-6.086-18.2-21.917-17.621c-15.833,0.579-23.845,15.947-21.483,24.289
			C152.604,113.337,193.642,98.321,193.642,98.321z"/>
		
			<radialGradient id="SVGID_2_" cx="-412.1992" cy="722.9927" r="10.411" gradientTransform="matrix(-0.9973 0.0878 0.0878 0.9973 -301.4687 -599.2348)" gradientUnits="userSpaceOnUse">
			<stop  offset="0" style="stop-color:#8C2A1C"/>
			<stop  offset="1" style="stop-color:#270E11"/>
		</radialGradient>
		<path fill="url(#SVGID_2_)" d="M171.725,80.701c10.647-0.389,16.336,3.716,19.29,9.136c-11.321-9.814-26.491-8.478-36.383-0.505
			C158.347,84.661,164.134,80.979,171.725,80.701z"/>
		
			<radialGradient id="SVGID_3_" cx="-320.8081" cy="734.4604" r="33.6788" gradientTransform="matrix(-0.9973 0.0878 0.0878 0.9973 -301.4687 -599.2348)" gradientUnits="userSpaceOnUse">
			<stop  offset="0" style="stop-color:#FAA71C"/>
			<stop  offset="1" style="stop-color:#EA5124"/>
		</radialGradient>
		<path fill="url(#SVGID_3_)" d="M140.732,103.386c-6.716-2.262-8.938-8.991-28.286-11.357c-19.352-2.37-23.313,8.161-24.11,17.599
			c-0.797,9.436-1.752,21.738,11.872,23.798"/>
		
			<radialGradient id="SVGID_4_" cx="-345.8657" cy="736.1724" r="13.8235" gradientTransform="matrix(-0.9973 0.0878 0.0878 0.9973 -301.4687 -599.2348)" gradientUnits="userSpaceOnUse">
			<stop  offset="0" style="stop-color:#8C2A1C"/>
			<stop  offset="1" style="stop-color:#270E11"/>
		</radialGradient>
		<path fill="url(#SVGID_4_)" d="M88.227,121.318c-0.537-3.809-0.204-7.971,0.109-11.691c0.798-9.438,4.759-19.968,24.11-17.599
			c6.699,0.819,11.346,2.162,14.836,3.665C110.787,93.839,93.521,105.172,88.227,121.318z"/>
		
			<linearGradient id="SVGID_5_" gradientUnits="userSpaceOnUse" x1="-336.7676" y1="804.2554" x2="-326.1915" y2="819.6396" gradientTransform="matrix(-0.9962 0.0877 0.0877 0.9962 -290.3886 -610.8174)">
			<stop  offset="0" style="stop-color:#FAA71C"/>
			<stop  offset="1" style="stop-color:#EA5124"/>
		</linearGradient>
		<path fill="url(#SVGID_5_)" d="M91.419,149.269l50.928,18.732c-8.548,9.303-29.993,20.148-46.906,13.086
			C78.526,174.023,88.232,159.322,91.419,149.269z"/>
		
			<radialGradient id="SVGID_6_" cx="-335.145" cy="799.0444" r="13.861" gradientTransform="matrix(-0.9973 0.0878 0.0878 0.9973 -301.4687 -599.2348)" gradientUnits="userSpaceOnUse">
			<stop  offset="0" style="stop-color:#8C2A1C"/>
			<stop  offset="1" style="stop-color:#270E11"/>
		</radialGradient>
		<path fill="url(#SVGID_6_)" d="M88.519,156.984c0.161,4.477-0.218,9.439,3.247,12.557c11.784,10.979,32.201,9.912,46.187,2.473
			c-10.179,8.016-28.007,15.132-42.512,9.074C82.51,175.688,85.14,165.822,88.519,156.984z"/>
		
			<radialGradient id="SVGID_7_" cx="-426.042" cy="811.4517" r="20.611" gradientTransform="matrix(-0.9973 0.0878 0.0878 0.9973 -301.4687 -599.2348)" gradientUnits="userSpaceOnUse">
			<stop  offset="0" style="stop-color:#FAA71C"/>
			<stop  offset="1" style="stop-color:#EA5124"/>
		</radialGradient>
		<path fill="url(#SVGID_7_)" d="M195.183,162.125c0.166,15.209,4.263,25.285-7.258,33.222c-11.521,7.94-21.773-2.155-18.396-14.668
			c3.379-12.519,10.346-12.896,14.006-16.712C189.5,157.74,195.125,156.835,195.183,162.125z"/>
		
			<radialGradient id="SVGID_8_" cx="-414.687" cy="821.686" r="13.5805" gradientTransform="matrix(-0.9973 0.0878 0.0878 0.9973 -301.4687 -599.2348)" gradientUnits="userSpaceOnUse">
			<stop  offset="0" style="stop-color:#8C2A1C"/>
			<stop  offset="1" style="stop-color:#270E11"/>
		</radialGradient>
		<path fill="url(#SVGID_8_)" d="M169.528,180.677c2.405-8.91,6.622-11.663,10.179-13.891c-2.783,4.403-8.271,15.778,2.916,20.189
			c4.431,2.156,9.152,1.631,12.559-1.098c-1.021,3.521-3.143,6.629-7.256,9.465C176.404,203.287,166.151,193.189,169.528,180.677z"
			/>
		
			<radialGradient id="SVGID_9_" cx="-475.2549" cy="794.5981" r="27.6845" gradientTransform="matrix(-0.9973 0.0878 0.0878 0.9973 -301.4687 -599.2348)" gradientUnits="userSpaceOnUse">
			<stop  offset="0" style="stop-color:#FAA71C"/>
			<stop  offset="1" style="stop-color:#EA5124"/>
		</radialGradient>
		<path fill="url(#SVGID_9_)" d="M220.307,109.774c1.573,0.93,3.132,1.778,4.696,2.484c6.519,2.945,12.392,7.11,17.742,11.825
			c3.883,3.421,10.219,7.917,12.069,12.837c0.095,0.245-0.601,2.121-0.569,2.475c0.123,1.525,1.34,1.849,0.955,3.521
			c-0.363,1.551-2.388,2.813-3.522,3.739c-3.835,3.106-7.399,5.671-11.64,8.157c-2.635,1.545-5.406,2.927-8.207,4.252
			C221.833,143.568,214.022,126.444,220.307,109.774z"/>
		
			<radialGradient id="SVGID_10_" cx="-411.4556" cy="806.8403" r="69.9606" gradientTransform="matrix(-0.9973 0.0878 0.0878 0.9973 -301.4687 -599.2348)" gradientUnits="userSpaceOnUse">
			<stop  offset="0" style="stop-color:#FAA71C"/>
			<stop  offset="1" style="stop-color:#EA5124"/>
		</radialGradient>
		<path fill="url(#SVGID_10_)" d="M95.572,122.429c14.552-8.435,28.882-22.633,70.42-28.19c28.956-3.873,42.236,8.403,54.314,15.536
			c-6.284,16.67,1.525,33.794,11.525,49.291c-3.088,1.465-6.213,2.857-9.254,4.314c-12.507,5.988-38.396,17.227-65.445,10.646
			c-27.053-6.58-56.408-16.212-65.18-18.696c-2.651-0.752-5.194-0.646-7.71-0.033c-1.091-9.2-2.014-18.208-4.465-27.42
			C85.113,127.662,89.799,125.778,95.572,122.429z"/>
		
			<radialGradient id="SVGID_11_" cx="-291.7671" cy="785.6655" r="31.5712" gradientTransform="matrix(-0.9973 0.0878 0.0878 0.9973 -301.4687 -599.2348)" gradientUnits="userSpaceOnUse">
			<stop  offset="0" style="stop-color:#FAA71C"/>
			<stop  offset="1" style="stop-color:#EA5124"/>
		</radialGradient>
		<path fill="url(#SVGID_11_)" d="M68.674,126.834c3.561,0.97,8.019,1.734,11.902,1.38c2.451,9.215,2.576,17.881,3.667,27.081
			c-5.801,1.408-11.461,5.559-18.03,8.408c-9.411,4.088-31.534,7.256-35.438-13.986C26.871,128.478,49.476,121.601,68.674,126.834z"
			/>
		
			<linearGradient id="SVGID_12_" gradientUnits="userSpaceOnUse" x1="-381.5171" y1="770.2661" x2="-380.6553" y2="747.2943" gradientTransform="matrix(-0.9962 0.0877 0.0877 0.9962 -290.3886 -610.8174)">
			<stop  offset="0" style="stop-color:#FFFFFF;stop-opacity:0"/>
			<stop  offset="1" style="stop-color:#CE3A27"/>
		</linearGradient>
		<path fill="url(#SVGID_12_)" d="M212.16,122.049c-21.171,5.936-42.537-5.742-63.354,4.222c-18.089,8.234-41.36,8.788-59.72-0.684
			c2.082-0.82,4.239-1.854,6.487-3.158c14.552-8.435,28.882-22.633,70.421-28.19c32.153-4.301,44.985,11.313,58.297,17.682
			C220.804,116.819,216.194,120.658,212.16,122.049z"/>
		<g>
			
				<radialGradient id="SVGID_13_" cx="-448.9189" cy="804.2876" r="18.2802" gradientTransform="matrix(-0.9973 0.0878 0.0878 0.9973 -301.4687 -599.2348)" gradientUnits="userSpaceOnUse">
				<stop  offset="0" style="stop-color:#8C2A1C"/>
				<stop  offset="1" style="stop-color:#270E11"/>
			</radialGradient>
			<path fill="url(#SVGID_13_)" d="M231.253,115.566c-2.186,2.762-7.099,11.103-7.142,13.783c-0.051,2.956,1.521,16.41,1.994,17.382
				c0.388,0.785,5.197,8.418,7.849,11.299c-3.771,1.851-7.635,3.56-11.375,5.351c-0.074,0.035-0.156,0.076-0.232,0.111
				c-2.648-2.16-10.014-7.348-11.124-9.26c-1.373-2.361-5.45-13.419-6.521-20.239c-1.058-6.753-3.281-15.626,13.594-25.44
				c2.272,1.416,4.479,2.7,6.707,3.706C227.156,113.233,229.236,114.349,231.253,115.566z"/>
			
				<radialGradient id="SVGID_14_" cx="-384.478" cy="807.3198" r="27.2979" gradientTransform="matrix(-0.9973 0.0878 0.0878 0.9973 -301.4687 -599.2348)" gradientUnits="userSpaceOnUse">
				<stop  offset="0" style="stop-color:#8C2A1C"/>
				<stop  offset="1" style="stop-color:#270E11"/>
			</radialGradient>
			<path fill="url(#SVGID_14_)" d="M137.956,169.013c0.326-4.479-1.42-18.409,0.049-22.487c1.324-3.663,4.23-11.828,0.068-27.94
				c-1.211-4.702-2.41-10.538-5.195-16.57c5.425-1.973,11.59-3.79,18.754-5.313c0.634,1.805,5.291,8.202,10.443,14.793
				c6.477,8.285,13.245,13.747,14.437,15.738c0,0,2.083,4.215-4.072,11.31c-5.966,6.877-18.524,16.141-19.926,34.338
				C147.65,171.653,142.757,170.341,137.956,169.013z"/>
			
				<radialGradient id="SVGID_15_" cx="-315.1372" cy="786.6216" r="11.9324" gradientTransform="matrix(-0.9973 0.0878 0.0878 0.9973 -301.4687 -599.2348)" gradientUnits="userSpaceOnUse">
				<stop  offset="0" style="stop-color:#8C2A1C"/>
				<stop  offset="1" style="stop-color:#270E11"/>
			</radialGradient>
			<path fill="url(#SVGID_15_)" d="M76.689,158.341c-0.076-5.055-1.198-17.783-3.832-30.646c7.045,1.547,11.336-0.402,16.307-2.144
				c0.379,1.751,2.531,7.095,3.202,13.136c0.616,5.554-0.181,11.679-1.117,16.481C86.216,154.021,81.56,155.833,76.689,158.341z"/>
		</g>
		
			<radialGradient id="SVGID_16_" cx="-290.3921" cy="770.7827" r="23.1324" gradientTransform="matrix(-0.9973 0.0878 0.0878 0.9973 -301.4687 -599.2348)" gradientUnits="userSpaceOnUse">
			<stop  offset="0" style="stop-color:#8C2A1C"/>
			<stop  offset="1" style="stop-color:#270E11"/>
		</radialGradient>
		<path fill="url(#SVGID_16_)" d="M61.155,125.422c-9.666,1.463-16.046,11.051-16.594,18.115
			c-1.107,10.063,8.557,17.707,19.148,21.119c-10.353,3.482-29.347,4.598-32.934-14.939
			C27.373,131.211,44.095,123.611,61.155,125.422z"/>
		<g>
			
				<linearGradient id="SVGID_17_" gradientUnits="userSpaceOnUse" x1="-301.5449" y1="769.4829" x2="-306.3667" y2="783.9511" gradientTransform="matrix(-0.9962 0.0877 0.0877 0.9962 -290.3886 -610.8174)">
				<stop  offset="0" style="stop-color:#FFF3D3"/>
				<stop  offset="1" style="stop-color:#FFFFFF"/>
			</linearGradient>
			<path fill="url(#SVGID_17_)" d="M74.41,127.807c4.603,0.5,8.219-0.505,13.4-1.738c2.837,9.622,3.564,19.459,1.713,28.834
				c-4.44,0.246-6.979,0.781-11.349,2.96C78.422,151.262,78.034,138.994,74.41,127.807z"/>
			
				<linearGradient id="SVGID_18_" gradientUnits="userSpaceOnUse" x1="-439.3018" y1="754.9849" x2="-445.6053" y2="798.2072" gradientTransform="matrix(-0.9962 0.0877 0.0877 0.9962 -290.3886 -610.8174)">
				<stop  offset="0" style="stop-color:#FFF3D3"/>
				<stop  offset="1" style="stop-color:#FFFFFF"/>
			</linearGradient>
			<path fill="url(#SVGID_18_)" d="M230.503,115.121c-4.836,6.394-7.682,12.552-7.367,16.087c0.357,4.036,0.818,13.15,1.758,16.118
				c0.766,2.412,5.344,7.41,8.284,11.084c-3.324,1.605-6.701,3.125-10.003,4.691c-3.491-2.905-8.979-7.707-10.344-10.307
				c-2.035-3.891-8.771-22.617-6.363-29.949c1.5-4.565,7.232-10.29,12.238-14.039c2.129,1.315,4.205,2.502,6.297,3.451
				C226.893,113.111,228.72,114.077,230.503,115.121z"/>
			
				<linearGradient id="SVGID_19_" gradientUnits="userSpaceOnUse" x1="-366.502" y1="755.0493" x2="-375.0551" y2="784.3109" gradientTransform="matrix(-0.9962 0.0877 0.0877 0.9962 -290.3886 -610.8174)">
				<stop  offset="0" style="stop-color:#FFF3D3"/>
				<stop  offset="1" style="stop-color:#FFFFFF"/>
			</linearGradient>
			<path fill="url(#SVGID_19_)" d="M142.268,144.43c3.122-8.636-0.798-28.488-8.644-42.686c5.054-1.805,10.79-3.816,17.292-4.886
				c1.332,3.301,3.771,8.443,7.683,13.591c6.519,8.58,14.055,13.338,14.866,18.691c0.81,5.351-6.178,10.714-13.51,19.831
				c-4.984,6.202-7.896,16.282-8.809,23.561c-3.949-0.581-7.857-1.885-11.636-3.094C139.527,162.274,139.952,150.832,142.268,144.43
				z"/>
		</g>
		
			<radialGradient id="SVGID_20_" cx="-419.9492" cy="784.4272" r="22.2742" gradientTransform="matrix(-0.9973 0.0878 0.0878 0.9973 -301.4687 -599.2348)" gradientUnits="userSpaceOnUse">
			<stop  offset="0" style="stop-color:#FAA71C"/>
			<stop  offset="1" style="stop-color:#EA5124"/>
		</radialGradient>
		<path fill="url(#SVGID_20_)" d="M199.916,136.98c-4.43-11.812-11.213-23.417-25.965-17.714
			c-14.753,5.705-10.203,18.865-5.943,24.93c2.746,3.907,7.4,5.878,11.88,7.017c1.208,0.308,14.114,1.918,14.132,2.192
			C193.66,147.425,195.953,141.346,199.916,136.98z"/>
		
			<radialGradient id="SVGID_21_" cx="-415.6089" cy="773.9653" r="19.2478" gradientTransform="matrix(-0.9973 0.0878 0.0878 0.9973 -301.4687 -599.2348)" gradientUnits="userSpaceOnUse">
			<stop  offset="0" style="stop-color:#8C2A1C"/>
			<stop  offset="1" style="stop-color:#270E11"/>
		</radialGradient>
		<path fill="url(#SVGID_21_)" d="M173.951,119.266c11.598-4.484,18.266,1.73,22.744,10.333c-3.388-2.278-7.477-3.695-11.216-4.108
			c-5.497-0.873-10.644,3.869-11.632,8.023c-2.532,7.38,0.371,12.881,4.928,17.114c-4.611-1.611-8.93-3.817-10.768-6.434
			C163.748,138.131,159.198,124.971,173.951,119.266z"/>
		<g>
			
				<radialGradient id="SVGID_22_" cx="1020.8208" cy="806.6577" r="9.0286" gradientTransform="matrix(1.0069 -0.0747 0.0747 1.0069 -851.9302 -600.8343)" gradientUnits="userSpaceOnUse">
				<stop  offset="0" style="stop-color:#8C2A1C"/>
				<stop  offset="1" style="stop-color:#270E11"/>
			</radialGradient>
			<path fill="url(#SVGID_22_)" d="M240.528,127.869c0.29,3.884-2.63,7.268-6.514,7.558c-3.888,0.287-7.269-2.627-7.558-6.516
				c-0.289-3.889,2.627-7.27,6.517-7.554C236.857,121.063,240.24,123.979,240.528,127.869z"/>
			
				<radialGradient id="SVGID_23_" cx="1016.1792" cy="803.4946" r="9.5944" gradientTransform="matrix(1.0069 -0.0747 0.0747 1.0069 -851.9302 -600.8343)" gradientUnits="userSpaceOnUse">
				<stop  offset="0" style="stop-color:#DAEFEB"/>
				<stop  offset="1" style="stop-color:#FFFFFF"/>
			</radialGradient>
			<path fill="url(#SVGID_23_)" d="M239.207,127.967c0.235,3.158-2.131,5.902-5.289,6.139c-3.158,0.235-5.905-2.136-6.143-5.294
				c-0.236-3.153,2.139-5.904,5.291-6.14C236.227,122.44,238.975,124.813,239.207,127.967z"/>
			
				<linearGradient id="SVGID_24_" gradientUnits="userSpaceOnUse" x1="1015.1353" y1="800.312" x2="1022.938" y2="800.312" gradientTransform="matrix(1.0069 -0.0747 0.0747 1.0069 -851.9302 -600.8343)">
				<stop  offset="0" style="stop-color:#742319"/>
				<stop  offset="1" style="stop-color:#BF8E50"/>
			</linearGradient>
			<path fill="url(#SVGID_24_)" d="M237.85,128.586c0.16,2.172-1.472,4.061-3.64,4.219c-2.172,0.162-4.058-1.463-4.217-3.636
				c-0.158-2.167,1.465-4.058,3.635-4.218C235.798,124.789,237.688,126.421,237.85,128.586z"/>
			<path opacity="0.58" enable-background="new    " d="M232.798,126.902c1.195-0.774,2.793-0.427,3.563,0.771
				c0.769,1.197,0.425,2.798-0.776,3.565c-1.192,0.776-2.791,0.429-3.561-0.773C231.251,129.266,231.6,127.671,232.798,126.902z"/>
			<path fill="#FFFFFF" d="M236.025,127.909c0.043,0.494-0.329,0.928-0.818,0.974c-0.5,0.037-0.929-0.33-0.972-0.821
				c-0.04-0.497,0.33-0.931,0.823-0.972C235.552,127.047,235.983,127.418,236.025,127.909z"/>
		</g>
		
			<linearGradient id="SVGID_25_" gradientUnits="userSpaceOnUse" x1="-466.5127" y1="801.562" x2="-474.2805" y2="795.2878" gradientTransform="matrix(-0.9962 0.0877 0.0877 0.9962 -290.3886 -610.8174)">
			<stop  offset="0" style="stop-color:#363639"/>
			<stop  offset="1" style="stop-color:#CE3A27"/>
		</linearGradient>
		<path fill="url(#SVGID_25_)" d="M254.246,139.396c0.076,0.986,0.61,1.473,0.877,2.147c-7.271,3.802-12.584,2.419-12.584,2.419
			c6.008-0.963,9.606-2.355,11.766-4.933C254.267,139.19,254.24,139.325,254.246,139.396z"/>
		
			<radialGradient id="SVGID_26_" cx="-458.7573" cy="780.7993" r="10.7944" gradientTransform="matrix(-0.9973 0.0878 0.0878 0.9973 -301.4687 -599.2348)" gradientUnits="userSpaceOnUse">
			<stop  offset="0" style="stop-color:#F6A4BD"/>
			<stop  offset="1" style="stop-color:#FFFFFF;stop-opacity:0"/>
		</radialGradient>
		<circle fill="url(#SVGID_26_)" cx="224.603" cy="139.179" r="10.806"/>
		
			<linearGradient id="SVGID_27_" gradientUnits="userSpaceOnUse" x1="-416.7612" y1="815.936" x2="-409.6064" y2="790.352" gradientTransform="matrix(-0.9962 0.0877 0.0877 0.9962 -290.3886 -610.8174)">
			<stop  offset="0" style="stop-color:#F2EA30"/>
			<stop  offset="1" style="stop-color:#010101"/>
		</linearGradient>
		<path fill="url(#SVGID_27_)" d="M176.476,149.816c-0.422-3.148-0.523-5.564,0.9-8.174c4.185-6.289,16.852-10.224,22.412-4.103
			c-1.188,1.466-2.427,2.952-3.318,4.616c-0.581,1.075-0.619,2.823-1.484,3.659c-1.679,1.616-4.927,0.044-6.889-0.078
			c0.91,0.225,1.607,0.758,2.447,1.066c0.813,0.305,4.162,1.213,3.646,2.752c-0.455,1.344-4.86,0.131-5.948,0.09
			c1.107,0.059,3.055,0.511,3.805,1.393c1.463,1.713-0.26,2.164-1.879,1.979C185.525,152.492,180.886,151.462,176.476,149.816z"/>
	</g>
</g>
</svg>
