<?xml version="1.0" encoding="utf-8"?>
<!-- Generator: Adobe Illustrator 16.0.0, SVG Export Plug-In . SVG Version: 6.00 Build 0)  -->
<!DOCTYPE svg PUBLIC "-//W3C//DTD SVG 1.1//EN" "http://www.w3.org/Graphics/SVG/1.1/DTD/svg11.dtd">
<svg version="1.1" id="Layer_1" xmlns="http://www.w3.org/2000/svg" xmlns:xlink="http://www.w3.org/1999/xlink" x="0px" y="0px"
	 width="612px" height="792px" viewBox="0 0 612 792" enable-background="new 0 0 612 792" xml:space="preserve">
<path fill-rule="evenodd" clip-rule="evenodd" fill="#BBB8B8" d="M53.914,745.105c-5.055-6.556-7.042-13.773-7.036-22.231
	c0.175-215.457,0.141-430.915,0.147-646.372c0-2.166,0.061-4.331,0.093-6.496c1.261-2.977,1.338-6.518,3.961-8.834
	c1.314-1.161,3.028-2.838,3.631,0.674c-1.148,5.763-1.104,11.585-1.104,17.417c0.017,156.057,0.011,312.113,0.016,468.169
	c0,1.833,0.016,3.664-0.135,5.492c0.289,15.474,0.121,30.949,0.114,46.424c-0.019,42.602,0.133,85.203-0.056,127.793
	c-1.319,9.348,3.049,16.279,9.538,22.295c1.541,1.429,3.718,2.412,3.355,5.086c-2.191,1.919-3.61-0.207-4.916-1.223
	C58.569,751.002,56.182,748.089,53.914,745.105z"/>
<path fill-rule="evenodd" clip-rule="evenodd" fill="#C9C7C7" d="M54.263,60.024c-2.871,0.944-3.524,3.667-4.712,5.938
	c-0.732,1.4-0.639,3.283-2.433,4.043c-0.822-7.53,2.462-13.43,7.178-18.926c11.582-13.498,27.458-18.795,43.844-22.867
	c19.572-4.864,39.535-7.663,59.521-10.226c17.708-2.271,35.434-4.187,53.285-5.148c11.737-0.632,23.47-1.348,35.215-1.94
	c31.438-1.586,62.883-0.505,94.32-0.913c13.465-0.175,26.909,0.74,40.336,1.256c20.631,0.791,41.276,2.502,61.784,4.934
	c28.355,3.363,56.771,6.868,84.267,15.051c13.403,3.989,25.604,10.447,34.506,21.7c3.873,4.895,6.426,10.5,5.51,17.078
	c-2.5,0.247-2.796-1.849-3.473-3.401c-1.139-2.612-2.722-4.815-5.121-6.403c-7.487-11.304-18.671-17.24-31.061-21.409
	c-21.277-7.159-43.405-10.18-65.503-13.27c-11.865-1.658-23.723-3.413-35.691-4.272c-14.098-1.014-28.188-2.085-42.296-2.986
	c-36.925-2.358-73.873-2.084-110.807-1.636c-24.089,0.292-48.176,1.59-72.231,3.542c-28.743,2.332-57.237,6.221-85.59,11.313
	c-11.495,2.065-22.768,5-33.646,9.316c-9.418,3.736-18.053,8.581-23.984,17.2C56.719,59.104,55.808,60.101,54.263,60.024z"/>
<path fill-rule="evenodd" clip-rule="evenodd" fill="#BBB8B8" d="M565.024,736.065c-0.736,3.51-3.112,6.124-4.938,9.039
	c-2.216,2.921-4.554,5.767-7.42,8.042c-1.361,1.082-2.76,3.183-5.067,1.461c-0.481-2.697,1.698-3.694,3.244-5.106
	c6.536-5.973,10.831-12.924,9.644-22.258c-0.121-58.094-0.223-116.175,0.025-174.257c-0.266-3.327-0.133-6.66-0.133-9.989
	c-0.007-155.232-0.012-310.465,0.029-465.697c0.001-3.427-0.798-7.035,1.372-10.201c3.664-0.021,3.163,3.262,3.95,5.304
	c0.706,1.831,0.26,3.958,0.26,5.955c0.007,216.113,0.007,432.226,0.007,648.339C565.997,729.854,566.099,733.021,565.024,736.065z"
	/>
<path fill-rule="evenodd" clip-rule="evenodd" fill="#DDDBDB" d="M547.824,754.798c5.465-1.489,7.694-7.069,12.261-9.694
	c-2.044,6.607-7.629,9.901-12.914,13.224c-12.411,7.803-26.416,11.444-40.522,14.646c-15.171,3.442-30.563,5.839-45.967,7.707
	c-13.45,1.632-26.886,3.541-40.448,4.472c-16.448,1.128-32.89,2.159-49.36,2.949c-37.534,1.801-75.08,0.847-112.613,0.726
	c-19.539-0.063-39.104-1.443-58.598-2.981c-13.661-1.077-27.277-2.945-40.895-4.652c-20.049-2.514-40.007-5.406-59.618-10.244
	c-13.236-3.265-26.247-7.372-37.219-16.006c-3.383-2.661-6.937-5.264-8.015-9.838c4.568,2.624,6.799,8.204,12.262,9.698
	c1.025-0.25,2.011-0.043,2.903,0.428c19.365,10.221,40.62,13.651,61.837,17.175c20.547,3.412,41.208,6.036,61.955,7.792
	c12.759,1.079,25.552,1.84,38.358,2.448c21.621,1.026,43.254,1.363,64.882,1.793c25.112,0.499,50.249-0.145,75.325-1.124
	c46.289-1.809,92.36-6.214,137.806-15.771c11.656-2.451,22.73-6.477,33.449-11.584C544.306,755.19,545.827,753.912,547.824,754.798z
	"/>
<path fill-rule="evenodd" clip-rule="evenodd" fill="#BBB9B8" d="M565.024,736.065c-0.009-219.327-0.017-438.653-0.025-657.979
	c0-3.951,0.257-7.974-2.924-11.087c-2.797-1.647-3.48-4.004-2.342-6.973c2.877,0.938,3.526,3.664,4.716,5.936
	c0.733,1.399,0.638,3.284,2.435,4.042c0.032,3.163,0.096,6.327,0.096,9.49c0.004,215.684,0.003,431.367,0.009,647.051
	C566.988,729.861,567.191,733.203,565.024,736.065z"/>
<path fill-rule="evenodd" clip-rule="evenodd" fill="#FEFEFE" d="M559.733,60.026c0.78,2.324,1.561,4.648,2.341,6.973
	c-0.046,3.662-0.133,7.325-0.134,10.987c-0.007,157.038-0.006,314.075-0.005,471.113c0,1.332,0.031,2.664,0.048,3.996
	c-2.115,1.78-4.689,1.496-7.161,1.511c-8.826,0.054-17.653,0.021-26.48,0.021c-155.389,0-310.777,0.006-466.165-0.035
	c-3.421-0.001-7.046,0.822-10.16-1.497c0.016-81.993,0.043-163.986,0.046-245.979c0.003-78.994-0.004-157.987-0.083-236.981
	c-0.003-3.623,1.1-6.837,2.281-10.11c10.888-17.358,29.017-22.287,47.07-26.948c19.083-4.927,38.636-7.478,58.155-10.025
	c23.989-3.132,48.084-4.849,72.247-6.271c39.414-2.319,78.826-1.66,118.242-1.579c15.424,0.031,30.893,0.696,46.258,2.025
	c20.925,1.811,41.87,3.38,62.695,6.505c18.001,2.701,36.044,5.058,53.747,9.323c11.622,2.802,22.995,6.388,33.271,12.892
	C551.717,49.599,555.981,54.508,559.733,60.026z"/>
<path fill-rule="evenodd" clip-rule="evenodd" fill="#030204" d="M52.017,553.096c169.989,0,339.978,0,509.966,0
	c-0.013,58.611-0.025,117.224-0.039,175.836c-1.183,9.97-7.261,16.419-15.38,21.408c-7.999,4.914-16.529,8.586-25.565,11.135
	c-23.49,6.627-47.661,9.438-71.729,12.797c-22.104,3.084-44.36,4.652-66.63,5.737c-15.774,0.769-31.563,1.624-47.381,1.407
	c-7.382-0.008-14.76-0.097-22.137,0.069c-4.047,0.104-8.095,0.07-12.142,0.014c-7.379-0.226-14.762-0.054-22.137-0.081
	c-31.137-0.293-62.232-1.621-93.215-4.854c-28.662-2.992-57.245-6.566-85.358-13.163c-11.597-2.722-22.655-6.75-32.829-13.047
	c-8.106-5.018-14.204-11.447-15.386-21.423C52.042,670.318,52.03,611.707,52.017,553.096z"/>
<path fill-rule="evenodd" clip-rule="evenodd" fill="#8C8989" d="M52.055,728.931c5.486,17.028,19.642,23.791,34.844,29.049
	c18.557,6.419,37.951,9.039,57.257,12.045c23.405,3.644,46.958,5.893,70.555,7.696c10.04,0.767,20.122,1.017,30.189,1.396
	c11.068,0.419,22.14,0.718,33.211,1.068c7.601,0.535,15.202,0.569,22.801-0.026c4.061,0,8.121-0.001,12.181-0.001
	c7.601,0.599,15.201,0.56,22.803,0.029c19.976-0.752,39.971-1.146,59.919-2.347c23.951-1.443,47.825-3.826,71.568-7.499
	c18.006-2.785,36.074-5.209,53.587-10.404c12.292-3.647,24.17-8.126,33.452-17.711c3.755-3.878,5.367-8.67,7.521-13.295
	c0.587,9.303-4.053,16.104-10.661,21.859c-1.382,1.203-3.03,2.036-3.458,4.008c-18.096,10.64-38.269,14.672-58.567,18.063
	c-15.821,2.644-31.713,4.947-47.638,6.857c-12.662,1.52-25.416,2.3-38.141,3.259c-20.893,1.574-41.825,1.902-62.771,2.305
	c-11.119,0.213-22.182,1.05-33.304-0.109c-3.068-0.32-6.258,0.772-9.386,0.732c-19.129-0.243-38.279-0.168-57.381-1.074
	c-25.157-1.193-50.33-2.712-75.314-5.999c-23.119-3.042-46.289-5.986-68.929-11.878c-10.589-2.755-21.003-5.97-30.219-12.151
	c-2.452-4.573-7.525-6.715-10.108-11.348C53.49,738.83,51.624,734.268,52.055,728.931z"/>
<path fill-rule="evenodd" clip-rule="evenodd" fill="#136AAF" d="M176.202,181.801c-1.963,8.285-5.179,15.899-7.13,23.927
	c-9.214,37.919-3.858,74.271,13.87,108.453c27.985,53.96,72.042,88.784,131.107,102.936c40.051,9.596,79.688,6.836,117.146-12.199
	c13.946-7.087,26.085-16.601,36.289-28.516c0.959-1.119,1.989-2.178,3.052-3.336c0.845,1.697-0.352,2.74-0.909,3.819
	c-24.689,47.714-63.326,76.437-116.477,85.226c-107.23,17.733-194.158-58.96-214.642-140.944
	c-9.53-38.143-7.167-75.026,14.568-108.933C159.93,201.541,168.447,191.915,176.202,181.801z"/>
<path fill-rule="evenodd" clip-rule="evenodd" fill="#136AAF" d="M265.163,150.94c-3.558,9.952-6.803,19.792-8.203,30.207
	c-3.68,27.395,2.504,52.753,16.954,75.865c24.774,39.631,60.6,63.345,107.112,68.499c37.927,4.203,71.143-6.719,96.261-37.155
	c0.39-0.473,0.902-0.843,1.82-1.686c-0.451,4.528-2.596,7.765-4.399,11.007c-18.842,33.877-47.825,52.659-86.102,57.433
	c-16.652,2.077-33.366,1.804-49.687-1.767c-17.549-3.839-33.468-11.937-47.986-22.539c-27.909-20.383-47.129-46.827-54.352-80.958
	c-6.253-29.549-1.547-57.218,16.604-82.011C257.264,162.267,261.175,156.575,265.163,150.94z"/>
<path fill-rule="evenodd" clip-rule="evenodd" fill="#136AAF" d="M338.291,133.424c-19.174,45.876,19.278,99.385,68.532,107.567
	c14.513,2.411,28.738,2.864,42.633-2.956c6.985-2.926,12.81-7.438,18.243-12.677c-4.553,9.59-11.131,17.447-19.64,23.712
	c-16.007,11.782-34.289,13.877-53.234,11.722c-34.402-3.913-65.29-31.6-73.14-65.355c-4.443-19.108-1.2-36.968,10.17-53.153
	C333.953,139.297,336.143,136.375,338.291,133.424z"/>
<path fill-rule="evenodd" clip-rule="evenodd" fill="#FFFFFF" d="M257.99,669.444c1.695,1.867,5.866-1.243,5.764,3.015
	c-0.164,6.853-2.511,9.647-7.456,9.644c-9.485-0.009-18.974,0.118-28.454-0.104c-12.519-0.293-19.218-7.236-19.301-19.743
	c-0.056-8.453,2.06-16.414,6.202-23.75c7.215-12.778,21.343-18.188,35.494-13.78c10.254,3.194,16.178,13.132,14.262,23.664
	C263.167,655.729,260.268,662.58,257.99,669.444z"/>
<path fill-rule="evenodd" clip-rule="evenodd" fill="#FEFEFE" d="M342.209,664.107c-3.5,0-7.001-0.069-10.498,0.027
	c-1.828,0.052-4.344-0.848-4.668,2.224c-0.304,2.876,1.125,4.876,3.899,5.545c1.921,0.464,3.957,0.551,5.947,0.599
	c3.664,0.09,7.332,0.025,10.998,0.026c7.296,0,7.584,0.481,5.109,7.447c-0.451,1.269-0.924,2.149-2.309,2.093
	c-9.125-0.368-18.346,1.172-27.37-1.008c-6.761-1.633-9.473-5.273-9.398-12.108c0.077-7.063,1.68-13.841,4.789-20.16
	c5.51-11.202,22.246-16.399,33.182-10.483c5.392,2.916,6.656,8.04,6.924,13.476c0.562,11.43-0.377,12.322-11.605,12.322
	C345.542,664.106,343.876,664.107,342.209,664.107z"/>
<path fill-rule="evenodd" clip-rule="evenodd" fill="#FEFEFE" d="M291.265,682.068c-3.329,0-6.661,0.092-9.986-0.019
	c-7.92-0.265-12.028-4.157-12.076-12.091c-0.066-10.863,3.274-21.265,4.925-31.899c0.408-2.627,2.761-1.865,4.472-1.9
	c8.71-0.179,8.639-0.175,6.837,8.169c-1.364,6.318-2.672,12.657-3.711,19.035c-0.868,5.325,0.394,6.636,5.638,6.776
	c7.82,0.21,7.849,0.217,9.495-7.443c1.496-6.961,3.137-13.902,4.298-20.921c0.722-4.362,2.464-6.078,7.118-5.752
	c6.634,0.464,6.576,0.098,5.173,6.541c-2.538,11.654-5.131,23.302-7.342,35.02c-0.646,3.427-1.702,4.963-5.358,4.589
	c-3.13-0.319-6.319-0.065-9.482-0.065C291.265,682.094,291.265,682.081,291.265,682.068z"/>
<path fill-rule="evenodd" clip-rule="evenodd" fill="#FFFFFF" d="M408.324,656.681c5.424-7.913,11.023-15.714,16.181-23.797
	c1.945-3.049,3.984-4.399,7.592-4.06c3.427,0.322,6.907,0.069,11.31,0.069c-7.621,10.11-14.81,19.559-21.896,29.083
	c-5.008,6.73-11.18,12.847-12.147,21.829c-0.204,1.893-1.265,2.497-3.026,2.311c-0.658-0.07-1.332,0.009-1.997-0.013
	c-2.977-0.098-7.037,0.928-8.646-0.609c-1.894-1.809,0.871-5.363,1.342-8.217c0.945-5.727-2.052-10.638-3.271-15.892
	c-1.728-7.449-1.976-7.005,5.507-7.516C404.54,649.51,407.465,650.854,408.324,656.681z"/>
<path fill-rule="evenodd" clip-rule="evenodd" fill="#FEFEFE" d="M384.009,636.464c4.472,0,8.982-0.371,13.404,0.099
	c4.953,0.526,7.547,4.104,7.576,8.866c0.016,2.524-1.702,2.01-3.065,2.021c-6.313,0.049-12.63,0.118-18.94-0.022
	c-2.609-0.059-3.76,0.706-4.274,3.455c-1.703,9.101-4.035,18.091-5.512,27.224c-0.593,3.666-2.149,4.087-5.201,4.056
	c-8.588-0.087-8.507,0.032-6.635-8.344c2.521-11.28,5.063-22.562,7.238-33.91c0.624-3.253,1.993-3.999,4.943-3.815
	c3.476,0.215,6.975,0.05,10.464,0.05C384.008,636.249,384.008,636.356,384.009,636.464z"/>
<path fill-rule="evenodd" clip-rule="evenodd" fill="#FEFEFE" d="M179.058,701.107c-8.401-0.04-8.281-0.013-6.452-8.208
	c0.708-3.174,0.85-5.355,5.48-4.447c4.085,0.802,5.051-3.612,5.814-6.755c2.109-8.678,4.335-17.358,5.746-26.161
	c0.754-4.709,2.585-5.861,7.056-5.643c7.772,0.379,7.807,0.108,6.137,7.591c-2.305,10.328-4.305,20.741-7.069,30.945
	C193.071,698.399,188.936,701.153,179.058,701.107z"/>
<path fill-rule="evenodd" clip-rule="evenodd" fill="#F9F9F9" d="M198.021,647.368c-1.743-1.489-5.469,1.976-5.854-2.144
	c-0.533-5.693,2.26-9.062,6.611-9.089c0.333-0.002,0.665,0,0.997,0c8.008-0.007,8.896,1.417,5.711,9.01
	C203.853,649.04,200.464,646.083,198.021,647.368z"/>
<path fill-rule="evenodd" clip-rule="evenodd" fill="#ABA8A9" d="M300.913,780.159c-7.599,1.414-15.199,1.315-22.801,0.026
	C285.712,780.177,293.313,780.168,300.913,780.159z"/>
<path fill-rule="evenodd" clip-rule="evenodd" fill="#ABA8A9" d="M335.896,780.188c-7.602,1.281-15.203,1.392-22.803-0.029
	C320.695,780.168,328.296,780.178,335.896,780.188z"/>
<path fill-rule="evenodd" clip-rule="evenodd" fill="#030304" d="M237.241,669.89c-2.251,0-4.092,0.114-5.916-0.021
	c-4.931-0.367-7.947-3.277-8.35-8.18c-0.561-6.817,0.977-13.238,4.424-19.102c3.388-5.764,10.624-8.356,16.965-6.388
	c4.522,1.404,7.499,6.315,6.324,11.596c-1.473,6.622-3.365,13.163-5.359,19.653C243.847,672.277,239.561,668.682,237.241,669.89z"/>
<path fill-rule="evenodd" clip-rule="evenodd" fill="#121213" d="M337.792,655.906c-1.331,0-2.667,0.071-3.993-0.018
	c-1.574-0.106-3.848,0.771-4.406-1.209c-0.484-1.724,0.852-3.527,2.304-4.677c3.553-2.812,7.683-3.214,11.785-1.756
	c2.536,0.901,3.885,3.262,3.352,6.038c-0.529,2.751-2.949,1.355-4.553,1.578C340.811,656.067,339.29,655.906,337.792,655.906z"/>
</svg>
