<?xml version="1.0" encoding="UTF-8"?>
<!DOCTYPE svg PUBLIC "-//W3C//DTD SVG 1.1//EN" "http://www.w3.org/Graphics/SVG/1.1/DTD/svg11.dtd">
<svg enable-background="new 0 0 960 841.89" viewBox="0 0 960 841.89" xml:space="preserve" xmlns="http://www.w3.org/2000/svg">
<path d="m385,524.89c10-29 24-6 15-64s-4-68 3-87 8-17 7-3-11,36-10,42 1,35 5,47 3,30 3,40-12,6-14,23-9,2-9,2z" fill="#8dc63f" stroke="#fff" stroke-width="3"></path>
<path d="m383,519.89c-3-53-11-40-3-77s3-50 0-71-3-42-3-48 4,12 7,29 7,64 7,73-3,34-3,42 5,33 5,47 1,27 1,27l-11-22z" fill="#8dc63f" stroke="#fff" stroke-width="3"></path>
<path d="m383,519.89c0-27 5-45-3-77s-14-27-14-50 5,45 7,53 7,16 4,31-7,36-7,36l-8,16c0,0 15-1 18-1s3-8 3-8z" fill="#8dc63f" stroke="#fff" stroke-width="3"></path>
<path d="m587,500.89c-3-53-11-40-3-77s3-50 0-71-3-42-3-48 4,12 7,29 7,64 7,73-3,34-3,42 5,33 5,47 1,27 1,27l-11-22z" fill="#8dc63f" stroke="#fff" stroke-width="3"></path>
<path d="m587,500.89c0-27 5-45-3-77s-14-27-14-50 5,45 7,53 7,16 4,31-7,36-7,36l-8,16c0,0 15-1 18-1s3-8 3-8z" fill="#8dc63f" stroke="#fff" stroke-width="3"></path>
<path d="m560,451.89c0-13-5-66-5-66l5-30 9,118-9-22z" fill="#8dc63f" stroke="#fff" stroke-width="3"></path>
<path d="m580,503.89c-3-15-11-31-11-35s-20-50-20-50l-3-35-3,32c0,0 2,28 9,40s6,39 6,39l-8,7-2,4 32-2z" fill="#8dc63f" stroke="#fff" stroke-width="3"></path>
</svg>
