<svg width="18" height="18" viewBox="0 0 18 18" fill="none" xmlns="http://www.w3.org/2000/svg">
<path d="M18 16.8447L13.4288 12.2734C15.8109 9.31279 15.6297 4.95764 12.8829 2.21037C11.457 0.784936 9.56214 0 7.54629 0C5.53085 0 3.63575 0.784936 2.21054 2.21016C0.784723 3.63579 0 5.53071 0 7.54638C0 9.56204 0.784927 11.4574 2.21054 12.8826C3.63596 14.308 5.53085 15.093 7.54629 15.093C9.28694 15.093 10.9369 14.5064 12.2732 13.4287L16.8445 18L18 16.8447ZM7.54629 13.4587C5.96724 13.4587 4.48258 12.8436 3.36607 11.7268C2.24916 10.6101 1.63421 9.12565 1.63421 7.54638C1.63421 5.96711 2.24916 4.48263 3.36607 3.36591C4.48258 2.24918 5.96724 1.63423 7.54629 1.63423C9.12554 1.63423 10.6104 2.24918 11.7273 3.36591C14.0321 5.67107 14.0321 9.42189 11.7273 11.7268C10.6104 12.8438 9.12554 13.4587 7.54629 13.4587Z" fill="black"/>
</svg>
