<svg width="18" height="20" viewBox="0 0 18 20" fill="none" xmlns="http://www.w3.org/2000/svg">
<path d="M17.3833 19.9998H15.7253C15.7517 19.0597 15.5893 18.1239 15.2477 17.2477C14.9062 16.3714 14.3924 15.5726 13.7368 14.8983C13.0812 14.224 12.297 13.6881 11.4307 13.3221C10.5644 12.9561 9.63346 12.7676 8.69301 12.7676C7.75255 12.7676 6.82164 12.9561 5.95532 13.3221C5.08899 13.6881 4.30484 14.224 3.64922 14.8983C2.99361 15.5726 2.47983 16.3714 2.13828 17.2477C1.79672 18.1239 1.63432 19.0597 1.66068 19.9998H0.00276337C-0.0264828 18.8402 0.176669 17.6864 0.600247 16.6064C1.02382 15.5265 1.65926 14.5423 2.46912 13.7118C3.27898 12.8812 4.24687 12.2212 5.31578 11.7705C6.38469 11.3198 7.53298 11.0876 8.69301 11.0876C9.85304 11.0876 11.0013 11.3198 12.0702 11.7705C13.1391 12.2212 14.107 12.8812 14.9169 13.7118C15.7268 14.5423 16.3622 15.5265 16.7858 16.6064C17.2093 17.6864 17.4125 18.8402 17.3833 19.9998Z" fill="#027439"/>
<path d="M8.69592 10.1907C7.68816 10.1907 6.70303 9.89183 5.8651 9.33194C5.02718 8.77206 4.3741 7.97628 3.98845 7.04523C3.60279 6.11418 3.50189 5.08968 3.69849 4.10128C3.8951 3.11289 4.38038 2.20498 5.09298 1.49239C5.80557 0.779794 6.71347 0.294512 7.70187 0.0979078C8.69027 -0.0986966 9.71477 0.00220717 10.6458 0.387861C11.5769 0.773514 12.3726 1.42659 12.9325 2.26452C13.4924 3.10244 13.7912 4.08757 13.7912 5.09533C13.7898 6.44625 13.2525 7.74142 12.2972 8.69666C11.342 9.6519 10.0468 10.1892 8.69592 10.1907ZM8.69592 1.66344C8.01583 1.66345 7.35102 1.86519 6.78562 2.24314C6.22022 2.62109 5.77964 3.15827 5.51964 3.7867C5.25963 4.41512 5.19188 5.10656 5.32496 5.7735C5.45804 6.44044 5.78598 7.05292 6.26726 7.53343C6.74855 8.01394 7.36155 8.34089 8.02871 8.4729C8.69586 8.60491 9.38719 8.53604 10.0152 8.27503C10.6432 8.01401 11.1797 7.57257 11.5567 7.00656C11.9338 6.44055 12.1344 5.77542 12.1333 5.09533C12.1319 4.18463 11.7691 3.31173 11.1246 2.66829C10.4801 2.02484 9.60662 1.66344 8.69592 1.66344Z" fill="#027439"/>
</svg>
